<?xml-stylesheet type="text/css" href="/css/app.css" ?>
<svg xmlns="http://www.w3.org/2000/svg" width="100" height="100" class="encore-logo"><path d="m40.2 2.9c0 0-0.1 0-0.2 0-0.1 0-0.4 0-0.7 0.1-0.9 0.1-1.4 0.2-1.9 0.6-0.2 0.1-0.4 0.3-0.5 0.4-0.2 0.2-0.2 0.2-0.2 0.1-0.1-0.1-0.1-0.1-0.3-0.1-0.2 0-0.3 0-0.3-0.1 0 0 0-0.1 0-0.1-0.1 0-0.8 0.3-1.3 0.6-0.5 0.2-0.5 0.3-0.6 0.2 0-0.1 0-0.1 0-0.1 0.1 0 0.2 0 0.2 0 0.1 0 0.1 0 0.2-0.2 0-0.2 0-0.3-0.1-0.3 0 0-0.2 0.1-0.4 0.2-0.6 0.3-0.9 0.4-1 0.4-0.2 0-0.2 0-0.1 0.2 0 0.1 0 0.1-0.4 0.3-0.3 0.1-0.6 0.2-0.7 0.2-0.2 0-0.7 0.2-0.9 0.3-0.1 0-0.1 0.1-0.2 0.3-0.2 0.5-0.1 0.5 0.3 0.1 0.3-0.3 0.6-0.5 0.7-0.4 0 0-0.1 0.2-1 1-0.4 0.4-0.8 0.7-1 1-0.1 0.1-0.1 0.1 0-0.3 0-0.3 0-0.4 0-0.4 0 0 0 0 0 0.1 0 0.1-0.2 0.3-0.6 0.4-0.5 0.2-0.7 0.3-0.9 0.5-0.3 0.3-0.2 0.3 0.3 0 0.3-0.2 0.3-0.2 0.3-0.1-2.7 6-1.7-0.9-3.2 3.8 0 0.1 0 0.1 0 0.1 0 0 0.1 0 0.1-0.1 0 0 0 0 0 0.1 0 0.1-0.1 0.3-0.3 0.4-0.1 0.2-0.3 0.4-0.3 0.4 0 0 0 0-0.1-0.2-0.1-0.1-0.1-0.2-0.2-0.2-0.1 0-0.5 0.8-0.5 0.9 0 0-0.1 0.3-0.2 0.5-0.2 0.4-0.2 0.5-0.2 0.7 0 0.3 0 0.3-0.3 1-0.2 0.4-0.4 1-0.5 1.2 0.3 0.7-0.5 3-0.5 3.5-0.1 0.3-0.1 0.4 0 0.7 0.1 0.2 0.2 0.2 0.2 0 0-0.3 0.1-0.4 0.2-0.1 0.1 0.4 0.1 0.4-0.1 0.7-0.4 0.6-0.4 1-0.1 1.9 0.1 0.3 0.2 0.6 0.2 0.6 0 0.1 0 0.1 0 0.1-0.1 0-0.1 0-0.1 0.1 0 0 0.2 0.6 0.3 1.2 0.4 1.2 0.5 1.7 0.7 2.2 0.2 0.5 0.3 0.5 0.6 0.6 0.2 0 0.2 0 0.2-0.1 0-0.1 0-0.1 0.2 0.2 0.1 0.2 0.2 0.6 0.3 1.1l0 0.1-0.2-0.1c-0.3-0.1-0.4-0.2-0.4-0.1 0 0 0.1 0.2 0.1 0.3 0.1 0.2 0.3 0.6 0.6 1 1.2 2.8 2.5 2.6 4.1 4.1 0.7 0.7 1.3 1.1 1.7 1.2 0.1 0 0.1 0 0-0.3-0.1-0.1-0.1-0.2 0-0.2 0 0 0.3 0.1 0.6 0.3 0.6 0.3 0.8 0.3 0.7 0.2 0-0.1-0.6-0.5-1.4-0.9-0.4-0.2-0.8-0.4-0.9-0.5-0.1-0.1-0.2-0.1-0.2-0.1-1.4-0.8-1.9-1.5-3-3-0.1 0-0.1 0-0.2 0-0.1 0-0.1 0-0.2-0.1-0.1-0.2-0.1-0.4 0.1-0.6 0.1-0.1 0.1-0.1 0.1-0.1 0 0-0.2-0.2-0.4-0.4-0.2-0.2-0.5-0.5-0.5-0.6l-0.1-0.2 0.1 0c0.2-0.1 0.4 0 0.6 0.2 0.1 0.1 0.3 0.4 0.5 0.6 0.4 0.4 0.6 0.8 0.6 1 0 0.2 0.3 0.2 0.4 0 0-0.1 0.1-0.1 0.1-0.1 0.2 0.1 0.4 0.3 0.5 0.5 1.1 1.6 2.1 2.1 3.5 3.3 0.1 0.1 0.2 0.2 0.2 0.2 0.1 0 0-0.1-0.1-0.3-0.1-0.1-0.1-0.2 0-0.2 0 0 0.2 0.2 0.3 0.4 0.2 0.2 0.3 0.4 0.4 0.4 0.1 0 0.4 0.1 0.7 0.1 0.5 0 0.8 0.1 0.8 0.2 0.1 0.1 0.2 0 0.2-0.1 0-0.1-0.1-0.2-0.7-0.6-0.3-0.2-0.5-0.4-0.6-0.4l-0.1-0.1 0.1 0c0.3-0.1 0.4-0.1 0.9 0.4 0.3 0.3 0.4 0.4 0.6 0.4 0.3 0.1 0.6 0 0.6-0.2 0-0.1-0.1-0.2-0.4-0.3-0.3-0.1-0.3-0.1-0.2-0.1 0.1 0 0.2 0 0.2 0 0.2 0.1 0.3 0.1 0.1-0.2-0.1-0.2-0.1-0.2-0.7-0.5-0.4-0.2-0.5-0.2-0.4-0.3 0.1-0.1 0.1 0 0.5 0.2 0.2 0.1 0.4 0.2 0.4 0.2 0.1 0 0-0.1-0.1-0.3-0.1-0.2-0.3-0.3-0.7-0.4-0.4-0.1-0.5-0.2-0.5-0.4 0-0.1-0.1-0.2-0.6-0.4-1.8-1.1-4.2-2.4-4.7-4.5-0.9-3.7-1.4-2.4-1.7-3.8-0.3-1.3-0.5-2.6-0.4-4 0-1.4 0.1-2 0.6-3.3 0.8-2 2-3.9 3.3-5.3 1.2-2.4 5.8-4.7 8.8-4.4 2.7 0.3 2.8-0.1 3.6 0 2.8 0.4 6.5 0.6 7.5 3.2 0.8 2.1 1.8 1.6 2.2 2.2 2.7 3.6 3.5 7.2 2.8 10.9-0.1 0.5-0.1 0.6 0 0.5 0.8-4.5 0.7-1.6 0.2 0.6 0 0.1 0 0.1 0 0.1 0.9-2.8 0.8-6.2-0.2-8.9-0.2-0.6-0.8-2-1-2.5-0.1-0.2-0.2-0.4-0.1-0.4 0 0 0-0.1 0-0.1 0 0-0.1-0.1-0.2-0.2-0.1-0.1-0.1-0.2-0.2-0.2 0 0-0.1-0.1-0.2-0.2-0.1-0.2-0.1-0.2-0.1-0.3 0-0.1 0-0.2-0.2-0.5C52.3 10.8 51.8 10.2 51.4 9.8 51.1 9.4 51.1 9.4 51.1 9.2 51.1 9 51 9 50.8 8.7 50.8 8.7 50.8 8.6 50.8 8.6 50.8 8.5 50.8 8.3 50.6 8.1 50.5 8 50.4 8 50.3 8c-0.2 0-0.2 0.1 0 0.2 0.1 0.1 0.2 0.1 0.3 0.3 0.1 0.3 0.1 0.3 0 0.3-0.1 0-0.1 0-0.1 0 0 0-0.1 0-0.2-0.1C49.9 8.3 49.2 7.7 48.7 7.4 48.2 7.1 48.1 7 47.4 6.6L46.9 6.4 47 6.3 47.2 6.2l0.1 0.2c0.1 0.2 0.2 0.2 0.2 0l0-0.2 0.3 0.2C48.7 6.2 45.7 5.2 47.9 5.9 47.2 5.3 45.6 4.1 45.5 4.2 45.4 4.2 45.4 4.3 45.4 4.3 45.4 4.3 45.3 4.3 45.1 4.3 44.9 4.2 44.8 4.2 44.8 4.3c0 0.1 0.3 0.2 0.6 0.2 1 0.1 0.5 0.4-0.2 0.5-0.1 0-0.1 0-0.1 0 0 0 0 0.1 0 0.1 0 0.1 0 0.1 0.1 0.1 0.9 0.3-2.1 0.2-2.8 0-2.1-0.9-1.6 0-3.4-0.3 0-0.1-0.1 0-0.1 0 0 0.1-0.8 0.2-1 0.1-1.6 0.1-2 0.8-0.4-1 0-0.1 0-0.1 0.6-0.2 0.7-0.1 0.8-0.2 0.8-0.5l0-0.1 0.3 0c0.4 0 1.1-0.1 1.1-0.2 0 0 0 0 0 0zm3.7 0.3c0 0-0.1 0.1-0.1 0.1 0 0.2-0.2 0.2-0.5 0.2-0.3 0-0.4 0.1-0.4 0.3 0 0.2 0 0.2-0.1 0.1C42.8 4 42.8 4 42.7 4 42.6 4 42.5 3.9 42.5 3.8 42.3 3.6 42.2 3.5 41.9 3.5l-0.3 0-1.1 0.2c-0.2 0.3 0.7 0.3 1 0.3 0.3 0 0.9 0 1 0.1 0.1 0.1 0.3 0.1 1 0.2 0.2 1-0.9 0-1.5-0.1-1.5 1 2.2 0.6 2.6 0.4 0-0.1-0.1-0.2-0.4-0.4l-0.1-0.1 0.1-0.1C44.5 3.9 44.5 3.8 44.2 3.6 44 3.4 44 3.4 44 3.3c0-0.1 0-0.1-0.1-0.1zM39.9 3.4c-0.1 0-0.3 0-0.5 0.1-0.4 0-0.7 0.3-1 0.5-1.4 1-1.6 0.9-0.1 0.6 0.7-0.1 0.9-0.2 0.9-0.5 0-0.2 0.2-0.1 0.4-0.1 0.4 0 0.9-0.1 1-0.2 0 0-0.1 0-0.3 0-0.3 0-0.4 0-0.4 0-0.1-0.1 0-0.1 0.1-0.1 0.1 0 0.2 0 0.2-0.1 0 0 0-0.1-0.1-0.1zm0.4 0.7c-0.2 0-0.6 0-0.8 0.1 0.2 1 0.7 0 0.9-0.1 0 0 0 0-0.1 0zm-5.3 1.1c0.7 0 0.3 0.1 0 0.3-0.5 0.2-0.6 0.3-0.6 0.2 0 0 0.1-0.1 0.1-0.3 0.1-0.2 0.1-0.2 0.3-0.3 0.1 0 0.1 0 0.2 0zm-0.9 0.2c0 0 0.1 0.1 0.1 0.1 0 0.1 0.1 0.2 0.1 0.2 0 0-0.1 0.1-0.2 0.1l-0.3 0.1 0-0.1c0-0.1 0.2-0.4 0.3-0.4zm-0.8 0.9-0.1 0.1c-0.1 0-0.3 0.2-0.5 0.4-0.2 0.2-0.5 0.4-0.7 0.5-0.2 0.1-0.4 0.2-0.4 0.3L31.4 7.8 31.4 7.7C31.4 7.6 31.4 7.6 31.5 7.5 31.6 7.5 31.7 7.4 31.8 7.4 31.9 7.3 32 7.2 32.2 7 32.5 6.6 32.6 6.5 33 6.4ZM48.4 6.2c-0.2 0 0 1 0.3 1.2 0.3 0.2 1.6 0.7 1.6 0.6 0-0.1-1.7-1.7-1.9-1.7zM31.1 7.4c0 0 0 0-0.1 0.1-0.1 0.1-0.1 0.1 0 0.1 0 0 0 0.1-0.2 0.1-0.1 0.1-0.3 0.2-0.5 0.3-0.1 0.1-0.4 0.3-0.5 0.4-0.2 0.1-0.3 0.2-0.2 0.1 0-0.1 0.1-0.2 0.2-0.4 0.3-0.5 0.4-0.6 0.8-0.7 0.2-0.1 0.4-0.1 0.4-0.1 0 0 0 0 0 0zm9.1 1c-0.2 0-0.3 0-0.4 0-0.3 0.1-0.3 0.1-0.2 0.2 0.1 0.1 0.1 0.1-1.4 0.2-0.7-0.1-1.2 0.3-1.3 0.4 0.1 0 0.1 0 0.1 0.1 0 0-0.2 0.1-0.5 0.2-0.2 0.1-0.4 0.2-0.4 0.2 0 0.1 0.4 0 1.4-0.3 0.9-0.3 1.8-0.5 2-0.5 0.1 0 0.1 0 0.1 0.2 0 0.1 0 0.2 0 0.2 0 0 0 0 0 0 0 0 0-0.1 0.1-0.1 0.1-0.1 0.4-0.1 1 0 0.6 0.2 0.7 0.2 0.7 0 0-0.1 0-0.1 0.2 0 0.1 0.1 0.2 0.1 0.2 0.3l0 0.2 0.6 0c0.3 0 0.6 0 0.6 0 0 0 0 0.2-0.1 0.2-0.1 0.1-0.2 0.1-0.7 0-0.6-0.1-0.8-0.1-1-0.2-0.1-0.1-0.1-0.1-0.2 0-0.1 0-0.1 0.1-0.1 0.2 0 0.1 0 0.1-0.1 0.2-0.1 0-0.2 0-0.4 0-0.6-0.2-1.4-0.2-2.7 0-0.5 0.1-0.9 0.1-1.1 0.1-0.2 0-0.2 0.1 0 0.1 0.1 0 0.1 0 0.1 0.1 0 0-0.2 0-0.4 0-0.4 0-0.5 0-0.9 0.3-0.2 0.2-0.3 0.3-0.4 0.3-0.1 0-0.1 0.1-0.1 0.1 0 0.1 0.1 0.1 0.3 0 0.2 0 0.5 0 0.6-0.1 0.3-0.1 0.4-0.1 0.3 0.1-0.1 0.1-0.3 0.2-0.7 0.2-0.4 0-0.4 0-0.5 0.1-0.1 0.1-0.2 0.2-0.2 0.4 0 0.1 0.2 0.1 0.4 0 0.1-0.1 0.2-0.1 0.2 0 0 0-0.1 0.1-0.1 0.1-0.2 0-0.2 0.1 0 0.2 0.2 0.1 0.3 0.1 0.7-0.1 0.3-0.1 0.3-0.1 0.4-0.1 0.1 0.1 0 0.1-0.4 0.2-0.2 0-0.3 0.1-0.3 0.1 0 0.1 0.2 0.1 0.4 0.1 0.1 0 0.3-0.1 0.4-0.2 0.3-0.1 0.3-0.1 0.5-0.1 0.1 0 0.2 0 0.6-0.1 2-0.5 1.5-0.8 6 0.2 3.1 0.7 4 1.4 4.4 3 0.4 1.3 0.8 1 1.1 1.6 0.3 0.5 0.6 1.4 0.6 1.5 0 0 0 0.1 0.1 0.2 0.1 0.2 0.3 1.1 0.4 1.7 1 3.2 0.1 4.2-2.3 8.6-3.3 4-3.7 3.8-13.4 2.8-0.8-0.4-1.2-0.6-1.7-1.2-0.7-0.6-1.7-1.8-2-2.3-0.1-0.1-0.2-0.2-0.2-0.1 1.7 2.2 0.7 1.5-0.3 0-0.2-0.3-0.3-0.4-0.3-0.2 0 0 0.2 0.3 0.4 0.6 1.1 1.7 2.6 3.1 4.4 4 0.6 0.3 1.4 0.7 2 0.9 0.2 0.1 0.3 0.1 0.3 0.1 0 0 0.2 0.1 0.5 0.1 0.3 0 0.5 0 0.5 0.1 0 0 0 0.1 0.1 0.1 0.2 0.1 1.2 0.2 1.6 0.2 0.4 0 0.5 0 0.6 0.1 0.1 0.1 0.1 0.1 0.3 0.1 0.1 0 0.2 0.1 0.3 0.1 0 0 0.1 0.1 0.2 0.1 0.2 0 0.3 0 0.4-0.1 0.1-0.1 0-0.1-0.1-0.1-0.1 0-0.2 0-0.3 0-0.1 0-0.2-0.1-0.1-0.1 0.1 0 0.1-0.1 0-0.1 0 0 0.2 0 0.5 0 3-0.5 2.6-0.3 1.9 0 0.4 0.1 0.8-0.1 1.1 0-0.5 0.2-0.8 0.3 0.1 0.2 0.1 0 0.3-0.1 0.5-0.1 0.2 0 0.3 0 0.3-0.1 0-0.1 0.1-0.1 0.2 0.1 0.2 0.2 0.2 0.2 0.4 0.1 0.1-0.1 0.2-0.1 0.2-0.2 0.2-0.7 0.1-0.5 0.1-0.3 0.4-0.3-0.2-1.1-0.4-1.1-0.3 0.2-0.3 1.3-0.3 1.1-0.6-1.6-0.2 0.5 3.1-3.2 0.2-0.2 0.4-0.4 0.4-0.4 0 0 0.1 0 0.1-0.1 0-0.1 0.3-0.5 0.5-0.6 0.6-0.8 0.8-1.3 0.7 0.2 0 0.2 0 0.3-0.2 0.6-0.2 0.2-0.2 0.3-0.2 0.3 0 0 0-0.1 0-0.2 0-0.4 0.5-1.4 0.1-1 0 0.1-0.2 0.4-0.3 0.5-0.1 0.2-0.3 0.4-0.3 0.4 0 0.1 0 0.1 0 0 0-0.1-0.1-0.1-0.2 0.1-0.1 0.3-0.3 0.4-0.4 0.4-0.1 0-0.1 0-0.2 0.1-0.1 0.1-0.1 0.2 0.1 0.2 0.1 0 0.1 0 0.1 0.1 0 0.1 0 0.1 0 0.1 0.1 0 0.4-0.4 0.5-0.6 0.1-0.1 0.1-0.1 0.1-0.1 0 0.1 0 0.1 0.1 0.1 0.1 0.1 0.1 0.1-0.1 0.2-0.1 0.1-0.5 0.6-0.5 0.7 0 0.1 0.1 0 0.3-0.2 0.1-0.1 0.2-0.2 0.2-0.2 0 0 0 0.1 0 0.1-0.1 0-0.1 0.1 0 0.1 0.1 0 0.4-0.4 0.5-0.6 0.1-0.2 0.1-0.2 0.1-0.1 0 0.1 0 0.2 0.1 0.2 0.1 0 0.1 0.1 0 0.1-0.2 0.1-0.5 0.6-0.5 0.7 0 0.1 0.1 0 0.4-0.4 0.6-0.7 0.7-1 0.8-1.8 0-0.2 0-0.3 0.1-0.3 0.8-0.7 1.2-1.4 1.6-2.2 0.1-0.2 0.1-0.2 0-0.3-0.1 0-0.1-0.1 0.1-0.3 0.1-0.1 0.2-0.4 0.3-0.5 0.2-0.2 0.4-0.6 0.4-0.7-0.3-0.9-0.3 0.1-0.4 0.5 0.2-0.7-0.6-2.5 0.4-1.7 0.1 0 0.1 0 0-0.1-0.1-0.1-0.1-0.1 0.2-0.6 0.1-0.3 0.2-0.9 0.1-0.9 0 0-0.2 0.4-0.2 0.5 0 0 0 0 0 0-0.5-1.4-1-4.6-0.1-1.7 0.6 1.1 0.1-0.7-0.1-1-0.1-1.4-0.7-2.5-1.7-4.9-0.1-0.2-0.2-0.4-0.2-0.4 0 0 0 0.2 0 0.3 0 0.1 0 0.1 0 0 0-0.1-0.1-0.1-0.1-0.1 0 0-0.1-0.1-0.1-0.1-0.1-0.1-0.2-0.1-0.2-0.3 0-0.1-0.1-0.3-0.2-0.5-0.2-0.4-0.3-0.4-0.4-0.1-0.1 0.2-0.1 0.3-0.2 0.2-0.1-0.1-0.1-0.1-0.1-0.3 0-0.3 0.1-0.3 0.2-0.3 0.2 0 0.2 0 0-0.1-0.1 0-0.2-0.2-0.3-0.3-0.1-0.2-0.2-0.3-0.3-0.3-0.2-0.1-0.3 0-0.1 0.1 0.1 0.1 0.1 0.1-0.2 0-0.1-0.1-0.2-0.2-0.2-0.3 0-0.2-0.2-0.6-0.4-0.8-0.1 0-0.3-0.2-0.6-0.3-0.3-0.1-0.5-0.3-0.5-0.3 0-0.1-1.2-0.8-1.9-1.1C45.5 9.8 45.2 9.7 45.1 9.7c-0.2-0.1-0.3-0.1-0.4 0-0.1 0.1-0.1 0.1-0.1 0.2 0 0.1 0 0.1 0 0.1-0.1 0-0.9-0.5-0.9-0.5 0 0 0.1-0.1 0.2-0.1 0.1 0 0.2-0.1 0.2-0.1 0 0-1.5-0.5-2.1-0.6C41.4 8.5 40.7 8.4 40.3 8.5Zm10.2 0.3 0.1 0c0.1 0 0.2 0.1 0.2 0.2 0 0.1 0.1 0.1 0.1 0.1 0 0-0.1-0.1-0.2-0.2zM29.6 9.4c-2.1 2.5-3.2 3.5-3.8 7.5 0 0.2-0.1 0.5-0.1 0.6 0 0.1-0.1 0.2-0.2 0.2-0.1 0.1-0.1 0.1-0.1 0 0-0.9 0.1-3.9 0.6-4.5 0.1-0.2 0.2-0.2 0.2 0 0 0.1 0.1 0.1 0.1 0.2 0 0 0.1-0.1 0.2-0.3 2.3-3.5 1.1-3.4 3.1-3.5zm-3.4 7.3c0 0-0.2 0-0.2-0.1 1.2-3.3 1.1-2.4 0.2 0.1zm23.5-1c0 0 0.1 0.1 0.1 0.2 0.1 0.1 0.3 0.3 0.4 0.4 0.6 0.5 0.6 0.5 0.7 0.7 0.1 0.2 0.1 0.2 0 0.2-0.1 0.1-0.1 0.2 0.1 0.3 1.3 4.2 1.6 5.8 0.3 1.7-0.3-0.9-0.6-1.6-1-2.3-0.1-0.2-0.2-0.4-0.2-0.4 0 0 0-0.1 0-0.1 0 0-0.1-0.1-0.2-0.3-0.1-0.2-0.2-0.3-0.2-0.4 0-0.1 0-0.1 0-0.1zm0.2 0.9c0 0 0.4 0.8 0.5 1.1 0.1 0.2 0.1 0.4 0.1 0.4 0 0 0 0 0 0 0 0-0.2-0.3-0.4-0.7-0.3-0.6-0.4-0.7-0.3-0.7 0 0 0.1 0 0.1 0zm1 2.5c0 0 0.1 0.1 0.1 0.2 0 0.1 0 0.2 0 0.2 0 0-0.1-0.1-0.1-0.3 0-0.1 0-0.1 0-0.1zm0.9 6.6c-0.1 0.1-0.1 0.1-0.1 0.1 0 0 0-0.2 0.1-0.4 0.2-2.2 0.4-0.3 0.1 0.4zm-0.1 0.7c0 0 0 0 0 0 0 0 0.1 0.1 0.1 0.2 0 0.1 0 0.1 0 0.1 0 0-0.2-0.1-0.3-0.1 0 0 0-0.1 0.1-0.2 0-0.1 0.1-0.1 0.1-0.1zm-0.2 0.4 0 0.1c-0.1 0.6-0.5 0.9-0.1 0.1zm-3.2 4.4c0 0-0.2 0.1-0.3 0.3-0.2 0.1-0.3 0.3-0.4 0.3-0.5 0.3-1.3 0.9-0.4 0.6-0.7 0.5-0.4 0.5 0 0.7 0 0.1 0 0.1 0.3 0.1 0.1 0 0.3 0 0.3 0 0 0 0 0 0.1 0 0.1 0 0.1-0.2 0-0.2-0.1 0 0.1-0.3 0.2-0.3 0.1-0.1 0.1-0.3 0-0.4-0.1 0-0.1-0.1 0.1-0.2 0.1 0 0.2-0.1 0.2 0 0.1 0 0.3 0 0.4-0.1 0.1-0.1 0.6-0.7 0.6-0.8 0-0.3-0.5 0.2-0.8 0.5-0.1 0.1-0.4 0.3-0.5 0.4-0.1 0.1-0.3 0.2-0.4 0.2-0.1 0.1-0.1 0.1-0.1 0 0 0 0-0.1-0.1-0.2-0.1-0.1-0.1-0.1 0-0.2 0.1-0.1 0.2-0.1 0.3-0.1 0.2 0 0.4 0 0.5-0.2 0.1-0.1 0-0.5 0-0.5zm-0.6 1.4c0 0-0.1 0.1-0.2 0.1-0.2 0.1-0.3 0.1-0.3 0.1 0 0 0.4-0.2 0.4-0.2zm-2.9 0.6c0.1 0 0.3 0.1 0.3 0.1 0 0-0.2 0-0.2 0-0.1 0-0.1-0.1 0-0.1zm0.5 0.3c0 0 0.1 0 0.1 0.1 0.1 0 0.1 0.1 0.1 0.1 0 0-0.1 0-0.2-0.1-0.1-0.1-0.1-0.1-0.1-0.1zm-4.2 0.2c0.1 0 0.1 0 0.1 0 0 0-0.1 0.1-0.2 0 0 0 0 0 0.1 0zm2.5 0.5c-0.4 0.1-0.5 0.2-0.1 0.2 0.1 0 0.2 0 0.2-0.1 0-0.1 0-0.1-0.1-0.1z" class="logo"/></svg>
