<?xml version="1.0" encoding="UTF-8" standalone="no"?>
<!-- Created with Inkscape (http://www.inkscape.org/) -->

<svg
   xmlns:dc="http://purl.org/dc/elements/1.1/"
   xmlns:cc="http://creativecommons.org/ns#"
   xmlns:rdf="http://www.w3.org/1999/02/22-rdf-syntax-ns#"
   xmlns:svg="http://www.w3.org/2000/svg"
   xmlns="http://www.w3.org/2000/svg"
   xmlns:sodipodi="http://sodipodi.sourceforge.net/DTD/sodipodi-0.dtd"
   xmlns:inkscape="http://www.inkscape.org/namespaces/inkscape"
   id="svg4974"
   version="1.1"
   inkscape:version="0.92.1 r15371"
   width="63.999847"
   height="64.000336"
   sodipodi:docname="base-enc-logo-small-white.svg">
  <title
     id="title816">Encore Painting Logo White Text</title>
  <metadata
     id="metadata4980">
    <rdf:RDF>
      <cc:Work
         rdf:about="">
        <dc:format>image/svg+xml</dc:format>
        <dc:type
           rdf:resource="http://purl.org/dc/dcmitype/StillImage" />
        <dc:title>Encore Painting Logo White Text</dc:title>
      </cc:Work>
    </rdf:RDF>
  </metadata>
  <defs
     id="defs4978" />
  <sodipodi:namedview
     pagecolor="#ffffff"
     bordercolor="#666666"
     borderopacity="1"
     objecttolerance="10"
     gridtolerance="10"
     guidetolerance="10"
     inkscape:pageopacity="0"
     inkscape:pageshadow="2"
     inkscape:window-width="1920"
     inkscape:window-height="1018"
     id="namedview4976"
     showgrid="false"
     inkscape:zoom="0.8230688"
     inkscape:cx="-27.30655"
     inkscape:cy="44.683551"
     inkscape:window-x="-8"
     inkscape:window-y="-8"
     inkscape:window-maximized="1"
     inkscape:current-layer="svg4974"
     fit-margin-top="0"
     fit-margin-left="0"
     fit-margin-right="0"
     fit-margin-bottom="0" />
  <path
     style="fill:#ffffff;fill-opacity:1;stroke-width:0.08216553"
     d="m 30.377076,63.975568 c 0.66103,-0.0136 1.71923,-0.0136 2.35157,7e-5 0.63234,0.0136 0.0915,0.0248 -1.20186,0.0247 -1.29336,-5e-5 -1.81073,-0.0112 -1.14971,-0.0248 z m -12.49142,-3.51704 c -0.60873,-0.28738 -1.14636,-0.52251 -1.19474,-0.52251 -0.0484,0 -0.009,0.12868 0.0883,0.28595 0.23638,0.38345 0.23209,0.54412 -0.0127,0.4767 -0.7426,-0.20453 -1.86371,-0.95627 -3.29639,-2.21035 -0.41573,-0.3639 -1.15269,-0.99033 -1.6377,-1.39208 l -0.88184,-0.73045 -0.0258,0.33817 c -0.0159,0.20781 -0.0672,0.33817 -0.13305,0.33817 -0.18998,0 -1.0835405,-0.64172 -1.7173005,-1.2333 -1.18023,-1.10167 -2.18331,-2.47813 -3.58265,-4.91622 -0.40602,-0.7074 -0.88899,-1.53154 -1.07329,-1.83144 -0.18429,-0.29989 -0.31306,-0.56633 -0.28615,-0.59209 0.0507,-0.0485 0.2879,0.0218 0.84198,0.24942 l 0.32256,0.13252 -0.0568,-0.26538 c -0.19462,-0.90879 -0.41642,-1.6179 -0.64871,-2.07406 -0.24485,-0.48078 -0.26867,-0.50409 -0.29835,-0.29182 -0.0316,0.22605 -0.0409,0.22989 -0.46129,0.19122 -0.5058,-0.0465 -0.60603,-0.14256 -1.06944,-1.0248 -0.44295,-0.84329 -0.7623,-1.74118 -1.44382,-4.05949 -0.32492997,-1.10531 -0.60984997,-2.07295 -0.63315997,-2.15033 -0.0287,-0.0953 0.004,-0.14067 0.10238,-0.14067 0.10481,0 0.12814,-0.0388 0.0846,-0.14068 -0.0331,-0.0774 -0.22612,-0.60942 -0.42891,-1.18234 -0.55031,-1.55472 -0.51109,-2.29053 0.1853,-3.47637 0.33071,-0.56313 0.34579,-0.66837 0.19065,-1.33004 -0.12997,-0.55428 -0.32474,-0.46597 -0.32474,0.14725 0,0.37284 -0.0987,0.34529 -0.3192,-0.0891 -0.21774,-0.42897 -0.2307,-0.7493 -0.0503,-1.24383 0.0959,-0.26294 0.11669,-0.49895 0.0761,-0.86415 -0.0594,-0.53381 0.0189,-0.64229 0.21293,-0.29522 0.21399,0.38271 0.35315,0.38111 0.83126997,-0.01 0.2413,-0.19715 0.51195,-0.35845 0.60144,-0.35845 0.13451,0 0.15343,-0.0383 0.10913,-0.22106 -0.0676,-0.27899 -0.26307,-0.5828 -0.37491,-0.5828 -0.047,0 -0.3093,0.11149 -0.58283997,0.24775 -0.49668,0.24742 -0.67156,0.25322 -0.67156,0.0223 0,-0.21693 0.43284,-1.33764 0.75626997,-1.95812 0.24295,-0.46608 0.30451,-0.66674 0.2713,-0.88424 -0.0236,-0.15475 -0.077,-0.30244 -0.11859,-0.32822 -0.0446,-0.0277 -0.0449,-0.12647 -6.4e-4,-0.24116 0.0413,-0.10686 0.0982,-0.35707 0.1265,-0.55603 l 0.0515,-0.36173 -0.26716,0.50241 c -0.25688997,0.4831 -0.39925997,0.62349 -0.39925997,0.39371 0,-0.0598 0.17265,-0.50292 0.38366997,-0.98473 0.21102,-0.48182 0.63048,-1.50599 0.93213,-2.27596 0.52444,-1.33861 0.54601,-1.42179 0.49261,-1.89907 -0.0541,-0.48318 -0.0422,-0.52591 0.36964,-1.33708 0.23401,-0.46087 0.42547,-0.89901 0.42547,-0.97366 0,-0.21583 0.78264,-1.66518 0.89919,-1.66518 0.058,0 0.19886,0.17182 0.31307,0.38183 0.11421,0.21001 0.20942,0.33885 0.21157,0.2863 0.002,-0.0525 0.22564,-0.3781 0.49664,-0.72347 0.27099,-0.34537 0.5163,-0.71837 0.54512,-0.8289 0.0288,-0.11053 0.0307,-0.15575 0.004,-0.10049 -0.0265,0.0553 -0.10585,0.10049 -0.1763,0.10049 -0.0967,0 -0.11497,-0.0542 -0.0746,-0.22107 0.10124,-0.41831 0.40523,-1.14549 0.47886,-1.14549 0.0406,0 0.0775,0.20799 0.0821,0.46221 0.005,0.25423 0.0341,0.55034 0.0655,0.65804 0.0513,0.17582 0.0795,0.14709 0.27629,-0.28135 0.12053,-0.26244 0.31997,-0.85699 0.44319,-1.32122 0.45171,-1.70174 0.78976,-2.49155 1.40208,-3.27573 0.36528,-0.46779 0.61546,-0.5447 0.74131,-0.2279 0.11541,0.29057 -0.0368,0.70761 -0.58935,1.61456 -0.92509,1.51847 -1.25535,2.42034 -1.02844,2.80843 0.0664,0.1136 0.17183,0.0406 0.67819,-0.46962 0.56211,-0.56639 1.01099,-1.21466 0.9088,-1.31247 -0.0749,-0.0717 -0.44449,0.19786 -0.68473,0.49934 -0.26059,0.32701 -0.374,0.3581 -0.37249,0.10214 0.003,-0.49535 0.78666,-1.58384 2.0852705,-2.89608 1.21688,-1.2296596 1.55295,-1.6595896 1.73271,-2.2166796 0.0581,-0.18002 0.0292,-0.17325 -0.60125,0.14068 -0.93408,0.46513 -1.12523,0.43617 -0.55129,-0.0835 0.44402,-0.40206 0.79947,-0.58833 1.75109,-0.91763 0.86087,-0.29789 1.20937,-0.52067 1.20937,-0.7731 0,-0.0807 0.0419,-0.14676 0.093,-0.14676 0.0655,0 0.0774,0.24432 0.0402,0.82396 -0.0515,0.80353 -0.0492,0.81902 0.0959,0.62503 0.41921,-0.56052 1.02214,-1.18222 1.87926,-1.93772 1.69784,-1.49657 2.04725,-1.83056 1.9812,-1.89379 -0.1103,-0.10557 -0.6446,0.22585 -1.2806,0.79435 -0.83599,0.74727 -0.95499,0.72051 -0.61191,-0.13759 0.12195,-0.30501 0.2528,-0.48834 0.39892,-0.55891 0.36638,-0.17692 1.28557,-0.43205 1.74203,-0.48351 0.23802,-0.0268 0.85087,-0.17551 1.36188,-0.33039 0.92131,-0.27924 0.92843,-0.28331 0.848,-0.48581 -0.12651,-0.31848 -0.10274,-0.35452 0.23382,-0.35459 0.33931,-7e-5 0.92611,-0.24612 1.9926,-0.83553 0.36841,-0.2036 0.73227,-0.37019 0.80857,-0.37019 0.23188,0 0.34234,0.20304 0.28092,0.51641 -0.0499,0.2547 -0.0864,0.28836 -0.31995,0.29546 -0.14498,0.004 -0.3503,0.0315 -0.45628,0.0603 -0.16662,0.0452 -0.17798,0.0711 -0.084,0.19122 0.1002,0.12808 0.1875,0.10025 1.11652,-0.35588 1.03876,-0.51003 2.42497,-1.10943 2.56572,-1.10943 0.0439,0 0.0798,0.0504 0.0798,0.11198 0,0.14837 0.18592,0.20956 0.63675,0.20956 0.25239,0 0.42202,0.0488 0.53041,0.15252 0.15647,0.14977 0.16518,0.14675 0.48291,-0.16722 0.17796,-0.17586 0.64011,-0.52216 1.02698,-0.76954 1.00927,-0.64537996 1.90678,-0.90479996 3.66378,-1.05901996 0.5543,-0.0486 1.18734,-0.10429 1.40675,-0.12363 0.2851,-0.0251 0.39892,-0.006 0.39892,0.0665 0,0.17629 -1.3979,0.47152 -2.08545,0.44044 l -0.60243,-0.0272 1.6e-4,0.22635 c 4.3e-4,0.54305996 -0.26862,0.70065996 -1.60023,0.93724996 -1.22999,0.21853 -1.25503,0.22648 -1.25503,0.39838 0,0.20372 -0.34974,0.51653 -1.17578,1.0516 -0.39263,0.25433 -0.80369,0.55526 -0.91346,0.66872 -0.38224,0.3951 -0.0103,0.59213 0.63246,0.33507 0.36529,-0.14609 0.36498,-0.14607 0.36498,-0.0173 0,0.0568 -0.11599,0.16883 -0.25777,0.24899 -0.14177,0.0802 -0.24409,0.15883 -0.22738,0.17482 0.077,0.0737 1.04851,-0.23911 1.25239,-0.40331 0.29176,-0.23498 0.71384,-0.31016 1.1772,-0.20968 0.46293,0.10039 1.91885,-0.0566 1.91885,-0.20694 0,-0.16192 0.184,-0.22242 0.26341,-0.0866 0.0641,0.10966 0.29211,0.11973 1.81561,0.0802 3.34429,-0.0868 6.3611,0.3047 9.48556,1.2309 l 1.19248,0.35349 0.73916,-0.16765 c 0.40654,-0.0922 0.74979,-0.1775 0.76278,-0.18954 0.013,-0.0121 -0.20816,-0.15405 -0.49144,-0.31556 -0.53256,-0.30366 -1.00622,-0.44622 -1.4938,-0.44962 -0.22215,-0.002 -0.27113,-0.0289 -0.23096,-0.12912 0.028,-0.0699 0.051,-0.16106 0.051,-0.2025 0,-0.0414 0.0938,-0.0528 0.20847,-0.0253 0.29455,0.0708 1.07218,-0.12348 1.20303,-0.30049 0.0604,-0.0816 0.19263,-0.1511 0.29395,-0.15433 0.2638,-0.008 -0.64558,-0.31034 -1.20155,-0.39893 -0.50183,-0.08 -1.0918,-0.30219 -1.0918,-0.41126 0,-0.0999 0.23999,-0.0821 0.70264,0.0522 0.22478,0.0653 0.44149,0.0993 0.48158,0.0756 0.0401,-0.0237 0.10402,-0.1589 0.14206,-0.30041 0.0804,-0.29919 0.35602,-0.37036 0.86684,-0.22387 0.40408,0.11587 0.46723,0.20324 0.53699,0.74284 0.0489,0.37855 0.0366,0.45934 -0.0735,0.48231 -0.0796,0.0166 -0.002,0.0803 0.19524,0.15984 0.26367,0.10645 0.3188,0.11037 0.28261,0.0201 -0.0933,-0.23278 0.17161,-0.0961 0.71382,0.36824 0.30852,0.26421 0.75862,0.57457 1.00023,0.68969 0.44097,0.2101 1.2824,0.87135 1.2824,1.00779 0,0.15404 -0.23581,0.0573 -0.90358,-0.37059 l -0.69213,-0.44353 v 0.26772 c 0,0.32154 0.26679,0.58891 0.88184,0.88373 0.46376,0.22231 1.30176,0.83272 1.30176,0.94823 0,0.16738 -0.33063,0.0497 -0.92383,-0.32872 l -0.62988,-0.40186 -0.0258,0.32168 c -0.0325,0.40507 -0.13488,0.40769 -0.34743,0.009 l -0.16671,-0.31277 -0.28328,0.1319 -0.28328,0.13191 0.93119,0.47355 c 1.36444,0.69387 1.61132,0.83425 2.58462,1.46964 0.9675,0.6316 2.40284,1.7045396 3.02872,2.2640096 0.2194,0.19613 0.39892,0.31548 0.39892,0.26522 0,-0.0503 0.0945,-0.0914 0.20996,-0.0914 0.25234,0 0.25017,0.0285 0.0389,-0.51194 -0.14708,-0.3762596 -0.21771,-0.4554596 -0.50391,-0.5650696 -0.41317,-0.15823 -0.42887,-0.28955 -0.0346,-0.28955 0.23609,0 0.35696,0.0614 0.58015,0.29455 0.28329,0.2959796 0.41727,0.6478296 0.32978,0.8660496 -0.0259,0.0645 -0.005,0.16441 0.0459,0.22194 0.46112,0.51882 0.50953,0.60473 0.51192,0.90846 0.002,0.28527 0.0743,0.39862 0.63871,1.00482 0.85723,0.92071 1.65313,1.88705 2.34205,2.84357 0.46928,0.65158 0.55534,0.81876 0.48049,0.93347 -0.0733,0.11233 -0.0337,0.21678 0.20167,0.53263 0.16106,0.2161 0.3442,0.38291 0.40697,0.3707 0.0635,-0.0123 0.21613,0.15716 0.34388,0.38183 0.12636,0.22223 0.28448,0.40404 0.35136,0.40404 0.0767,0 0.10268,0.0472 0.0704,0.12787 -0.029,0.0723 0.0914,0.39551 0.27695,0.74358 0.40729,0.76405 1.57484,3.47073 1.97141,4.57025 0.62135,1.72273 1.17067,4.18064 1.39781,6.25445 0.12671,1.1569 0.12762,4.08451 0.001,5.30547 -0.20369,1.97423 -0.85346,5.01405 -1.08774,5.0888 -0.089,0.0284 -0.10426,-0.0179 -0.0643,-0.19459 0.44845,-1.98418 0.55098,-2.81067 0.60092,-4.84436 0.0295,-1.20114 0.02,-1.39359 -0.048,-0.97429 -0.37293,2.30011 -0.84128,4.44492 -1.00815,4.61683 -0.1547,0.1594 -0.14433,-0.0332 0.0515,-0.95642 0.42117,-1.98556 0.50273,-2.88583 0.50275,-5.54948 2e-5,-2.8164 -0.0485,-3.24908 -0.55735,-4.97307 -1.03485,-3.50625 -2.8066,-6.78342 -5.28606,-9.77774 -0.90195,-1.08924 -3.13749,-3.22788 -4.31861,-4.13141 -4.22247,-3.23012 -9.05288,-5.1886496 -14.52932,-5.8910296 -1.54865,-0.19862 -5.35792,-0.19614 -6.88673,0.004 -6.69447,0.87853 -12.39361,3.6057696 -17.00833,8.1390796 -1.32593,1.30254 -2.3313,2.48328 -3.30951,3.8868 -0.80319,1.15241 -1.6441305,2.56505 -1.6441305,2.76186 0,0.0736 -0.0323,0.13375 -0.0718,0.13375 -0.11602,0 -1.0136,1.91222 -1.41497,3.01447 -0.88774,2.43794 -1.10431,3.57989 -1.17591,6.20046 -0.074,2.70837 0.18564,4.99355 0.85275,7.50534 0.72573,2.73249 1.60897,4.60398 3.3764405,7.15435 2.29832,3.31636 5.60977,6.32209 9.15513,8.30994 0.86723,0.48625 1.02903,0.60831 1.0718,0.80858 0.0802,0.37551 0.28156,0.51728 1.04981,0.73916 0.86549,0.24996 1.20395,0.43521 1.42032,0.7774 0.21761,0.34417 0.30042,0.61894 0.18654,0.61894 -0.0498,0 -0.43387,-0.20327 -0.85348,-0.45171 -0.69311,-0.41037 -0.775,-0.44017 -0.89473,-0.32558 -0.19938,0.19085 -0.028,0.33002 0.7643,0.62082 1.1457,0.42048 1.21683,0.46416 1.39945,0.85931 0.26436,0.57201 0.18346,0.73783 -0.22602,0.46331 -0.11786,-0.079 -0.27001,-0.10262 -0.44522,-0.0691 -0.25673,0.0491 -0.24497,0.0589 0.33161,0.27357 0.71587,0.26659 0.84316,0.35819 0.84316,0.6068 0,0.3535 -0.62373,0.57641 -1.19842,0.4283 -0.26259,-0.0677 -0.53441,-0.26008 -1.06765,-0.75573 -0.94275,-0.87627 -1.11629,-0.95607 -1.65377,-0.76048 l -0.23545,0.0857 0.20899,0.15741 c 0.11494,0.0866 0.62471,0.43194 1.13281,0.76747 1.14154,0.75381 1.30176,0.89269 1.30176,1.12837 0,0.18961 -0.19498,0.25983 -0.29431,0.106 -0.15119,-0.23415 -0.62813,-0.35338 -1.63733,-0.40933 -0.57739,-0.032 -1.15325,-0.0965 -1.27968,-0.14331 -0.12702,-0.047 -0.48181,-0.3919 -0.79292,-0.77077 -0.30967,-0.37712 -0.6062,-0.68567 -0.65896,-0.68567 -0.2007,0 -0.19993,0.11541 0.002,0.36939 0.20431,0.25639 0.27631,0.51486 0.14342,0.51486 -0.0364,0 -0.25369,-0.18352 -0.48292,-0.40783 -0.22922,-0.2243 -1.17136,-0.95682 -2.09366,-1.62781 -2.53574,-1.84482 -3.97662,-3.25278 -4.66543,-4.55884 -0.20531,-0.38928 -0.4947,-0.68213 -0.90098,-0.91173 -0.0666,-0.0376 -0.14056,0.0163 -0.20337,0.1483 -0.18682,0.39247 -0.8258005,0.36913 -0.8258005,-0.0302 0,-0.38472 -0.47499,-1.14568 -1.18376,-1.89649 -0.37564,-0.39791 -0.81363,-0.89414 -0.97333,-1.10273 -0.32222,-0.42088 -0.70722,-0.56 -1.08898,-0.39352 l -0.20976,0.0915 0.25582,0.30045 c 0.1407,0.16525 0.61592,0.66206 1.05604,1.10403 0.44012,0.44196 0.80022,0.81632 0.80022,0.83189 0,0.0156 -0.11338,0.1297 -0.25196,0.2536 -0.28876,0.25818 -0.33712,0.65419 -0.12732,1.04251 0.11641,0.21547 0.14146,0.22459 0.38006,0.13839 0.18195,-0.0657 0.29712,-0.0677 0.40028,-0.007 0.16632,0.098 0.57456,0.66895 1.15267,1.61206 0.4492905,0.73297 0.9657205,1.28655 1.3420905,1.43865 0.20558,0.0831 0.29112,0.081 0.47874,-0.0119 0.28465,-0.1409 0.32076,-0.14093 0.32076,-2.2e-4 0,0.062 -0.13683,0.21785 -0.30407,0.34626 l -0.30406,0.23348 1.03893,0.64702 c 1.16325,0.72448 2.05952,1.23284 2.17349,1.23284 0.0417,0 0.20577,0.0845 0.36468,0.18767 0.15891,0.10322 0.96368,0.52105 1.7884,0.92853 1.51898,0.75049 2.63962,1.41355 2.69881,1.59683 0.0661,0.20482 -0.32333,0.0876 -1.40293,-0.42203 z M 6.0493455,27.211988 c 0.0807,-0.15091 0.20239,-0.61803 0.27038,-1.03804 0.25204,-1.55707 1.07304,-4.13049 1.89986,-5.95512 0.17993,-0.39707 0.58834,-1.20341 0.90759,-1.79185 0.44038,-0.81172 0.57159,-1.12769 0.54373,-1.30937 -0.027,-0.17608 0.0228,-0.30713 0.18802,-0.4951 0.1236,-0.1406 0.2722105,-0.25564 0.3302305,-0.25564 0.058,0 0.17749,-0.0785 0.26549,-0.17441 0.15783,-0.17205 0.15772,-0.17353 -0.008,-0.10971 -0.3674,0.1415 -0.5025305,0.0968 -0.5300105,-0.17534 -0.0222,-0.22001 0.006,-0.26621 0.1895105,-0.3103 0.11859,-0.0285 0.3382,-0.0308 0.48802,-0.005 0.25609,0.044 0.29376,0.018 0.62913,-0.43327 0.1962,-0.26402 0.33642,-0.48003 0.31159,-0.48003 -0.0248,0 -0.19329,0.0724 -0.37437,0.16077 -0.18109,0.0884 -0.37265,0.16077 -0.42569,0.16077 -0.13088,0 -0.0285,-0.37122 0.17944,-0.65076 0.15704,-0.21109 0.77052,-0.47464 1.10487,-0.47464 0.0863,0 0.24014,-0.0837 0.34197,-0.186 0.41114,-0.41303 1.40293,-1.49246 1.40293,-1.5269 0,-0.0203 -0.0796,-0.0568 -0.17687,-0.0811 -0.12504,-0.0313 -0.34382,0.072 -0.7466,0.35236 -0.53337,0.37132 -0.75623,0.47196 -0.75623,0.34152 0,-0.0303 0.0838,-0.14052 0.1863,-0.24491 l 0.18629,-0.18981 -0.36282,0.0555 c -0.41998,0.0643 -0.54203,-0.038 -0.46486,-0.38966 0.0271,-0.12363 0.0118,-0.22106 -0.0347,-0.22106 -0.25219,0 -0.84608,1.06085 -0.74085,1.32334 0.0273,0.068 0.14523,0.12361 0.26216,0.12361 0.1223,0 0.21259,0.046 0.21259,0.10834 0,0.0596 -0.53217,0.84636 -1.1826,1.74839 -1.3170005,1.82644 -1.9129605,2.72344 -2.4466005,3.68251 -0.19803,0.3559 -0.39729,0.63597 -0.44279,0.62239 -0.0455,-0.0136 -0.11711,-0.13944 -0.15912,-0.27967 -0.095,-0.31706 -0.1609,-0.31911 -0.3893,-0.0121 -0.48713,0.6548 -0.65891,1.82459 -0.41682,2.83845 0.123,0.5151 0.0504,0.65762 -0.29579,0.58076 -0.12171,-0.027 -0.21971,0.0384 -0.35588,0.2377 -0.34281,0.50165 -0.3634,0.82175 -0.13341,2.07439 0.20592,1.12165 0.22571,2.10669 0.0544,2.70683 -0.0557,0.19515 -0.0521,0.19702 0.14243,0.0734 0.10978,-0.0698 0.26565,-0.25032 0.34636,-0.40122 z m 1.45751,-2.36441 c 0.1244,-0.44212 0.41351,-1.39587 0.64245,-2.11944 0.22893,-0.72357 0.40078,-1.33038 0.38188,-1.34848 -0.0886,-0.0848 -1.73785,3.84672 -1.73785,4.14275 0,0.0901 0.36613,0.2427 0.43263,0.18033 0.0301,-0.0282 0.15648,-0.41304 0.28089,-0.85516 z m 2.5136705,-5.63238 c 0.37193,-0.64765 0.30138,-0.86279 -0.087101,-0.26559 -0.23723,0.3647 -0.37251,0.79346 -0.25034,0.79346 0.0188,0 0.1707,-0.23754 0.3374305,-0.52787 z m 1.14,-1.823 c 0,-0.0448 -0.0557,-0.0361 -0.12597,0.0197 -0.0693,0.055 -0.12598,0.13625 -0.12598,0.18046 0,0.0448 0.0557,0.0361 0.12598,-0.0197 0.0693,-0.0551 0.12597,-0.13625 0.12597,-0.18046 z m 0.40044,-0.54302 c 0.0577,-0.0884 0.0915,-0.16077 0.0752,-0.16077 -0.0163,0 -0.0981,0.0724 -0.1817,0.16077 -0.0836,0.0884 -0.11745,0.16077 -0.0752,0.16077 0.0422,0 0.124,-0.0724 0.1817,-0.16077 z m 43.40625,-5.45005 c -0.0763,-0.14118 -0.24262,-0.27762 -0.40418,-0.33153 l -0.27457,-0.0916 0.37176,0.36256 c 0.20447,0.19941 0.38635,0.3486 0.40418,0.33153 0.0178,-0.0171 -0.0259,-0.139 -0.0972,-0.27095 z M 15.401746,9.6313684 c 0.27715,-0.1956 0.68928,-0.44565 0.91584,-0.55567 0.29878,-0.1451 0.38044,-0.21867 0.29728,-0.26786 -0.0932,-0.0551 -0.0838,-0.10141 0.05,-0.24713 0.13961,-0.15206 0.14296,-0.17176 0.022,-0.12962 -0.0784,0.0273 -0.43746,0.14645 -0.79786,0.26471 -0.74253,0.24367 -0.93218,0.40885 -1.46999,1.28039 -0.19097,0.3094796 -0.40624,0.6531296 -0.47836,0.7636596 -0.0721,0.11053 0.11373,-0.0136 0.41301,-0.27594 0.29928,-0.2623 0.7709,-0.6369396 1.04805,-0.8325396 z m 3.14943,-1.30378 c 0.30024,-0.19164 0.86721,-0.60449 1.25994,-0.91744 0.39273,-0.31296 0.81919,-0.64182 0.9477,-0.7308 l 0.23364,-0.16178 -0.56976,0.0412 c -0.70068,0.0507 -1.00308,0.25519 -1.63174,1.10357 -0.29848,0.40281 -0.50985,0.60548 -0.69174,0.66329 -0.14405,0.0458 -0.38014,0.15232 -0.52464,0.23677 -0.2119,0.12384 -0.25471,0.19369 -0.22128,0.36106 l 0.0414,0.20752 0.30527,-0.22748 c 0.16789,-0.12511 0.55092,-0.38427 0.85117,-0.57591 z m 4.29423,-2.88914 c -0.0389,-0.0243 -0.11751,-0.18178 -0.17477,-0.34987 -0.0573,-0.16809 -0.14777,-0.29183 -0.20114,-0.27499 -0.12359,0.039 -0.52931,0.60603 -0.59795,0.8357 l -0.0522,0.17471 0.54837,-0.17065 c 0.30161,-0.0939 0.51657,-0.19056 0.47771,-0.2149 z m 24.62474,0.28247 c 0.0662,-0.16523 -0.29478,-0.64367 -0.50798,-0.67319 -0.17876,-0.0248 -0.17905,-0.0222 -0.0441,0.38183 0.109,0.32623 0.17251,0.40675 0.32084,0.40675 0.10173,0 0.20577,-0.0519 0.23121,-0.11539 z m -23.22819,-0.74832 c 0.47392,-0.19801 0.88071,-0.38948 0.90397,-0.42551 0.0634,-0.0981 -0.828,-0.18399 -1.26258,-0.12161 -0.34858,0.05 -0.40033,0.0888 -0.62961,0.47142 -0.13739,0.2293 -0.25016,0.44647 -0.2506,0.48261 -0.001,0.0901 0.23452,0.0127 1.23882,-0.40691 z m 1.63047,-0.0117 0.69927,-0.22543 -0.49608,-0.0598 c -0.27284,-0.0329 -0.54684,-0.0785 -0.60889,-0.10124 -0.062,-0.0228 -0.11281,9.4e-4 -0.11281,0.0527 0,0.0518 -0.11337,0.18549 -0.25195,0.2971 -0.13857,0.11161 -0.25195,0.23832 -0.25195,0.28158 0,0.0852 -0.007,0.0868 1.02241,-0.24494 z m 21.06521,-0.6346 c -6.4e-4,-0.11179 -0.34537,-0.59743 -0.39226,-0.55256 -0.0262,0.0251 -0.0218,0.21008 0.01,0.41118 0.0518,0.33058 0.0729,0.35763 0.22008,0.28223 0.0895,-0.0459 0.16265,-0.10925 0.16248,-0.14085 z m -7.05439,54.0511896 c 0,-0.0659 0.129,-0.13351 0.31494,-0.16505 0.17322,-0.0294 0.38108,-0.072 0.46192,-0.0948 0.10424,-0.0293 0.14697,0.004 0.14697,0.11435 0,0.11743 -0.0773,0.1679 -0.31494,0.20549 -0.47686,0.0754 -0.60889,0.0624 -0.60889,-0.06 z m -3.25714,-0.42739 c -0.15163,-0.0188 -0.32127,-0.10412 -0.37699,-0.18951 -0.0669,-0.10259 -0.23788,-0.17261 -0.50387,-0.20638 -0.27086,-0.0344 -0.45013,-0.10899 -0.54796,-0.22804 -0.12953,-0.15761 -0.25201,-0.18276 -1.12181,-0.23031 -0.85492,-0.0467 -2.69469,-0.29614 -3.11559,-0.42237 -0.0808,-0.0242 -0.14697,-0.0937 -0.14697,-0.15431 0,-0.1051 -0.39487,-0.18502 -0.92383,-0.18697 -0.53577,-0.002 -0.88891,-0.052 -0.96582,-0.13689 -0.0462,-0.051 -0.32964,-0.17509 -0.62989,-0.27586 -1.02469,-0.34389 -2.72804,-1.05713 -3.8213,-1.60008 -3.43929,-1.7081 -6.32557,-4.24424 -8.4999,-7.46875 -0.37913,-0.56225 -0.69092,-1.0675 -0.69287,-1.12277 -0.009,-0.24487 0.23423,-0.0514 0.55906,0.44541 0.43435,0.66432 1.04888,1.40046 1.86552,2.23467 l 0.62245,0.63585 -0.39829,-0.50477 c -0.46929,-0.59475 -1.56047,-2.23893 -1.56047,-2.35131 0,-0.18242 0.22358,-0.054 0.39018,0.22405 0.6309,1.05314 2.49499,3.13822 3.86805,4.32664 1.11265,0.96302 1.81074,1.4074 3.3876,2.15645 7.38135,3.50631 15.88394,2.79356 22.3753,-1.87567 1.06148,-0.76352 2.80631,-2.3823 3.65525,-3.3912 3.75971,-4.46808 5.34133,-10.23852 4.37156,-15.94937 -0.18356,-1.081 -0.61706,-2.76468 -0.80435,-3.124 -0.0673,-0.1292 -0.12242,-0.28578 -0.12242,-0.34797 0,-0.19566 -0.74837,-1.8748 -1.2451,-2.79368 -0.57628,-1.06604 -1.1531,-1.852 -2.15627,-2.93809 -2.31268,-2.50384 -5.69506,-4.7075 -8.60842,-5.60848 -3.90678,-1.20819 -7.77014,-1.35419 -11.70145,-0.44218 -0.73017,0.16939 -0.94562,0.19302 -1.07188,0.11755 -0.23266,-0.13907 -0.36595,-0.11893 -0.89755,0.13567 -0.26429,0.12657 -0.61279,0.2528 -0.77447,0.28051 -0.36676,0.0629 -0.78994,-0.0408 -0.82228,-0.20146 -0.0184,-0.0913 0.12049,-0.14755 0.56091,-0.22709 0.70932,-0.12811 0.84896,-0.19492 0.70179,-0.33579 -0.0828,-0.0792 -0.23847,-0.047 -0.76091,0.15743 -0.71921,0.28145 -0.83041,0.29625 -1.29621,0.17243 -0.37393,-0.0994 -0.41232,-0.27858 -0.0736,-0.34342 0.13274,-0.0254 0.26273,-0.0995 0.28886,-0.16471 0.0382,-0.0952 -0.0215,-0.0885 -0.30434,0.0344 -0.46945,0.20401 -0.7872,0.20239 -0.85576,-0.004 -0.078,-0.23513 0.0177,-0.44849 0.30488,-0.67975 0.2329,-0.18758 0.31974,-0.2045 1.04949,-0.2045 0.83122,0 1.22006,-0.10867 1.32494,-0.37027 0.0862,-0.21509 -10e-4,-0.23095 -0.64532,-0.1165 -0.33344,0.0593 -0.88025,0.12467 -1.21514,0.14529 -0.50232,0.0309 -0.60888,0.0164 -0.60888,-0.0829 0,-0.0736 0.11231,-0.14059 0.28856,-0.17224 0.18766,-0.0337 0.48076,-0.21853 0.8382,-0.52857 0.78507,-0.68098 0.88221,-0.71728 1.67622,-0.62648 0.43682,0.0499 0.69005,0.0482 0.74581,-0.005 0.0566,-0.0541 -0.0161,-0.0989 -0.22047,-0.13555 -0.42051,-0.0755 -0.38303,-0.19763 0.0607,-0.19763 0.20103,0 1.11741,-0.0904 2.03639,-0.20096 2.44954,-0.29462 4.01726,-0.26662 5.18268,0.0926 0.24217,0.0746 0.51735,0.10412 0.68715,0.0736 0.26756,-0.048 0.28069,-0.0659 0.23729,-0.32181 -0.0374,-0.22056 -0.0125,-0.28809 0.13392,-0.36308 0.14723,-0.0754 0.22316,-0.0626 0.41862,0.0706 0.3937,0.26833 0.65492,0.32913 1.89149,0.44025 1.01308,0.091 1.20806,0.0899 1.36427,-0.008 0.18106,-0.11355 0.31785,-0.33671 0.2476,-0.40395 -0.0202,-0.0193 -0.54823,-0.0557 -1.17343,-0.0807 l -1.13673,-0.0456 -0.0253,-0.28699 c -0.0197,-0.22295 -0.089,-0.32793 -0.31069,-0.47045 -0.3554,-0.22847 -0.4101,-0.22879 -0.44366,-0.003 -0.0398,0.26795 -0.32929,0.26476 -1.42226,-0.0157 -1.1391,-0.29227 -1.68026,-0.31614 -1.92197,-0.0848 -0.0924,0.0884 -0.16797,0.19694 -0.16797,0.24115 0,0.0442 -0.0378,0.0804 -0.084,0.0804 -0.0462,0 -0.084,-0.12661 -0.084,-0.28135 0,-0.22855 -0.0318,-0.28135 -0.16939,-0.28135 -0.37333,0 -2.15512,0.42143 -3.89007,0.92008 -1.94268,0.55835 -2.79475,0.72043 -2.72906,0.51911 0.0203,-0.0621 0.41235,-0.23186 0.87135,-0.37734 0.45899,-0.14549 0.86697,-0.29556 0.90661,-0.33351 0.0401,-0.0384 -0.0433,-0.0933 -0.18818,-0.1237 -0.32228,-0.0677 -0.33632,-0.23528 -0.0293,-0.34955 0.5447,-0.20274 0.98949,-0.2645 2.45654,-0.34109 2.76978,-0.1446 2.80376,-0.14857 2.65154,-0.30956 -0.22046,-0.23317 -0.15319,-0.31229 0.35091,-0.41274 0.75621,-0.15069 2.6382,-0.0508 3.75482,0.19936 1.34389,0.30104 4.16073,1.10847 4.16073,1.19265 0,0.0398 -0.15118,0.12915 -0.33594,0.19861 -0.18477,0.0695 -0.33594,0.1498 -0.33594,0.17851 0,0.10561 1.60324,0.96843 1.79949,0.96843 0.0137,0 0.008,-0.0824 -0.0117,-0.18323 -0.0292,-0.14605 0.0234,-0.21061 0.25921,-0.31823 0.26884,-0.12271 0.34022,-0.12418 0.7831,-0.016 0.26802,0.0654 0.84634,0.28314 1.28516,0.48379 1.2125,0.55442 3.61133,1.89001 3.61133,2.01067 0,0.0587 0.42517,0.31064 0.94483,0.55982 0.51966,0.24919 1.0305,0.5288 1.13523,0.62136 0.25172,0.2225 0.66155,1.01668 0.73273,1.41989 0.0446,0.25292 0.13044,0.37337 0.4022,0.56467 0.41885,0.29483 0.58211,0.31703 0.31268,0.0425 -0.26138,-0.26631 -0.15748,-0.34127 0.27407,-0.19773 0.27485,0.0914 0.41954,0.21513 0.66139,0.56548 0.17027,0.24664 0.4073,0.50974 0.52675,0.58465 0.29187,0.18305 0.28047,0.31934 -0.0214,0.25588 -0.31122,-0.0654 -0.40193,0.0518 -0.4529,0.58552 -0.0364,0.38087 -0.0196,0.44087 0.15365,0.54953 0.25635,0.16077 0.34411,0.0956 0.48219,-0.35806 0.18166,-0.59685 0.34109,-0.54412 0.72202,0.23879 0.17916,0.36823 0.37254,0.82161 0.42972,1.00751 0.0793,0.25776 0.17088,0.36839 0.38577,0.46599 0.15499,0.0704 0.28263,0.15343 0.28366,0.18451 8.6e-4,0.0311 0.0791,0.14695 0.17361,0.25748 0.14665,0.17161 0.15864,0.17532 0.0821,0.0254 -0.10491,-0.20554 -0.11877,-0.5077 -0.0233,-0.5077 0.0365,0 0.21262,0.33461 0.39141,0.74358 0.7283,1.66589 1.27227,2.67468 1.57275,2.91669 0.20594,0.16586 0.3638,0.41028 0.51854,0.80286 0.12235,0.31042 0.22246,0.59696 0.22246,0.63676 0,0.0398 0.0522,0.12946 0.11608,0.19925 0.14431,0.15779 0.58389,1.37281 0.5191,1.43482 -0.0261,0.025 -0.17841,0.007 -0.3385,-0.0401 l -0.29107,-0.0855 0.0477,0.37348 c 0.0852,0.66688 0.1924,0.97363 0.3235,0.92548 0.18781,-0.069 0.6659,0.76778 0.519,0.90839 -0.0265,0.0254 -0.20112,-0.0698 -0.38802,-0.21147 -0.18689,-0.14168 -0.33981,-0.23503 -0.33981,-0.20745 0,0.0836 0.33314,0.68637 0.80379,1.4543 0.75088,1.22515 1.13955,2.68913 0.71393,2.68913 -0.25909,0 -0.41207,-0.21117 -0.60042,-0.82888 -0.40529,-1.32914 -0.59694,-1.80532 -0.84031,-2.08791 -0.14145,-0.16426 -0.29223,-0.29865 -0.33505,-0.29865 -0.0428,0 -0.0779,0.20102 -0.0779,0.44672 0,0.5007 0.14897,1.161 0.26193,1.161 0.0882,0 0.10383,-0.10011 0.0785,-0.50241 -0.0211,-0.33606 0.10424,-0.39678 0.2566,-0.12429 0.22116,0.39554 0.33513,1.05803 0.41091,2.38866 0.0766,1.34488 0.23962,2.17695 0.42652,2.17695 0.0425,0 0.0772,-0.0396 0.0772,-0.0881 0,-0.21511 0.27239,-0.95691 0.35138,-0.95691 0.17091,0 0.0284,1.05831 -0.21653,1.60772 -0.44512,0.99857 -0.43292,0.95587 -0.3219,1.12602 0.12968,0.19875 0.12935,0.24038 -0.002,0.24119 -0.0577,2.2e-4 -0.25615,-0.16528 -0.44092,-0.3681 l -0.33594,-0.36875 -0.009,2.01374 c -0.005,1.10756 0.0219,1.99537 0.0599,1.97292 0.12752,-0.0754 0.24227,-0.6335 0.24274,-1.18052 2.1e-4,-0.40449 0.0296,-0.54261 0.11503,-0.54261 0.12224,0 0.38989,0.58332 0.38852,0.84674 -10e-4,0.22925 -0.35305,0.91745 -0.68136,1.33264 -0.156,0.19729 -0.39604,0.58652 -0.53344,0.86496 -0.22981,0.46575 -0.23821,0.51247 -0.10497,0.58383 0.19052,0.10205 0.18321,0.16907 -0.0551,0.50521 -0.10996,0.1551 -0.28153,0.58175 -0.38127,0.94811 -0.29991,1.10167 -0.40294,1.21799 -0.75683,0.85441 -0.13118,-0.13477 -0.17816,-0.1482 -0.21078,-0.0603 -0.0231,0.0622 -0.18829,0.51105 -0.36712,0.99739 -0.27005,0.73439 -0.35501,0.88575 -0.50132,0.89313 -0.0969,0.005 -0.29472,0.10437 -0.43961,0.22106 -0.1449,0.1167 -0.31423,0.21217 -0.37629,0.21217 -0.0778,0 -0.13035,0.16868 -0.16915,0.54261 -0.14262,1.37444 -0.4431,2.01474 -1.54474,3.2917 -0.58582,0.67906 -0.84788,0.88352 -0.84788,0.66152 0,-0.23852 0.66687,-1.17307 0.97523,-1.36669 0.18251,-0.11459 0.19173,-0.14217 0.0778,-0.23266 -0.0711,-0.0565 -0.13006,-0.21579 -0.13108,-0.35407 -0.002,-0.24671 -0.005,-0.24468 -0.17258,0.10887 -0.22674,0.47845 -0.80754,1.20725 -0.96209,1.20725 -0.1404,0 -0.16512,-0.12652 -0.0393,-0.20097 0.0462,-0.0273 0.0825,-0.0928 0.0806,-0.14542 -0.002,-0.0526 -0.16859,0.0761 -0.37057,0.2861 -0.33826,0.3517 -0.54992,0.47445 -0.54992,0.31891 0,-0.21569 0.6421,-1.17511 0.88878,-1.32801 0.32205,-0.19961 0.33799,-0.23699 0.16102,-0.37756 -0.0693,-0.055 -0.126,-0.17703 -0.12604,-0.2711 -5e-5,-0.12418 -0.0459,-0.0829 -0.16755,0.15052 -0.21512,0.413 -0.76379,1.1025 -0.91504,1.14993 -0.0884,0.0277 -0.10333,-0.0148 -0.0614,-0.17482 0.0507,-0.19336 0.0338,-0.21144 -0.19811,-0.21144 -0.2871,0 -0.32102,-0.11319 -0.11732,-0.39154 0.097,-0.1325 0.19437,-0.17552 0.33794,-0.14925 0.21528,0.0394 0.44003,-0.1654 0.71871,-0.65487 0.1548,-0.2719 0.39954,-0.33823 0.40815,-0.11061 0.004,0.10949 0.0219,0.1013 0.08,-0.0369 0.0411,-0.0977 0.27922,-0.46345 0.52918,-0.8128 0.24997,-0.34935 0.52143,-0.80298 0.60327,-1.00807 0.0818,-0.20509 0.18144,-0.37289 0.22135,-0.37289 0.19688,0 -0.0706,1.85637 -0.31993,2.22062 -0.0714,0.10434 -0.10639,0.24827 -0.0777,0.31984 0.0379,0.0946 0.16989,-0.0422 0.48376,-0.50179 0.39739,-0.58185 0.43044,-0.66695 0.41714,-1.07404 -0.008,-0.24317 0.0429,-0.72506 0.11311,-1.07087 0.0974,-0.48035 0.10507,-0.66896 0.0323,-0.79911 -0.0948,-0.16949 -0.0963,-0.16923 -0.29368,0.0504 -0.10914,0.12144 -0.19843,0.27304 -0.19843,0.33689 0,0.0639 -0.0378,0.1161 -0.084,0.1161 -0.0462,0 -0.0842,-0.0995 -0.0844,-0.22106 -4.3e-4,-0.2141 -0.007,-0.21094 -0.20735,0.10048 -0.1138,0.17685 -0.20808,0.40531 -0.20953,0.5077 -0.004,0.26967 -0.14646,0.48544 -0.43016,0.65058 -0.30223,0.17592 -0.91621,0.94472 -0.91621,1.14724 0,0.0832 -0.0633,0.14903 -0.14698,0.1527 -0.0808,0.004 -0.44618,0.3321 -0.81188,0.73014 -1.33981,1.45827 -3.6146,3.12497 -5.67592,4.15865 -0.5312,0.26638 -1.00581,0.54905 -1.05468,0.62815 -0.0489,0.0791 -0.17741,0.28354 -0.28565,0.45432 l -0.19679,0.3105 0.28565,-0.0571 c 0.37404,-0.0748 0.96516,-0.3541 1.13934,-0.53833 0.18981,-0.20075 0.2801,-0.18307 0.2801,0.0548 0,0.11053 -0.0334,0.20097 -0.0743,0.20097 -0.11507,0 -0.36346,0.40266 -0.43459,0.70452 -0.0764,0.32425 -0.029,0.31663 0.62843,-0.10104 0.45006,-0.28593 0.97229,-0.44876 0.97229,-0.30316 0,0.0436 -0.17007,0.16562 -0.37793,0.27117 -0.38534,0.19566 -0.44293,0.26481 -0.29395,0.35294 0.0462,0.0273 0.084,0.15214 0.084,0.27737 0,0.19079 -0.0547,0.24864 -0.33764,0.35699 -0.44681,0.17112 -0.46874,0.1682 -0.83815,-0.11185 -0.346,-0.26229 -0.52648,-0.31062 -0.45029,-0.12058 0.0401,0.0999 -0.0505,0.12079 -0.52754,0.12179 -0.31674,6.4e-4 -0.72706,0.0533 -0.91182,0.11705 -0.37556,0.12951 -1.38575,0.16432 -1.38575,0.0478 0,-0.0413 0.28275,-0.12062 0.62832,-0.1762 0.59827,-0.0962 0.62175,-0.108 0.49089,-0.2464 -0.16638,-0.17597 -0.36018,-0.18111 -0.9016,-0.0239 -0.45256,0.13141 -1.22542,0.16163 -1.22542,0.0479 0,-0.0979 0.17328,-0.15384 0.67274,-0.21726 0.47011,-0.0597 0.56202,-0.12674 0.37614,-0.27439 -0.21367,-0.16972 -0.14315,-0.26156 0.15915,-0.20728 0.21722,0.039 0.2964,0.0206 0.33594,-0.078 0.0784,-0.19557 0.0647,-0.21834 -0.0952,-0.15861 -1.0156,0.37925 -3.50775,0.82343 -5.06006,0.90187 -0.62359,0.0315 -1.06766,0.0708 -0.98683,0.0873 0.16599,0.0339 0.19267,0.14245 0.055,0.22388 -0.0519,0.0307 0.059,0.11909 0.2544,0.20283 0.26517,0.11364 0.39774,0.12973 0.56553,0.0687 0.2619,-0.0953 0.34898,-0.0378 0.22641,0.14966 -0.094,0.14366 -0.30903,0.17735 -0.76816,0.1203 z m -0.52216,-0.71556 c 0,-0.0174 -0.10393,-0.031 -0.23096,-0.0304 -0.16809,8.6e-4 -0.19874,0.0208 -0.1126,0.073 0.10694,0.0648 0.34356,0.0355 0.34356,-0.0426 z m 8.1465,-0.19236 c -0.27447,-0.20549 -0.43768,-0.20306 -0.17966,0.003 0.10905,0.087 0.24132,0.15729 0.29394,0.15631 0.0526,-8.5e-4 0.001,-0.0725 -0.11428,-0.15899 z m -0.75586,-0.38903 c 0,-0.0701 -0.36775,-0.25406 -0.50786,-0.25406 -0.11797,0 -0.0974,0.22105 0.0249,0.26831 0.17365,0.0671 0.48291,0.058 0.48291,-0.0143 z m 11.40693,-10.44945 c 0.15512,-0.11423 0.18947,-0.20615 0.16797,-0.44951 l -0.027,-0.30592 -0.23004,0.4513 c -0.24355,0.47777 -0.22637,0.53642 0.0891,0.30413 z m 0.92728,-0.69662 c 0.28397,-0.30957 0.31629,-0.46633 0.16888,-0.819 l -0.0946,-0.22629 -0.15084,0.32154 c -0.083,0.17685 -0.22933,0.51271 -0.32526,0.74636 -0.16516,0.4023 -0.16612,0.42057 -0.018,0.34471 0.086,-0.044 0.27494,-0.20935 0.41985,-0.36732 z m 1.60395,-0.0281 c -0.0551,-0.0176 -0.13298,0.0177 -0.17312,0.0783 -0.13276,0.20058 -0.0784,0.2582 0.0988,0.10469 0.11268,-0.0976 0.13897,-0.16238 0.0743,-0.18302 z m -0.9174,-1.24496 c -0.0347,-0.14738 -0.0989,-0.32912 -0.14261,-0.40387 -0.0675,-0.11539 -0.1015,-0.0917 -0.22556,0.15734 -0.0803,0.16129 -0.13502,0.29975 -0.1215,0.30769 0.0759,0.0446 0.45277,0.19676 0.49866,0.20137 0.0298,0.003 0.0257,-0.11514 -0.009,-0.26253 z m 0.34866,-2.66611 c -0.0144,-0.3537 -0.0303,-0.7697 -0.0355,-0.92444 -0.005,-0.15475 0.0438,-0.40055 0.10894,-0.54622 0.10314,-0.2308 0.10231,-0.27445 -0.006,-0.33931 -0.10364,-0.0618 -0.14841,0.0445 -0.26382,0.62661 -0.0764,0.38557 -0.16445,1.00852 -0.19555,1.38432 -0.0311,0.3758 -0.0749,0.74608 -0.0972,0.82283 -0.0262,0.0898 0.0585,0.0468 0.23754,-0.12058 0.27497,-0.25708 0.27793,-0.26766 0.25212,-0.90321 z m 1.08034,-3.49679 c -0.0501,-0.24317 -0.14116,-0.60248 -0.20234,-0.79846 l -0.11123,-0.35634 -0.0517,0.87885 c -0.0284,0.48336 -0.0895,0.99974 -0.13572,1.1475 -0.0462,0.14776 -0.0605,0.38116 -0.0318,0.51868 0.0505,0.24175 0.0617,0.23018 0.33807,-0.34904 0.27252,-0.57121 0.28158,-0.61963 0.19471,-1.04119 z m -0.63128,-2.61191 c 0.0322,-0.28773 0.0919,-0.52314 0.13274,-0.52314 0.0408,0 0.0742,0.0543 0.0742,0.12058 0,0.13651 0.13151,0.16168 0.20996,0.0402 0.0833,-0.12896 0.39162,-0.0927 0.51297,0.0603 0.10223,0.1289 0.11164,0.12386 0.1124,-0.0603 8.5e-4,-0.22999 -0.26797,-0.83722 -0.40726,-0.91962 -0.0513,-0.0304 -0.11599,10e-4 -0.14371,0.0705 -0.14336,0.35761 -0.26978,0.059 -0.5338,-1.26098 -0.30672,-1.53343 -0.67751,-3.04566 -0.88019,-3.58971 -0.0726,-0.1948 -0.11119,-0.37404 -0.0858,-0.3983 0.0254,-0.0243 0.15792,-0.004 0.29459,0.0457 0.24193,0.0874 0.24707,0.0841 0.19484,-0.12421 -0.15082,-0.60149 -0.83671,-1.44856 -1.4138,-1.74603 -0.31854,-0.1642 -0.38361,-0.38234 -0.15118,-0.50684 0.1356,-0.0726 0.13421,-0.10126 -0.0225,-0.46324 -0.16915,-0.39066 -0.19858,-0.4169 -1.41796,-1.26428 -0.30882,-0.21461 -0.70101,-0.56974 -0.87154,-0.78918 -0.29339,-0.37753 -0.31148,-0.38789 -0.3366,-0.19285 -0.018,0.13993 0.087,0.36107 0.32711,0.68869 0.19452,0.26541 0.38598,0.48257 0.42548,0.48257 0.0395,0 0.0718,0.0421 0.0718,0.0935 0,0.0514 0.20377,0.4222 0.45281,0.82396 0.87709,1.41489 1.48009,2.69338 2.03173,4.30763 0.1923,0.56271 0.37967,0.96802 0.47886,1.03582 0.13575,0.0928 0.15676,0.18278 0.12588,0.53914 -0.029,0.33489 -0.0162,0.40043 0.0591,0.3019 0.13092,-0.17137 0.41514,-0.10549 0.44644,0.10349 0.0249,0.16609 -0.13668,0.38633 -0.3282,0.44743 -0.0668,0.0213 -0.0763,0.1632 -0.0314,0.4694 l 0.0644,0.43884 0.0929,-0.25549 c 0.12968,-0.35662 0.2138,-0.41197 0.35172,-0.23143 0.17713,0.23185 0.14485,0.6027 -0.0891,1.02328 -0.19374,0.34835 -0.20453,0.42753 -0.15555,1.14133 0.0481,0.70147 0.0654,0.76049 0.20143,0.69079 0.10781,-0.0552 0.16491,-0.2203 0.20732,-0.59936 z m -2.15471,-4.90869 c -0.10804,-0.38265 -0.28361,-0.59733 -0.19353,-0.23664 0.089,0.35616 0.20315,0.63013 0.24567,0.58942 0.0206,-0.0197 -0.003,-0.17842 -0.0521,-0.35278 z m -1.0363,-3.04772 c -0.25672,-0.59359 -0.9331,-1.9531 -1.0147,-2.03954 -0.0143,-0.0151 -0.0811,0.003 -0.14854,0.0402 -0.0992,0.0547 0.0201,0.31369 0.62342,1.35383 0.41031,0.7074 0.7461,1.31934 0.74619,1.35987 8e-5,0.0405 0.0215,0.0532 0.0477,0.0282 0.0261,-0.025 -0.0882,-0.35916 -0.25402,-0.74259 z m -15.33061,30.4303 c 0,-0.0632 0.69145,-0.24782 0.92797,-0.24782 0.13245,0 0.0896,0.22036 -0.053,0.27275 -0.20755,0.0762 -0.87497,0.0572 -0.87497,-0.0249 z m 9.82619,-1.59941 c 0,-0.036 -0.22382,-0.0499 -0.49739,-0.031 -0.49482,0.0343 -0.49755,0.0332 -0.52491,-0.19583 -0.0271,-0.22676 -0.0347,-0.22988 -0.50148,-0.20402 -0.29092,0.0161 -0.4967,-0.009 -0.53281,-0.0649 -0.12718,-0.19697 0.054,-0.46944 0.50122,-0.75364 0.25497,-0.16203 0.46358,-0.31104 0.46358,-0.33112 0,-0.0201 -0.17321,0.0345 -0.3849,0.1214 -0.45238,0.18561 -0.53893,0.19419 -0.53893,0.0535 0,-0.13665 1.40604,-1.1444 1.68636,-1.20865 0.11915,-0.0273 0.46508,-0.26755 0.76874,-0.53387 0.30365,-0.26633 0.58828,-0.48423 0.63251,-0.48423 0.12534,0 0.20008,0.8134 0.0867,0.94411 -0.20164,0.23255 -0.59274,0.36061 -0.97528,0.31934 -0.26895,-0.029 -0.44513,-6.4e-4 -0.61629,0.0989 -0.23835,0.13874 -0.23875,0.14033 -0.0714,0.2853 0.0926,0.0802 0.1683,0.21716 0.1683,0.30439 0,0.1464 0.021,0.14208 0.27295,-0.0561 0.15012,-0.11807 0.47566,-0.30494 0.72342,-0.41526 0.24776,-0.11032 0.67524,-0.40579 0.94994,-0.65659 0.56475,-0.51559 0.6537,-0.49455 0.65592,0.15515 0.001,0.32151 -0.0331,0.3998 -0.23479,0.53725 -0.31306,0.21337 -0.60362,0.27659 -0.8577,0.18663 -0.14792,-0.0524 -0.28681,-0.0377 -0.48093,0.0509 -0.29945,0.13668 -0.33937,0.21399 -0.14698,0.28465 0.19593,0.072 0.16534,0.5882 -0.0411,0.69396 -0.21314,0.10918 -0.451,0.53579 -0.3365,0.60352 0.13114,0.0776 0.0979,0.36155 -0.0423,0.36155 -0.0693,0 -0.12598,-0.0294 -0.12598,-0.0654 z m -0.41641,-0.87079 c 0.18472,-0.117 0.32202,-0.22596 0.30512,-0.24213 -0.0553,-0.0529 -0.81254,0.2996 -0.81254,0.37824 0,0.12851 0.15549,0.0868 0.50742,-0.13611 z m 12.45518,-16.31004 c -0.0273,-0.0682 -0.0287,-0.14419 -0.003,-0.16882 0.0736,-0.0704 0.22592,0.049 0.22592,0.17703 0,0.15425 -0.1602,0.14835 -0.22297,-0.008 z m -8.6164,-31.3556496 c -0.54007,-0.31948 -0.60159,-0.43351 -0.23387,-0.43351 0.27026,0 0.84276,0.41521 0.84276,0.61123 0,0.16154 -0.0698,0.14115 -0.60889,-0.17772 z m -0.62988,-1.36615 c -0.49516,-0.31204 -0.55248,-0.43392 -0.20408,-0.43392 0.15025,0 0.36518,0.10515 0.58789,0.28762 0.61555,0.50431 0.34684,0.60675 -0.38381,0.1463 z m -38.40194,-0.39372 c 0,-0.11053 0.0378,-0.20097 0.084,-0.20097 0.0462,0 0.084,0.0904 0.084,0.20097 0,0.11053 -0.0378,0.20096 -0.084,0.20096 -0.0462,0 -0.084,-0.0904 -0.084,-0.20096 z m 28.2958,-2.16248 c -0.0193,-0.0178 -0.36441,-0.0705 -0.76702,-0.11734 -0.40261,-0.0468 -0.91282,-0.16503 -1.13379,-0.26276 -0.33522,-0.14826 -0.55823,-0.17875 -1.34641,-0.18411 -0.51955,-0.004 -0.94472,-0.0387 -0.94482,-0.0781 -9e-5,-0.0394 0.13985,-0.24739 0.31102,-0.46222 0.28668,-0.35982 0.33948,-0.39059 0.67017,-0.39059 0.56788,0 1.01485,0.21117 1.20598,0.56976 0.12987,0.24365 0.23589,0.32676 0.50547,0.39624 0.18761,0.0484 0.388,0.10514 0.44529,0.12618 0.074,0.0272 0.0945,-0.0413 0.0707,-0.23646 -0.059,-0.48358 0.0814,-0.61299 0.67846,-0.62548 l 0.52195,-0.0109 -0.58789,-0.0643 c -1.36059,-0.14883 -1.82316,-0.22789 -2.00661,-0.34294 -0.26392,-0.16551 -1.38844,-0.30596 -1.94682,-0.24315 -0.5573,0.0627 -0.57309,0.002 -0.14082,-0.5443 l 0.31494,-0.39778 0.48592,0.0361 c 0.57,0.0424 0.82526,0.18213 1.1037,0.60431 0.13042,0.19774 0.28837,0.32599 0.44063,0.35777 0.13054,0.0272 0.31414,0.0706 0.408,0.0965 0.15409,0.0424 0.16764,0.0165 0.13944,-0.26647 -0.0453,-0.45436 0.12344,-0.58367 0.74403,-0.57024 0.56174,0.0122 0.89117,-0.13925 0.93439,-0.42942996 0.0149,-0.10012 0.0962,-0.19463 0.18061,-0.21004 0.11288,-0.0206 0.14623,0.0137 0.12598,0.12958 -0.0193,0.11065 0.10381,0.25698996 0.41339,0.49127996 0.48859,0.36977 0.55278,0.57748 0.25195,0.8153 l -0.18896,0.14938 0.20133,0.13761 c 0.50096,0.34239 0.77188,0.62457 0.74771,0.77875 -0.0454,0.28974 -0.24669,0.33442 -1.00309,0.22266 -1.09085,-0.16117 -1.25455,-0.0885 -0.42886,0.19044 0.38108,0.12873 0.69287,0.26397 0.69287,0.30053 0,0.0653 -1.03029,0.0974 -1.0988,0.0342 z m 0.67887,-1.69199 c 0,-0.0555 -0.22813,-0.13708 -0.53458,-0.19113 -1.06596,-0.18799 -1.20404,-0.0752 -0.28426,0.23215 0.59723,0.19959 0.81884,0.18849 0.81884,-0.041 z m -13.60549,1.3671 c 0,-0.13579 0.9731,-0.8823 1.66233,-1.27526 0.2636,-0.15029 0.65879,-0.31944 0.8782,-0.37589 0.30073,-0.0774 0.39893,-0.14075 0.39893,-0.25748 0,-0.2141 0.53565,-0.4262 1.46972,-0.58196 0.97123,-0.16193996 1.30177,-0.16345996 1.30177,-0.006 0,0.085 -0.0898,0.12058 -0.30423,0.12058 -0.26944,0 -0.29147,0.0147 -0.19263,0.12871 0.0938,0.10819 0.22415,0.11973 0.81791,0.0724 0.55513,-0.0443 0.69869,-0.0344 0.67064,0.0462 -0.0704,0.20215 -1.07495,0.43241 -1.89457,0.43426 l -0.77689,0.002 -0.003,0.24116 c -0.005,0.50211 -0.36646,0.69605 -1.73073,0.92984 -1.0485,0.17967 -1.63014,0.33708 -1.93793,0.52445 -0.2378,0.14477 -0.35988,0.14383 -0.35988,-0.003 z m 5.37501,-0.36448 c 0,-0.0432 -0.086,-0.13249 -0.19118,-0.19843 -0.16848,-0.10566 -0.24577,-0.10599 -0.65088,-0.003 -0.65197,0.16607 -1.02579,0.15811 -0.98974,-0.0211 0.0341,-0.16966 0.29356,-0.29527 0.95489,-0.46235 0.64782,-0.16366 1.80074,-0.25453 1.80074,-0.14192 0,0.0458 -0.13119,0.10691 -0.29152,0.1357 l -0.29152,0.0523 0.26355,0.22539 c 0.36415,0.31144 0.28212,0.49167 -0.22377,0.49167 -0.20932,0 -0.38057,-0.0353 -0.38057,-0.0785 z"
     id="path4510"
     inkscape:connector-curvature="0"
     inkscape:export-xdpi="96"
     inkscape:export-ydpi="96" />
</svg>
