<?xml version="1.0" encoding="UTF-8" standalone="no"?>
<!-- Created with Inkscape (http://www.inkscape.org/) -->

<svg
   xmlns:dc="http://purl.org/dc/elements/1.1/"
   xmlns:cc="http://creativecommons.org/ns#"
   xmlns:rdf="http://www.w3.org/1999/02/22-rdf-syntax-ns#"
   xmlns:svg="http://www.w3.org/2000/svg"
   xmlns="http://www.w3.org/2000/svg"
   xmlns:sodipodi="http://sodipodi.sourceforge.net/DTD/sodipodi-0.dtd"
   xmlns:inkscape="http://www.inkscape.org/namespaces/inkscape"
   id="svg4974"
   version="1.1"
   inkscape:version="0.92.0 r15299"
   width="95.000015"
   height="100"
   sodipodi:docname="base-encore-logo.svg">
  <metadata
     id="metadata4980">
    <rdf:RDF>
      <cc:Work
         rdf:about="">
        <dc:format>image/svg+xml</dc:format>
        <dc:type
           rdf:resource="http://purl.org/dc/dcmitype/StillImage" />
        <dc:title></dc:title>
      </cc:Work>
    </rdf:RDF>
  </metadata>
  <defs
     id="defs4978" />
  <sodipodi:namedview
     pagecolor="#ffffff"
     bordercolor="#666666"
     borderopacity="1"
     objecttolerance="10"
     gridtolerance="10"
     guidetolerance="10"
     inkscape:pageopacity="0"
     inkscape:pageshadow="2"
     inkscape:window-width="1536"
     inkscape:window-height="803"
     id="namedview4976"
     showgrid="false"
     inkscape:zoom="2.3279902"
     inkscape:cx="123.31279"
     inkscape:cy="88.96752"
     inkscape:window-x="-8"
     inkscape:window-y="-8"
     inkscape:window-maximized="1"
     inkscape:current-layer="svg4974"
     fit-margin-top="0"
     fit-margin-left="0"
     fit-margin-right="0"
     fit-margin-bottom="0" />
  <path
     style="fill:#000000;stroke-width:0.12512162"
     d="m 45.094987,99.961253 c 0.981031,-0.02124 2.551517,-0.02119 3.489976,1.17e-4 0.938459,0.02131 0.135801,0.0387 -1.783688,0.03863 -1.91949,-6.3e-5 -2.687318,-0.0175 -1.706288,-0.03875 z M 26.556363,94.465884 c -0.903404,-0.449031 -1.701308,-0.81642 -1.773118,-0.81642 -0.07184,0 -0.01328,0.201056 0.13106,0.446791 0.143875,0.245734 0.261591,0.532149 0.261591,0.636478 0,0.137076 -0.07781,0.167134 -0.280447,0.108365 -0.154245,-0.04473 -0.574436,-0.222028 -0.933784,-0.394004 -0.359336,-0.171976 -1.144572,-0.69815 -1.744982,-1.169275 -0.60041,-0.471127 -1.596458,-1.321805 -2.213427,-1.890397 -0.616982,-0.568591 -1.710722,-1.547397 -2.430521,-2.175126 -1.308749,-1.141322 -1.308749,-1.141322 -1.347071,-0.612933 -0.0235,0.324706 -0.09972,0.528389 -0.197468,0.528389 -0.08751,0 -0.49094,-0.231301 -0.896485,-0.514003 C 14.726166,88.331045 13.982692,87.69518 13.479548,87.200715 12.976392,86.706248 12.209414,85.846865 11.775134,85.290971 11.340868,84.735079 10.596862,83.661174 10.121816,82.904516 9.6467573,82.147862 8.7650646,80.624436 8.1625036,79.51913 7.5599425,78.413824 6.8431448,77.126095 6.5696433,76.65751 6.2961286,76.188926 6.1050214,75.77261 6.1449638,75.732366 c 0.039969,-0.04025 0.2297216,-0.01562 0.4217316,0.05474 0.1920233,0.07035 0.5645574,0.221088 0.8278476,0.334976 0.4787238,0.207072 0.4787238,0.207072 0.3943775,-0.207584 C 7.7425775,75.686433 7.5957817,75.047666 7.462822,74.495012 7.3298491,73.94236 7.0433478,73.122801 6.826148,72.67377 6.4627895,71.922551 6.4274283,71.886136 6.3833696,72.217798 6.3364956,72.571008 6.3226856,72.577008 5.6987728,72.516592 5.2250151,72.470712 5.0005519,72.378463 4.8218206,72.156145 4.6896974,71.991809 4.3700923,71.43344 4.1116091,70.915329 3.8531127,70.397216 3.4625192,69.464614 3.2436202,68.842879 3.0247069,68.221145 2.4510541,66.299419 1.9688246,64.572377 1.486595,62.845337 1.063735,61.333391 1.029143,61.212499 c -0.04263,-0.148836 0.0067,-0.219805 0.151949,-0.219805 0.155547,0 0.190178,-0.06066 0.125484,-0.219805 -0.04913,-0.120897 -0.33557896,-0.952229 -0.63654296,-1.847414 -0.444399,-1.321833 -0.547199,-1.795919 -0.547199,-2.523499 0,-0.492739 0.07786,-1.156635 0.17305,-1.475324 0.09518,-0.318691 0.387301,-0.963539 0.649162,-1.432997 C 1.214807,53.010035 1.408092,52.504002 1.391001,52.326087 1.374401,52.153384 1.301101,51.743604 1.227979,51.415466 1.154939,51.087329 1.050615,50.818853 0.99622604,50.818853 c -0.05438,0 -0.132915,0.0894 -0.174526,0.198677 -0.04161,0.109276 -0.07566,0.391879 -0.07566,0.628015 0,0.236135 -0.04491,0.429336 -0.0998,0.429336 -0.05489,0 -0.22316,-0.255858 -0.373925,-0.568572 C 0.12154704,51.193594 -9.9095894e-4,50.755553 6.0410587e-6,50.532885 9.5604106e-4,50.310217 0.08994604,49.87369 0.19764904,49.562822 c 0.142345,-0.410845 0.173182,-0.77961 0.11291,-1.350231 -0.04747,-0.449413 -0.03439,-0.785019 0.03058,-0.785019 0.06242,0 0.190869,0.145679 0.285432,0.323733 0.09455,0.178052 0.264328,0.373563 0.37725496,0.434467 0.154099,0.0831 0.367793,-0.02902 0.8564497,-0.449336 0.358114,-0.308039 0.7597816,-0.56007 0.8925945,-0.56007 0.1996187,0 0.2277036,-0.05989 0.1619607,-0.345408 C 2.8711399,46.640983 2.7565486,46.358376 2.660305,46.202943 2.564034,46.047509 2.4281924,45.920337 2.358413,45.920337 c -0.069711,0 -0.4590181,0.174198 -0.864987,0.387106 -0.405957,0.21291 -0.79628496,0.350877 -0.86738596,0.306596 -0.07111,-0.04428 -0.129281,-0.166596 -0.129281,-0.271808 0,-0.105215 0.147596,-0.624699 0.327993,-1.154416 C 1.005148,44.658101 1.362625,43.800787 1.619143,43.282674 1.9796993,42.554426 2.0710703,42.24089 2.0217796,41.901042 1.9867246,41.659255 1.9074499,41.42848 1.8457702,41.388209 c -0.066262,-0.04323 -0.066661,-0.197617 -8.759e-4,-0.37681 0.061218,-0.166973 0.1457471,-0.557932 0.1877476,-0.8688 0.076351,-0.565213 0.076351,-0.565213 -0.3201369,0.219806 -0.218063,0.43176 -0.4406,0.785019 -0.494512,0.785019 -0.05391,0 -0.098,-0.07644 -0.098,-0.169851 0,-0.09342 0.256226,-0.785805 0.569404,-1.538637 0.3131782,-0.752832 0.9356971,-2.353112 1.3833761,-3.556178 0.7783179,-2.091583 0.8103462,-2.221554 0.7310982,-2.967295 -0.080199,-0.754976 -0.062672,-0.821744 0.5485701,-2.089189 0.3473045,-0.720108 0.6314556,-1.404716 0.6314556,-1.521351 0,-0.116635 0.2650561,-0.749762 0.5890167,-1.406953 0.3239605,-0.657189 0.6594204,-1.194889 0.7454664,-1.194889 0.086046,0 0.2951325,0.268476 0.4646352,0.596615 0.1695026,0.328138 0.3108013,0.529441 0.3139882,0.447341 0.00266,-0.08209 0.3348757,-0.590792 0.7370611,-1.130428 0.4021987,-0.539634 0.7662608,-1.122457 0.8090315,-1.29516 0.042758,-0.172704 0.045546,-0.243356 0.00664,-0.157004 -0.039305,0.08636 -0.1571003,0.157004 -0.2616436,0.157004 -0.1435295,0 -0.1706446,-0.08461 -0.1107443,-0.345409 0.043687,-0.189974 0.1968036,-0.670406 0.3403066,-1.067625 0.143503,-0.39722 0.3101639,-0.722217 0.3703696,-0.722217 0.060152,0 0.1149936,0.324997 0.1218985,0.722217 0.00664,0.397219 0.050592,0.859901 0.0972,1.028183 0.076087,0.274721 0.1180477,0.229826 0.4100332,-0.43961 0.1788907,-0.410067 0.4748729,-1.339051 0.6577469,-2.064408 0.182891,-0.725358 0.449328,-1.68622 0.592114,-2.135251 0.142786,-0.44903 0.426113,-1.155547 0.629636,-1.570037 0.203509,-0.41449 0.590105,-1.050354 0.859092,-1.413033 0.304029,-0.409926 0.583028,-0.659416 0.737406,-0.659416 0.147859,0 0.294628,0.122706 0.362774,0.303318 0.07223,0.191467 0.06612,0.480942 -0.01674,0.785016 -0.0721,0.264936 -0.458208,1.046915 -0.857963,1.737731 -0.399742,0.690817 -0.907413,1.645533 -1.128145,2.121594 -0.220732,0.476062 -0.426884,1.133503 -0.458115,1.460983 -0.0312,0.327479 -0.004,0.689996 0.05989,0.80559 0.09853,0.177507 0.255017,0.06345 1.006525,-0.733777 0.489386,-0.519174 1.008172,-1.177758 1.15283,-1.463523 0.144671,-0.285764 0.232842,-0.55001 0.195914,-0.587213 -0.03691,-0.03721 -0.205355,0.02363 -0.374313,0.135189 -0.168958,0.111555 -0.45781,0.401823 -0.641893,0.64503 -0.184096,0.243206 -0.384139,0.442194 -0.444557,0.442194 -0.06042,0 -0.109151,-0.127169 -0.108221,-0.282607 8.76e-4,-0.155433 0.163806,-0.60491 0.36207,-0.998837 0.198277,-0.393927 0.622678,-1.059586 0.943133,-1.479246 0.320441,-0.41966 1.125755,-1.340827 1.78957,-2.047036 0.663803,-0.70621 1.409575,-1.538364 1.657249,-1.849232 0.247688,-0.310867 0.534335,-0.734777 0.637019,-0.942022 0.102645,-0.207245 0.227451,-0.509782 0.277273,-0.672307 0.08618,-0.281282 0.04329,-0.270707 -0.892329,0.219806 -0.540603,0.283416 -1.051009,0.515303 -1.13424,0.515303 -0.08326,0 -0.151338,-0.04505 -0.151338,-0.100108 0,-0.05506 0.210335,-0.300629 0.467397,-0.545705 0.257076,-0.245076 0.66934,-0.566788 0.916138,-0.714917 0.246798,-0.148128 1.004003,-0.471619 1.682664,-0.718869 0.678675,-0.247251 1.360151,-0.568599 1.514397,-0.714103 0.154245,-0.145505 0.280446,-0.367745 0.280446,-0.493865 0,-0.126124 0.06214,-0.229312 0.138085,-0.229312 0.0972,0 0.114861,0.381742 0.05962,1.28743 -0.07649,1.255511 -0.07303,1.279724 0.142361,0.976605 0.121501,-0.170955 0.481327,-0.627642 0.79975,-1.014861 0.318424,-0.38722 1.213594,-1.292992 1.98927,-2.012829 0.775675,-0.7198366 1.776265,-1.658232 2.223532,-2.085322 0.447266,-0.4270901 0.769819,-0.8202607 0.716771,-0.8737125 -0.05311,-0.053452 -0.299448,0.012988 -0.547588,0.1476459 -0.248125,0.134657 -0.856954,0.6267399 -1.352953,1.0935175 -0.495999,0.4667779 -0.963835,0.8486871 -1.039643,0.8486871 -0.07582,0 -0.13782,-0.079749 -0.13782,-0.1772286 0,-0.097481 0.121235,-0.4963715 0.269319,-0.886437 0.180989,-0.4765887 0.375176,-0.7630294 0.592044,-0.8732933 0.177511,-0.090246 0.687306,-0.2799998 1.132913,-0.421675 C 25.621842,7.1207698 26.275447,6.9705502 26.628701,6.928624 26.981953,6.886698 27.891479,6.6543941 28.649878,6.412394 30.0172,5.9760883 30.02777,5.969715 29.908394,5.6533092 29.842134,5.4778125 29.787956,5.2813825 29.787956,5.216798 c 0,-0.064584 0.210335,-0.1174706 0.467397,-0.1175256 0.259984,-5.52e-5 0.799298,-0.1614085 1.215267,-0.3635908 0.411322,-0.1999206 1.195203,-0.623786 1.741967,-0.9419233 0.546764,-0.3181372 1.08677,-0.5784314 1.199996,-0.5784314 0.113268,0 0.272188,0.080498 0.353214,0.1788834 0.09203,0.1116778 0.115923,0.3476183 0.06374,0.6280148 -0.07409,0.3979579 -0.128139,0.4505579 -0.474833,0.4616516 -0.215169,0.00689 -0.519901,0.049277 -0.677175,0.094203 -0.247288,0.070636 -0.26414,0.1110425 -0.124686,0.2987834 0.148708,0.2001259 0.278268,0.1566462 1.657022,-0.5560699 0.822643,-0.425244 1.989297,-0.9892405 2.592561,-1.2533257 0.603265,-0.264085 1.150136,-0.4801548 1.215254,-0.4801548 0.06507,0 0.118446,0.07873 0.118446,0.1749665 0,0.096232 0.0887,0.2092741 0.197162,0.2512059 0.108488,0.041932 0.44497,0.07624 0.747857,0.07624 0.374566,0 0.62633,0.076216 0.787174,0.2383088 0.232218,0.2340098 0.245153,0.2292963 0.716693,-0.261287 0.264113,-0.2747777 0.949985,-0.8158602 1.524155,-1.2024062 0.574172,-0.386545 1.359421,-0.807827 1.744995,-0.93618201 0.385573,-0.128355 1.037572,-0.311434 1.448892,-0.406842 0.411322,-0.09541 1.420914,-0.235667 2.243557,-0.311685 0.822643,-0.07602 1.762124,-0.16295 2.087758,-0.193181 0.423126,-0.03928 0.592044,-0.0096 0.592044,0.103971 0,0.09459 -0.445527,0.274685 -1.100473,0.444841 -0.786033,0.204208 -1.355967,0.273746 -1.994554,0.243355 -0.894082,-0.04255 -0.894082,-0.04255 -0.893802,0.31111701 1.32e-4,0.194516 -0.05749,0.462407 -0.128007,0.595314 -0.07064,0.132907 -0.284072,0.322802 -0.474408,0.42199 -0.190338,0.09919 -0.987949,0.300405 -1.772455,0.447149 -0.784507,0.1467447 -1.524542,0.2960702 -1.644502,0.3318351 -0.120039,0.035765 -0.218129,0.1665533 -0.218129,0.2906412 0,0.1240878 -0.154245,0.3819866 -0.342763,0.5731086 -0.188518,0.1911219 -0.819522,0.6726309 -1.402218,1.0700198 -0.58271,0.3973891 -1.19276,0.8675829 -1.355676,1.0448751 -0.171508,0.1866352 -0.264989,0.4043618 -0.222033,0.5171451 0.04076,0.1071368 0.217956,0.1947952 0.3937,0.1947952 0.175731,0 0.52087,-0.084782 0.766978,-0.1884044 0.246107,-0.1036226 0.468658,-0.1884045 0.494566,-0.1884045 0.0259,0 0.04714,0.072596 0.04714,0.1613235 0,0.088728 -0.172145,0.263799 -0.38256,0.3890469 -0.210401,0.1252472 -0.362257,0.2481728 -0.337451,0.2731668 0.02483,0.024994 0.376822,-0.041851 0.782275,-0.1485442 0.405438,-0.1066931 0.889819,-0.3234264 1.076398,-0.4816292 0.186579,-0.1582029 0.534069,-0.3244758 0.77221,-0.3694954 0.23814,-0.04502 0.676828,-0.026178 0.974882,0.04187 0.371061,0.084719 0.905396,0.077775 1.694841,-0.022024 0.755784,-0.095542 1.152936,-0.1993408 1.152936,-0.3013265 0,-0.085568 0.06347,-0.1951107 0.14106,-0.2434274 0.07755,-0.048317 0.190032,3.266e-4 0.249879,0.1081005 0.09521,0.1713432 0.43351,0.1870784 2.694554,0.1253088 1.545018,-0.042209 3.338227,-0.01091 4.455365,0.077761 1.028289,0.081621 2.570744,0.2610678 3.427658,0.3987714 0.856914,0.1377034 2.203044,0.3952797 2.991414,0.5723915 0.788356,0.1771121 2.229772,0.5705732 3.203155,0.8743582 1.769772,0.5523365 1.769772,0.5523365 2.866766,0.2903802 C 67.746503,7.831755 68.255927,7.6984814 68.275208,7.6796675 68.294468,7.6608495 67.966292,7.4389712 67.545875,7.1866 67.125458,6.9342289 66.548803,6.673608 66.264401,6.6074425 65.980011,6.5412765 65.559035,6.4857592 65.328903,6.4840704 64.999219,6.4816604 64.926531,6.4388684 64.98614,6.2823229 c 0.04156,-0.109272 0.07569,-0.2516528 0.07569,-0.3164005 0,-0.064748 0.139227,-0.082509 0.309407,-0.03947 0.170166,0.04304 0.604858,0.0072 0.965973,-0.079648 0.361114,-0.086847 0.729863,-0.2622875 0.819442,-0.3898686 0.08963,-0.1275806 0.285891,-0.2360956 0.436245,-0.241143 C 67.751909,5.2104628 67.579487,5.102213 67.18074,4.9570465 66.803704,4.8197837 66.186722,4.6557259 65.809673,4.5924736 65.432638,4.5292216 64.913813,4.382727 64.656737,4.2669307 64.399661,4.1511341 64.189326,4.0084545 64.189326,3.9498646 c 0,-0.058589 0.09813,-0.1059158 0.21813,-0.1051679 0.120039,7.535e-4 0.49106,0.084804 0.82466,0.1867917 0.333601,0.1019873 0.655224,0.1551146 0.714727,0.1180604 0.05949,-0.037054 0.154364,-0.2482841 0.210826,-0.4693984 0.08193,-0.3209427 0.176168,-0.410609 0.467131,-0.4445808 0.200455,-0.023405 0.569165,0.019246 0.819349,0.094781 0.250185,0.075533 0.512213,0.2077262 0.582285,0.2937604 0.07011,0.086035 0.166673,0.476152 0.214663,0.8669281 0.07264,0.5914966 0.05431,0.7177238 -0.109151,0.7536179 -0.118181,0.025947 -0.0027,0.1254013 0.289768,0.2497516 0.391297,0.1663257 0.47312,0.1724514 0.419407,0.031401 -0.03665,-0.096379 -6.63e-4,-0.1752353 0.08008,-0.1752353 0.08073,0 0.521428,0.3377726 0.979318,0.7506058 0.457876,0.4128328 1.125874,0.8977724 1.48444,1.0776432 0.358577,0.1798707 0.933493,0.5821133 1.277584,0.8938725 0.344104,0.3117593 0.625639,0.6181185 0.625639,0.6807984 0,0.06268 -0.07064,0.113963 -0.156914,0.113963 -0.08632,0 -0.619147,-0.3118541 -1.184102,-0.6930091 -1.027621,-0.6930088 -1.027621,-0.6930088 -1.027621,-0.2747049 0,0.2940488 0.101848,0.5145494 0.342764,0.7423129 0.188517,0.1782051 0.623209,0.4655418 0.965972,0.638526 0.342763,0.172985 0.917678,0.5512556 1.277584,0.8406019 0.359906,0.289346 0.654375,0.577798 0.654375,0.641003 0,0.06321 -0.09813,0.114771 -0.21813,0.114597 -0.120039,-1.24e-4 -0.638785,-0.282875 -1.152936,-0.628225 -0.934821,-0.6279068 -0.934821,-0.6279068 -0.973143,-0.125279 -0.02111,0.276443 -0.09003,0.502624 -0.153277,0.502624 -0.0632,0 -0.226269,-0.219921 -0.362349,-0.488712 C 71.052983,9.6484825 71.052983,9.6484825 70.632566,9.8545869 70.212148,10.06069 70.212148,10.06069 71.594143,10.80061 c 0.7601,0.406958 1.639163,0.887389 1.95347,1.067626 0.314321,0.180238 1.161396,0.733145 1.882376,1.228684 0.720994,0.495539 1.894101,1.368834 2.606902,1.940657 0.712787,0.571823 1.562412,1.290412 1.888046,1.596866 0.32562,0.306455 0.592044,0.492934 0.592044,0.4144 0,-0.07853 0.140224,-0.142791 0.311611,-0.142791 0.171375,0 0.311598,-0.02614 0.311598,-0.05809 0,-0.03195 -0.114196,-0.365771 -0.253862,-0.741824 -0.218275,-0.587899 -0.323097,-0.711655 -0.747843,-0.882916 -0.271696,-0.109544 -0.493995,-0.256159 -0.493995,-0.3258 0,-0.06964 0.199168,-0.12662 0.442593,-0.12662 0.350399,0 0.529781,0.09589 0.861017,0.460235 0.230121,0.253131 0.450096,0.6199 0.488816,0.815046 0.03877,0.195145 0.03904,0.437313 6.24e-4,0.538149 -0.03838,0.100832 -0.008,0.256889 0.06812,0.346782 0.07595,0.0899 0.277034,0.333006 0.446989,0.540251 0.212645,0.259307 0.310177,0.533481 0.312753,0.879222 0.0027,0.44574 0.110212,0.622841 0.947913,1.570037 0.519278,0.587194 1.322891,1.548057 1.785786,2.135251 0.46291,0.587193 1.223434,1.625716 1.690074,2.307828 0.696455,1.018092 0.82417,1.279306 0.713093,1.458535 -0.108752,0.175515 -0.05006,0.338726 0.299302,0.832245 0.23903,0.337654 0.510832,0.598302 0.603995,0.57922 0.09414,-0.01929 0.320748,0.245565 0.510354,0.596614 0.187535,0.34722 0.422183,0.63131 0.521455,0.63131 0.113798,0 0.152386,0.07382 0.10437,0.199798 -0.04303,0.112948 0.135656,0.617971 0.411016,1.161827 0.267911,0.529116 0.937105,2.064196 1.487109,3.411287 0.550004,1.347092 1.19742,3.025475 1.438681,3.729739 0.241274,0.704262 0.660708,2.173818 0.932099,3.265677 0.271377,1.091859 0.607102,2.691713 0.746051,3.555235 0.138934,0.86352 0.317294,2.191771 0.396342,2.951669 0.07901,0.759897 0.145189,2.596842 0.146955,4.082097 0.0013,1.485255 -0.0632,3.378719 -0.144499,4.207699 -0.08126,0.82898 -0.281866,2.298535 -0.445858,3.265678 -0.163979,0.967142 -0.454995,2.403953 -0.6467,3.19291 -0.208555,0.858354 -0.418119,1.457838 -0.521773,1.492657 -0.13199,0.04435 -0.154724,-0.02799 -0.09547,-0.304042 0.04276,-0.199226 0.18723,-0.899182 0.321013,-1.555459 0.133782,-0.656275 0.30468,-1.751648 0.379757,-2.434163 0.07502,-0.682516 0.161058,-2.293374 0.191067,-3.579685 0.04382,-1.87679 0.02975,-2.177487 -0.07117,-1.52233 -0.06918,0.449031 -0.235789,1.494676 -0.370302,2.323655 -0.1345,0.82898 -0.418545,2.242013 -0.631191,3.140075 -0.212658,0.898061 -0.435275,1.685592 -0.494711,1.750068 -0.05949,0.06448 -0.134301,0.09081 -0.166356,0.0585 -0.032,-0.0323 0.07715,-0.731111 0.242775,-1.552919 0.165572,-0.821807 0.40119,-2.232906 0.523579,-3.135778 0.173805,-1.282035 0.222552,-2.494403 0.222565,-5.535276 1.3e-5,-2.613711 -0.05418,-4.239082 -0.164696,-4.944367 -0.09058,-0.577868 -0.38873,-1.849599 -0.662497,-2.826064 -0.273767,-0.976466 -0.809934,-2.594951 -1.191484,-3.596635 -0.381551,-1.001684 -1.048036,-2.556021 -1.481081,-3.454083 -0.433032,-0.898061 -1.183119,-2.30333 -1.666849,-3.122822 -0.483743,-0.819491 -1.237044,-2.006438 -1.674033,-2.637663 -0.436989,-0.631221 -1.261291,-1.741152 -1.831797,-2.466509 -0.570506,-0.725357 -1.937482,-2.22609 -3.037743,-3.334961 -1.10026,-1.10887 -2.617445,-2.513038 -3.371529,-3.120371 -0.754085,-0.607332 -2.156315,-1.632337 -3.116061,-2.277789 -0.959745,-0.645451 -2.473304,-1.572546 -3.363456,-2.060212 -0.890164,-0.487665 -2.208248,-1.1479 -2.929096,-1.467192 -0.720835,-0.31929 -1.843455,-0.777703 -2.49471,-1.018693 -0.651253,-0.240993 -1.913262,-0.661157 -2.804449,-0.933699 -0.891187,-0.272541 -2.433641,-0.660415 -3.427659,-0.861943 -0.994016,-0.201527 -2.53647,-0.46487 -3.427658,-0.585207 -1.215957,-0.16419 -2.491337,-0.218552 -5.110322,-0.217823 -2.654413,7.53e-4 -3.877926,0.05458 -5.110336,0.224843 -0.891187,0.123135 -2.418225,0.390032 -3.393413,0.593114 -0.975175,0.203084 -2.46154,0.570752 -3.303012,0.817044 -0.841471,0.246292 -2.203016,0.702675 -3.025658,1.014184 -0.822643,0.31151 -2.393128,1.002893 -3.489976,1.536406 -1.096847,0.533513 -2.667346,1.381199 -3.489976,1.883748 -0.822642,0.502549 -2.056605,1.316824 -2.742131,1.809502 -0.685527,0.492676 -1.891445,1.441401 -2.679802,2.108278 -0.78837,0.666878 -2.191557,1.996638 -3.118198,2.955024 -0.926655,0.958385 -2.176606,2.36304 -2.77768,3.121455 -0.60106,0.758416 -1.561363,2.086667 -2.133994,2.95167 -0.57263,0.865003 -1.355915,2.142818 -1.740612,2.839586 -0.384697,0.696769 -0.699456,1.360896 -0.699456,1.475836 0,0.114945 -0.04794,0.208982 -0.106495,0.208982 -0.05856,0 -0.333495,0.494562 -0.61086,1.099025 -0.277365,0.604465 -0.657455,1.466416 -0.844658,1.915446 -0.18719,0.449031 -0.477196,1.212069 -0.644455,1.69564 -0.167245,0.483572 -0.498629,1.500956 -0.736384,2.260853 -0.237768,0.759899 -0.545781,2.116411 -0.684477,3.014473 -0.165931,1.074493 -0.2768347,2.583465 -0.3243194,4.412879 -0.045413,1.747447 -0.016067,3.450276 0.078876,4.584509 0.082992,0.992456 0.2877894,2.624026 0.4549944,3.62571 0.167206,1.001684 0.496504,2.584281 0.731777,3.516883 0.235258,0.932603 0.68372,2.446032 0.996553,3.36318 0.312846,0.917146 0.856104,2.245398 1.207246,2.951669 0.351142,0.706272 0.893869,1.736302 1.206065,2.288955 0.312209,0.552653 1.032711,1.71134 1.601119,2.574861 0.568422,0.86352 1.525113,2.1903 2.125974,2.948403 0.600875,0.7581 1.820218,2.133689 2.709666,3.056864 0.889433,0.923176 2.236305,2.204411 2.993033,2.847188 0.756726,0.642778 2.020885,1.634054 2.809242,2.202836 0.78837,0.568783 2.11555,1.436831 2.949293,1.928995 1.287065,0.75976 1.527184,0.950481 1.59067,1.26341 0.04116,0.202712 0.167988,0.47237 0.28192,0.599239 0.113931,0.126874 0.688182,0.376931 1.276096,0.555692 0.587929,0.178762 1.248411,0.434776 1.467748,0.56892 0.219352,0.134144 0.50742,0.424745 0.640167,0.645778 0.132787,0.221032 0.27957,0.52905 0.326285,0.684484 0.05152,0.17124 0.03201,0.282607 -0.0494,0.282607 -0.07396,0 -0.643898,-0.31761 -1.266655,-0.705802 -1.028649,-0.641198 -1.150189,-0.687763 -1.327872,-0.508716 -0.158839,0.160072 -0.166182,0.232773 -0.03904,0.387092 0.08605,0.104504 0.614101,0.36682 1.173399,0.582931 0.559299,0.21611 1.199452,0.479135 1.422562,0.584501 0.278613,0.131579 0.483556,0.369025 0.654374,0.75817 0.136797,0.311627 0.24871,0.644192 0.24871,0.739034 0,0.09484 -0.07171,0.172438 -0.159225,0.172438 -0.08764,0 -0.278799,-0.0844 -0.424932,-0.187545 -0.174906,-0.123456 -0.400711,-0.160334 -0.660748,-0.107922 -0.381019,0.07679 -0.363557,0.09196 0.492135,0.427455 0.487953,0.191309 0.96912,0.416363 1.069268,0.500113 0.100122,0.08376 0.182077,0.285359 0.182077,0.448012 0,0.170697 -0.118578,0.370296 -0.280446,0.47209 -0.154245,0.097 -0.43679,0.212951 -0.627883,0.257676 -0.191081,0.04473 -0.582696,0.01748 -0.870247,-0.06054 -0.389716,-0.105751 -0.793123,-0.406379 -1.584521,-1.180824 -0.583931,-0.571426 -1.184208,-1.10267 -1.333952,-1.18054 -0.149731,-0.07787 -0.384459,-0.141581 -0.521614,-0.141581 -0.137143,0 -0.406607,0.06025 -0.59879,0.133884 -0.349442,0.133884 -0.349442,0.133884 -0.0393,0.379839 0.170578,0.135279 0.927132,0.674901 1.681217,1.199164 0.754084,0.524262 1.497267,1.069705 1.651512,1.212094 0.154232,0.142388 0.280433,0.39034 0.280433,0.551001 0,0.170603 -0.07476,0.292114 -0.179595,0.292114 -0.09879,0 -0.214531,-0.05692 -0.257195,-0.126499 -0.04263,-0.06958 -0.256319,-0.22148 -0.474767,-0.33757 -0.273394,-0.145287 -0.882755,-0.239412 -1.955209,-0.302006 -0.856914,-0.05002 -1.711546,-0.150779 -1.899187,-0.223922 -0.188505,-0.07348 -0.715045,-0.612351 -1.176772,-1.204334 -0.459589,-0.589243 -0.899672,-1.071349 -0.977963,-1.071349 -0.07835,0 -0.179488,0.03741 -0.224861,0.08314 -0.04541,0.04572 0.05749,0.268039 0.228513,0.494032 0.171056,0.225993 0.311014,0.49945 0.311014,0.607682 0,0.10823 -0.04422,0.196785 -0.09813,0.196785 -0.05404,0 -0.376504,-0.286754 -0.716691,-0.637232 -0.340187,-0.350478 -1.738435,-1.495035 -3.10723,-2.54346 -1.368784,-1.048428 -3.074619,-2.471444 -3.790766,-3.16226 -0.716134,-0.690816 -1.634596,-1.705966 -2.04103,-2.25589 -0.406421,-0.549922 -0.897919,-1.317191 -1.092213,-1.705041 -0.194281,-0.387851 -0.539687,-0.846261 -0.767563,-1.018689 -0.227862,-0.172427 -0.484181,-0.355077 -0.569576,-0.405889 -0.09879,-0.05877 -0.208609,0.02556 -0.301825,0.231715 -0.0806,0.178257 -0.27309,0.356112 -0.427774,0.395233 -0.154683,0.03912 -0.397471,0.03396 -0.539527,-0.01153 -0.179475,-0.05739 -0.258271,-0.188871 -0.258271,-0.430886 0,-0.191554 -0.167232,-0.682308 -0.371617,-1.090562 -0.204386,-0.408252 -0.827741,-1.25097 -1.385221,-1.872705 -0.55748,-0.621734 -1.207512,-1.397093 -1.444524,-1.723018 -0.326085,-0.448439 -0.537203,-0.612685 -0.867869,-0.675196 -0.2472762,-0.04675 -0.5721131,-0.02056 -0.7482817,0.06033 -0.3113192,0.14294 -0.3113192,0.14294 0.068386,0.612397 0.2088209,0.258199 0.9140927,1.03447 1.5672727,1.725044 0.653192,0.690574 1.18762,1.275501 1.18762,1.29984 0,0.02434 -0.168267,0.202646 -0.373928,0.396241 -0.283328,0.266703 -0.373928,0.463031 -0.373928,0.810249 0,0.252041 0.08326,0.620447 0.184959,0.81868 0.172769,0.336671 0.209936,0.35092 0.564052,0.216225 0.270036,-0.102708 0.440959,-0.105831 0.594063,-0.01086 0.11818,0.07334 0.417257,0.439531 0.664532,0.813761 0.247263,0.37423 0.718033,1.141514 1.04615,1.705077 0.32813,0.563563 0.826931,1.264323 1.108453,1.557246 0.281535,0.292924 0.679033,0.603713 0.883352,0.690645 0.305092,0.129809 0.432063,0.126485 0.710504,-0.0186 0.186459,-0.09717 0.369852,-0.176667 0.407523,-0.176667 0.03771,0 0.06852,0.07929 0.06852,0.176222 0,0.09692 -0.203058,0.340386 -0.451263,0.54103 -0.451264,0.364808 -0.451264,0.364808 1.09062,1.375779 0.848044,0.556033 1.895442,1.21691 2.327584,1.468616 0.432129,0.251708 0.836279,0.457648 0.898118,0.457648 0.06188,0 0.305383,0.131955 0.541213,0.293228 0.23583,0.161276 1.430223,0.814146 2.654174,1.450822 1.223964,0.636676 2.615042,1.423196 3.091283,1.747821 0.47624,0.324624 0.887548,0.660877 0.914039,0.74723 0.02722,0.08863 -0.05803,0.157003 -0.195688,0.157003 -0.134115,0 -0.982996,-0.367389 -1.886413,-0.816419 z M 8.9900191,42.518155 c 0.1197739,-0.235791 0.3003643,-0.965664 0.4012692,-1.621939 0.1009181,-0.656277 0.411175,-2.05237 0.6894837,-3.102431 0.278321,-1.050061 0.762211,-2.62137 1.075309,-3.491797 0.313112,-0.870425 0.787773,-2.090214 1.054807,-2.710641 0.267035,-0.620426 0.873168,-1.880321 1.346965,-2.799769 0.653564,-1.268307 0.848297,-1.762013 0.806947,-2.045883 -0.0401,-0.275127 0.03373,-0.479887 0.279038,-0.773603 0.183446,-0.219692 0.403992,-0.399439 0.490104,-0.399439 0.08605,0 0.26341,-0.122626 0.394006,-0.272505 0.234236,-0.268826 0.234077,-0.27114 -0.01195,-0.171424 -0.137103,0.0556 -0.36146,0.10756 -0.498563,0.115495 -0.193311,0.01113 -0.257991,-0.07626 -0.288028,-0.389478 -0.03293,-0.343763 0.0093,-0.415951 0.28127,-0.484836 0.175996,-0.04451 0.501921,-0.04806 0.72426,-0.0079 0.380063,0.06868 0.43598,0.02813 0.933692,-0.676994 0.291189,-0.412522 0.499279,-0.750042 0.462444,-0.750042 -0.03678,0 -0.28686,0.113042 -0.555621,0.251206 -0.268747,0.138164 -0.553031,0.251206 -0.631747,0.251206 -0.09308,0 -0.113666,-0.118028 -0.05896,-0.337748 0.04621,-0.185768 0.192647,-0.491351 0.325301,-0.679081 0.139121,-0.196881 0.48786,-0.426027 0.82409,-0.541474 0.320601,-0.11008 0.687638,-0.200145 0.815644,-0.200145 0.128007,0 0.356401,-0.130788 0.507526,-0.290628 0.151138,-0.159844 0.681423,-0.74909 1.178445,-1.309436 0.497008,-0.560346 0.903655,-1.044705 0.903655,-1.076357 0,-0.03165 -0.118047,-0.08867 -0.262493,-0.126713 -0.18557,-0.04891 -0.510274,0.112439 -1.108028,0.550564 -0.465047,0.340857 -0.907825,0.619738 -0.983939,0.619738 -0.07609,0 -0.138391,-0.03875 -0.138391,-0.0861 0,-0.04735 0.124422,-0.219563 0.276476,-0.382675 0.27649,-0.296569 0.27649,-0.296569 -0.261988,-0.2098 -0.398003,0.06413 -0.567599,0.04109 -0.650179,-0.08834 -0.06148,-0.0963 -0.07927,-0.330538 -0.0397,-0.520512 0.04023,-0.193177 0.01753,-0.345408 -0.05152,-0.345408 -0.06785,0 -0.263184,0.167331 -0.433961,0.371849 -0.170778,0.204516 -0.406927,0.626295 -0.524789,0.937285 -0.117914,0.310991 -0.181201,0.652352 -0.14074,0.758579 0.0405,0.10622 0.215526,0.193141 0.389066,0.193141 0.181519,0 0.315515,0.0719 0.315515,0.169278 0,0.0931 -0.789804,1.322443 -1.755113,2.731866 -0.965309,1.409422 -2.05695,3.053143 -2.425873,3.652712 -0.368935,0.59957 -0.91125,1.545113 -1.205148,2.101206 -0.293898,0.556093 -0.589614,0.993709 -0.65715,0.972481 -0.06759,-0.02123 -0.173791,-0.217863 -0.236148,-0.436967 -0.06241,-0.219103 -0.157539,-0.398369 -0.211503,-0.398369 -0.05391,0 -0.21878,0.170754 -0.3662537,0.379453 -0.1474733,0.2087 -0.3821611,0.703261 -0.5215344,1.099027 C 9.2801987,31.415649 9.1909127,31.99 9.1877126,32.6064 c -0.00266,0.518113 0.069846,1.27162 0.1612167,1.674461 0.1420954,0.626515 0.1403958,0.749306 -0.011951,0.84907 -0.097864,0.06415 -0.2900733,0.09042 -0.4271892,0.05837 -0.1806303,-0.04222 -0.3260719,0.06006 -0.5281737,0.371408 -0.1533824,0.236322 -0.3305734,0.661496 -0.3937535,0.944832 -0.087905,0.394113 -0.041828,0.933684 0.1957546,2.296402 0.2411679,1.382924 0.2944022,2.019989 0.2380873,2.848872 -0.039836,0.587194 -0.1107445,1.208437 -0.1573925,1.38054 -0.082726,0.304924 -0.077282,0.307854 0.2113836,0.114705 0.1629298,-0.109022 0.394258,-0.391134 0.5140453,-0.626924 z M 11.15312,38.823767 c 0.184627,-0.690817 0.613689,-2.181047 0.95345,-3.311623 0.339776,-1.130577 0.59482,-2.078722 0.566762,-2.10699 -0.02802,-0.02827 -0.376225,0.697944 -0.773736,1.613804 -0.397512,0.915862 -0.966345,2.361263 -1.26408,3.212006 -0.297735,0.850741 -0.541346,1.591992 -0.541346,1.647223 0,0.05523 0.126148,0.15926 0.280446,0.231176 0.154246,0.07192 0.316976,0.09468 0.361632,0.0506 0.04462,-0.04408 0.232232,-0.645374 0.416872,-1.336191 z m 3.730558,-8.800591 c 0.247436,-0.453642 0.413366,-0.88437 0.36871,-0.957175 -0.04462,-0.07281 -0.268734,0.171185 -0.497965,0.542197 -0.22923,0.371011 -0.418053,0.801739 -0.419607,0.957173 -0.0013,0.155434 0.02005,0.282607 0.04807,0.282607 0.02802,0 0.253345,-0.371163 0.500793,-0.824802 z m 1.691893,-2.848444 c 0,-0.07007 -0.08273,-0.05647 -0.186964,0.03076 -0.102777,0.08599 -0.186964,0.212883 -0.186964,0.281965 0,0.07006 0.08273,0.05647 0.186964,-0.03076 0.102777,-0.08599 0.186964,-0.212883 0.186964,-0.281965 z m 0.594275,-0.848461 c 0.08565,-0.138164 0.135855,-0.251206 0.111674,-0.251206 -0.02417,0 -0.145574,0.113042 -0.269651,0.251206 -0.124023,0.138162 -0.174309,0.251206 -0.111673,0.251206 0.06267,0 0.184029,-0.113042 0.26965,-0.251206 z m 64.419563,-8.515713 c -0.113268,-0.220583 -0.360079,-0.433777 -0.599867,-0.51801 -0.407483,-0.143146 -0.407483,-0.143146 0.144247,0.42336 0.303459,0.311578 0.573388,0.544682 0.599852,0.518009 0.02643,-0.02667 -0.0385,-0.217185 -0.144232,-0.423359 z m -58.719413,-2.76212 c 0.41132,-0.30562 1.022951,-0.696328 1.359194,-0.868238 0.443429,-0.22671 0.564611,-0.341671 0.441198,-0.41853 -0.13827,-0.08612 -0.124421,-0.158441 0.07423,-0.386137 0.2072,-0.237585 0.212167,-0.26837 0.03266,-0.202529 -0.116317,0.0427 -0.649218,0.228829 -1.184084,0.413616 -0.669831,0.231411 -1.080449,0.458189 -1.319399,0.728673 -0.190788,0.215987 -0.578805,0.788351 -0.862226,1.271922 -0.283434,0.483572 -0.602906,1.020525 -0.709946,1.193229 -0.107026,0.172704 0.168786,-0.02133 0.612945,-0.431162 0.444159,-0.409844 1.144106,-0.995223 1.555428,-1.300844 z m 4.674077,-2.037152 c 0.445593,-0.299435 1.287052,-0.944513 1.869894,-1.433506 0.582842,-0.488994 1.215758,-1.002834 1.40648,-1.141867 0.34676,-0.252787 0.34676,-0.252787 -0.498841,-0.188404 -0.697225,0.05309 -0.927889,0.130493 -1.314671,0.441191 -0.258005,0.207245 -0.756156,0.784656 -1.106993,1.283135 -0.442977,0.629385 -0.756674,0.946065 -1.026616,1.036378 -0.213787,0.07153 -0.564172,0.238012 -0.778623,0.369962 -0.31448,0.193492 -0.378019,0.302642 -0.32841,0.564152 0.06148,0.324246 0.06148,0.324246 0.51455,-0.03119 0.249175,-0.195486 0.817636,-0.600422 1.26323,-0.899858 z m 6.3731,-4.5142875 C 33.859543,8.4589645 33.742771,8.2129644 33.657801,7.9503308 33.572811,7.6876974 33.438489,7.4943449 33.359295,7.5206585 c -0.07914,0.026314 -0.293844,0.2694566 -0.476971,0.5403172 -0.183126,0.2708605 -0.367833,0.6153187 -0.410458,0.7654625 -0.07755,0.2729885 -0.07755,0.2729885 0.736344,0.00635 0.447613,-0.146651 0.766646,-0.2977565 0.708963,-0.3357897 z m 36.54577,0.441368 C 70.500653,8.8392035 70.406633,8.570727 70.25387,8.3417523 70.101125,8.1127777 69.855947,7.907912 69.709045,7.8864955 c -0.265295,-0.038678 -0.265734,-0.034677 -0.06547,0.596614 0.161762,0.5097354 0.256027,0.6355534 0.476175,0.6355534 0.150966,0 0.30537,-0.081133 0.343135,-0.1802964 z M 35.989807,7.7691091 c 0.703346,-0.3093807 1.307063,-0.6085649 1.341587,-0.6648538 0.03452,-0.056289 -0.246134,-0.1412359 -0.623688,-0.1887711 -0.377539,-0.047536 -0.940092,-0.048097 -1.250109,-0.00124 -0.517339,0.078177 -0.594143,0.1387187 -0.93441,0.7365937 -0.203908,0.3582784 -0.371272,0.697615 -0.37191,0.7540816 -6.24e-4,0.056466 0.125086,0.063077 0.279265,0.014689 0.154245,-0.048388 0.855919,-0.3411081 1.559265,-0.6504888 z m 2.419791,-0.018356 c 1.037798,-0.3522294 1.037798,-0.3522294 0.30156,-0.4456802 -0.404921,-0.051399 -0.811568,-0.122584 -0.903655,-0.1581922 -0.09215,-0.035608 -0.167419,0.00147 -0.167419,0.082408 0,0.080932 -0.168268,0.2898287 -0.373929,0.4642139 -0.205659,0.174385 -0.373927,0.3723695 -0.373927,0.4399654 0,0.067596 0.107955,0.08839 0.2398,0.046207 0.131857,-0.042182 0.706786,-0.2351973 1.27757,-0.4289219 z M 69.672634,6.759188 c -2.38e-4,-0.049381 -0.115525,-0.2798518 -0.256,-0.5121581 -0.140541,-0.2323064 -0.287312,-0.390351 -0.326151,-0.3512104 -0.0389,0.03914 -0.0324,0.3282467 0.01434,0.6424583 0.07688,0.5165335 0.108221,0.5588042 0.326615,0.4409935 0.132894,-0.071665 0.241408,-0.1707025 0.241142,-0.2200833 z M 59.203173,91.214185 c 0,-0.10299 0.191439,-0.208617 0.467397,-0.257903 0.257075,-0.04591 0.565566,-0.112533 0.68554,-0.148046 0.154697,-0.0458 0.218116,0.0062 0.218116,0.178668 0,0.183497 -0.114729,0.262357 -0.467397,0.321089 -0.257076,0.04282 -0.565567,0.07847 -0.68554,0.07924 -0.120039,7.53e-4 -0.218116,-0.07711 -0.218116,-0.173043 z m -4.833953,-0.6678 c -0.225034,-0.02943 -0.476812,-0.162689 -0.559498,-0.296117 -0.09933,-0.160287 -0.353041,-0.269692 -0.747791,-0.322462 -0.401986,-0.05373 -0.668038,-0.170303 -0.813241,-0.356315 -0.192222,-0.246265 -0.374007,-0.285558 -1.664883,-0.359853 -0.797015,-0.04587 -2.114342,-0.197632 -2.927424,-0.337245 -0.813068,-0.139614 -1.576474,-0.284833 -1.696447,-0.322709 -0.120039,-0.03788 -0.218116,-0.14638 -0.218116,-0.241114 0,-0.109597 -0.192674,-0.193829 -0.529727,-0.23159 -0.291348,-0.03264 -0.669951,-0.0599 -0.841339,-0.06056 -0.171375,-6.27e-4 -0.535955,-0.01649 -0.810174,-0.03517 -0.274205,-0.01867 -0.554651,-0.0991 -0.623209,-0.17872 -0.06851,-0.07963 -0.489214,-0.273584 -0.934821,-0.431025 -0.445593,-0.157443 -1.53932,-0.593753 -2.43052,-0.969579 -0.891188,-0.375825 -2.349495,-1.064578 -3.240695,-1.530559 -0.891187,-0.465983 -2.182673,-1.223656 -2.869966,-1.683721 -0.687306,-0.460065 -1.861874,-1.330749 -2.610156,-1.934854 -0.748294,-0.604104 -1.959206,-1.706787 -2.690929,-2.450407 -0.731709,-0.74362 -1.800698,-1.948641 -2.37552,-2.677826 -0.574835,-0.729186 -1.505512,-2.044585 -2.068185,-2.923107 -0.562685,-0.878524 -1.025421,-1.667967 -1.028303,-1.75432 -0.0027,-0.08636 0.06493,-0.154697 0.150554,-0.151878 0.08565,0.0028 0.391311,0.384338 0.67914,0.847821 0.287842,0.463481 0.820677,1.215176 1.184102,1.67043 0.363424,0.455256 1.076464,1.274815 1.584534,1.821243 0.923786,0.993507 0.923786,0.993507 0.332672,0.20481 -0.325103,-0.433784 -0.979186,-1.410444 -1.453501,-2.170354 -0.474315,-0.759909 -0.862398,-1.43651 -0.862398,-1.503555 0,-0.06704 0.07011,-0.12146 0.155799,-0.120937 0.08564,5.03e-4 0.276157,0.212488 0.423271,0.471011 0.147102,0.258526 0.688302,1.035257 1.20268,1.726074 0.514376,0.690817 1.443023,1.830209 2.06367,2.531983 0.620646,0.701774 1.734065,1.827813 2.474261,2.502306 0.740194,0.674494 1.766478,1.504642 2.280616,1.84477 0.514152,0.340129 1.750279,1.026237 2.74694,1.524684 0.996672,0.498448 2.390804,1.120473 3.098068,1.382279 0.707277,0.261805 1.854928,0.64105 2.550361,0.842764 0.695419,0.201714 1.993558,0.50354 2.884745,0.670726 0.8912,0.167183 2.377552,0.371767 3.303024,0.454631 1.026205,0.09188 2.436377,0.119275 3.61461,0.07022 1.062575,-0.04424 2.492851,-0.161909 3.178377,-0.261478 0.68554,-0.09957 1.807311,-0.30269 2.492851,-0.45138 0.685526,-0.14869 2.077042,-0.545371 3.092265,-0.881515 1.015223,-0.336144 2.641798,-0.999245 3.614623,-1.473558 0.972824,-0.474313 2.29938,-1.19389 2.947899,-1.599061 0.648518,-0.405172 1.742259,-1.163126 2.430521,-1.684346 0.688261,-0.521219 1.973281,-1.655006 2.855598,-2.519527 0.882317,-0.864521 2.038453,-2.115173 2.56919,-2.779224 0.53075,-0.664053 1.33058,-1.766219 1.777422,-2.449259 0.446841,-0.683039 1.097498,-1.779624 1.445904,-2.436853 0.348393,-0.65723 0.883021,-1.79524 1.188059,-2.52891 0.305025,-0.733671 0.754642,-1.957545 0.999156,-2.719717 0.244514,-0.762173 0.557214,-1.895408 0.694901,-2.518301 0.137687,-0.622891 0.335168,-1.663797 0.438862,-2.313124 0.103706,-0.649328 0.242973,-1.995449 0.309526,-2.991381 0.07848,-1.173567 0.07821,-2.451352 -4.91e-4,-3.631089 -0.06679,-1.001166 -0.231288,-2.500684 -0.365417,-3.33226 -0.134129,-0.831577 -0.416712,-2.187471 -0.627963,-3.013097 -0.211251,-0.825628 -0.465857,-1.6663 -0.56578,-1.868161 -0.09999,-0.201859 -0.181732,-0.446521 -0.181732,-0.543691 0,-0.09717 -0.256624,-0.809134 -0.57028,-1.582141 -0.313657,-0.773007 -0.888571,-2.025349 -1.277584,-2.782982 -0.389013,-0.757634 -1.015794,-1.812802 -1.392843,-2.344816 -0.377036,-0.532016 -1.19033,-1.542696 -1.807299,-2.245958 -0.616981,-0.703261 -1.654632,-1.762268 -2.305886,-2.353348 -0.651254,-0.59108 -1.805704,-1.542595 -2.565433,-2.114479 -0.759741,-0.571884 -1.881658,-1.34694 -2.493155,-1.722345 -0.611485,-0.375406 -1.728636,-0.993784 -2.482561,-1.374175 -0.753912,-0.380389 -2.071876,-0.919895 -2.928791,-1.198899 -0.856914,-0.279004 -2.229175,-0.657902 -3.049481,-0.841996 -0.820305,-0.184092 -2.0823,-0.411115 -2.804449,-0.504495 -0.722149,-0.09338 -1.986056,-0.207427 -2.808698,-0.25344 -0.83697,-0.04682 -2.264219,-0.02157 -3.240694,0.05734 -0.959745,0.07755 -2.276355,0.226366 -2.925804,0.330712 -0.649434,0.104344 -1.791124,0.338784 -2.537068,0.520974 -1.083662,0.26467 -1.403413,0.301587 -1.59079,0.183666 -0.128935,-0.08117 -0.321012,-0.147586 -0.426723,-0.147586 -0.105699,0 -0.513116,0.161808 -0.905343,0.359575 -0.392226,0.197765 -0.909458,0.394998 -1.149391,0.438298 -0.239933,0.04329 -0.604513,0.03286 -0.810174,-0.0232 -0.20566,-0.05605 -0.390248,-0.187266 -0.410192,-0.291578 -0.02735,-0.142697 0.178824,-0.230552 0.832456,-0.354832 0.477807,-0.09085 0.942363,-0.211041 1.032366,-0.267095 0.130131,-0.08106 0.13199,-0.133763 0.0093,-0.257575 -0.122829,-0.123818 -0.353918,-0.07349 -1.129275,0.245976 -0.536153,0.220901 -1.083144,0.401322 -1.215558,0.400936 -0.132389,-3.77e-4 -0.451078,-0.05956 -0.708154,-0.131512 -0.257076,-0.07195 -0.467397,-0.205866 -0.467397,-0.297605 0,-0.09174 0.161177,-0.199288 0.35818,-0.238992 0.197003,-0.0397 0.389915,-0.155517 0.428703,-0.257359 0.0567,-0.148832 -0.03201,-0.138287 -0.451676,0.05373 -0.287191,0.131391 -0.672645,0.240143 -0.856543,0.24166 -0.226374,0.0019 -0.359919,-0.07837 -0.413485,-0.248447 -0.04356,-0.138164 -0.04436,-0.361768 -0.0013,-0.496896 0.04249,-0.135129 0.246957,-0.389474 0.454211,-0.565214 0.345631,-0.293085 0.474514,-0.319523 1.557538,-0.319523 0.792487,0 1.296679,-0.06042 1.533359,-0.183759 0.193949,-0.101073 0.3888,-0.278721 0.432992,-0.394786 0.04421,-0.116071 0.04927,-0.242398 0.01062,-0.280741 -0.03798,-0.03835 -0.474063,0.006 -0.968908,0.09871 -0.494857,0.09263 -1.306371,0.194795 -1.803393,0.227022 -0.745493,0.04834 -0.903656,0.02567 -0.903656,-0.129555 0,-0.114919 0.166687,-0.219666 0.428265,-0.269117 0.278494,-0.05265 0.713504,-0.341455 1.243975,-0.8259 0.448648,-0.409716 0.971072,-0.824164 1.160931,-0.920994 0.272957,-0.139209 0.550641,-0.151322 1.326769,-0.05787 0.648279,0.07805 1.024093,0.0753 1.106846,-0.008 0.08392,-0.08461 -0.0239,-0.15448 -0.327188,-0.211804 -0.248855,-0.04704 -0.452472,-0.135768 -0.452472,-0.197162 0,-0.06139 0.244103,-0.111621 0.542475,-0.111621 0.29836,0 1.658365,-0.141304 3.02222,-0.314008 1.466859,-0.185745 3.119672,-0.314008 4.046393,-0.314008 0.861655,0 1.899452,0.05943 2.306219,0.132062 0.40678,0.07263 1.009354,0.2196 1.339051,0.326584 0.359402,0.116621 0.767801,0.162694 1.019805,0.115052 0.397086,-0.07507 0.416566,-0.102882 0.352165,-0.50283 -0.05551,-0.344625 -0.01859,-0.45014 0.198742,-0.567319 0.218514,-0.117841 0.331197,-0.09784 0.621283,0.110321 0.194892,0.139849 0.511536,0.314492 0.703652,0.388096 0.192117,0.07361 1.138703,0.208509 2.103533,0.299792 1.503508,0.142246 1.792877,0.140442 2.024711,-0.0126 0.148773,-0.09823 0.304559,-0.26808 0.346215,-0.377444 0.0417,-0.10937 0.05125,-0.223547 0.02124,-0.253735 -0.03001,-0.03018 -0.813639,-0.08696 -1.741502,-0.126164 -1.687049,-0.07128 -1.687049,-0.07128 -1.724629,-0.519706 -0.02921,-0.348359 -0.132123,-0.512396 -0.461116,-0.735078 -0.232935,-0.157655 -0.46741,-0.286647 -0.521056,-0.286647 -0.05365,0 -0.115525,0.12717 -0.137368,0.282607 -0.02788,0.198142 -0.137249,0.293996 -0.365802,0.320717 -0.179276,0.02096 -0.964525,-0.134387 -1.744981,-0.345218 -0.78047,-0.210829 -1.685453,-0.383412 -2.011073,-0.383518 -0.426048,-1.26e-4 -0.661957,0.07025 -0.841339,0.251015 -0.137102,0.138164 -0.249281,0.307727 -0.249281,0.37681 0,0.06908 -0.05603,0.125601 -0.124688,0.125601 -0.06851,0 -0.124686,-0.197824 -0.124686,-0.439611 0,-0.357109 -0.04714,-0.43961 -0.251406,-0.43961 -0.138271,0 -0.881453,0.138164 -1.651512,0.307029 -0.770058,0.168865 -2.624855,0.677634 -4.121763,1.130598 -1.496922,0.452961 -3.032896,0.860427 -3.413264,0.905476 -0.561862,0.06655 -0.681344,0.04884 -0.636967,-0.09437 0.03001,-0.09696 0.61199,-0.36227 1.293174,-0.58959 0.681197,-0.227319 1.286679,-0.461817 1.345517,-0.521106 0.05949,-0.05999 -0.06427,-0.145708 -0.279277,-0.193287 -0.212433,-0.04702 -0.386238,-0.158921 -0.386238,-0.248673 0,-0.08975 0.154245,-0.223629 0.342763,-0.2975 0.188518,-0.07388 0.567121,-0.195489 0.841339,-0.270258 0.274205,-0.07478 1.536213,-0.19298 2.804436,-0.262688 1.268235,-0.06971 2.716544,-0.157976 3.218478,-0.196151 0.856729,-0.06515 0.900602,-0.08276 0.716693,-0.287544 -0.107691,-0.119971 -0.195902,-0.280327 -0.195902,-0.356343 0,-0.07601 0.322514,-0.205867 0.716692,-0.288563 0.467424,-0.09806 1.323608,-0.126057 2.461686,-0.08049 1.230789,0.04928 2.147472,0.164793 3.110868,0.391994 0.75123,0.177166 2.44793,0.643514 3.770422,1.036327 1.322506,0.392813 2.404548,0.765047 2.404548,0.827184 0,0.06214 -0.224358,0.20179 -0.498576,0.310334 -0.274205,0.108539 -0.498562,0.234055 -0.498562,0.278913 0,0.04486 0.434691,0.344632 0.965972,0.666165 0.531281,0.321533 1.12387,0.643646 1.316863,0.715807 0.192979,0.07216 0.367488,0.131203 0.387791,0.131203 0.02032,0 0.01195,-0.128831 -0.0174,-0.286287 -0.04329,-0.228216 0.03479,-0.329083 0.384697,-0.497251 0.398999,-0.191732 0.504923,-0.194017 1.162219,-0.02506 0.397764,0.10224 1.256046,0.442406 1.9073,0.755924 0.651254,0.313517 2.123597,1.111116 3.271859,1.772442 1.148263,0.661327 2.087758,1.277479 2.087758,1.36923 0,0.09174 0.63099,0.485376 1.402217,0.874724 0.771228,0.389349 1.529388,0.826237 1.684803,0.970866 0.155414,0.144628 0.444717,0.589948 0.642902,0.989601 0.198171,0.399653 0.398228,0.952694 0.444544,1.228985 0.06626,0.395186 0.19359,0.583393 0.596917,0.88229 0.281974,0.20897 0.567506,0.379945 0.63451,0.379945 0.06706,0 -0.0093,-0.141081 -0.170472,-0.313512 -0.160752,-0.172432 -0.252468,-0.353623 -0.203815,-0.402647 0.0486,-0.04903 0.323403,-0.0068 0.610581,0.09371 0.407896,0.142841 0.622626,0.336133 0.981562,0.883548 0.252695,0.385389 0.604487,0.796471 0.781757,0.913516 0.177258,0.11705 0.322301,0.27252 0.322301,0.345498 0,0.08043 -0.139439,0.101823 -0.354063,0.05432 -0.223892,-0.04955 -0.401402,-0.01859 -0.4828,0.08423 -0.07077,0.08943 -0.156025,0.463213 -0.189354,0.830645 -0.05405,0.59512 -0.02908,0.688865 0.228035,0.858646 0.15876,0.104827 0.346308,0.154678 0.416791,0.110791 0.07051,-0.0439 0.204944,-0.345503 0.298825,-0.670242 0.103839,-0.359031 0.252494,-0.606619 0.379398,-0.631725 0.154392,-0.03055 0.334544,0.230993 0.692153,1.004824 0.265906,0.575362 0.552899,1.283768 0.637763,1.574239 0.117649,0.402751 0.253597,0.575601 0.572524,0.728109 0.230014,0.109986 0.419461,0.239722 0.420989,0.288293 0.0013,0.04857 0.117516,0.229612 0.257647,0.402316 0.21765,0.268141 0.235444,0.273932 0.121898,0.03966 -0.07317,-0.150892 -0.133013,-0.391109 -0.133013,-0.533813 0,-0.142705 0.04436,-0.259463 0.0984,-0.259463 0.05418,0 0.315542,0.522823 0.580891,1.161828 0.265348,0.639005 0.800214,1.841982 1.18859,2.673283 0.496968,1.063725 0.836306,1.621826 1.14554,1.884044 0.305636,0.259161 0.539925,0.641063 0.769568,1.254474 0.181599,0.485036 0.330161,0.932757 0.330161,0.994934 0,0.06218 0.07755,0.202281 0.172278,0.311344 0.09468,0.109061 0.322673,0.642146 0.506516,1.184635 0.183844,0.542488 0.302582,1.018258 0.263875,1.057265 -0.03865,0.039 -0.264778,0.01086 -0.50236,-0.06267 -0.431984,-0.133602 -0.431984,-0.133602 -0.361194,0.44997 0.0389,0.320965 0.122695,0.793161 0.186206,1.049326 0.08086,0.326615 0.168734,0.445137 0.293885,0.396741 0.111541,-0.04315 0.274789,0.08829 0.435435,0.350664 0.141326,0.230824 0.290579,0.549485 0.331662,0.708136 0.04103,0.15865 0.04249,0.320898 0.0027,0.360549 -0.0393,0.03965 -0.298492,-0.109035 -0.575857,-0.330411 -0.27738,-0.221377 -0.504326,-0.367243 -0.504326,-0.324145 0,0.04309 0.119509,0.316324 0.265707,0.607169 0.146132,0.290844 0.563376,1.040171 0.927212,1.665168 0.363837,0.624999 0.805154,1.567565 0.980726,2.094595 0.175557,0.52703 0.319207,1.216745 0.319207,1.532704 0,0.48364 -0.03798,0.574467 -0.240385,0.574467 -0.132256,0 -0.327958,-0.08825 -0.434984,-0.196098 -0.107066,-0.107855 -0.312315,-0.602415 -0.45615,-1.099025 -0.143835,-0.49661 -0.397392,-1.32881 -0.563469,-1.849329 -0.166063,-0.520521 -0.473704,-1.156386 -0.683641,-1.413034 -0.209922,-0.256647 -0.433695,-0.466632 -0.49726,-0.466632 -0.0636,0 -0.115525,0.314099 -0.115525,0.697998 0,0.3839 0.06267,0.949112 0.13944,1.25603 0.07675,0.306917 0.188876,0.558031 0.249281,0.558031 0.06042,0 0.117649,-0.07065 0.12721,-0.157003 0.0093,-0.08636 0.0053,-0.36896 -0.01062,-0.628016 -0.0158,-0.263445 0.02961,-0.471011 0.102776,-0.471011 0.07197,0 0.197137,0.124569 0.27799,0.276813 0.08086,0.152247 0.224517,0.562028 0.319247,0.910622 0.09468,0.348594 0.225499,1.618338 0.290592,2.821651 0.07409,1.368674 0.193231,2.415045 0.318356,2.794666 0.11008,0.333753 0.251605,0.606824 0.314639,0.606824 0.06307,0 0.114595,-0.06195 0.114595,-0.137672 0,-0.07572 0.08817,-0.443109 0.195808,-0.81642 0.10769,-0.37331 0.254248,-0.678747 0.325674,-0.678747 0.08246,0 0.110611,0.309589 0.07715,0.84782 -0.03412,0.548252 -0.174907,1.136293 -0.398441,1.664239 -0.190125,0.449032 -0.409808,0.973056 -0.488191,1.1645 -0.108886,0.266061 -0.106496,0.406241 0.01062,0.594909 0.08419,0.135758 0.15297,0.275858 0.15297,0.311337 0,0.03548 -0.07011,0.06497 -0.155799,0.06553 -0.08565,5.02e-4 -0.380156,-0.258259 -0.654375,-0.575155 -0.498561,-0.576177 -0.498561,-0.576177 -0.512132,2.570294 -0.008,1.730558 0.03253,3.117764 0.08883,3.082676 0.0563,-0.03509 0.160287,-0.273709 0.230997,-0.530268 0.07064,-0.256561 0.128803,-0.847993 0.129202,-1.314293 5.04e-4,-0.632013 0.04396,-0.84782 0.170724,-0.84782 0.09348,0 0.26179,0.242105 0.373928,0.538012 0.112205,0.295907 0.20335,0.649164 0.202673,0.785017 -6.24e-4,0.135855 -0.133743,0.533834 -0.295744,0.884397 -0.161986,0.350565 -0.483956,0.889601 -0.71547,1.197858 -0.231527,0.308257 -0.587781,0.91643 -0.791676,1.351496 -0.341063,0.727732 -0.353532,0.800724 -0.155799,0.912233 0.11818,0.06667 0.214916,0.172409 0.214916,0.23499 0,0.06258 -0.133518,0.312066 -0.296726,0.554408 -0.163196,0.242345 -0.417828,0.908981 -0.565846,1.481414 -0.148017,0.572433 -0.321769,1.167961 -0.386131,1.323394 -0.0644,0.155434 -0.200163,0.282607 -0.301784,0.282607 -0.101583,0 -0.297523,-0.121942 -0.435303,-0.270977 -0.194693,-0.210583 -0.264406,-0.231578 -0.31282,-0.0942 -0.03426,0.09723 -0.279451,0.798509 -0.544852,1.558408 -0.400778,1.147489 -0.526872,1.383986 -0.744019,1.395521 -0.143795,0.0076 -0.437387,0.163075 -0.652423,0.345409 -0.215035,0.182335 -0.466335,0.331519 -0.558449,0.331519 -0.115391,0 -0.193458,0.263551 -0.251047,0.847819 -0.04594,0.466302 -0.160101,1.193771 -0.253676,1.6166 -0.09361,0.422829 -0.377567,1.129346 -0.631111,1.570038 -0.253557,0.440692 -0.887043,1.321185 -1.407755,1.956653 -0.520711,0.635468 -1.016869,1.158291 -1.102557,1.161828 -0.08564,0.0035 -0.155799,-0.05415 -0.155799,-0.128202 0,-0.07405 0.15078,-0.399048 0.335075,-0.722217 0.184282,-0.323169 0.4408,-0.727648 0.570028,-0.898842 0.129202,-0.171194 0.373251,-0.402672 0.542249,-0.514394 0.27086,-0.179048 0.28455,-0.222149 0.115525,-0.363534 -0.105433,-0.08822 -0.193019,-0.337172 -0.19452,-0.553228 -0.0027,-0.385493 -0.008,-0.382315 -0.256132,0.170105 -0.139374,0.309615 -0.476494,0.860698 -0.749158,1.224629 -0.272665,0.36393 -0.578076,0.661692 -0.678689,0.661692 -0.100652,0 -0.182927,-0.05318 -0.182927,-0.118189 0,-0.065 0.05604,-0.153123 0.124687,-0.195817 0.06851,-0.0427 0.12243,-0.144945 0.119642,-0.227219 -0.0027,-0.08227 -0.250211,0.118886 -0.549965,0.447024 -0.299767,0.328137 -0.606027,0.596613 -0.680587,0.596613 -0.07462,0 -0.135562,-0.04424 -0.135562,-0.09831 0,-0.05407 0.201651,-0.480986 0.448103,-0.948698 0.281217,-0.533668 0.605589,-0.953155 0.87095,-1.126317 0.232563,-0.151762 0.423551,-0.311401 0.424402,-0.354754 8.62e-4,-0.04335 -0.08259,-0.149185 -0.185424,-0.235184 -0.102778,-0.08599 -0.187005,-0.276614 -0.187058,-0.423588 -7.9e-5,-0.194035 -0.06812,-0.129622 -0.24867,0.235184 -0.136704,0.276326 -0.459178,0.78076 -0.716599,1.120965 -0.257407,0.340205 -0.546046,0.64431 -0.641414,0.675792 -0.131194,0.04331 -0.153356,-0.0232 -0.0911,-0.273146 0.07529,-0.302131 0.05006,-0.330383 -0.294017,-0.330383 -0.222272,0 -0.376306,-0.06568 -0.376306,-0.160457 0,-0.08825 0.09096,-0.291347 0.202182,-0.451324 0.143888,-0.207023 0.288467,-0.274241 0.50155,-0.233194 0.217811,0.04195 0.374977,-0.03608 0.57684,-0.286466 0.1526,-0.189275 0.373013,-0.520824 0.489786,-0.736775 0.11672,-0.215951 0.299063,-0.392638 0.405093,-0.392638 0.105964,0 0.196312,0.09892 0.200655,0.219805 0.0067,0.17108 0.03253,0.158282 0.118712,-0.05773 0.06095,-0.152645 0.414388,-0.724145 0.785355,-1.270002 0.37098,-0.545854 0.773869,-1.254653 0.895316,-1.575108 0.121501,-0.320454 0.26928,-0.582644 0.328516,-0.582644 0.05922,0 0.10769,0.248102 0.10769,0.551338 0,0.303236 -0.08764,1.01723 -0.194891,1.586654 -0.107159,0.569422 -0.281629,1.168705 -0.387633,1.331735 -0.105964,0.163034 -0.157896,0.38792 -0.115259,0.499749 0.0563,0.14787 0.252123,-0.06598 0.71794,-0.784049 0.589774,-0.909137 0.638825,-1.042113 0.61908,-1.67819 -0.01195,-0.379951 0.06374,-1.132905 0.167869,-1.673232 0.144618,-0.750552 0.155932,-1.045243 0.04794,-1.248613 -0.140648,-0.264824 -0.142892,-0.264417 -0.43586,0.0788 -0.161961,0.189749 -0.294482,0.426625 -0.294482,0.526396 0,0.09977 -0.05604,0.181401 -0.124687,0.181401 -0.06851,0 -0.124952,-0.155434 -0.125218,-0.345409 -6.24e-4,-0.334531 -0.01062,-0.329588 -0.30772,0.157003 -0.168892,0.276328 -0.308824,0.633301 -0.310961,0.793277 -0.0027,0.159975 -0.0636,0.403215 -0.136492,0.540533 -0.0729,0.13732 -0.298785,0.35152 -0.501922,0.476003 -0.203125,0.124488 -0.592164,0.527316 -0.864537,0.895185 -0.272372,0.367868 -0.495216,0.771685 -0.495216,0.897374 0,0.130064 -0.09401,0.232858 -0.218116,0.238591 -0.120039,0.0055 -0.662182,0.518919 -1.204923,1.140846 -0.54274,0.621926 -1.636481,1.694168 -2.43052,2.38276 -0.794054,0.68859 -2.144843,1.725921 -3.001758,2.30518 -0.856914,0.579257 -2.203043,1.393741 -2.991413,1.80996 -0.788356,0.416219 -1.492725,0.857884 -1.565254,0.981477 -0.0725,0.12359 -0.26329,0.443039 -0.423922,0.709877 -0.292065,0.485162 -0.292065,0.485162 0.131857,0.395898 0.233161,-0.0491 0.66286,-0.207064 0.954885,-0.351043 0.292039,-0.143978 0.623236,-0.364523 0.736013,-0.4901 0.112735,-0.125574 0.25244,-0.228322 0.310376,-0.228322 0.05789,0 0.1053,0.141304 0.1053,0.314008 0,0.172704 -0.04967,0.314008 -0.110346,0.314008 -0.06069,0 -0.20922,0.152123 -0.330122,0.338053 -0.120836,0.185929 -0.262573,0.529176 -0.314852,0.762771 -0.07808,0.34868 -0.06175,0.411863 0.0907,0.352908 0.102114,-0.0395 0.481034,-0.269354 0.841989,-0.510794 0.360968,-0.241439 0.833306,-0.474654 1.049642,-0.518256 0.228606,-0.04608 0.393341,-0.02741 0.393341,0.04458 0,0.06812 -0.252401,0.258779 -0.560892,0.423694 -0.308491,0.164915 -0.560892,0.338997 -0.560892,0.38685 0,0.04785 0.05604,0.121942 0.124687,0.164632 0.06851,0.04269 0.124687,0.237719 0.124687,0.433385 0,0.29811 -0.08113,0.388498 -0.501085,0.5578 -0.2756,0.111126 -0.561995,0.202043 -0.636435,0.202043 -0.07449,0 -0.347796,-0.169564 -0.607461,-0.376809 -0.259665,-0.207245 -0.53241,-0.376809 -0.60608,-0.376809 -0.0737,0 -0.101715,0.08477 -0.06215,0.188405 0.05949,0.156078 -0.07489,0.188728 -0.782926,0.190296 -0.470066,0.001 -1.079027,0.08334 -1.353232,0.18289 -0.274219,0.09955 -0.849121,0.183482 -1.277584,0.186515 -0.428451,0.0031 -0.779009,-0.04733 -0.779009,-0.111903 0,-0.06458 0.41962,-0.188463 0.932483,-0.275305 0.887894,-0.150342 0.922738,-0.168757 0.728536,-0.385002 -0.112204,-0.124904 -0.321464,-0.226494 -0.465085,-0.225747 -0.14361,7.54e-4 -0.536461,0.08553 -0.872983,0.188405 -0.336521,0.102869 -0.883392,0.187045 -1.215254,0.187045 -0.331874,0 -0.60341,-0.05048 -0.60341,-0.112171 0,-0.0617 0.08339,-0.144435 0.18545,-0.183876 0.101981,-0.03944 0.467835,-0.109463 0.812975,-0.155597 0.345141,-0.04613 0.653685,-0.126553 0.685673,-0.178702 0.03201,-0.05215 -0.02537,-0.164661 -0.127475,-0.25003 -0.102114,-0.08536 -0.185597,-0.211104 -0.185597,-0.279416 0,-0.07311 0.173513,-0.0914 0.421785,-0.04446 0.32238,0.06094 0.439883,0.03221 0.498575,-0.121902 0.04223,-0.110898 0.07675,-0.23132 0.07675,-0.267602 0,-0.03628 -0.09813,-0.02737 -0.218129,0.01978 -0.120039,0.04717 -0.722919,0.227893 -1.339901,0.401614 -0.616982,0.173722 -1.878977,0.451347 -2.804449,0.616945 -0.92546,0.165598 -2.439869,0.341369 -3.365329,0.390602 -0.925472,0.04923 -1.584521,0.110603 -1.464547,0.136368 0.120039,0.02577 0.218116,0.0959 0.218116,0.155833 0,0.05994 -0.06148,0.14723 -0.136479,0.193982 -0.07702,0.04796 0.08751,0.186062 0.377567,0.316919 0.39354,0.177553 0.590278,0.202706 0.839294,0.107305 0.178891,-0.06854 0.357568,-0.09207 0.397046,-0.05227 0.03943,0.03978 0.01195,0.168539 -0.06108,0.28612 -0.07304,0.117586 -0.267366,0.220017 -0.431837,0.227638 -0.16447,0.0076 -0.483159,-0.01019 -0.708193,-0.03966 z m -0.774945,-1.118058 c 0,-0.02716 -0.154246,-0.04849 -0.342764,-0.04743 -0.249467,0.0013 -0.294946,0.03242 -0.167112,0.113981 0.09667,0.06163 0.250862,0.08298 0.342764,0.04743 0.09188,-0.03554 0.167112,-0.08684 0.167112,-0.113981 z m 12.090286,-0.30057 c -0.171388,-0.13509 -0.3677,-0.244995 -0.436258,-0.244234 -0.06851,7.55e-4 0.008,0.112547 0.169622,0.248413 0.161841,0.135865 0.35814,0.24577 0.436246,0.244234 0.07808,-0.0015 0.0013,-0.113324 -0.16961,-0.248413 z m -1.121784,-0.607852 c 0,-0.058 -0.142866,-0.171036 -0.317468,-0.251206 -0.174614,-0.08018 -0.370927,-0.145765 -0.436245,-0.145765 -0.06533,0 -0.118711,0.08007 -0.118711,0.177938 0,0.09787 0.07011,0.206446 0.155799,0.241289 0.08565,0.03485 0.282,0.06782 0.436244,0.07326 0.154246,0.0055 0.280447,-0.03753 0.280447,-0.09552 z M 81.491889,72.192622 c 0.230214,-0.178476 0.281191,-0.322098 0.249282,-0.702349 -0.0401,-0.477997 -0.0401,-0.477997 -0.38151,0.227144 -0.187775,0.38783 -0.299953,0.703887 -0.249282,0.702351 0.05072,-0.0015 0.222352,-0.103753 0.38151,-0.227146 z m 1.376192,-1.088462 c 0.215049,-0.24683 0.391018,-0.556178 0.391018,-0.68744 0,-0.131257 -0.0632,-0.397772 -0.140395,-0.592243 -0.140383,-0.353585 -0.140383,-0.353585 -0.364235,0.148827 -0.123094,0.276327 -0.340347,0.80111 -0.482721,1.166184 -0.245125,0.628588 -0.246546,0.657139 -0.02682,0.538614 0.127608,-0.06884 0.408041,-0.327114 0.623103,-0.573942 z m 2.380433,-0.04392 c -0.08179,-0.02746 -0.197361,0.02762 -0.256942,0.122384 -0.05962,0.09477 -0.109152,0.223463 -0.110214,0.285982 -9.5e-4,0.06251 0.114596,0.0075 0.256943,-0.122398 0.167232,-0.152505 0.206245,-0.253728 0.110213,-0.28598 z m -1.361531,-1.945243 c -0.05152,-0.230284 -0.146769,-0.514255 -0.211636,-0.631048 -0.100122,-0.180308 -0.150647,-0.143214 -0.334757,0.245845 -0.119242,0.252008 -0.200401,0.468351 -0.180324,0.480763 0.02005,0.01246 0.176726,0.08637 0.348114,0.164354 0.171376,0.07798 0.34777,0.145611 0.391961,0.150286 0.04422,0.0047 0.03825,-0.179914 -0.01341,-0.4102 z m 0.517457,-4.165812 c -0.02138,-0.552654 -0.04501,-1.202648 -0.05272,-1.444434 -0.008,-0.241787 0.06507,-0.625849 0.161681,-0.853471 0.153064,-0.360624 0.151843,-0.428823 -0.0093,-0.530166 -0.153807,-0.09657 -0.220253,0.06958 -0.391536,0.979074 -0.1134,0.602459 -0.244049,1.57581 -0.290206,2.163005 -0.04621,0.587194 -0.111142,1.165746 -0.144326,1.285675 -0.0389,0.140323 0.08684,0.07317 0.352536,-0.188404 0.408095,-0.401697 0.412477,-0.418221 0.374181,-1.411279 z m 1.603337,-5.46373 c -0.07436,-0.379948 -0.209484,-0.941365 -0.300284,-1.247592 -0.165094,-0.556777 -0.165094,-0.556777 -0.241818,0.81642 -0.04223,0.755257 -0.132854,1.562092 -0.201425,1.792966 -0.06851,0.230872 -0.08976,0.595573 -0.04714,0.810443 0.07502,0.377728 0.09163,0.359654 0.501723,-0.545373 0.404456,-0.89251 0.417894,-0.968179 0.288971,-1.626864 z m -0.936878,-4.081109 c 0.0478,-0.449573 0.136425,-0.817406 0.19699,-0.817406 0.06055,0 0.11008,0.08479 0.11008,0.188404 0,0.10362 0.05272,0.188404 0.117251,0.188404 0.06453,0 0.151948,-0.05652 0.194321,-0.125601 0.04236,-0.06908 0.193736,-0.125601 0.336376,-0.125601 0.142639,0 0.333866,0.09892 0.424931,0.219805 0.151722,0.20141 0.165679,0.193523 0.166807,-0.0942 6.25e-4,-0.172705 -0.103839,-0.54725 -0.232337,-0.832324 -0.128405,-0.285076 -0.295902,-0.557135 -0.37207,-0.604575 -0.07622,-0.04745 -0.172158,0.0021 -0.213282,0.110107 -0.04116,0.108002 -0.143582,0.196365 -0.22769,0.196365 -0.09893,0 -0.29812,-0.764354 -0.564531,-2.166651 -0.226402,-1.191659 -0.568886,-2.816647 -0.761055,-3.611086 -0.192183,-0.794439 -0.437547,-1.693468 -0.545237,-1.99784 -0.107691,-0.304373 -0.165028,-0.584426 -0.127476,-0.622341 0.03758,-0.03792 0.23437,-0.0058 0.437201,0.07134 0.359057,0.136573 0.366692,0.131445 0.289157,-0.194078 -0.04382,-0.183894 -0.189049,-0.554337 -0.322792,-0.823206 -0.133729,-0.268867 -0.489174,-0.753887 -0.789857,-1.077822 -0.300683,-0.323932 -0.744191,-0.696148 -0.985572,-0.827141 -0.24138,-0.130989 -0.438874,-0.335552 -0.438874,-0.454572 0,-0.11902 0.09654,-0.270837 0.214504,-0.337371 0.201252,-0.113498 0.199181,-0.158215 -0.03346,-0.723811 -0.162001,-0.393901 -0.425237,-0.735052 -0.759516,-0.984298 -0.281375,-0.209802 -0.886579,-0.655813 -1.344894,-0.991137 -0.458327,-0.335324 -1.040386,-0.890211 -1.293465,-1.233081 -0.435409,-0.5899 -0.462258,-0.606095 -0.499545,-0.301345 -0.02669,0.218646 0.129202,0.564174 0.48547,1.076078 0.288679,0.414711 0.57283,0.75402 0.631455,0.75402 0.05869,0 0.106628,0.06574 0.106628,0.146084 0,0.08035 0.302396,0.65969 0.672009,1.28743 0.369612,0.627741 0.90108,1.603632 1.181034,2.168644 0.279969,0.565015 0.701714,1.497617 0.937225,2.072451 0.235525,0.574833 0.639183,1.695145 0.897056,2.489584 0.285373,0.879231 0.563468,1.512533 0.710663,1.618465 0.201465,0.144985 0.232656,0.285588 0.186831,0.842402 -0.04303,0.52327 -0.02403,0.62568 0.08764,0.471727 0.07848,-0.10815 0.251154,-0.17579 0.383728,-0.150302 0.132521,0.02549 0.258058,0.165891 0.278839,0.31201 0.02072,0.146117 -0.04834,0.352448 -0.153568,0.458513 -0.1053,0.106072 -0.255336,0.214332 -0.333521,0.240594 -0.09919,0.03332 -0.113267,0.254994 -0.04661,0.733432 0.09547,0.685683 0.09547,0.685683 0.233399,0.286487 0.07582,-0.219557 0.184534,-0.445553 0.241553,-0.502214 0.05696,-0.05665 0.18322,0.0066 0.280447,0.140595 0.0972,0.133992 0.176779,0.416955 0.176779,0.628818 0,0.211861 -0.139041,0.648391 -0.308969,0.970068 -0.287537,0.544293 -0.303551,0.668006 -0.23085,1.783319 0.07144,1.096054 0.09693,1.188276 0.298943,1.079361 0.159996,-0.08629 0.24474,-0.344221 0.307681,-0.936498 z m -3.197831,-7.669832 c -0.07304,-0.27244 -0.187694,-0.55187 -0.254725,-0.620951 -0.07968,-0.08207 -0.09083,0.005 -0.03253,0.251205 0.04913,0.207245 0.138841,0.511821 0.199273,0.676837 0.06042,0.165014 0.134832,0.274877 0.165333,0.244142 0.03054,-0.03073 -0.004,-0.278789 -0.07742,-0.551233 z m -1.53798,-4.762053 c -0.246093,-0.599101 -0.676948,-1.551559 -0.957447,-2.116573 -0.2805,-0.565014 -0.527311,-1.04661 -0.548477,-1.070211 -0.02111,-0.0236 -0.120438,0.0047 -0.220453,0.06281 -0.147155,0.08548 0.02988,0.490132 0.92522,2.115362 0.608962,1.105306 1.107299,2.061459 1.107431,2.124784 1.33e-4,0.06333 0.03201,0.08318 0.07078,0.04412 0.03877,-0.03906 -0.130928,-0.561185 -0.376983,-1.160288 z M 57.582826,90.519797 c 0,-0.06336 0.283195,-0.176399 0.629344,-0.251206 0.346136,-0.0748 0.682671,-0.13601 0.747843,-0.13601 0.0652,0 0.118579,0.07873 0.118579,0.174966 0,0.09624 -0.0887,0.209275 -0.197149,0.251206 -0.108487,0.04194 -0.444969,0.07624 -0.747857,0.07624 -0.302887,0 -0.550694,-0.05184 -0.550694,-0.115201 z M 72.16595,88.020716 c 0,-0.05621 -0.332193,-0.07801 -0.738203,-0.04841 -0.734352,0.05353 -0.738402,0.05194 -0.779009,-0.305993 -0.04023,-0.354314 -0.05152,-0.359175 -0.744257,-0.31878 -0.431757,0.02518 -0.737155,-0.01397 -0.790747,-0.101342 -0.04807,-0.0783 -0.05511,-0.271706 -0.01567,-0.429796 0.0409,-0.163941 0.367183,-0.485213 0.759596,-0.747762 0.37839,-0.253179 0.687996,-0.486002 0.687996,-0.517382 0,-0.03138 -0.25705,0.05397 -0.571223,0.189688 -0.314175,0.135708 -0.622665,0.246743 -0.68554,0.246743 -0.0628,0 -0.11433,-0.07344 -0.11433,-0.163189 0,-0.08975 0.490782,-0.53393 1.09062,-0.987059 0.599839,-0.45313 1.235304,-0.858783 1.412124,-0.901453 0.176832,-0.04268 0.690241,-0.418054 1.140893,-0.834185 0.450666,-0.41613 0.873075,-0.756601 0.938711,-0.756601 0.0656,0 0.153741,0.292713 0.195781,0.650471 0.04873,0.415123 0.02457,0.713511 -0.06706,0.824702 -0.07888,0.09582 -0.311121,0.26158 -0.515984,0.36834 -0.246215,0.128309 -0.561995,0.172589 -0.931436,0.130627 -0.399157,-0.04534 -0.660614,-0.0011 -0.91465,0.154507 -0.353731,0.216776 -0.354315,0.219259 -0.105964,0.445771 0.137368,0.12528 0.249773,0.339308 0.249773,0.475619 0,0.228744 0.03121,0.221996 0.40508,-0.0876 0.222804,-0.184489 0.705936,-0.47647 1.073636,-0.648847 0.367714,-0.172376 1.00213,-0.63404 1.409827,-1.025916 0.595031,-0.571944 0.76399,-0.676318 0.85641,-0.529078 0.06334,0.100886 0.115923,0.448054 0.116985,0.771489 0.0013,0.502366 -0.04913,0.624695 -0.34846,0.839468 -0.1927,0.138273 -0.488483,0.286339 -0.657308,0.329036 -0.168813,0.04269 -0.445834,0.02584 -0.615601,-0.03744 -0.219537,-0.08184 -0.425662,-0.05885 -0.713757,0.07959 -0.222804,0.107065 -0.405094,0.234664 -0.405094,0.28356 0,0.0489 0.08419,0.121433 0.186964,0.161201 0.116853,0.04518 0.186965,0.236958 0.186965,0.51143 0,0.309822 -0.07304,0.478517 -0.247994,0.572879 -0.136398,0.07356 -0.332511,0.298427 -0.435793,0.499702 -0.118313,0.230659 -0.141883,0.394553 -0.0636,0.443302 0.06825,0.04254 0.124157,0.187049 0.124157,0.321135 0,0.134086 -0.08419,0.243793 -0.186965,0.243793 -0.102777,0 -0.186964,-0.046 -0.186964,-0.102212 z m -0.618004,-1.360597 c 0.274138,-0.182813 0.477913,-0.353062 0.452831,-0.378333 -0.0251,-0.02527 -0.30666,0.07043 -0.625746,0.212664 -0.319074,0.142232 -0.580147,0.312483 -0.580147,0.378331 0,0.06585 0.05723,0.119731 0.127343,0.119731 0.06998,0 0.351607,-0.149574 0.625745,-0.332388 z M 90.032778,61.175678 c -0.04063,-0.106595 -0.04263,-0.225304 -0.004,-0.263782 0.03825,-0.03848 0.129202,-0.0327 0.202368,0.01287 0.07317,0.04553 0.132933,0.164238 0.132933,0.263784 0,0.09954 -0.05789,0.180991 -0.128538,0.180991 -0.07064,0 -0.161774,-0.08722 -0.202367,-0.193822 z M 77.245108,12.182474 c -0.394178,-0.245491 -0.716692,-0.498324 -0.716692,-0.561851 0,-0.06353 0.166316,-0.115509 0.3696,-0.115509 0.235657,0 0.529236,0.141258 0.810173,0.389821 0.24231,0.214401 0.440574,0.468747 0.440574,0.565214 0,0.09646 -0.04209,0.17388 -0.09348,0.172028 -0.05139,-0.0019 -0.415981,-0.204216 -0.810173,-0.449708 z M 76.3103,10.047868 C 75.950394,9.8090811 75.655926,9.5588468 75.655926,9.4917908 c 0,-0.067056 0.158176,-0.1219285 0.351487,-0.1219285 0.222989,0 0.541971,0.1642946 0.872504,0.4493972 0.286541,0.2471685 0.521003,0.5015155 0.521003,0.5652135 0,0.06371 -0.09813,0.111702 -0.21813,0.106676 -0.120039,-0.0051 -0.512583,-0.204507 -0.87249,-0.443292 z M 19.31769,9.4326708 c 0,-0.1727045 0.05604,-0.3140079 0.124687,-0.3140079 0.06852,0 0.124687,0.1413034 0.124687,0.3140079 0,0.1727038 -0.05604,0.3140066 -0.124687,0.3140066 -0.06852,0 -0.124687,-0.1413028 -0.124687,-0.3140066 z m 41.994009,-3.378879 c -0.02855,-0.02772 -0.540815,-0.1102182 -1.138345,-0.1833313 -0.597514,-0.073113 -1.35472,-0.2578676 -1.682663,-0.410567 -0.4975,-0.2316492 -0.828472,-0.2792992 -1.998219,-0.28768 -0.771069,-0.00552 -1.402072,-0.060408 -1.402218,-0.1219621 -1.2e-4,-0.061555 0.207559,-0.3865526 0.461581,-0.722217 0.425475,-0.5622151 0.503833,-0.6102991 0.994615,-0.6102991 0.293021,0 0.760723,0.091915 1.039337,0.2042569 0.362867,0.1463103 0.575778,0.3409252 0.750472,0.6860009 0.192727,0.380694 0.35008,0.5105598 0.750154,0.6191192 0.278454,0.075556 0.575844,0.1642765 0.660868,0.1971559 0.109815,0.042472 0.140197,-0.064501 0.104902,-0.3694656 -0.02735,-0.2360857 0.01368,-0.5487243 0.09123,-0.6947526 0.118578,-0.22319 0.264458,-0.2682239 0.915633,-0.2825602 0.774626,-0.017054 0.774626,-0.017054 -0.09786,-0.1175363 C 60.281307,3.9046885 59.479778,3.804326 58.980007,3.7369253 58.480224,3.6695253 57.941653,3.5287608 57.783158,3.4241167 57.624676,3.3194729 57.061938,3.1731566 56.532636,3.09897 56.003333,3.024784 55.2659,3.000135 54.893871,3.044195 54.398549,3.102859 54.21748,3.082938 54.21748,2.969777 c 0,-0.084991 0.210322,-0.4342163 0.467397,-0.7760553 0.467411,-0.621527 0.467411,-0.621527 1.188565,-0.565085 0.396634,0.03104 0.859557,0.147831 1.028727,0.259528 0.169157,0.111697 0.443337,0.419817 0.60928,0.684712 0.193551,0.3089742 0.427986,0.509367 0.653949,0.559012 0.193724,0.042563 0.466203,0.1103791 0.60551,0.1507041 0.228699,0.066197 0.248789,0.025761 0.206949,-0.416352 -0.03201,-0.3380131 0.01793,-0.5544131 0.16111,-0.6987151 0.15135,-0.152512 0.406395,-0.204512 0.943107,-0.192286 0.489359,0.01115 0.837912,-0.05076 1.041077,-0.184905 0.167988,-0.110914 0.323522,-0.329651 0.345657,-0.486081 0.02217,-0.156429 0.142746,-0.304116 0.268058,-0.32819301 0.167524,-0.03219 0.217,0.0214 0.186964,0.20247101 -0.02868,0.172896 0.154059,0.401556 0.613502,0.767631 0.411375,0.327769 0.654375,0.617767 0.654375,0.780936 0,0.142754 -0.126147,0.3645863 -0.280446,0.4929607 -0.280446,0.233408 -0.280446,0.233408 0.01833,0.4484211 0.164338,0.1182574 0.489666,0.3838883 0.722946,0.5902914 0.268562,0.2376088 0.410432,0.4674417 0.386743,0.6265098 -0.02059,0.1381775 -0.1296,0.3094393 -0.24227,0.3805819 -0.142495,0.089978 -0.521893,0.080033 -1.246419,-0.032672 -0.57287,-0.089112 -1.181805,-0.1409037 -1.35318,-0.1150929 -0.234329,0.035292 -0.05656,0.1376253 0.716692,0.4126468 0.565566,0.2011444 1.028289,0.4124558 1.028289,0.4695808 0,0.057124 -0.355219,0.1038637 -0.789393,0.1038637 -0.434173,0 -0.812776,-0.02268 -0.841338,-0.0504 z m 1.007521,-2.643733 c 0,-0.08674 -0.338581,-0.2141809 -0.793389,-0.298628 -0.436352,-0.081022 -0.91311,-0.1473136 -1.059455,-0.1473136 -0.146344,0 -0.266079,0.043224 -0.266079,0.096054 0,0.05283 0.406647,0.2391275 0.903656,0.413995 0.584688,0.2057136 0.958656,0.2772184 1.059468,0.2025739 0.08565,-0.063452 0.155799,-0.1834583 0.155799,-0.2666813 z M 42.127198,5.5461523 c 0,-0.099677 0.395054,-0.4927232 0.877908,-0.8734366 0.48284,-0.3807134 1.197978,-0.8843327 1.589182,-1.1191543 0.391203,-0.2348215 0.977711,-0.499116 1.303331,-0.5873211 0.446324,-0.1208992 0.592058,-0.2199258 0.592058,-0.4023186 0,-0.16401 0.170631,-0.317711 0.529727,-0.477157 0.291348,-0.129366 1.034531,-0.323832 1.651499,-0.432146 0.616982,-0.108314 1.304075,-0.197115 1.526865,-0.197336 0.277167,-2.76e-4 0.405094,0.0591 0.405094,0.188003 0,0.132797 -0.133265,0.188405 -0.451503,0.188405 -0.399888,0 -0.432581,0.023 -0.28589,0.201101 0.139227,0.169054 0.332671,0.187079 1.213872,0.11311 0.823864,-0.06916 1.036921,-0.05371 0.995292,0.07214 -0.02908,0.08807 -0.414269,0.276158 -0.855852,0.417968 -0.565992,0.1817596 -1.143084,0.2586425 -1.955873,0.2605715 -1.153004,0.00273 -1.153004,0.00273 -1.156908,0.3795453 -0.0027,0.2072449 -0.07224,0.4670354 -0.155746,0.5773121 -0.08352,0.1102772 -0.328474,0.2924759 -0.54436,0.404887 -0.215885,0.1124109 -1.056706,0.324214 -1.868486,0.4706728 -0.811794,0.1464589 -1.728888,0.3509414 -2.038003,0.4544055 -0.309115,0.1034643 -0.686256,0.2677358 -0.838098,0.3650485 -0.151829,0.097312 -0.334119,0.1769321 -0.40508,0.1769321 -0.07091,0 -0.129069,-0.081554 -0.129069,-0.1812303 z m 7.977101,-0.569492 c 0,-0.067489 -0.127608,-0.207011 -0.28374,-0.3100486 -0.250037,-0.1650929 -0.364752,-0.1656138 -0.965972,-0.00438 -0.375242,0.1006256 -0.868652,0.1836256 -1.096476,0.1844454 -0.327133,0.00118 -0.405425,-0.044525 -0.372401,-0.2173581 0.02297,-0.120367 0.184654,-0.2878331 0.359229,-0.372147 0.174562,-0.084314 0.65063,-0.2419351 1.057928,-0.3502691 0.407297,-0.1083337 1.175232,-0.231852 1.706513,-0.2744843 0.633274,-0.050817 0.965972,-0.032656 0.965972,0.052728 0,0.071632 -0.194693,0.1670469 -0.432647,0.2120319 -0.432646,0.081791 -0.432646,0.081791 -0.04156,0.4339647 0.261391,0.2353477 0.364859,0.4211828 0.311917,0.5602024 -0.05763,0.151286 -0.233267,0.2080285 -0.644017,0.2080285 -0.310643,0 -0.564796,-0.055218 -0.564796,-0.1227072 z"
     id="path8744"
     inkscape:connector-curvature="0" />
</svg>
