<?xml version="1.0" encoding="UTF-8" standalone="no"?>
<!-- Created with Inkscape (http://www.inkscape.org/) -->

<svg
   xmlns:dc="http://purl.org/dc/elements/1.1/"
   xmlns:cc="http://creativecommons.org/ns#"
   xmlns:rdf="http://www.w3.org/1999/02/22-rdf-syntax-ns#"
   xmlns:svg="http://www.w3.org/2000/svg"
   xmlns="http://www.w3.org/2000/svg"
   xmlns:sodipodi="http://sodipodi.sourceforge.net/DTD/sodipodi-0.dtd"
   xmlns:inkscape="http://www.inkscape.org/namespaces/inkscape"
   id="svg4974"
   version="1.1"
   inkscape:version="0.92.1 r15371"
   width="32.000004"
   height="32"
   sodipodi:docname="base-enc-logo-tiny-white.svg">
  <title
     id="title816">Encore Painting Logo White Text</title>
  <metadata
     id="metadata4980">
    <rdf:RDF>
      <cc:Work
         rdf:about="">
        <dc:format>image/svg+xml</dc:format>
        <dc:type
           rdf:resource="http://purl.org/dc/dcmitype/StillImage" />
        <dc:title>Encore Painting Logo White Text</dc:title>
      </cc:Work>
    </rdf:RDF>
  </metadata>
  <defs
     id="defs4978" />
  <sodipodi:namedview
     pagecolor="#ffffff"
     bordercolor="#666666"
     borderopacity="1"
     objecttolerance="10"
     gridtolerance="10"
     guidetolerance="10"
     inkscape:pageopacity="0"
     inkscape:pageshadow="2"
     inkscape:window-width="1920"
     inkscape:window-height="1018"
     id="namedview4976"
     showgrid="false"
     inkscape:zoom="0.8230688"
     inkscape:cx="-43.306462"
     inkscape:cy="28.683385"
     inkscape:window-x="-8"
     inkscape:window-y="-8"
     inkscape:window-maximized="1"
     inkscape:current-layer="svg4974"
     fit-margin-top="0"
     fit-margin-left="0"
     fit-margin-right="0"
     fit-margin-bottom="0" />
  <path
     style="fill:#ffffff;fill-opacity:1;stroke-width:0.04108271"
     d="m 15.188586,31.987615 c 0.330515,-0.0068 0.859617,-0.0068 1.175787,3.5e-5 0.316171,0.0068 0.04575,0.0124 -0.600931,0.01235 -0.646682,-2.5e-5 -0.905367,-0.0056 -0.574856,-0.0124 z M 8.9428608,30.229104 c -0.304366,-0.143689 -0.573182,-0.261253 -0.597372,-0.261253 -0.0242,0 -0.0045,0.06434 0.04415,0.142974 0.118191,0.191724 0.116046,0.272059 -0.0064,0.238349 -0.371251,-0.102265 -0.931807,-0.478133 -1.648149,-1.105169 -0.207865,-0.181949 -0.576346,-0.495163 -0.818852,-0.696037 l -0.440921,-0.365223 -0.0129,0.169084 c -0.008,0.103905 -0.0336,0.169084 -0.06653,0.169084 -0.09499,0 -0.541772,-0.320858 -0.858652,-0.616646 -0.590117,-0.550832 -1.091658,-1.239059 -1.79133,-2.458097 -0.20301,-0.353698 -0.444496,-0.765766 -0.536646,-0.915715 -0.09214,-0.149945 -0.15653,-0.283164 -0.143075,-0.296044 0.02535,-0.02425 0.14395,0.0109 0.420991,0.124709 l 0.16128,0.06626 -0.0284,-0.132689 c -0.09731,-0.454393 -0.20821,-0.808946 -0.324356,-1.037025 -0.122425,-0.240388 -0.134335,-0.252043 -0.149175,-0.145909 -0.0158,0.113024 -0.02045,0.114944 -0.230646,0.09561 -0.2529,-0.02325 -0.303015,-0.07128 -0.534721,-0.512398 -0.221475,-0.421643 -0.381151,-0.870585 -0.72191204,-2.029734 -0.162465,-0.552652 -0.304925,-1.03647 -0.31658,-1.075159 -0.01435,-0.04765 0.002,-0.07034 0.05119,-0.07034 0.05241,0 0.06407,-0.0194 0.0423,-0.07034 -0.01655,-0.0387 -0.11306,-0.304708 -0.214456,-0.591166 -0.275155,-0.777356 -0.255545,-1.145259 0.09265,-1.738176 0.165355,-0.281564 0.172895,-0.334183 0.09532,-0.665017 -0.06499,-0.277138 -0.162371,-0.232983 -0.162371,0.07362 0,0.186419 -0.04935,0.172644 -0.1596,-0.04455 -0.10887,-0.214484 -0.11535,-0.374648 -0.02515,-0.621912 0.04795,-0.131469 0.05835,-0.249473 0.03805,-0.432072 -0.0297,-0.266904 0.0095,-0.321144 0.106465,-0.14761 0.106996,0.191354 0.176576,0.190554 0.415636,-0.005 0.120651,-0.09858 0.255976,-0.179225 0.300721,-0.179225 0.06725,0 0.07672,-0.01915 0.05457,-0.110529 -0.0338,-0.139494 -0.131535,-0.291398 -0.187455,-0.291398 -0.0235,0 -0.154651,0.05574 -0.291421,0.123874 -0.248341,0.123709 -0.335781,0.126609 -0.335781,0.01115 0,-0.108465 0.216421,-0.668817 0.378136,-0.979055 0.121475,-0.233039 0.152255,-0.333368 0.13565,-0.442118 -0.0118,-0.07737 -0.0385,-0.151219 -0.05929,-0.164109 -0.0223,-0.01385 -0.02245,-0.06323 -3.2e-4,-0.120579 0.02065,-0.05343 0.0491,-0.178534 0.06325,-0.278014 l 0.02575,-0.180864 -0.13358,0.251204 c -0.128445,0.241549 -0.19963,0.311743 -0.19963,0.196854 0,-0.0299 0.08633,-0.251459 0.191835,-0.492362 0.10551,-0.240909 0.315241,-0.752991 0.46606604,-1.137974 0.262221,-0.669302 0.273006,-0.710892 0.246306,-0.94953 -0.02705,-0.241589 -0.0211,-0.262954 0.18482,-0.6685368 0.117006,-0.230434 0.212736,-0.449502 0.212736,-0.486827 0,-0.107915 0.391321,-0.832586 0.449596,-0.832586 0.029,0 0.09943,0.08591 0.156535,0.190914 0.0571,0.105005 0.104711,0.169424 0.105786,0.143149 10e-4,-0.02625 0.11282,-0.189049 0.24832,-0.361733 0.135495,-0.172684 0.258151,-0.359183 0.272561,-0.414448 0.0144,-0.05526 0.01535,-0.07787 0.002,-0.05024 -0.01325,0.02765 -0.05293,0.05024 -0.08815,0.05024 -0.04835,0 -0.05749,-0.0271 -0.0373,-0.110534 0.05062,-0.209154 0.202616,-0.572742 0.239431,-0.572742 0.0203,0 0.03875,0.103995 0.04105,0.231104 0.0025,0.127114 0.01705,0.275168 0.03275,0.329018 0.02565,0.08791 0.03975,0.07354 0.138146,-0.140674 0.06027,-0.131219 0.159985,-0.428493 0.221595,-0.660607 0.225856,-0.850865 0.394881,-1.245768 0.701042,-1.637856 0.18264,-0.233894 0.307731,-0.272349 0.370656,-0.113949 0.05771,0.145284 -0.0184,0.353803 -0.294676,0.807275 -0.462546,0.759231 -0.627677,1.210164 -0.514221,1.404208 0.0332,0.0568 0.08591,0.0203 0.339096,-0.234809 0.281055,-0.283193 0.505496,-0.607327 0.454401,-0.656231 -0.03745,-0.03585 -0.222246,0.09893 -0.342366,0.249668 -0.130295,0.163504 -0.187001,0.179049 -0.186246,0.05107 0.0015,-0.247674 0.393331,-0.791916 1.042638,-1.448032 0.608442,-0.614827 0.776477,-0.829791 0.866357,-1.108334 0.02905,-0.09001 0.0146,-0.08662 -0.300625,0.07034 -0.467042,0.232564 -0.562617,0.218084 -0.275646,-0.04175 0.22201,-0.201029 0.399736,-0.294164 0.875547,-0.458813 0.430436,-0.148944 0.604686,-0.260334 0.604686,-0.386548 0,-0.04035 0.02095,-0.07338 0.0465,-0.07338 0.03275,0 0.0387,0.12216 0.0201,0.411978 -0.02575,0.401763 -0.0246,0.409508 0.04795,0.312514 0.209605,-0.280259 0.511071,-0.591107 0.939632,-0.968855 0.848922,-0.748281 1.023627,-0.915275 0.990602,-0.94689 -0.05515,-0.05279 -0.3223,0.112924 -0.640301,0.397173 -0.417996,0.373633 -0.477496,0.360253 -0.305956,-0.06879 0.06097,-0.152504 0.1264,-0.244169 0.199461,-0.279453 0.18319,-0.08846 0.642786,-0.216024 0.871017,-0.241754 0.11901,-0.0134 0.425436,-0.08776 0.680941,-0.165194 0.4606562,-0.13962 0.4642162,-0.141655 0.4240012,-0.242904 -0.06326,-0.159239 -0.05137,-0.177259 0.116911,-0.177294 0.169655,-3.5e-5 0.463056,-0.123059 0.996302,-0.417763 0.184205,-0.101799 0.366136,-0.185094 0.404286,-0.185094 0.11594,0 0.17117,0.10152 0.14046,0.258204 -0.02495,0.127349 -0.0432,0.144179 -0.159975,0.147729 -0.07249,0.002 -0.175151,0.01575 -0.228141,0.03015 -0.08331,0.0226 -0.08899,0.03555 -0.042,0.09561 0.0501,0.06404 0.09375,0.05012 0.558262,-0.177939 0.519381,-0.255013 1.212487,-0.55471198 1.282863,-0.55471198 0.02195,0 0.0399,0.0252 0.0399,0.05599 0,0.07418 0.09296,0.104779 0.318376,0.104779 0.126195,0 0.21101,0.0244 0.265205,0.07626 0.07823,0.07488 0.08259,0.07337 0.241456,-0.08361 0.08898,-0.08793 0.320056,-0.261078 0.513491,-0.384768 0.504636,-0.322688 0.953392,-0.452397 1.831894,-0.529507 0.277151,-0.0243 0.593672,-0.05214 0.703377,-0.06181 0.14255,-0.01255 0.199461,-0.003 0.199461,0.03325 0,0.08815 -0.698952,0.235759 -1.042728,0.220219 l -0.301216,-0.0136 8e-5,0.113175 c 2.15e-4,0.271528 -0.13431,0.350328 -0.800117,0.468622 -0.614996,0.109265 -0.627516,0.11324 -0.627516,0.19918898 0,0.10186 -0.174871,0.258264 -0.587892,0.525797 -0.196315,0.127165 -0.401846,0.277629 -0.456731,0.334359 -0.19112,0.197549 -0.0052,0.296063 0.316231,0.167534 0.182646,-0.07305 0.182491,-0.07304 0.182491,-0.0087 0,0.0284 -0.058,0.08441 -0.128886,0.124494 -0.07088,0.0401 -0.122045,0.07942 -0.11369,0.08741 0.0385,0.03685 0.524256,-0.119555 0.626196,-0.201654 0.145881,-0.11749 0.356921,-0.15508 0.588602,-0.10484 0.231465,0.0502 0.959427,-0.0283 0.959427,-0.103469 0,-0.08096 0.092,-0.11121 0.131706,-0.0433 0.03205,0.05483 0.146055,0.05987 0.907807,0.0401 1.672149,-0.0434 3.180557,0.152349 4.742791,0.615447 l 0.596242,0.176744 0.36958,-0.08383 c 0.203271,-0.0461 0.374896,-0.08875 0.381391,-0.09477 0.0065,-0.0061 -0.10408,-0.07702 -0.24572,-0.15778 -0.266281,-0.151829 -0.503111,-0.223108 -0.746902,-0.224808 -0.111075,-10e-4 -0.135565,-0.01445 -0.11548,-0.06456 0.014,-0.03495 0.0255,-0.08053 0.0255,-0.10125 0,-0.0207 0.0469,-0.0264 0.104235,-0.01265 0.147275,0.0354 0.536091,-0.06174 0.601516,-0.150244 0.0302,-0.0408 0.09632,-0.07555 0.146976,-0.07716 0.1319,-0.004 -0.322791,-0.155169 -0.600777,-0.199464 -0.250915,-0.04 -0.545901,-0.151094 -0.545901,-0.205629 0,-0.04995 0.119995,-0.04105 0.351321,0.0261 0.11239,0.03265 0.220745,0.04965 0.24079,0.0378 0.02005,-0.01185 0.05201,-0.07945 0.07103,-0.150205 0.0402,-0.149594 0.17801,-0.18517898 0.433421,-0.111934 0.20204,0.05794 0.233615,0.101619 0.268495,0.371418 0.02445,0.189274 0.0183,0.229669 -0.03675,0.241154 -0.0398,0.0083 -0.001,0.04015 0.09762,0.07992 0.131836,0.05323 0.159401,0.05519 0.141306,0.01005 -0.04665,-0.116389 0.08581,-0.04805 0.356911,0.184119 0.15426,0.132105 0.379311,0.287284 0.500116,0.344843 0.220485,0.10505 0.641201,0.435673 0.641201,0.503893 0,0.07702 -0.117905,0.02865 -0.451791,-0.185294 l -0.346066,-0.221764 v 0.133859 c 0,0.160769 0.133396,0.294454 0.440922,0.441863 0.23188,0.111154 0.650881,0.416358 0.650881,0.474112 0,0.08369 -0.165315,0.02485 -0.461916,-0.164359 l -0.314941,-0.200929 -0.0129,0.160839 c -0.01625,0.202534 -0.06744,0.203844 -0.173715,0.0045 l -0.08336,-0.156384 -0.141641,0.06595 -0.14164,0.06595 0.465596,0.236774 c 0.682222,0.346933 0.805662,0.417123 1.292313,0.734816 0.483751,0.315799 1.201423,0.852266 1.514364,1.131999 0.1097,0.09806 0.19946,0.157739 0.19946,0.132609 0,-0.02515 0.04725,-0.0457 0.104981,-0.0457 0.12617,0 0.125085,0.01425 0.01945,-0.255969 -0.07354,-0.188129 -0.108856,-0.227729 -0.251956,-0.282533 -0.206586,-0.07911 -0.214436,-0.144774 -0.0173,-0.144774 0.118045,0 0.17848,0.0307 0.290076,0.147274 0.141645,0.147989 0.208635,0.323913 0.16489,0.433022 -0.01295,0.03225 -0.0025,0.0822 0.02295,0.11097 0.230561,0.259408 0.254766,0.302363 0.255961,0.454227 0.001,0.142635 0.03715,0.199309 0.319355,0.502408 0.428616,0.460352 0.826567,0.94352 1.171028,1.421777 0.234641,0.325788 0.277671,0.409378 0.240246,0.466733 -0.03665,0.05616 -0.01685,0.108389 0.100835,0.266313 0.08053,0.10805 0.172101,0.191454 0.203486,0.185349 0.03175,-0.0062 0.108065,0.07858 0.17194,0.190914 0.06318,0.111115 0.14224,0.202019 0.17568,0.202019 0.03835,0 0.05134,0.0236 0.0352,0.06394 -0.0145,0.03615 0.0457,0.197754 0.138475,0.371788 0.203645,0.382023 0.787422,1.7353558 0.985707,2.2851128 0.310676,0.86136 0.585337,2.090309 0.698907,3.127208 0.06336,0.578447 0.06381,2.042244 5e-4,2.652721 -0.101845,0.98711 -0.426731,2.507012 -0.543871,2.544387 -0.0445,0.0142 -0.05213,-0.0089 -0.03215,-0.0973 0.224225,-0.992085 0.27549,-1.405327 0.30046,-2.422167 0.01475,-0.600567 0.01,-0.696791 -0.024,-0.487142 -0.186465,1.150049 -0.420641,2.222448 -0.504076,2.308402 -0.07735,0.0797 -0.07217,-0.0166 0.02575,-0.478207 0.210586,-0.992775 0.251366,-1.442907 0.251376,-2.774725 1e-5,-1.408193 -0.02425,-1.624532 -0.278676,-2.486522 -0.517426,-1.753116 -1.403303,-3.391692 -2.643036,-4.8888438 -0.450976,-0.544617 -1.568749,-1.613932 -2.159311,-2.065694 -2.11124,-1.615052 -4.52645,-2.594312 -7.264677,-2.9455 -0.774327,-0.09931 -2.678967,-0.09807 -3.443373,0.002 -3.347243,0.439263 -6.1968202,1.802876 -8.5041862,4.069519 -0.662966,0.651266 -1.165653,1.241633 -1.654759,1.943389 -0.401596,0.5762018 -0.822067,1.2825188 -0.822067,1.3809228 0,0.0368 -0.01615,0.06687 -0.0359,0.06687 -0.05801,0 -0.506801,0.956105 -0.707487,1.507227 -0.443871,1.218963 -0.552156,1.789935 -0.587956,3.100213 -0.037,1.354178 0.09282,2.496762 0.426376,3.75265 0.362866,1.366238 0.804487,2.301978 1.688224,3.577156 1.149163,1.658172 2.804892,3.161029 4.5775762,4.154949 0.433616,0.243123 0.514516,0.304153 0.535901,0.404287 0.0401,0.187754 0.140781,0.258639 0.524907,0.369578 0.432746,0.12498 0.601976,0.217604 0.710161,0.388698 0.108806,0.172084 0.150211,0.309469 0.09327,0.309469 -0.0249,0 -0.216936,-0.101635 -0.426741,-0.225854 -0.346556,-0.205184 -0.387501,-0.220084 -0.447366,-0.162789 -0.09969,0.09542 -0.014,0.165009 0.38215,0.310408 0.572852,0.210239 0.608417,0.232079 0.699727,0.429653 0.13218,0.286003 0.09173,0.368913 -0.11301,0.231654 -0.05893,-0.0395 -0.135005,-0.05131 -0.222611,-0.03455 -0.128365,0.02455 -0.122485,0.02945 0.165806,0.136784 0.357936,0.133294 0.421581,0.179094 0.421581,0.303398 0,0.17675 -0.311866,0.288204 -0.599212,0.214149 -0.131295,-0.03385 -0.267205,-0.130039 -0.533826,-0.377863 -0.471376,-0.438132 -0.558146,-0.478032 -0.826887,-0.380238 l -0.117725,0.04285 0.104495,0.0787 c 0.05747,0.0433 0.312356,0.215969 0.566406,0.383733 0.570772,0.376903 0.650882,0.446342 0.650882,0.564182 0,0.0948 -0.09749,0.129914 -0.147155,0.053 -0.0756,-0.117074 -0.314066,-0.176689 -0.818667,-0.204663 -0.288696,-0.016 -0.576627,-0.04825 -0.6398422,-0.07165 -0.06351,-0.0235 -0.240906,-0.195949 -0.396461,-0.385383 -0.154835,-0.188559 -0.303101,-0.342833 -0.329481,-0.342833 -0.10035,0 -0.09996,0.0577 0.001,0.184694 0.102156,0.128194 0.138156,0.257428 0.07171,0.257428 -0.0182,0 -0.126845,-0.09176 -0.24146,-0.203914 -0.11461,-0.112149 -0.585682,-0.478407 -1.046833,-0.8139 -1.267873,-0.922405 -1.988314,-1.626382 -2.33272,-2.279408 -0.102655,-0.194639 -0.247351,-0.341063 -0.450491,-0.455863 -0.0333,-0.0188 -0.07028,0.0082 -0.101686,0.07415 -0.09341,0.196234 -0.412901,0.184564 -0.412901,-0.0151 0,-0.192359 -0.237495,-0.572837 -0.591881,-0.94824 -0.187821,-0.198954 -0.406816,-0.447068 -0.486666,-0.551362 -0.161111,-0.210439 -0.353611,-0.279999 -0.544492,-0.196759 l -0.10488,0.04575 0.12791,0.150224 c 0.07035,0.08262 0.307961,0.331028 0.528022,0.552012 0.22006,0.220979 0.400111,0.408158 0.400111,0.415943 0,0.0078 -0.05669,0.06485 -0.125981,0.126799 -0.14438,0.129089 -0.16856,0.327093 -0.06366,0.521252 0.05821,0.107735 0.07073,0.112295 0.190031,0.0692 0.09098,-0.03285 0.14856,-0.03385 0.20014,-0.0035 0.08316,0.049 0.287281,0.334473 0.576336,0.806026 0.224646,0.366483 0.482862,0.643271 0.671047,0.719321 0.102791,0.04155 0.145561,0.0405 0.239371,-0.0059 0.142325,-0.07045 0.16038,-0.07047 0.16038,-1.1e-4 0,0.031 -0.06842,0.108924 -0.152035,0.173129 l -0.15203,0.116739 0.519466,0.323509 c 0.581626,0.362238 1.029762,0.616416 1.086747,0.616416 0.02085,0 0.102886,0.04225 0.182341,0.09384 0.07945,0.05161 0.481841,0.260524 0.894202,0.464262 0.759492,0.375243 1.319813,0.706772 1.349408,0.798411 0.03305,0.10241 -0.161665,0.0438 -0.701466,-0.211014 z m -5.91817,-16.623182 c 0.04035,-0.07545 0.101195,-0.309013 0.13519,-0.519017 0.126021,-0.778531 0.536522,-2.065234 0.949933,-2.977544 0.08997,-0.1985338 0.29417,-0.6017018 0.453796,-0.8959198 0.22019,-0.405858 0.285795,-0.563842 0.271865,-0.654682 -0.0135,-0.08804 0.0114,-0.153564 0.09401,-0.247549 0.0618,-0.0703 0.136105,-0.127819 0.165115,-0.127819 0.029,0 0.08875,-0.03925 0.132746,-0.08721 0.07891,-0.08602 0.07886,-0.08676 -0.004,-0.05485 -0.183701,0.07075 -0.251266,0.0484 -0.265006,-0.08767 -0.0111,-0.110004 0.003,-0.133104 0.09475,-0.155149 0.0593,-0.01425 0.169101,-0.0154 0.244011,-0.0025 0.128045,0.022 0.14688,0.009 0.314566,-0.216634 0.0981,-0.132009 0.16821,-0.240014 0.155795,-0.240014 -0.0124,0 -0.09664,0.0362 -0.187186,0.08038 -0.09054,0.0442 -0.186325,0.08038 -0.212845,0.08038 -0.06544,0 -0.01425,-0.185609 0.08972,-0.325379 0.07852,-0.105544 0.385261,-0.237318 0.552437,-0.237318 0.04315,0 0.12007,-0.04185 0.170985,-0.093 0.20557,-0.206514 0.701467,-0.746226 0.701467,-0.763446 0,-0.01015 -0.0398,-0.0284 -0.08844,-0.04055 -0.06252,-0.01565 -0.17191,0.036 -0.373301,0.176179 -0.266685,0.185659 -0.378115,0.235979 -0.378115,0.17076 0,-0.01515 0.0419,-0.07026 0.09315,-0.122455 l 0.09315,-0.0949 -0.18141,0.02775 c -0.209991,0.03215 -0.271016,-0.019 -0.232431,-0.194829 0.01355,-0.06182 0.0059,-0.11053 -0.01735,-0.11053 -0.126095,0 -0.423041,0.530422 -0.370426,0.661667 0.01365,0.034 0.07261,0.0618 0.13108,0.0618 0.06115,0 0.106296,0.023 0.106296,0.05417 0,0.0298 -0.266086,0.423178 -0.591302,0.87419 -0.658502,0.913216 -0.956482,1.361713 -1.223303,1.841246 -0.09901,0.177949 -0.198645,0.317983 -0.221395,0.311193 -0.02275,-0.0068 -0.05856,-0.06972 -0.07956,-0.139834 -0.0475,-0.158529 -0.08045,-0.159554 -0.19465,-0.006 -0.243566,0.327398 -0.329456,0.9122898 -0.208411,1.4192168 0.0615,0.257549 0.0252,0.328809 -0.147895,0.290379 -0.06086,-0.0135 -0.109855,0.0192 -0.17794,0.118849 -0.171406,0.250824 -0.181701,0.410873 -0.06671,1.03719 0.102961,0.560822 0.112856,1.053339 0.0272,1.353407 -0.02785,0.09757 -0.02605,0.09851 0.07122,0.0367 0.05489,-0.0349 0.132825,-0.125159 0.17318,-0.200609 z m 0.728757,-1.182198 c 0.0622,-0.221059 0.206755,-0.697932 0.321226,-1.059715 0.114465,-0.361783 0.20039,-0.665186 0.19094,-0.674236 -0.0443,-0.0424 -0.868927,1.92335 -0.868927,2.071364 0,0.04505 0.183065,0.121349 0.216315,0.09016 0.01505,-0.0141 0.07824,-0.206519 0.140446,-0.427577 z m 1.256838,-2.8161758 c 0.185966,-0.323823 0.15069,-0.431392 -0.04355,-0.132794 -0.118615,0.182349 -0.186255,0.396728 -0.12517,0.396728 0.0094,0 0.08535,-0.118769 0.168716,-0.263934 z m 0.570001,-0.911495 c 0,-0.0224 -0.02785,-0.01805 -0.06299,0.0099 -0.03465,0.0275 -0.06299,0.06813 -0.06299,0.09023 0,0.0224 0.02785,0.01805 0.06299,-0.0099 0.03465,-0.02755 0.06299,-0.06813 0.06299,-0.09023 z m 0.200221,-0.271508 c 0.02885,-0.0442 0.04575,-0.08039 0.0376,-0.08039 -0.0082,0 -0.04905,0.0362 -0.09085,0.08039 -0.0418,0.0442 -0.05873,0.08038 -0.0376,0.08038 0.0211,0 0.062,-0.0362 0.09085,-0.08038 z M 27.483685,5.6995342 c -0.03815,-0.07059 -0.12131,-0.138809 -0.20209,-0.165764 l -0.137286,-0.0458 0.185881,0.181279 c 0.102235,0.09971 0.193175,0.174299 0.20209,0.165764 0.0089,-0.0085 -0.01295,-0.0695 -0.0486,-0.135474 z M 7.7009028,4.8156592 c 0.138575,-0.0978 0.34464,-0.222824 0.457921,-0.277833 0.14939,-0.07255 0.19022,-0.109335 0.14864,-0.13393 -0.0466,-0.02755 -0.0419,-0.05071 0.025,-0.123564 0.0698,-0.07603 0.07148,-0.08588 0.011,-0.06481 -0.0392,0.01365 -0.21873,0.07323 -0.398931,0.132355 -0.371266,0.121834 -0.466091,0.204423 -0.734997,0.640191 -0.09549,0.154739 -0.20312,0.326563 -0.23918,0.381828 -0.03605,0.05526 0.05686,-0.0068 0.206505,-0.137969 0.149641,-0.13115 0.385451,-0.318468 0.524027,-0.416268 z m 1.574718,-0.651887 c 0.150121,-0.09582 0.433606,-0.302243 0.629972,-0.458717 0.1963652,-0.156479 0.4095962,-0.320908 0.4738512,-0.365398 l 0.11682,-0.08089 -0.28488,0.0206 c -0.3503412,0.02535 -0.5015422,0.127595 -0.8158722,0.551782 -0.149241,0.201404 -0.254926,0.302739 -0.345871,0.331644 -0.07203,0.0229 -0.190071,0.07616 -0.262321,0.118384 -0.10595,0.06192 -0.127355,0.09684 -0.11064,0.180529 l 0.0207,0.103759 0.152635,-0.113739 c 0.08395,-0.06255 0.275461,-0.192134 0.425586,-0.287954 z m 2.1471212,-1.444562 c -0.01945,-0.01215 -0.05876,-0.09089 -0.08739,-0.174934 -0.02865,-0.08404 -0.07389,-0.145914 -0.10057,-0.137494 -0.0618,0.0195 -0.264656,0.303013 -0.298976,0.417848 l -0.0261,0.08735 0.274186,-0.08532 c 0.150805,-0.04695 0.258286,-0.09528 0.238856,-0.10745 z m 12.312399,0.141234 c 0.0331,-0.08261 -0.14739,-0.321833 -0.25399,-0.336593 -0.08938,-0.0124 -0.08953,-0.0111 -0.02205,0.190914 0.0545,0.163114 0.08626,0.203374 0.160421,0.203374 0.05087,0 0.102885,-0.02595 0.115605,-0.05769 z M 12.121018,2.4862862 c 0.236961,-0.099 0.440356,-0.194739 0.451986,-0.212753 0.0317,-0.04905 -0.414001,-0.092 -0.631291,-0.0608 -0.174291,0.025 -0.200166,0.0444 -0.314806,0.235709 -0.0687,0.114649 -0.12508,0.223233 -0.1253,0.241303 -5e-4,0.04505 0.11726,0.0064 0.619411,-0.203454 z m 0.815237,-0.0058 0.349636,-0.112714 -0.248041,-0.0299 c -0.13642,-0.01645 -0.27342,-0.03925 -0.304445,-0.05062 -0.031,-0.0114 -0.0564,4.7e-4 -0.0564,0.02635 0,0.0259 -0.05669,0.09275 -0.125976,0.14855 -0.06929,0.0558 -0.125975,0.119159 -0.125975,0.140789 0,0.0426 -0.0035,0.0434 0.511206,-0.12247 z m 10.53263,-0.317298 c -3.2e-4,-0.05589 -0.172685,-0.298713 -0.19613,-0.276278 -0.0131,0.01255 -0.0109,0.105039 0.005,0.205588 0.0259,0.16529 0.03645,0.178815 0.11004,0.141115 0.04475,-0.02295 0.08132,-0.05463 0.08124,-0.07043 z M 19.941682,29.18864 c 0,-0.03295 0.0645,-0.06676 0.15747,-0.08252 0.08661,-0.0147 0.190541,-0.036 0.230961,-0.0474 0.05212,-0.01465 0.07348,0.002 0.07348,0.05717 0,0.05871 -0.03865,0.08395 -0.15747,0.102745 -0.238431,0.0377 -0.304446,0.0312 -0.304446,-0.03 z m -1.628574,-0.213744 c -0.07581,-0.0094 -0.160635,-0.05206 -0.188495,-0.09475 -0.03345,-0.05129 -0.118941,-0.0863 -0.251936,-0.10319 -0.13543,-0.0172 -0.225066,-0.0545 -0.273981,-0.114019 -0.06477,-0.07881 -0.126005,-0.09138 -0.560906,-0.115155 -0.427461,-0.02335 -1.347348,-0.148069 -1.557799,-0.211184 -0.0404,-0.0121 -0.07349,-0.04685 -0.07349,-0.07715 0,-0.05255 -0.197435,-0.09251 -0.461916,-0.09348 -0.267886,-0.001 -0.444456,-0.026 -0.482911,-0.06844 -0.0231,-0.0255 -0.164821,-0.08754 -0.314946,-0.13793 -0.512346,-0.171944 -1.364023,-0.528562 -1.910655,-0.800035 -1.719649,-0.854046 -3.1627922,-2.122109 -4.2499602,-3.734356 -0.189565,-0.281123 -0.345461,-0.533747 -0.346436,-0.561382 -0.0045,-0.122434 0.117116,-0.0257 0.279531,0.222704 0.217176,0.332158 0.524441,0.700226 0.932762,1.117329 l 0.311226,0.317924 -0.199145,-0.252384 c -0.234646,-0.297374 -0.780237,-1.119459 -0.780237,-1.175649 0,-0.09121 0.11179,-0.027 0.19509,0.112025 0.315451,0.526567 1.247498,1.569101 1.9340302,2.163308 0.556326,0.481508 0.905372,0.703696 1.693804,1.078219 3.690684,1.753146 7.941989,1.396773 11.187677,-0.93783 0.530741,-0.381758 1.403158,-1.191143 1.827629,-1.695591 1.87986,-2.234028 2.670672,-5.119233 2.185785,-7.974642 -0.09178,-0.540498 -0.30853,-1.382333 -0.402175,-1.561992 -0.03365,-0.0646 -0.06121,-0.142889 -0.06121,-0.173984 0,-0.09783 -0.374186,-0.937395 -0.622551,-1.396833 -0.288141,-0.533017 -0.576552,-0.925995 -1.078138,-1.469037 -1.156343,-1.2519138 -2.847537,-2.3537378 -4.30422,-2.8042248 -1.953395,-0.604092 -3.885079,-0.677092 -5.850739,-0.221089 -0.365086,0.08469 -0.472811,0.09651 -0.535941,0.05877 -0.116331,-0.06953 -0.182976,-0.05946 -0.448777,0.06783 -0.132145,0.06329 -0.306395,0.1264 -0.387235,0.140254 -0.183381,0.03145 -0.394971,-0.0204 -0.411141,-0.100729 -0.0092,-0.04565 0.06025,-0.07378 0.280455,-0.113544 0.354661,-0.06405 0.424481,-0.09746 0.350896,-0.167895 -0.0414,-0.0396 -0.119235,-0.0235 -0.380456,0.07872 -0.359606,0.140724 -0.415206,0.148124 -0.648106,0.08621 -0.186966,-0.0497 -0.206161,-0.13929 -0.0368,-0.171709 0.06637,-0.0127 0.131365,-0.04975 0.14443,-0.08235 0.0191,-0.0476 -0.01075,-0.04425 -0.15217,0.0172 -0.234726,0.102004 -0.393601,0.101194 -0.427882,-0.002 -0.039,-0.117564 0.0088,-0.224244 0.152441,-0.339873 0.11645,-0.09379 0.15987,-0.10225 0.524746,-0.10225 0.415611,0 0.610032,-0.05433 0.662472,-0.185134 0.0431,-0.107544 -5e-4,-0.115474 -0.322661,-0.05825 -0.16672,0.02965 -0.440126,0.06233 -0.607572,0.07264 -0.25116,0.01545 -0.30444,0.0082 -0.30444,-0.04145 0,-0.0368 0.05616,-0.07029 0.14428,-0.08612 0.09383,-0.01685 0.240381,-0.109265 0.419101,-0.264284 0.392536,-0.340488 0.441106,-0.358638 0.838112,-0.313238 0.218411,0.02495 0.345026,0.0241 0.372906,-0.0025 0.0283,-0.02705 -0.008,-0.04945 -0.110235,-0.06778 -0.210256,-0.03775 -0.191516,-0.09881 0.03035,-0.09881 0.100515,0 0.558706,-0.0452 1.018197,-0.10048 1.224773,-0.147309 2.008635,-0.133309 2.591346,0.0463 0.121086,0.0373 0.258676,0.05206 0.343576,0.0368 0.133781,-0.024 0.140346,-0.03295 0.118646,-0.160904 -0.0187,-0.11028 -0.0063,-0.144045 0.06696,-0.181539 0.07361,-0.0377 0.11158,-0.0313 0.20931,0.0353 0.196851,0.134165 0.327461,0.164565 0.945748,0.220124 0.506541,0.0455 0.604031,0.04495 0.682136,-0.004 0.09053,-0.05677 0.158926,-0.168354 0.1238,-0.201974 -0.0101,-0.0097 -0.274115,-0.02785 -0.586716,-0.04035 l -0.568366,-0.0228 -0.01265,-0.143495 c -0.0099,-0.111474 -0.0445,-0.163964 -0.155346,-0.235223 -0.1777,-0.114235 -0.20505,-0.114395 -0.22183,-0.0015 -0.0199,0.133974 -0.164646,0.132379 -0.711132,-0.0079 -0.569551,-0.146134 -0.840132,-0.158069 -0.960987,-0.0424 -0.0462,0.0442 -0.08398,0.09847 -0.08398,0.120574 0,0.0221 -0.0189,0.0402 -0.042,0.0402 -0.0231,0 -0.042,-0.0633 -0.042,-0.140674 0,-0.114274 -0.0159,-0.140674 -0.0847,-0.140674 -0.186665,0 -1.077562,0.210714 -1.94504,0.460037 -0.971342,0.279174 -1.397378,0.360213 -1.364533,0.259554 0.01015,-0.03105 0.206176,-0.11593 0.435676,-0.188669 0.229496,-0.07275 0.433486,-0.147779 0.453306,-0.166754 0.02005,-0.0192 -0.02165,-0.04665 -0.09409,-0.06185 -0.16114,-0.03385 -0.16816,-0.117639 -0.01465,-0.174774 0.272351,-0.101369 0.494746,-0.132249 1.228273,-0.170544 1.384893,-0.0723 1.401883,-0.07428 1.325773,-0.154779 -0.11023,-0.116585 -0.07659,-0.156144 0.175456,-0.206369 0.378106,-0.07535 1.319103,-0.0254 1.877414,0.09968 0.671947,0.150519 2.08037,0.554232 2.08037,0.596322 0,0.0199 -0.07559,0.06457 -0.16797,0.0993 -0.09239,0.03475 -0.167971,0.0749 -0.167971,0.08925 0,0.05281 0.801622,0.484213 0.899747,0.484213 0.0069,0 0.004,-0.0412 -0.0058,-0.09161 -0.0146,-0.07303 0.0117,-0.105304 0.129606,-0.159114 0.13442,-0.06135 0.17011,-0.06209 0.391551,-0.008 0.13401,0.0327 0.423171,0.141569 0.642581,0.241894 0.606252,0.277208 1.80567,0.945 1.80567,1.005329 0,0.02935 0.212585,0.155319 0.472416,0.279909 0.25983,0.124594 0.515251,0.264398 0.567616,0.310678 0.12586,0.11125 0.330776,0.508337 0.366366,0.709941 0.0223,0.12646 0.06522,0.186684 0.2011,0.282334 0.209426,0.147414 0.291056,0.158514 0.156341,0.02125 -0.13069,-0.133154 -0.07874,-0.170634 0.137035,-0.09886 0.137426,0.0457 0.209771,0.107565 0.330696,0.282739 0.08514,0.123319 0.20365,0.254868 0.263376,0.292323 0.145935,0.09152 0.140235,0.159669 -0.0107,0.12794 -0.155611,-0.0327 -0.200966,0.0259 -0.226451,0.2927578 -0.0182,0.190434 -0.0098,0.220434 0.07682,0.274764 0.128176,0.08038 0.172056,0.0478 0.241096,-0.179029 0.09083,-0.2984238 0.170545,-0.2720588 0.361011,0.119394 0.08958,0.184114 0.18627,0.410803 0.21486,0.503752 0.03965,0.12888 0.08544,0.184194 0.192886,0.232994 0.07749,0.0352 0.141315,0.07672 0.14183,0.09225 4.3e-4,0.01555 0.03955,0.07347 0.08681,0.128739 0.07332,0.0858 0.07932,0.08766 0.04105,0.0127 -0.05246,-0.10277 -0.05938,-0.253849 -0.01165,-0.253849 0.01825,0 0.106311,0.167304 0.195706,0.371788 0.364151,0.832941 0.636136,1.337333 0.786377,1.458337 0.10297,0.08293 0.1819,0.205139 0.25927,0.401428 0.06117,0.15521 0.111231,0.298479 0.111231,0.318379 0,0.0199 0.0261,0.06473 0.05804,0.09962 0.07215,0.0789 0.291945,0.686401 0.25955,0.717406 -0.01305,0.0125 -0.0892,0.0035 -0.16925,-0.02005 l -0.145535,-0.04275 0.02385,0.186739 c 0.0426,0.333438 0.0962,0.486812 0.16175,0.462737 0.0939,-0.0345 0.332951,0.383888 0.259501,0.454193 -0.01325,0.0127 -0.100561,-0.0349 -0.194011,-0.105735 -0.09344,-0.07084 -0.169905,-0.117514 -0.169905,-0.103724 0,0.0418 0.16657,0.343183 0.401896,0.727146 0.375441,0.612572 0.569776,1.344558 0.356966,1.344558 -0.129546,0 -0.206036,-0.105584 -0.300211,-0.414438 -0.202646,-0.664566 -0.298471,-0.902655 -0.420156,-1.043949 -0.07073,-0.08213 -0.146116,-0.149325 -0.167526,-0.149325 -0.0214,0 -0.03895,0.10051 -0.03895,0.223359 0,0.250349 0.07449,0.580497 0.130966,0.580497 0.0441,0 0.05192,-0.05006 0.03925,-0.251203 -0.01055,-0.16803 0.05212,-0.198389 0.1283,-0.06215 0.11058,0.197769 0.167565,0.529012 0.205456,1.194324 0.0383,0.672436 0.11981,1.088469 0.21326,1.088469 0.02125,0 0.0386,-0.0198 0.0386,-0.04405 0,-0.107554 0.136195,-0.478452 0.175691,-0.478452 0.08546,0 0.0142,0.529152 -0.108266,0.803855 -0.22256,0.499283 -0.21646,0.477933 -0.16095,0.563007 0.06484,0.09938 0.06468,0.12019 -10e-4,0.120595 -0.02885,1.1e-4 -0.128075,-0.08264 -0.220461,-0.184049 l -0.16797,-0.184374 -0.0045,1.006864 c -0.0025,0.553777 0.01095,0.99768 0.02995,0.986455 0.06376,-0.0377 0.121135,-0.316748 0.12137,-0.590257 1.05e-4,-0.202244 0.0148,-0.271303 0.05751,-0.271303 0.06112,0 0.194946,0.291658 0.194261,0.423367 -5e-4,0.114625 -0.176525,0.458723 -0.340681,0.666317 -0.078,0.09864 -0.19802,0.293258 -0.266721,0.432478 -0.114905,0.232873 -0.119105,0.256233 -0.05249,0.291913 0.09526,0.05103 0.09161,0.08454 -0.02755,0.252604 -0.05498,0.07755 -0.140765,0.290873 -0.190635,0.474052 -0.149956,0.550832 -0.201471,0.608992 -0.378416,0.427203 -0.06559,-0.06738 -0.08908,-0.0741 -0.10539,-0.03015 -0.01155,0.0311 -0.09415,0.255524 -0.183561,0.498692 -0.135025,0.367194 -0.177505,0.442873 -0.25066,0.446563 -0.04845,0.0025 -0.147361,0.05219 -0.219806,0.11053 -0.07245,0.05835 -0.157115,0.106084 -0.188145,0.106084 -0.0389,0 -0.06518,0.08434 -0.08458,0.271304 -0.07131,0.687216 -0.22155,1.007364 -0.772371,1.645841 -0.292911,0.339528 -0.423941,0.441757 -0.423941,0.330758 0,-0.119259 0.333435,-0.586532 0.487616,-0.683341 0.09126,-0.05729 0.09587,-0.07108 0.0389,-0.11633 -0.03555,-0.02825 -0.06503,-0.107894 -0.06554,-0.177034 -0.001,-0.123354 -0.0025,-0.122339 -0.08629,0.05443 -0.11337,0.239224 -0.403771,0.603622 -0.481046,0.603622 -0.0702,0 -0.08256,-0.06326 -0.01965,-0.100485 0.0231,-0.01365 0.04125,-0.0464 0.0403,-0.07271 -0.001,-0.0263 -0.08429,0.03805 -0.185285,0.143049 -0.169131,0.175849 -0.274961,0.237224 -0.274961,0.159454 0,-0.107844 0.321051,-0.587552 0.444391,-0.664001 0.161026,-0.0998 0.168996,-0.118495 0.08051,-0.188779 -0.03465,-0.0275 -0.063,-0.08852 -0.06302,-0.13555 -2.5e-5,-0.06209 -0.02295,-0.04145 -0.08377,0.07526 -0.10756,0.206499 -0.381896,0.551247 -0.457521,0.574962 -0.0442,0.01385 -0.05166,-0.0074 -0.0307,-0.08741 0.02535,-0.09668 0.0169,-0.105719 -0.09905,-0.105719 -0.143551,0 -0.160511,-0.0566 -0.05866,-0.195769 0.0485,-0.06625 0.09719,-0.08776 0.16897,-0.07463 0.10764,0.0197 0.220016,-0.0827 0.359356,-0.327433 0.0774,-0.135949 0.19977,-0.169114 0.204075,-0.0553 0.002,0.05474 0.01095,0.05065 0.04,-0.01845 0.02055,-0.04885 0.139611,-0.231723 0.264591,-0.406397 0.124985,-0.174674 0.260716,-0.401488 0.301636,-0.504033 0.0409,-0.102544 0.09072,-0.186444 0.110675,-0.186444 0.09844,0 -0.0353,0.92818 -0.159965,1.110304 -0.0357,0.05217 -0.05319,0.124135 -0.03885,0.15992 0.01895,0.0473 0.08494,-0.0211 0.24188,-0.250894 0.198696,-0.290924 0.215221,-0.333473 0.208571,-0.537017 -0.004,-0.121585 0.02145,-0.362528 0.05655,-0.535432 0.0487,-0.240174 0.05253,-0.334479 0.01615,-0.399553 -0.0474,-0.08474 -0.04815,-0.08461 -0.14684,0.0252 -0.05457,0.06072 -0.09922,0.13652 -0.09922,0.168445 0,0.03195 -0.0189,0.05805 -0.042,0.05805 -0.0231,0 -0.0421,-0.04975 -0.0422,-0.110529 -2.15e-4,-0.10705 -0.0035,-0.10547 -0.103675,0.05024 -0.0569,0.08842 -0.10404,0.202654 -0.104765,0.253848 -0.002,0.134835 -0.07323,0.242719 -0.215081,0.325289 -0.151115,0.08796 -0.458106,0.472357 -0.458106,0.573617 0,0.0416 -0.03165,0.07451 -0.07349,0.07635 -0.0404,0.002 -0.223091,0.166049 -0.405941,0.365068 -0.669907,0.729131 -1.807305,1.562477 -2.837967,2.079314 -0.265601,0.133189 -0.502906,0.274524 -0.527341,0.314074 -0.02445,0.03955 -0.08871,0.141769 -0.142826,0.227158 l -0.09839,0.155249 0.142825,-0.02855 c 0.187021,-0.0374 0.482582,-0.177049 0.569672,-0.269164 0.0949,-0.100374 0.14005,-0.09153 0.14005,0.0274 0,0.05526 -0.0167,0.100484 -0.03715,0.100484 -0.05754,0 -0.18173,0.201329 -0.217295,0.352259 -0.0382,0.162124 -0.0145,0.158314 0.314215,-0.05052 0.225031,-0.142964 0.486146,-0.224379 0.486146,-0.151579 0,0.0218 -0.08503,0.08281 -0.188965,0.135584 -0.19267,0.09783 -0.221466,0.132404 -0.146975,0.176469 0.0231,0.01365 0.042,0.07607 0.042,0.138684 0,0.09539 -0.02735,0.12432 -0.168821,0.178494 -0.223405,0.08556 -0.23437,0.0841 -0.419076,-0.05592 -0.173,-0.131145 -0.26324,-0.15531 -0.225145,-0.06029 0.02005,0.04995 -0.02525,0.06039 -0.263771,0.06089 -0.15837,3.2e-4 -0.363531,0.02665 -0.455911,0.05852 -0.18778,0.06475 -0.692877,0.08216 -0.692877,0.0239 0,-0.02065 0.141376,-0.06031 0.314161,-0.0881 0.299136,-0.0481 0.310876,-0.054 0.245446,-0.1232 -0.08319,-0.08798 -0.180091,-0.09055 -0.450801,-0.01195 -0.226281,0.06571 -0.612712,0.08082 -0.612712,0.02395 0,-0.04895 0.08664,-0.07692 0.336371,-0.108629 0.235056,-0.02985 0.281011,-0.06337 0.18807,-0.137195 -0.106835,-0.08486 -0.07158,-0.130779 0.07958,-0.103639 0.10861,0.0195 0.1482,0.0103 0.16797,-0.039 0.0392,-0.09778 0.03235,-0.109169 -0.0476,-0.0793 -0.507801,0.189624 -1.753879,0.411712 -2.530036,0.450932 -0.311796,0.01575 -0.533831,0.0354 -0.493416,0.04365 0.083,0.01695 0.09634,0.07122 0.0275,0.111939 -0.02595,0.01535 0.0295,0.05954 0.1272,0.101415 0.132585,0.05682 0.198871,0.06487 0.282766,0.03435 0.13095,-0.04765 0.17449,-0.0189 0.113205,0.07483 -0.047,0.07183 -0.154515,0.08867 -0.384081,0.06015 z m -0.261081,-0.357778 c 0,-0.0087 -0.05196,-0.0155 -0.11548,-0.0152 -0.08404,4.3e-4 -0.09937,0.0104 -0.0563,0.0365 0.05347,0.0324 0.17178,0.01775 0.17178,-0.0213 z m 4.07326,-0.09618 c -0.137235,-0.102744 -0.21884,-0.101529 -0.08983,0.0015 0.05452,0.0435 0.12066,0.07865 0.14697,0.07816 0.0263,-4.25e-4 5e-4,-0.03625 -0.05714,-0.0795 z m -0.377931,-0.194514 c 0,-0.03505 -0.183875,-0.127029 -0.25393,-0.127029 -0.05898,0 -0.0487,0.110525 0.01245,0.134154 0.08682,0.03355 0.241455,0.029 0.241455,-0.0071 z m 5.703479,-5.224697 c 0.07756,-0.05712 0.09474,-0.103074 0.08398,-0.224754 l -0.0135,-0.152959 -0.11502,0.225649 c -0.121775,0.238884 -0.113185,0.268208 0.04455,0.152064 z m 0.463641,-0.348308 c 0.141986,-0.154784 0.158146,-0.233164 0.08444,-0.409498 l -0.0473,-0.113144 -0.07542,0.160769 c -0.0415,0.08842 -0.114665,0.256353 -0.16263,0.373178 -0.08258,0.201149 -0.08306,0.210284 -0.009,0.172354 0.043,-0.022 0.13747,-0.104674 0.209925,-0.183659 z m 0.801977,-0.01405 c -0.02755,-0.0088 -0.06649,0.0088 -0.08656,0.03915 -0.06638,0.100289 -0.0392,0.129099 0.0494,0.05234 0.05634,-0.0488 0.06949,-0.08119 0.03715,-0.09151 z m -0.458701,-0.622477 c -0.01735,-0.07369 -0.04945,-0.164559 -0.0713,-0.201934 -0.03375,-0.05769 -0.05075,-0.04585 -0.11278,0.07867 -0.04015,0.08064 -0.06751,0.149874 -0.06075,0.153844 0.03795,0.0223 0.226386,0.09838 0.249331,0.100685 0.0149,0.0015 0.01285,-0.05757 -0.0045,-0.131265 z m 0.17433,-1.333048 c -0.0072,-0.176849 -0.01515,-0.384848 -0.01775,-0.462217 -0.0025,-0.07737 0.0219,-0.200274 0.05447,-0.273109 0.05157,-0.115399 0.05115,-0.137224 -0.003,-0.169654 -0.05182,-0.0309 -0.07421,0.02225 -0.131911,0.313303 -0.0382,0.192784 -0.08223,0.504258 -0.09777,0.692157 -0.01555,0.187899 -0.03745,0.373038 -0.0486,0.411413 -0.0131,0.0449 0.02925,0.0234 0.11877,-0.06029 0.137485,-0.128539 0.138965,-0.133829 0.12606,-0.451603 z m 0.540172,-1.748385 c -0.02505,-0.121585 -0.07058,-0.301239 -0.101171,-0.399228 l -0.05562,-0.178169 -0.02585,0.439422 c -0.0142,0.241679 -0.04475,0.499868 -0.06786,0.573747 -0.0231,0.07388 -0.03025,0.190579 -0.0159,0.259339 0.02525,0.120874 0.03085,0.115089 0.169035,-0.174519 0.136261,-0.285604 0.140791,-0.309814 0.09736,-0.520592 z m -0.315641,-1.305948 c 0.0161,-0.143865 0.04595,-0.261569 0.06637,-0.261569 0.0204,0 0.0371,0.02715 0.0371,0.06029 0,0.06825 0.06575,0.08084 0.10498,0.0201 0.04165,-0.06448 0.195811,-0.04635 0.256486,0.03015 0.05112,0.06445 0.05582,0.06193 0.0562,-0.03015 4.25e-4,-0.114994 -0.133985,-0.418607 -0.20363,-0.459807 -0.02565,-0.0152 -0.05799,5e-4 -0.07185,0.03525 -0.07168,0.178804 -0.134891,0.0295 -0.266901,-0.630487 -0.15336,-0.766711 -0.338756,-1.522822 -0.440096,-1.794845 -0.0363,-0.0974 -0.0556,-0.187019 -0.0429,-0.199149 0.0127,-0.01215 0.07896,-0.002 0.147295,0.02285 0.120965,0.0437 0.123535,0.04205 0.09742,-0.0621 -0.07541,-0.300744 -0.418356,-0.724276 -0.706901,-0.873011 -0.159271,-0.0821 -0.191806,-0.191169 -0.07559,-0.253418 0.0678,-0.0363 0.06711,-0.05063 -0.01125,-0.231619 -0.08458,-0.195335 -0.0993,-0.208455 -0.708987,-0.632143 -0.154411,-0.107304 -0.350506,-0.284868 -0.435771,-0.394588 -0.146696,-0.188764 -0.155741,-0.193944 -0.168301,-0.09642 -0.009,0.06996 0.0435,0.180534 0.163556,0.344343 0.09726,0.132704 0.19299,0.241284 0.21274,0.241284 0.01975,0 0.0359,0.02105 0.0359,0.04675 0,0.0257 0.101886,0.211098 0.226406,0.411977 0.438546,0.707442 0.740047,1.346683 1.015867,2.153804 0.09615,0.281354 0.189836,0.484007 0.239431,0.517907 0.06787,0.0464 0.07838,0.09139 0.06294,0.269569 -0.0145,0.167444 -0.0081,0.200214 0.02955,0.150949 0.06546,-0.08568 0.207571,-0.05274 0.223221,0.05175 0.01245,0.08304 -0.06834,0.193164 -0.164101,0.223714 -0.0334,0.01065 -0.03815,0.0816 -0.0157,0.234698 l 0.0322,0.219419 0.04645,-0.127744 c 0.06484,-0.178309 0.106901,-0.205984 0.175861,-0.115715 0.08857,0.115925 0.07243,0.301349 -0.04455,0.511638 -0.09687,0.174174 -0.102266,0.213764 -0.07778,0.570662 0.02405,0.350733 0.0327,0.380243 0.100716,0.345393 0.05391,-0.0276 0.08246,-0.110149 0.10366,-0.299678 z m -1.077358,-2.454332 c -0.05402,-0.191324 -0.141805,-0.298664 -0.09676,-0.11832 0.0445,0.178079 0.101575,0.315063 0.122835,0.294709 0.0103,-0.0099 -0.0015,-0.08921 -0.02605,-0.176389 z m -0.518151,-1.523852 c -0.12836,-0.296794 -0.466551,-0.976545 -0.507351,-1.019765 -0.0072,-0.0075 -0.04055,0.0015 -0.07427,0.0201 -0.0496,0.02735 0.01005,0.156844 0.31171,0.676911 0.205156,0.353698 0.373051,0.659667 0.373096,0.679932 4e-5,0.02025 0.01075,0.0266 0.02385,0.0141 0.01305,-0.0125 -0.0441,-0.179579 -0.12701,-0.371293 z m -7.665323,15.215069 c 0,-0.0316 0.345726,-0.123909 0.463986,-0.123909 0.06623,0 0.0448,0.110179 -0.0265,0.136374 -0.103776,0.0381 -0.437486,0.0286 -0.437486,-0.01245 z m 4.913107,-0.799701 c 0,-0.018 -0.111911,-0.02495 -0.248696,-0.0155 -0.247411,0.01715 -0.248776,0.0166 -0.262456,-0.09791 -0.01355,-0.11338 -0.01735,-0.11494 -0.25074,-0.10201 -0.145461,0.0081 -0.248351,-0.0045 -0.266406,-0.03245 -0.06359,-0.09848 0.027,-0.234719 0.250611,-0.376818 0.127485,-0.08102 0.23179,-0.15552 0.23179,-0.16556 0,-0.01005 -0.0866,0.01725 -0.19245,0.0607 -0.226191,0.0928 -0.269466,0.09709 -0.269466,0.02675 0,-0.06833 0.703022,-0.572197 0.843182,-0.604322 0.05958,-0.01365 0.232541,-0.133774 0.384371,-0.266933 0.151825,-0.133165 0.294141,-0.242114 0.316256,-0.242114 0.06267,0 0.10004,0.406698 0.04335,0.472052 -0.10082,0.116275 -0.296371,0.180304 -0.487641,0.15967 -0.134476,-0.0145 -0.222566,-3.2e-4 -0.308146,0.04945 -0.119175,0.06937 -0.119375,0.07016 -0.0357,0.14265 0.0463,0.0401 0.08415,0.108579 0.08415,0.152194 0,0.0732 0.0105,0.07104 0.136475,-0.02805 0.07506,-0.05904 0.237831,-0.152469 0.361711,-0.207629 0.123881,-0.05516 0.337621,-0.202894 0.474971,-0.328293 0.282376,-0.257794 0.326851,-0.247274 0.327961,0.07757 5e-4,0.160754 -0.01655,0.199899 -0.117395,0.268624 -0.15653,0.106684 -0.301811,0.138294 -0.428851,0.09331 -0.07396,-0.0262 -0.143405,-0.01885 -0.240466,0.02545 -0.149725,0.06834 -0.169685,0.106995 -0.07349,0.142325 0.09797,0.036 0.08267,0.294098 -0.02055,0.346978 -0.10657,0.05459 -0.2255,0.267893 -0.16825,0.301758 0.06557,0.0388 0.04895,0.180774 -0.02115,0.180774 -0.03465,0 -0.06299,-0.0147 -0.06299,-0.0327 z m -0.208206,-0.435392 c 0.09236,-0.0585 0.16101,-0.11298 0.15256,-0.121065 -0.02765,-0.02645 -0.406271,0.149799 -0.406271,0.189119 0,0.06426 0.07775,0.0434 0.253711,-0.06805 z m 6.227605,-8.154977 c -0.01365,-0.0341 -0.01435,-0.0721 -0.0015,-0.08441 0.0368,-0.0352 0.11296,0.0245 0.11296,0.08851 0,0.07712 -0.0801,0.07417 -0.111485,-0.004 z M 26.020077,3.8985842 c -0.270036,-0.159739 -0.300796,-0.216754 -0.116936,-0.216754 0.135131,0 0.421381,0.207604 0.421381,0.305613 0,0.08077 -0.0349,0.07058 -0.304445,-0.08886 z m -0.314941,-0.683071 c -0.247581,-0.15602 -0.276241,-0.216959 -0.10204,-0.216959 0.07512,0 0.18259,0.05257 0.293945,0.143809 0.307776,0.252154 0.173421,0.303373 -0.191905,0.07315 z M 6.5041198,3.0186542 c 0,-0.05527 0.0189,-0.100485 0.042,-0.100485 0.0231,0 0.042,0.0452 0.042,0.100485 0,0.05526 -0.0189,0.100479 -0.042,0.100479 -0.0231,0 -0.042,-0.0452 -0.042,-0.100479 z M 20.652054,1.9374192 c -0.0097,-0.0089 -0.182206,-0.03525 -0.383511,-0.05867 -0.201306,-0.0234 -0.456411,-0.08252 -0.566897,-0.13138 -0.16761,-0.07413 -0.279115,-0.08937 -0.673206,-0.09205 -0.259776,-0.002 -0.472361,-0.01935 -0.472411,-0.03905 -4.5e-5,-0.0197 0.06993,-0.123694 0.15551,-0.231109 0.14334,-0.179909 0.16974,-0.195294 0.335086,-0.195294 0.283941,0 0.507426,0.105585 0.602991,0.284879 0.06494,0.121824 0.117946,0.163379 0.252736,0.198119 0.0938,0.0242 0.194,0.05257 0.222645,0.06309 0.037,0.0136 0.04725,-0.02065 0.03535,-0.118229 -0.0295,-0.241789 0.0407,-0.306493 0.33923,-0.312738 l 0.260976,-0.0054 -0.293946,-0.03215 c -0.680296,-0.07441 -0.911582,-0.113945 -1.003307,-0.171469 -0.13196,-0.08275 -0.694222,-0.15297898 -0.973412,-0.12157498 -0.278651,0.03135 -0.286546,0.001 -0.07041,-0.272148 l 0.157471,-0.198889 0.24296,0.01805 c 0.285001,0.0212 0.412631,0.09106 0.551852,0.302153 0.06521,0.09887 0.144185,0.162994 0.220315,0.17888398 0.06527,0.0136 0.157071,0.0353 0.204001,0.04825 0.07704,0.0212 0.08382,0.0083 0.06972,-0.13323398 -0.02265,-0.227179 0.06172,-0.291834 0.372016,-0.285119 0.28087,0.0061 0.445586,-0.06962 0.467196,-0.214714 0.0074,-0.05006 0.0481,-0.09731 0.09031,-0.105019 0.05644,-0.0103 0.07312,0.0069 0.06299,0.06479 -0.0097,0.05532 0.0519,0.128494 0.206696,0.245638 0.244295,0.184884 0.27639,0.288739 0.125975,0.40764798 l -0.09448,0.07469 0.100665,0.0688 c 0.250481,0.171194 0.385941,0.312284 0.373856,0.389373 -0.0227,0.144869 -0.123345,0.167209 -0.501546,0.11133 -0.545427,-0.08058 -0.627277,-0.04425 -0.214431,0.09522 0.190541,0.06437 0.346436,0.131984 0.346436,0.150264 0,0.03265 -0.515146,0.0487 -0.549401,0.0171 z m 0.339436,-0.84599 c 0,-0.02775 -0.114066,-0.06854 -0.267291,-0.09557 -0.532981,-0.09399 -0.602022,-0.0376 -0.14213,0.11607498 0.298615,0.09979 0.409421,0.09424 0.409421,-0.0205 z m -6.802762,0.683546 c 0,-0.0679 0.486551,-0.441148 0.831167,-0.637626 0.1318,-0.07514 0.329396,-0.15971998 0.439101,-0.18794398 0.150366,-0.0387 0.199466,-0.07037 0.199466,-0.12874 0,-0.107049 0.267825,-0.213099 0.734861,-0.290978 0.485617,-0.08097 0.650887,-0.08173 0.650887,-0.003 0,0.0425 -0.0449,0.06029 -0.152115,0.06029 -0.134721,0 -0.145736,0.0073 -0.09632,0.06435 0.0469,0.0541 0.112076,0.05987 0.408956,0.0362 0.277566,-0.02215 0.349346,-0.0172 0.335321,0.0231 -0.0352,0.101074 -0.537476,0.216204 -0.947287,0.217129 l -0.388446,0.001 -0.0015,0.12057898 c -0.0025,0.251054 -0.18323,0.348023 -0.865367,0.464918 -0.524251,0.08983 -0.815072,0.168539 -0.968967,0.262223 -0.118901,0.07239 -0.179941,0.07192 -0.179941,-0.0015 z m 2.687512,-0.182239 c 0,-0.0216 -0.043,-0.06624 -0.09559,-0.09921 -0.08424,-0.05283 -0.122885,-0.05299 -0.32544,-0.0015 -0.325986,0.08303 -0.512897,0.07905 -0.494872,-0.01055 0.01705,-0.08483 0.146781,-0.147635 0.477447,-0.231174 0.32391,-0.08183 0.900372,-0.127264 0.900372,-0.07096 0,0.0229 -0.0656,0.05345 -0.145761,0.06785 l -0.14576,0.02615 0.131775,0.112694 c 0.182076,0.155719 0.141061,0.245834 -0.111885,0.245834 -0.10466,0 -0.190285,-0.01765 -0.190285,-0.03925 z"
     id="path4510"
     inkscape:connector-curvature="0"
     inkscape:export-xdpi="96"
     inkscape:export-ydpi="96" />
</svg>
