<?xml version="1.0" encoding="UTF-8" standalone="no"?>
<!-- Created with Inkscape (http://www.inkscape.org/) -->

<svg
   xmlns:dc="http://purl.org/dc/elements/1.1/"
   xmlns:cc="http://creativecommons.org/ns#"
   xmlns:rdf="http://www.w3.org/1999/02/22-rdf-syntax-ns#"
   xmlns:svg="http://www.w3.org/2000/svg"
   xmlns="http://www.w3.org/2000/svg"
   xmlns:sodipodi="http://sodipodi.sourceforge.net/DTD/sodipodi-0.dtd"
   xmlns:inkscape="http://www.inkscape.org/namespaces/inkscape"
   id="svg4974"
   version="1.1"
   inkscape:version="0.92.1 r15371"
   width="300.00018"
   height="300"
   sodipodi:docname="base-enc-logo-medium-white.svg">
  <title
     id="title816">Encore Painting Logo White Text</title>
  <metadata
     id="metadata4980">
    <rdf:RDF>
      <cc:Work
         rdf:about="">
        <dc:format>image/svg+xml</dc:format>
        <dc:type
           rdf:resource="http://purl.org/dc/dcmitype/StillImage" />
        <dc:title>Encore Painting Logo White Text</dc:title>
      </cc:Work>
    </rdf:RDF>
  </metadata>
  <defs
     id="defs4978" />
  <sodipodi:namedview
     pagecolor="#ffffff"
     bordercolor="#666666"
     borderopacity="1"
     objecttolerance="10"
     gridtolerance="10"
     guidetolerance="10"
     inkscape:pageopacity="0"
     inkscape:pageshadow="2"
     inkscape:window-width="1920"
     inkscape:window-height="1018"
     id="namedview4976"
     showgrid="false"
     inkscape:zoom="0.8230688"
     inkscape:cx="90.693645"
     inkscape:cy="162.68358"
     inkscape:window-x="-8"
     inkscape:window-y="-8"
     inkscape:window-maximized="1"
     inkscape:current-layer="svg4974"
     fit-margin-top="0"
     fit-margin-left="0"
     fit-margin-right="0"
     fit-margin-bottom="0" />
  <path
     style="fill:#ffffff;fill-opacity:1;stroke-width:0.38515103"
     d="m 142.39311,299.88376 c 3.09856,-0.0637 8.0589,-0.0636 11.02299,3.5e-4 2.96409,0.0639 0.42891,0.11608 -5.63373,0.11588 -6.06263,-1.9e-4 -8.4878,-0.0525 -5.38926,-0.11623 z M 83.839523,283.39765 c -2.853386,-1.3471 -5.373548,-2.44926 -5.600348,-2.44926 -0.22682,0 -0.0406,0.60317 0.41385,1.34037 1.108,1.79744 1.08793,2.55058 -0.0595,2.23455 -3.48094,-0.95873 -8.73616,-4.48254 -15.45185,-10.36103 -1.94871,-1.70578 -5.40324,-4.64219 -7.67672,-6.52538 l -4.13362,-3.42396 -0.12105,1.58516 c -0.0743,0.97412 -0.31481,1.58517 -0.62367,1.58517 -0.89051,0 -5.0791,-3.00809 -8.04985,-5.78111 -5.5323,-5.16408 -10.23425,-11.61622 -16.79368,-23.04477 -1.90318,-3.31592 -4.16713,-7.17911 -5.03101,-8.58486 -0.86387,-1.40575 -1.46747,-2.65469 -1.34133,-2.77543 0.23753,-0.22736 1.34952,0.10202 3.94677,1.16913 l 1.512,0.62122 -0.2664,-1.24398 c -0.91229,-4.25997 -1.95195,-7.58393 -3.04084,-9.72217 -1.1477,-2.25366 -1.25939,-2.3629 -1.39852,-1.36791 -0.14816,1.05963 -0.19158,1.07762 -2.16228,0.89638 -2.37095,-0.21805 -2.84078,-0.66827 -5.01301,-4.80379 -2.07633,-3.9529 -3.5732702,-8.16177 -6.7679102,-19.02885 -1.52311,-5.18112 -2.85868,-9.71696 -2.96794,-10.07964 -0.13451,-0.4465 0.0204,-0.65941 0.47991,-0.65941 0.49128,0 0.60067,-0.18199 0.39636,-0.65942 -0.15521,-0.36268 -1.05994,-2.85668 -2.01052,-5.54224 -2.57955997,-7.28777 -2.39570997,-10.73687 0.86862,-16.29546 1.55019,-2.63969 1.6209,-3.13302 0.89365,-6.23457 -0.60923,-2.59821 -1.52219,-2.18423 -1.52219,0.69024 0,1.74769 -0.4627,1.61851 -1.49626997,-0.4177 -1.02067,-2.01083 -1.0814,-3.51236 -0.23582,-5.83047 0.44958997,-1.23253 0.54698997,-2.33883 0.35661,-4.05069 -0.27827,-2.50227 0.0884,-3.01074 0.99811997,-1.38386 1.00306,1.79394 1.65541,1.78647 3.8966,-0.0446 1.1311,-0.92411 2.39976,-1.68021 2.81925,-1.68021 0.63048,0 0.71917,-0.17963 0.51153,-1.03621 -0.31698,-1.30776 -1.23312,-2.73187 -1.75741,-2.73187 -0.22041,0 -1.44981,0.52259 -2.73203,1.16132 -2.32821,1.15978 -3.14794,1.18696 -3.14794,0.10436 0,-1.01686 2.02895,-6.27015 3.54502,-9.17866 1.1388,-2.18475 1.4274,-3.12536 1.27172,-4.1449 -0.11076,-0.72536 -0.36092,-1.41769 -0.55592,-1.5385 -0.20927,-0.12967 -0.2104,-0.59285 -0.003,-1.13043 0.19349,-0.50092 0.46033,-1.67379 0.59298,-2.6064 l 0.24117,-1.69564 -1.25231,2.35506 c -1.20418,2.26454 -1.87151,2.9226 -1.87151,1.8455 0,-0.28026 0.8093,-2.35741 1.79845,-4.6159 0.98914,-2.25851 2.95535,-7.05935 4.36935,-10.66854 2.4583002,-6.27476 2.5594402,-6.66468 2.3091302,-8.901889 -0.25341,-2.26493 -0.19803,-2.46523 1.73265,-6.26757 1.09693,-2.16032 1.99443,-4.21414 1.99443,-4.56405 0,-1.011689 3.66862,-7.805521 4.21492,-7.805521 0.27177,0 0.93216,0.805423 1.46754,1.789845 0.53537,0.984411 0.98166,1.588323 0.99174,1.342017 0.01,-0.246297 1.05766,-1.772373 2.32797,-3.391283 1.2703,-1.618901 2.42018,-3.367367 2.55527,-3.885477 0.1351,-0.51811 0.14393,-0.730071 0.0197,-0.471011 -0.12431,0.25905 -0.49619,0.471011 -0.82641,0.471011 -0.4533,0 -0.53894,-0.253845 -0.34961,-1.03623 0.47455,-1.96083 1.8995,-5.369523 2.24465,-5.369523 0.19012,0 0.36334,0.974993 0.38492,2.166647 0.0216,1.191663 0.15976,2.579705 0.30706,3.084556 0.24046,0.824155 0.37273,0.689467 1.29509,-1.318834 0.56502,-1.230202 1.49988,-4.017152 2.07749,-6.193223 2.11736,-7.97689 3.70201,-11.679142 6.57225,-15.354963 1.71223,-2.192782 2.88497,-2.553324 3.47486,-1.068294 0.54102,1.362021 -0.17257,3.316924 -2.76257,7.568248 -4.33635,7.117826 -5.88446,11.345339 -4.82082,13.164499 0.31135,0.532525 0.80545,0.190368 3.17905,-2.201331 2.63487,-2.654977 4.73899,-5.693722 4.25999,-6.152207 -0.35101,-0.335971 -2.08356,0.927484 -3.20969,2.340657 -1.22151,1.532851 -1.75311,1.678616 -1.74605,0.478762 0.0137,-2.321956 3.68747,-7.424239 9.77471,-13.575358 5.70414,-5.764008 7.27945,-7.77931 8.12212,-10.390679 0.2723,-0.843848 0.13673,-0.812124 -2.81838,0.659416 -4.37849,2.180329 -5.27453,2.044565 -2.58417,-0.391542 2.08136,-1.884666 3.7475,-2.757774 8.20823,-4.30136 4.03531,-1.396375 5.66891,-2.440675 5.66891,-3.623904 0,-0.378364 0.19626,-0.687936 0.43615,-0.687936 0.30682,0 0.36268,1.145228 0.18839,3.862291 -0.24162,3.766533 -0.23048,3.839171 0.44963,2.929814 1.96503,-2.627443 4.79129,-5.54163 8.80902,-9.083069 7.958629,-7.015148 9.596495,-8.58075 9.286871,-8.877102 -0.517038,-0.49489 -3.021571,1.058647 -6.002811,3.72349 -3.91871,3.502835 -4.47651,3.377417 -2.86833,-0.644935 0.57164,-1.429766 1.18499,-2.289088 1.86997,-2.61988 1.71738,-0.829353 6.026085,-2.02528 8.165745,-2.266488 1.115743,-0.12578 3.988464,-0.82269 6.383829,-1.54869 4.31865,-1.308917 4.35203,-1.328037 3.97498,-2.277255 -0.59299,-1.492849 -0.48159,-1.661791 1.09604,-1.662109 1.59053,-3.21e-4 4.341147,-1.153697 9.340331,-3.916542 1.72693,-0.954411 3.4325,-1.7352941 3.79015,-1.7352941 1.08696,0 1.60472,0.9517801 1.31681,2.4206941 -0.234,1.193874 -0.40488,1.351675 -1.49973,1.384955 -0.6796,0.02065 -1.64207,0.147831 -2.13884,0.282607 -0.78104,0.211906 -0.83427,0.333128 -0.39367,0.89635 0.46967,0.600377 0.8789,0.469938 5.23365,-1.66821 4.86922,-2.390749 11.36709,-5.2004411 12.02686,-5.2004411 0.20569,0 0.37399,0.236204 0.37399,0.524899 0,0.695511 0.87151,0.982337 2.98478,0.982337 1.18308,0 1.97823,0.228648 2.48629,0.714926 0.73345,0.7020291 0.77429,0.6878891 2.26364,-0.783861 0.83419,-0.824333 3.0005,-2.44758 4.81398,-3.607216 4.73096,-3.025194 8.93801,-4.241242 17.17399,-4.96412896 2.59827,-0.228056 5.56562,-0.48885 6.59411,-0.579542 1.33641,-0.117846 1.86996,-0.02885 1.86996,0.311915 0,0.82635496 -6.55267,2.21026996 -9.77557,2.06458696 l -2.8239,-0.127646 7.9e-4,1.060997 c 0.002,2.545624 -1.2592,3.284375 -7.50111,4.39336 -5.76557,1.024371 -5.88295,1.06163 -5.88295,1.867427 0,0.9549421 -1.63942,2.4212091 -5.51148,4.9293851 -1.84045,1.192168 -3.76727,2.602748 -4.28184,3.134625 -1.79176,1.852025 -0.0484,2.775609 2.96468,1.570608 1.71228,-0.684779 1.71083,-0.68471 1.71083,-0.08124 0,0.266185 -0.54373,0.791398 -1.20829,1.167142 -0.66456,0.375743 -1.1442,0.744518 -1.06585,0.8195 0.3611,0.345632 4.91491,-1.120848 5.87057,-1.89052 1.36765,-1.101494 3.34612,-1.453893 5.51812,-0.982874 2.16999,0.47058 8.99463,-0.265441 8.99463,-0.970049 0,-0.759006 0.86252,-1.042601 1.23474,-0.405982 0.30054,0.51403 1.36924,0.561235 8.51065,0.375926 15.6764,-0.406782 29.81769,1.428271 44.46359,5.769844 l 5.58978,1.65701 3.46481,-0.785869 c 1.90566,-0.432228 3.51464,-0.832049 3.57553,-0.88849 0.0609,-0.05645 -0.97574,-0.722078 -2.30361,-1.479192 -2.49639,-1.423372 -4.71669,-2.091656 -7.00222,-2.107587 -1.04132,-0.0072 -1.2709,-0.135606 -1.08262,-0.605242 0.13143,-0.327818 0.23896,-0.754958 0.23896,-0.949201 0,-0.194244 0.43976,-0.247527 0.97724,-0.118408 1.38069,0.33168 5.02582,-0.5788 5.63918,-1.408552 0.28293,-0.382743 0.90298,-0.708286 1.37788,-0.723429 1.23658,-0.03943 -3.02614,-1.454697 -5.63223,-1.869957 -2.35236,-0.37483 -5.11782,-1.416547 -5.11782,-1.927827 0,-0.468512 1.12493,-0.384876 3.29362,0.244872 1.05365,0.305963 2.06949,0.465344 2.25741,0.354181 0.18793,-0.111165 0.48759,-0.744853 0.66591,-1.408197 0.37704,-1.4024411 1.66883,-1.7360621 4.0633,-1.0494021 1.89411,0.5431731 2.19014,0.9526981 2.51713,3.4820671 0.2294,1.774489 0.17167,2.15317 -0.34467,2.260853 -0.37325,0.07784 -0.009,0.376201 0.91522,0.749255 1.23592,0.498977 1.49434,0.517354 1.32469,0.0942 -0.43745,-1.091131 0.80446,-0.45047 3.34604,1.726111 1.44619,1.238499 3.55606,2.693317 4.6886,3.23293 2.06704,0.984867 6.01124,4.084472 6.01124,4.724012 0,0.72208 -1.10537,0.268734 -4.23554,-1.737138 l -3.24434,-2.079027 v 1.254913 c 0,1.507258 1.25057,2.760525 4.13361,4.142515 2.17391,1.042063 6.10201,3.903369 6.10201,4.444816 0,0.784603 -1.54982,0.233139 -4.33045,-1.540879 l -2.95258,-1.883721 -0.12107,1.507868 c -0.15243,1.898769 -0.63223,1.911068 -1.62858,0.04174 l -0.78144,-1.46613 -1.32789,0.61831 -1.32788,0.618311 4.36497,2.219762 c 6.39584,3.252531 7.55309,3.910549 12.11542,6.88893 4.53515,2.960636 11.2633,7.99004 14.19711,10.612566 1.02847,0.919364 1.86996,1.478802 1.86996,1.243198 0,-0.235603 0.44289,-0.428372 0.9842,-0.428372 1.18282,0 1.17266,0.133614 0.18238,-2.399745 -0.68943,-1.763695 -1.02051,-2.134961 -2.36207,-2.648747 -1.93673,-0.741722 -2.01034,-1.357259 -0.16231,-1.357259 1.1067,0 1.67327,0.28766 2.71946,1.380707 1.32792,1.387389 1.95595,3.036674 1.54585,4.059585 -0.12128,0.30251 -0.0245,0.770664 0.21527,1.040343 2.16149,2.432007 2.38841,2.834707 2.39961,4.258419 0.0107,1.337219 0.34826,1.868524 2.99394,4.710112 4.01829,4.315833 7.74909,8.845528 10.97837,13.329236 2.19978,3.054268 2.60315,3.837913 2.25232,4.375601 -0.34355,0.526547 -0.15816,1.016176 0.94533,2.496733 0.75497,1.012964 1.61342,1.794905 1.90766,1.737665 0.29749,-0.05783 1.01309,0.73669 1.61193,1.789834 0.59233,1.041662 1.33349,1.893936 1.64702,1.893936 0.35944,0 0.48129,0.221461 0.32977,0.599389 -0.13586,0.338853 0.42843,1.853924 1.29818,3.485494 1.90919,3.58148 7.38209,16.269079 9.24101,21.423059 2.91259,8.07531 5.48751,19.59674 6.55222,29.31775 0.59395,5.42296 0.59823,19.14613 0.007,24.86938 -0.9548,9.25419 -4.00059,23.50335 -5.0988,23.85374 -0.41699,0.13303 -0.48871,-0.084 -0.30153,-0.91213 2.10212,-9.30087 2.5827,-13.17502 2.81682,-22.70792 0.13828,-5.63037 0.0939,-6.53246 -0.22481,-4.56699 -1.74815,10.78176 -3.94354,20.83554 -4.72571,21.64139 -0.72518,0.74715 -0.67657,-0.15574 0.24138,-4.48324 1.97427,-9.30729 2.35658,-13.52733 2.35666,-26.01316 8e-5,-13.20188 -0.22722,-15.23006 -2.61259,-23.3113 C 287.15978,112.14454 278.85472,96.782781 267.23224,82.74692 263.00435,77.641113 252.52522,67.61622 246.98876,63.38093 227.1959,48.239727 204.55333,39.059124 178.8825,35.766715 c -7.25927,-0.931035 -25.11525,-0.919383 -32.28158,0.02107 -31.38031,4.118085 -58.095074,16.90202 -79.726555,38.151903 -6.21532,6.105676 -10.92801,11.640413 -15.51334,18.219373 -3.76496,5.40192 -7.70686,12.023669 -7.70686,12.946259 0,0.34482 -0.15146,0.62695 -0.33659,0.62695 -0.54384,0 -4.75124,8.9635 -6.63267,14.13033 -4.16128,11.42783 -5.17646,16.78071 -5.5121,29.06462 -0.34689,12.69549 0.87019,23.40727 3.99731,35.1813 3.40186,12.80852 7.54204,21.58117 15.82705,33.536 10.77338,15.54543 26.29581,29.63483 42.914714,38.95285 4.065147,2.27928 4.823557,2.85144 5.024067,3.79023 0.37592,1.7602 1.319784,2.42476 4.920974,3.46479 4.057,1.17168 5.64353,2.04005 6.65774,3.64409 1.02006,1.61328 1.40825,2.90128 0.87442,2.90128 -0.23344,0 -2.03375,-0.95284 -4.0007,-2.1174 -3.24894,-1.9236 -3.63283,-2.06329 -4.19402,-1.52615 -0.93463,0.89458 -0.13147,1.54695 3.58264,2.91007 5.37045,1.971 5.70391,2.17575 6.55994,4.02801 1.23917,2.68131 0.85995,3.45862 -1.05951,2.17178 -0.55243,-0.37035 -1.26564,-0.48101 -2.08694,-0.32378 -1.20345,0.23038 -1.14831,0.27588 1.5544,1.28236 3.35566,1.24965 3.95232,1.67905 3.95232,2.84438 0,1.65704 -2.92374,2.70195 -5.61758,2.00766 -1.23088,-0.31724 -2.50504,-1.21913 -5.00464,-3.54247 -4.41914,-4.1075 -5.232604,-4.48158 -7.752021,-3.56474 l -1.10367,0.40164 0.97961,0.73787 c 0.5388,0.40584 2.928341,2.02471 5.310091,3.59751 5.35095,3.53349 6.102,4.18452 6.102,5.28927 0,0.88877 -0.91399,1.21795 -1.3796,0.49686 -0.7087,-1.09757 -2.94436,-1.65648 -7.674994,-1.91873 -2.706527,-0.15004 -5.405857,-0.45234 -5.998507,-0.67177 -0.5954,-0.22043 -2.25846,-1.83704 -3.7168,-3.613 -1.451587,-1.76772 -2.841585,-3.21405 -3.088876,-3.21405 -0.940763,0 -0.937163,0.54098 0.01154,1.7315 0.957695,1.20181 1.295179,2.4134 0.672256,2.4134 -0.170537,0 -1.189176,-0.86026 -2.263653,-1.91169 -1.074477,-1.05144 -5.490791,-4.4851 -9.814051,-7.63039 -11.88628,-8.64757 -18.64043,-15.2474 -21.86924,-21.36956 -0.96236,-1.82474 -2.3189,-3.19748 -4.22334,-4.27373 -0.31196,-0.1763 -0.65885,0.0766 -0.95327,0.69515 -0.87576,1.83972 -3.87096,1.73031 -3.87096,-0.1414 0,-1.80336 -2.2265,-5.3704 -5.54889,-8.88981 -1.76079,-1.8652 -3.8139,-4.19127 -4.56247,-5.16905 -1.51039,-1.97287 -3.31508,-2.625 -5.10458,-1.84459 l -0.98328,0.42882 1.19915,1.40837 c 0.65953,0.7746 2.88712,3.10341 4.9502,5.17513 2.06306,2.07172 3.75103,3.8265 3.75103,3.89952 0,0.073 -0.53147,0.60794 -1.18104,1.18873 -1.35356,1.21023 -1.58027,3.06654 -0.59685,4.88678 0.54568,1.01001 0.6631,1.05276 1.78156,0.64868 0.85287,-0.30813 1.39274,-0.3175 1.87632,-0.0325 0.7796,0.45935 2.69326,3.13568 5.40314,7.55652 2.10606,3.43579 4.5268,6.03069 6.29103,6.74367 0.96365,0.38943 1.36466,0.37946 2.24409,-0.0559 1.33432,-0.66044 1.50358,-0.66059 1.50358,-0.001 0,0.29077 -0.64139,1.02116 -1.42532,1.62309 l -1.4253,1.09443 4.86999,3.0329 c 5.45276,3.39601 9.654,5.77896 10.18826,5.77896 0.19531,0 0.96454,0.39585 1.70942,0.87968 0.74488,0.48383 4.51728,2.44244 8.38313,4.35247 7.120222,3.51793 12.373224,6.62604 12.650664,7.48514 0.31004,0.96009 -1.515591,0.4109 -6.576236,-1.97824 z M 28.356825,127.55447 c 0.37835,-0.70738 0.94868,-2.89699 1.26738,-4.86581 1.18146,-7.29873 5.0299,-19.36166 8.9056,-27.914619 0.84341,-1.86127 2.75787,-5.64096 4.25433,-8.399302 2.06428,-3.80492 2.67933,-5.286034 2.54874,-6.137647 -0.12657,-0.825374 0.10672,-1.439664 0.88134,-2.320801 0.5794,-0.659076 1.27599,-1.198324 1.54797,-1.198324 0.27198,0 0.83198,-0.36788 1.24446,-0.817515 0.73983,-0.806476 0.73933,-0.813416 -0.0374,-0.514268 -1.72219,0.663268 -2.35562,0.453703 -2.48443,-0.821935 -0.10416,-1.031294 0.0282,-1.24786 0.88836,-1.454514 0.5559,-0.133541 1.58531,-0.144178 2.28758,-0.02365 1.20041,0.206023 1.377,0.08437 2.94904,-2.030978 0.91969,-1.237573 1.57697,-2.25013 1.46061,-2.25013 -0.11635,0 -0.90606,0.339128 -1.7549,0.753618 -0.84884,0.414489 -1.74677,0.753617 -1.99538,0.753617 -0.61353,0 -0.13371,-1.740108 0.84112,-3.050464 0.73613,-0.9895 3.61182,-2.22486 5.17905,-2.22486 0.40433,0 1.12567,-0.392345 1.60301,-0.87188 1.9272,-1.93607 6.57621,-6.995931 6.57621,-7.157368 0,-0.09495 -0.37308,-0.266023 -0.82907,-0.380155 -0.58611,-0.146703 -1.61167,0.337312 -3.49967,1.651693 -2.5002,1.740564 -3.54483,2.212332 -3.54483,1.600884 0,-0.142076 0.39297,-0.658688 0.87326,-1.148027 l 0.87325,-0.889707 -1.70073,0.260308 c -1.96863,0.301307 -2.54077,-0.178272 -2.17903,-1.826544 0.1272,-0.579529 0.0555,-1.036225 -0.16253,-1.036225 -1.1821,0 -3.96599,4.972748 -3.47271,6.203138 0.12776,0.318682 0.68075,0.579423 1.22885,0.579423 0.57332,0 0.99655,0.21567 0.99655,0.507836 0,0.27931 -2.49455,3.967327 -5.54345,8.195594 -6.17343,8.561434 -8.96699,12.766153 -11.46847,17.261753 -0.92827,1.66829 -1.86229,2.98113 -2.07556,2.91745 -0.21329,-0.0637 -0.54894,-0.6536 -0.74589,-1.31091 -0.44534,-1.48625 -0.7542,-1.49586 -1.82482,-0.0568 -2.28343,3.06938 -3.08867,8.55279 -1.95385,13.305249 0.57655,2.41453 0.23631,3.08257 -1.38651,2.72231 -0.57053,-0.12666 -1.02992,0.18017 -1.66822,1.11423 -1.60689,2.35145 -1.7034,3.85193 -0.62536,9.7237 0.96529,5.25771 1.05803,9.87508 0.25486,12.68824 -0.26118,0.91477 -0.24412,0.92355 0.66764,0.3441 0.51463,-0.32704 1.24524,-1.17339 1.6236,-1.88076 z m 6.83205,-11.08316 c 0.58316,-2.07245 1.93833,-6.54315 3.01148,-9.93487 1.07315,-3.39173 1.87868,-6.23617 1.79008,-6.32098 -0.41533,-0.397529 -8.14618,18.0315 -8.14618,19.4191 0,0.42226 1.71625,1.13766 2.02794,0.84532 0.14102,-0.13227 0.73353,-1.93612 1.31668,-4.00857 z m 11.78284,-26.401769 c 1.74342,-3.035881 1.41274,-4.044322 -0.40823,-1.24494 -1.11202,1.70949 -1.74614,3.71934 -1.17348,3.71934 0.0883,0 0.80016,-1.11349 1.58171,-2.4744 z m 5.34378,-8.545338 c 0,-0.210195 -0.26111,-0.169385 -0.59052,0.09232 -0.32478,0.257997 -0.59051,0.638651 -0.59051,0.845903 0,0.210195 0.26111,0.169385 0.59051,-0.09232 0.32479,-0.258006 0.59052,-0.63865 0.59052,-0.845902 z m 1.87704,-2.545381 c 0.27044,-0.414494 0.42908,-0.753615 0.35254,-0.753615 -0.0765,0 -0.45981,0.339121 -0.85171,0.753615 -0.3919,0.414484 -0.55055,0.753615 -0.35255,0.753615 0.19801,0 0.58126,-0.339131 0.85172,-0.753615 z M 257.65948,53.431687 c -0.35753,-0.661752 -1.13728,-1.301333 -1.89463,-1.554032 l -1.28704,-0.429438 1.74264,1.699518 c 0.95843,0.934734 1.81102,1.634046 1.89461,1.55403 0.0836,-0.08002 -0.12141,-0.651554 -0.45558,-1.270078 z M 72.196225,45.145327 c 1.29914,-0.916863 3.23099,-2.088983 4.29299,-2.604714 1.40054,-0.680133 1.78331,-1.025011 1.39352,-1.255587 -0.43673,-0.258352 -0.39285,-0.475326 0.23431,-1.158413 0.65441,-0.712757 0.67011,-0.805109 0.1033,-0.607589 -0.36762,0.128108 -2.05058,0.686489 -3.73994,1.240846 -3.48064,1.142161 -4.36962,1.916485 -6.89059,6.001791 -0.8952,1.450713 -1.90425,3.061571 -2.24234,3.579684 -0.33807,0.518112 0.53313,-0.06395 1.93599,-1.293487 1.40287,-1.229532 3.6136,-2.985669 4.91274,-3.902531 z M 86.95915,39.033871 c 1.4074,-0.898305 4.065089,-2.833538 5.905999,-4.30052 1.8409,-1.466981 3.83994,-3.0085 4.44232,-3.425599 l 1.095217,-0.758361 -2.670767,0.193148 c -3.28445,0.237529 -4.70194,1.1962 -7.648767,5.172979 -1.399143,1.888155 -2.389943,2.838196 -3.242531,3.109137 -0.675247,0.214585 -1.781932,0.714033 -2.459273,1.109883 -0.993267,0.580477 -1.193951,0.907928 -1.037258,1.692459 l 0.194273,0.972736 1.430934,-1.066286 c 0.787019,-0.586458 2.582453,-1.801268 3.989853,-2.699576 z m 20.12922,-13.542862 c -0.18218,-0.114101 -0.55083,-0.852103 -0.81922,-1.640002 -0.26839,-0.787901 -0.69266,-1.367958 -0.94283,-1.289018 -0.57936,0.182827 -2.48114,2.840749 -2.8029,3.917339 l -0.24477,0.818965 2.57049,-0.799914 c 1.41376,-0.439952 2.42142,-0.89327 2.23923,-1.00737 z m 115.42857,1.324104 c 0.3105,-0.774509 -1.38179,-3.017228 -2.38116,-3.155613 -0.83794,-0.116034 -0.83933,-0.104029 -0.20658,1.789842 0.51091,1.529207 0.80864,1.906659 1.50395,1.906659 0.47682,0 0.96452,-0.243399 1.08379,-0.540888 z M 113.63472,23.307341 c 2.22151,-0.928142 4.12832,-1.825695 4.23736,-1.994562 0.29702,-0.459997 -3.88124,-0.862454 -5.91835,-0.570062 -1.63398,0.234533 -1.87655,0.416157 -2.95129,2.209781 -0.64403,1.074836 -1.17264,2.092846 -1.17468,2.262245 -0.005,0.422198 1.09932,0.05944 5.80696,-1.907402 z m 7.64283,-0.05507 3.27783,-1.056688 -2.32537,-0.280352 c -1.27895,-0.154193 -2.56332,-0.367754 -2.85416,-0.474577 -0.29085,-0.106823 -0.5288,0.0044 -0.5288,0.247226 0,0.242798 -0.53146,0.869486 -1.18104,1.392641 -0.64956,0.523155 -1.18102,1.117109 -1.18102,1.319897 0,0.399438 -0.0311,0.406893 4.79256,-1.148147 z m 98.74323,-2.974695 c -0.003,-0.523986 -1.61893,-2.800468 -1.83872,-2.590105 -0.12268,0.117422 -0.10223,0.984741 0.0455,1.927374 0.24278,1.549601 0.34167,1.676413 1.03163,1.322981 0.4197,-0.214996 0.76244,-0.512108 0.76162,-0.66025 z M 186.95332,273.64255 c 0,-0.30895 0.60467,-0.62585 1.47629,-0.77371 0.81196,-0.13774 1.78631,-0.33759 2.16522,-0.44413 0.48864,-0.13739 0.68895,0.0185 0.68895,0.536 0,0.55049 -0.36259,0.78706 -1.4763,0.96327 -2.23526,0.35363 -2.85416,0.29261 -2.85416,-0.28143 z m -15.26785,-2.0034 c -0.71077,-0.0883 -1.50598,-0.48807 -1.76716,-0.88835 -0.31375,-0.48086 -1.11508,-0.80908 -2.36187,-0.96739 -1.26968,-0.1612 -2.10998,-0.51091 -2.56858,-1.06894 -0.60715,-0.7388 -1.18132,-0.85667 -5.25851,-1.07956 -4.0074,-0.21907 -12.63134,-1.3882 -14.6043,-1.97986 -0.37892,-0.11363 -0.68894,-0.43914 -0.68894,-0.72334 0,-0.49266 -1.85095,-0.86728 -4.33046,-0.87645 -2.51142,-0.009 -4.16675,-0.2439 -4.52729,-0.64165 -0.21652,-0.23887 -1.54519,-0.82075 -2.95259,-1.29308 -4.80325,-1.61198 -12.78771,-4.95531 -17.91234,-7.50041 -16.121684,-8.00671 -29.651156,-19.89485 -39.843305,-35.00974 -1.77719,-2.63557 -3.23872,-5.00391 -3.24784,-5.26297 -0.0404,-1.14785 1.09795,-0.24093 2.62057,2.08783 2.03605,3.11403 4.91666,6.56465 8.744656,10.47502 l 2.917726,2.98053 -1.866997,-2.3661 c -2.199792,-2.78786 -7.314715,-10.49497 -7.314715,-11.02173 0,-0.8551 1.04806,-0.25329 1.82897,1.05023 2.957356,4.93656 11.695284,14.71039 18.131524,20.2811 5.215521,4.51414 8.487851,6.5972 15.879381,10.10835 34.60009,16.43586 74.456,13.09484 104.88425,-8.79217 4.97573,-3.57904 13.1546,-11.16706 17.13402,-15.89626 17.62366,-20.94414 25.03751,-47.99307 20.49172,-74.76267 -0.86047,-5.0672 -2.8925,-12.95943 -3.7704,-14.64377 -0.31562,-0.60559 -0.57386,-1.33956 -0.57386,-1.63108 0,-0.91717 -3.50798,-8.78815 -5.8364,-13.09537 -2.70134,-4.99706 -5.40519,-8.68125 -10.10755,-13.77232 -10.84069,-11.736769 -26.6956,-22.066407 -40.35198,-26.289734 -18.31302,-5.663415 -36.42255,-6.34776 -54.85056,-2.072728 -3.42268,0.794002 -4.43261,0.904763 -5.02444,0.550999 -1.09059,-0.651899 -1.71539,-0.557453 -4.2073,0.635955 -1.23883,0.593297 -2.87246,1.185003 -3.6303,1.3149 -1.71918,0.294676 -3.70288,-0.191318 -3.85447,-0.944334 -0.0862,-0.428084 0.5648,-0.691646 2.62929,-1.064494 3.32494,-0.600494 3.97951,-0.913685 3.28963,-1.574011 -0.38807,-0.371432 -1.11784,-0.220449 -3.56678,0.737929 -3.37128,1.31933 -3.89254,1.388672 -6.07596,0.808294 -1.75279,-0.46592 -1.93278,-1.305843 -0.34497,-1.609793 0.62223,-0.119115 1.23155,-0.466549 1.35403,-0.772078 0.17901,-0.446496 -0.10095,-0.414866 -1.42657,0.161185 -2.20056,0.956262 -3.69003,0.948693 -4.01137,-0.02034 -0.36546,-1.102133 0.0831,-2.102271 1.42912,-3.186323 1.09172,-0.879278 1.49877,-0.958585 4.91948,-0.958585 3.89632,0 5.71903,-0.509384 6.21066,-1.735642 0.40421,-1.008219 -0.007,-1.082568 -3.02496,-0.546082 -1.56298,0.277904 -4.12615,0.584381 -5.69594,0.681063 -2.35463,0.145022 -2.85416,0.07699 -2.85416,-0.388674 0,-0.344762 0.52647,-0.658998 1.35264,-0.807348 0.87964,-0.157951 2.25358,-1.024366 3.92907,-2.477699 3.68,-3.192073 4.13534,-3.362247 7.85728,-2.936622 2.04758,0.234153 3.23459,0.225919 3.49597,-0.02427 0.2652,-0.253845 -0.0756,-0.463437 -1.03342,-0.635409 -1.97114,-0.353944 -1.79549,-0.92637 0.28426,-0.92637 0.94236,0 5.23789,-0.423909 9.5456,-0.942022 11.48223,-1.381031 18.83094,-1.24977 24.29385,0.433929 1.13513,0.349853 2.42507,0.488081 3.22102,0.345161 1.25415,-0.225199 1.3157,-0.308663 1.11228,-1.508491 -0.17528,-1.033873 -0.0585,-1.350418 0.62773,-1.701959 0.69016,-0.353533 1.04607,-0.293507 1.9623,0.330948 1.84548,1.257785 3.06995,1.542784 8.86638,2.063665 4.7488,0.42674 5.66278,0.421326 6.395,-0.03789 0.84874,-0.532283 1.48991,-1.57835 1.16062,-1.893535 -0.0947,-0.09056 -2.56983,-0.260892 -5.50046,-0.378501 l -5.32843,-0.213836 -0.11871,-1.345287 c -0.0922,-1.045075 -0.41723,-1.537188 -1.45639,-2.205229 -1.6659,-1.070943 -1.9223,-1.072439 -2.07964,-0.01213 -0.18637,1.256005 -1.54356,1.241042 -6.66684,-0.0735 -5.33954,-1.370006 -7.87624,-1.481929 -9.00922,-0.397488 -0.43306,0.414489 -0.78737,0.923181 -0.78737,1.130426 0,0.207245 -0.17715,0.376809 -0.39367,0.376809 -0.21653,0 -0.39368,-0.593474 -0.39368,-1.318831 0,-1.071328 -0.14902,-1.318831 -0.79404,-1.318831 -1.74999,0 -10.10211,1.975443 -18.23471,4.31288 -9.10633,2.617294 -13.10042,3.377028 -12.79248,2.433314 0.0949,-0.290866 1.93291,-1.086811 4.08444,-1.768771 2.15153,-0.681956 4.06392,-1.38545 4.24974,-1.563316 0.18805,-0.179991 -0.2031,-0.437125 -0.88206,-0.57986 -1.51069,-0.317586 -1.57651,-1.102874 -0.13734,-1.638523 2.55332,-0.950327 4.63826,-1.239815 11.51508,-1.598838 12.98334,-0.677826 13.14261,-0.696422 12.42907,-1.45108 -1.03341,-1.092976 -0.71808,-1.463861 1.64491,-1.934721 3.54472,-0.706332 12.36655,-0.237922 17.60073,0.934539 6.2995,1.411093 19.50341,5.195915 19.50341,5.590533 0,0.186418 -0.70862,0.605366 -1.57471,0.930999 -0.86609,0.325631 -1.57471,0.702165 -1.57471,0.836738 0,0.495072 7.51519,4.539519 8.43511,4.539519 0.0641,0 0.0394,-0.386489 -0.0549,-0.858864 -0.13673,-0.684647 0.10974,-0.987246 1.21505,-1.491749 1.26021,-0.575198 1.59477,-0.582052 3.6708,-0.07521 1.25634,0.306722 3.96721,1.327215 6.02417,2.267768 5.68362,2.598847 16.92815,8.85941 16.92815,9.425011 0,0.275252 1.99299,1.456135 4.42887,2.624172 2.43589,1.168047 4.8305,2.478712 5.32138,2.912599 1.17996,1.042984 3.10106,4.765694 3.43468,6.655757 0.20926,1.185561 0.61143,1.750181 1.88532,2.646869 1.96339,1.382022 2.72867,1.486082 1.46568,0.199301 -1.22521,-1.248294 -0.73816,-1.599672 1.28472,-0.926821 1.28834,0.428528 1.96658,1.0084 3.10026,2.650648 0.79813,1.15617 1.90923,2.38941 2.46913,2.74055 1.36817,0.85805 1.31474,1.49694 -0.10031,1.19946 -1.45882,-0.30668 -1.88401,0.243 -2.12297,2.7446 -0.17055,1.78535 -0.0919,2.06659 0.72025,2.57593 1.20162,0.75361 1.61304,0.44811 2.26026,-1.67837 0.85152,-2.79774 1.59888,-2.55058 3.38446,1.1193 0.83982,1.72609 1.74628,3.851309 2.01435,4.722709 0.37169,1.20826 0.80097,1.72682 1.8083,2.18434 0.72649,0.32996 1.32483,0.71917 1.32965,0.86487 0.004,0.14571 0.37101,0.68884 0.81378,1.20695 0.68742,0.80442 0.74365,0.8218 0.38491,0.11898 -0.49178,-0.96349 -0.55675,-2.37984 -0.10917,-2.37984 0.17099,0 0.99662,1.56848 1.83472,3.4855 3.41393,7.80886 5.96377,12.53757 7.37226,13.67198 0.96534,0.77748 1.70531,1.92319 2.43066,3.76341 0.57353,1.45512 1.04281,2.79828 1.04281,2.98481 0,0.18653 0.24485,0.60684 0.54409,0.93402 0.67646,0.73962 2.73698,6.43501 2.43328,6.72571 -0.12226,0.11702 -0.83628,0.0324 -1.5867,-0.18803 l -1.3644,-0.4008 0.22357,1.75071 c 0.39922,3.12598 0.90184,4.56391 1.51637,4.33819 0.88039,-0.32336 3.12142,3.59898 2.43284,4.25806 -0.12428,0.11895 -0.94276,-0.3271 -1.81884,-0.99124 -0.87607,-0.66413 -1.59286,-1.10173 -1.59286,-0.97243 0,0.39196 1.56159,3.21734 3.76777,6.81701 3.51973,5.7429 5.34161,12.6053 3.34654,12.6053 -1.21451,0 -1.93156,-0.98987 -2.81448,-3.88537 -1.89981,-6.23033 -2.79816,-8.46242 -3.93894,-9.78709 -0.66306,-0.76994 -1.36983,-1.3999 -1.57058,-1.3999 -0.20077,0 -0.36502,0.9423 -0.36502,2.094 0,2.34705 0.69827,5.44218 1.22777,5.44218 0.41339,0 0.48673,-0.46924 0.36811,-2.35505 -0.099,-1.57527 0.48861,-1.85992 1.20282,-0.5826 1.03671,1.85411 1.57092,4.95952 1.92615,11.19682 0.35904,6.30416 1.12321,10.20447 1.9993,10.20447 0.19912,0 0.36204,-0.18586 0.36204,-0.41302 0,-1.0083 1.27683,-4.4855 1.64708,-4.4855 0.80113,0 0.13299,4.96084 -1.015,7.53617 -2.08651,4.6808 -2.02929,4.48065 -1.50889,5.27823 0.60785,0.93163 0.6063,1.12676 -0.009,1.13059 -0.27065,0.001 -1.20071,-0.77477 -2.06681,-1.72546 l -1.57471,-1.72853 -0.0428,9.43941 c -0.0236,5.19168 0.10276,9.3533 0.28067,9.24803 0.59775,-0.3536 1.13564,-2.96949 1.13785,-5.53368 10e-4,-1.89604 0.13889,-2.54346 0.53922,-2.54346 0.57299,0 1.82759,2.73432 1.82118,3.96909 -0.005,1.07462 -1.65495,4.30056 -3.19388,6.24676 -0.73126,0.92477 -1.85647,2.74929 -2.50049,4.05448 -1.07724,2.1832 -1.11662,2.40219 -0.49209,2.73671 0.89307,0.47836 0.8588,0.7925 -0.25838,2.36819 -0.51546,0.72703 -1.31971,2.72694 -1.78721,4.44424 -1.40583,5.1641 -1.88881,5.70935 -3.54766,4.00507 -0.61491,-0.63174 -0.83512,-0.69473 -0.98803,-0.28261 -0.10821,0.29169 -0.88262,2.39554 -1.72089,4.67523 -1.26584,3.44247 -1.66408,4.15196 -2.34994,4.18656 -0.45419,0.0229 -1.38149,0.48923 -2.06067,1.03623 -0.67919,0.54701 -1.47292,0.99456 -1.76386,0.99456 -0.36453,0 -0.61101,0.79065 -0.79289,2.54345 -0.66852,6.44269 -2.07703,9.44411 -7.24094,15.42988 -2.74604,3.18306 -3.97448,4.14149 -3.97448,3.10086 0,-1.11808 3.12597,-5.49878 4.57143,-6.40636 0.8555,-0.53714 0.89874,-0.66645 0.36479,-1.0906 -0.33317,-0.26466 -0.60965,-1.01152 -0.61441,-1.65969 -0.009,-1.15647 -0.0236,-1.14694 -0.80897,0.51031 -1.06283,2.24273 -3.78533,5.65898 -4.50979,5.65898 -0.65813,0 -0.77402,-0.59305 -0.18408,-0.94203 0.21652,-0.12808 0.38664,-0.43483 0.37804,-0.68165 -0.009,-0.24683 -0.79027,0.35665 -1.73706,1.34106 -1.5856,1.64861 -2.57776,2.22399 -2.57776,1.49491 0,-1.01107 3.00984,-5.50833 4.16619,-6.22505 1.50958,-0.93565 1.5843,-1.11087 0.75478,-1.76981 -0.32478,-0.25799 -0.59065,-0.82984 -0.59082,-1.27076 -2.3e-4,-0.58211 -0.21535,-0.38886 -0.7854,0.70555 -1.00837,1.93592 -3.58025,5.16796 -4.28924,5.39027 -0.41433,0.12991 -0.48438,-0.0696 -0.28777,-0.81943 0.23768,-0.9064 0.15826,-0.99116 -0.92863,-0.99116 -1.34581,0 -1.5048,-0.53055 -0.54998,-1.83534 0.45449,-0.62107 0.91112,-0.82272 1.58413,-0.69958 1.0091,0.18464 2.06265,-0.77535 3.36892,-3.06973 0.72564,-1.27454 1.87285,-1.58544 1.91323,-0.51849 0.0194,0.51324 0.10255,0.47485 0.37511,-0.17319 0.19259,-0.45793 1.30882,-2.17243 2.48053,-3.81 1.1717,-1.63756 2.44421,-3.76397 2.82779,-4.72533 0.38359,-0.96135 0.85052,-1.74793 1.03762,-1.74793 0.92285,0 -0.33084,8.70173 -1.49968,10.40918 -0.33482,0.4891 -0.49871,1.16376 -0.36422,1.49925 0.17786,0.44361 0.79635,-0.19794 2.26761,-2.35214 1.86275,-2.72742 2.0177,-3.12634 1.95534,-5.03458 -0.0373,-1.13984 0.20135,-3.39871 0.5302,-5.01969 0.45679,-2.25166 0.49252,-3.13574 0.15137,-3.74585 -0.44421,-0.79446 -0.45133,-0.79324 -1.37663,0.2364 -0.51157,0.56924 -0.93011,1.27987 -0.93011,1.57918 0,0.29932 -0.17716,0.54421 -0.39368,0.54421 -0.21653,0 -0.39459,-0.4663 -0.39569,-1.03622 -0.002,-1.0036 -0.0326,-0.98877 -0.97192,0.47101 -0.53343,0.82898 -0.97541,1.89989 -0.98218,2.37983 -0.0178,1.26411 -0.68655,2.27552 -2.0164,3.0496 -1.41669,0.82463 -4.29472,4.42838 -4.29472,5.37768 0,0.39019 -0.29682,0.69857 -0.68895,0.71577 -0.37891,0.0166 -2.09148,1.55676 -3.8057,3.42254 -6.28039,6.83564 -16.94348,14.6483 -26.6059,19.4937 -2.49002,1.24865 -4.71473,2.57365 -4.94381,2.94442 -0.22909,0.37078 -0.83162,1.32912 -1.33898,2.12964 l -0.92245,1.45548 1.33896,-0.26779 c 1.7533,-0.35065 4.52418,-1.65988 5.34067,-2.52343 0.88975,-0.94103 1.31297,-0.85817 1.31297,0.25706 0,0.51812 -0.15679,0.94202 -0.34841,0.94202 -0.53941,0 -1.70372,1.8875 -2.03714,3.30247 -0.35813,1.51992 -0.13588,1.48418 2.94576,-0.47365 2.10963,-1.34029 4.55759,-2.10355 4.55759,-1.42104 0,0.20435 -0.7972,0.77634 -1.77155,1.27108 -1.80628,0.91718 -2.07624,1.24132 -1.37787,1.65444 0.21653,0.12809 0.39368,0.71316 0.39368,1.30017 0,0.89432 -0.25646,1.16548 -1.58268,1.67339 -2.09442,0.80212 -2.1972,0.78841 -3.92882,-0.52429 -1.62187,-1.22951 -2.4679,-1.45607 -2.11075,-0.56522 0.18773,0.46824 -0.23655,0.56619 -2.47284,0.57088 -1.4847,0.003 -3.40807,0.25003 -4.27416,0.54868 -1.76045,0.60705 -6.49568,0.77023 -6.49568,0.22385 0,-0.19373 1.32536,-0.5654 2.94525,-0.82592 2.80437,-0.45102 2.91442,-0.50627 2.30105,-1.155 -0.77991,-0.82486 -1.68836,-0.84894 -4.22625,-0.11203 -2.1214,0.61597 -5.74418,0.75765 -5.74418,0.22464 0,-0.45883 0.81224,-0.72115 3.15347,-1.01841 2.20362,-0.2798 2.63446,-0.59409 1.76316,-1.2862 -1.00156,-0.7956 -0.67104,-1.22609 0.74602,-0.97164 1.01822,0.18284 1.38936,0.0967 1.57471,-0.3657 0.36753,-0.9167 0.30343,-1.02344 -0.44642,-0.74344 -4.76062,1.77771 -16.44259,3.85981 -23.71908,4.22749 -2.92306,0.1477 -5.00464,0.33179 -4.62573,0.40909 0.77808,0.15875 0.90314,0.66774 0.25787,1.04945 -0.24322,0.14388 0.27643,0.55819 1.19251,0.95076 1.243,0.53266 1.8644,0.60811 2.65091,0.32191 1.22767,-0.44677 1.63587,-0.17695 1.06132,0.70152 -0.44045,0.67344 -1.4486,0.83134 -3.60073,0.56393 z m -2.44765,-3.35418 c 0,-0.0815 -0.48718,-0.14549 -1.08262,-0.14232 -0.78791,0.004 -0.93158,0.0973 -0.5278,0.34195 0.50128,0.30375 1.61042,0.16625 1.61042,-0.19963 z m 38.18674,-0.9017 c -1.28655,-0.96324 -2.05159,-0.95185 -0.84216,0.0126 0.51117,0.4076 1.13121,0.73731 1.37787,0.73271 0.24667,-0.004 0.005,-0.33998 -0.53571,-0.74525 z m -3.5431,-1.82357 c 0,-0.32855 -1.72382,-1.1909 -2.38058,-1.1909 -0.55296,0 -0.45662,1.03616 0.11694,1.25768 0.81399,0.31437 2.26364,0.27162 2.26364,-0.0668 z m 53.47003,-48.98183 c 0.72713,-0.53543 0.88814,-0.9663 0.78736,-2.10705 l -0.12669,-1.43399 -1.07833,2.11543 c -1.14163,2.23958 -1.06108,2.5145 0.41766,1.42561 z m 4.34663,-3.26538 c 1.3311,-1.4511 1.48263,-2.18594 0.79162,-3.83906 l -0.4434,-1.06076 -0.70706,1.50724 c -0.38889,0.82898 -1.07497,2.40333 -1.52463,3.49856 -0.77422,1.88576 -0.77871,1.97141 -0.0846,1.61584 0.40316,-0.20652 1.28877,-0.98134 1.96803,-1.72182 z m 7.51854,-0.13179 c -0.25818,-0.0824 -0.62337,0.0828 -0.81153,0.36718 -0.62228,0.94025 -0.3673,1.21031 0.46338,0.49076 0.52819,-0.45751 0.65141,-0.76118 0.34815,-0.85794 z m -4.30035,-5.83572 c -0.16279,-0.69085 -0.46359,-1.54277 -0.66845,-1.89314 -0.31627,-0.54092 -0.4758,-0.42965 -1.05731,0.73753 -0.37666,0.75602 -0.63295,1.40505 -0.56954,1.44229 0.35576,0.20893 2.12234,0.9223 2.33748,0.94392 0.13959,0.014 0.1206,-0.53974 -0.0422,-1.2306 z m 1.63437,-12.49742 c -0.0673,-1.65796 -0.14229,-3.60795 -0.16659,-4.3333 -0.0244,-0.72537 0.20548,-1.87755 0.51065,-2.56042 0.48347,-1.08187 0.47958,-1.28647 -0.0302,-1.59049 -0.4858,-0.28971 -0.69566,0.20873 -1.23665,2.93722 -0.35835,1.80738 -0.77084,4.72743 -0.91662,6.48901 -0.1458,1.76158 -0.35092,3.49724 -0.45585,3.85703 -0.12277,0.42097 0.27414,0.21949 1.11347,-0.56522 1.28896,-1.20509 1.3028,-1.25467 1.18184,-4.23383 z m 5.0641,-16.3912 c -0.23488,-1.13984 -0.66169,-2.82409 -0.94847,-3.74277 l -0.52142,-1.67033 -0.24236,4.11959 c -0.1333,2.26577 -0.41958,4.68627 -0.6362,5.3789 -0.21661,0.69262 -0.28364,1.78672 -0.14895,2.43133 0.23678,1.13318 0.2893,1.07896 1.58468,-1.63612 1.27746,-2.67753 1.3199,-2.90453 0.91272,-4.8806 z m -2.95912,-12.24332 c 0.1509,-1.34872 0.43089,-2.45221 0.62219,-2.45221 0.19129,0 0.34781,0.25434 0.34781,0.5652 0,0.63989 0.61647,0.7579 0.9842,0.18841 0.39033,-0.6045 1.83573,-0.43462 2.40457,0.2826 0.4792,0.60423 0.52329,0.58058 0.52684,-0.2826 0.004,-1.07808 -1.25609,-3.92447 -1.90901,-4.3107 -0.2406,-0.14233 -0.54372,0.006 -0.67363,0.33032 -0.67204,1.67628 -1.26462,0.27644 -2.50222,-5.91085 -1.43774,-7.18794 -3.17584,-14.27655 -4.12586,-16.82678 -0.34015,-0.91312 -0.52123,-1.75328 -0.4024,-1.86703 0.11885,-0.11373 0.74024,-0.0174 1.38089,0.21403 1.13405,0.40971 1.15817,0.39434 0.91331,-0.58224 -0.70697,-2.81949 -3.92208,-6.79013 -6.62718,-8.1845 -1.49318,-0.76968 -1.79819,-1.79222 -0.70866,-2.37583 0.63564,-0.34049 0.62912,-0.47465 -0.10554,-2.17143 -0.7929,-1.8312 -0.93088,-1.95423 -6.64671,-5.92631 -1.4476,-1.00597 -3.28601,-2.67063 -4.08536,-3.69925 -1.37524,-1.76969 -1.46003,-1.81828 -1.5778,-0.90403 -0.0845,0.65594 0.40787,1.69253 1.53334,3.22824 0.91178,1.24413 1.80927,2.26205 1.99442,2.26205 0.18515,0 0.33663,0.19722 0.33663,0.43826 0,0.24104 0.95515,1.97907 2.12254,3.86229 4.11134,6.6323 6.93794,12.62521 9.52375,20.19204 0.90138,2.63769 1.77969,4.53759 2.24463,4.85539 0.63632,0.43495 0.73481,0.85676 0.59008,2.52721 -0.13601,1.5698 -0.0758,1.87704 0.27696,1.41518 0.6137,-0.80332 1.946,-0.49448 2.09272,0.48511 0.1166,0.77851 -0.6407,1.81089 -1.53847,2.09733 -0.31328,0.1 -0.3578,0.76498 -0.14727,2.2003 l 0.30171,2.05704 0.43548,-1.19758 c 0.60791,-1.67168 1.00221,-1.93113 1.64872,-1.08486 0.83027,1.08681 0.67896,2.82518 -0.41753,4.79666 -0.90816,1.63288 -0.95874,2.00401 -0.72912,5.34995 0.22566,3.28816 0.30634,3.56483 0.9442,3.23809 0.50536,-0.25887 0.77302,-1.03267 0.97181,-2.8095 z m -10.10023,-23.00949 c -0.50644,-1.79364 -1.32944,-2.79998 -0.90716,-1.10924 0.41698,1.6695 0.95226,2.95373 1.15159,2.76293 0.0964,-0.0922 -0.0137,-0.83636 -0.24443,-1.65369 z m -4.85766,-14.28616 c -1.20337,-2.78248 -4.3739,-9.15519 -4.75642,-9.56035 -0.0669,-0.0708 -0.38019,0.0139 -0.69629,0.1884 -0.46478,0.25648 0.0942,1.4704 2.92229,6.34608 1.92335,3.31592 3.49736,6.18439 3.49778,6.37437 4e-4,0.18996 0.10095,0.24953 0.22335,0.13236 0.12242,-0.11716 -0.41341,-1.68355 -1.19071,-3.48086 z m -71.86227,142.642 c 0,-0.29608 3.24115,-1.16165 4.34984,-1.16165 0.62089,0 0.4202,1.03294 -0.24842,1.27852 -0.97288,0.35733 -4.10142,0.26818 -4.10142,-0.11687 z m 46.06031,-7.49724 c 0,-0.16866 -1.0492,-0.23402 -2.33156,-0.14523 -2.31946,0.16059 -2.33224,0.15582 -2.46049,-0.91798 -0.12695,-1.06294 -0.16281,-1.07753 -2.3507,-0.95634 -1.36369,0.0755 -2.32829,-0.0419 -2.49755,-0.30403 -0.59617,-0.92329 0.25327,-2.20051 2.34947,-3.53267 1.19516,-0.75953 2.17302,-1.458 2.17302,-1.55214 0,-0.0942 -0.81189,0.16193 -1.80419,0.56906 -2.12054,0.87003 -2.52626,0.91028 -2.52626,0.25066 0,-0.64058 6.59085,-5.36437 7.90483,-5.66554 0.55851,-0.128 2.18007,-1.25416 3.60346,-2.50254 1.42339,-1.2484 2.75759,-2.26981 2.96489,-2.26981 0.58756,0 0.93787,3.81282 0.40661,4.42552 -0.94518,1.09008 -2.77846,1.69036 -4.57162,1.4969 -1.26073,-0.13602 -2.08655,-0.003 -2.88889,0.46351 -1.11725,0.65033 -1.11912,0.65778 -0.33462,1.33732 0.43388,0.37585 0.78889,1.01792 0.78889,1.42685 0,0.68624 0.0986,0.666 1.27945,-0.26279 0.7037,-0.55346 2.22967,-1.42942 3.39105,-1.94654 1.16137,-0.51713 3.16517,-1.90212 4.45287,-3.07776 2.64724,-2.41682 3.06421,-2.3182 3.07461,0.72725 0.005,1.50709 -0.15522,1.87408 -1.10059,2.51839 -1.46745,1.00015 -2.82946,1.2965 -4.02044,0.87479 -0.69338,-0.24551 -1.34444,-0.17656 -2.2544,0.23877 -1.40366,0.64066 -1.59077,1.00304 -0.68893,1.33428 0.91841,0.33732 0.77501,2.75718 -0.19277,3.25293 -0.99909,0.51178 -2.11405,2.51151 -1.57734,2.82901 0.61469,0.36361 0.45895,1.69478 -0.19828,1.69478 -0.32479,0 -0.59052,-0.138 -0.59052,-0.30665 z m -1.95195,-4.08179 c 0.86586,-0.54844 1.50948,-1.0592 1.43028,-1.135 -0.25912,-0.24802 -3.80879,1.40435 -3.80879,1.77298 0,0.60243 0.72883,0.40694 2.37851,-0.63798 z m 58.38372,-76.45332 c -0.12821,-0.31981 -0.13444,-0.67592 -0.0139,-0.79135 0.34475,-0.32998 1.05902,0.22972 1.05902,0.82984 0,0.72304 -0.75097,0.69538 -1.04519,-0.0385 z M 243.93818,36.547433 c -2.53161,-1.497555 -2.81999,-2.032062 -1.09631,-2.032062 1.26687,0 3.95048,1.946297 3.95048,2.8651 0,0.75722 -0.32735,0.661676 -2.85417,-0.833038 z m -2.95258,-6.403817 c -2.32105,-1.462684 -2.58975,-2.033996 -0.95664,-2.033996 0.70431,0 1.71178,0.492884 2.75575,1.348193 2.8854,2.36397 1.62579,2.844123 -1.79911,0.685803 z M 60.976405,28.298024 c 0,-0.518112 0.17716,-0.942023 0.39369,-0.942023 0.21651,0 0.39367,0.423911 0.39367,0.942023 0,0.518113 -0.17716,0.942022 -0.39367,0.942022 -0.21653,0 -0.39369,-0.423909 -0.39369,-0.942022 z M 193.61303,18.161389 c -0.0903,-0.08316 -1.70815,-0.330656 -3.59541,-0.549993 -1.88725,-0.219338 -4.27885,-0.773603 -5.31464,-1.231702 -1.57134,-0.694947 -2.61672,-0.837897 -6.31128,-0.863039 -2.43541,-0.01657 -4.4284,-0.181222 -4.42888,-0.365887 -3.9e-4,-0.184665 0.65557,-1.159658 1.4579,-2.166652 1.34383,-1.686645 1.59133,-1.830897 3.14145,-1.830897 2.66193,0 4.75713,0.989872 5.65305,2.670774 0.60874,1.142082 1.10572,1.531679 2.36935,1.857357 0.87946,0.226669 1.81875,0.492829 2.08731,0.591467 0.34691,0.127418 0.44281,-0.193505 0.33122,-1.108396 -0.27648,-2.266793 0.38152,-2.873411 3.1803,-2.931938 l 2.44664,-0.05117 -2.75575,-0.301444 c -6.37775,-0.697645 -8.54608,-1.06822 -9.40598,-1.60751 -1.23712,-0.7758561 -6.50831,-1.4342061 -9.12572,-1.1397631 -2.61236,0.293876 -2.68637,0.0079 -0.6601,-2.551421 l 1.4763,-1.864581 2.27772,0.169327 c 2.67189,0.198631 3.86842,0.853775 5.1736,2.832719 0.61134,0.926923 1.35175,1.528102 2.06547,1.677036 0.61188,0.127688 1.47251,0.331138 1.9125,0.452112 0.72231,0.1985921 0.78579,0.07728 0.65364,-1.249056 -0.2122,-2.129839 0.57861,-2.735944 3.48761,-2.673004 2.63315,0.05697 4.17739,-0.652729 4.37995,-2.012955 0.0699,-0.46929 0.45088,-0.912351 0.84665,-0.984582 0.52911,-0.09656 0.68542,0.06421 0.59051,0.607415 -0.0906,0.518689 0.48661,1.204667 1.93776,2.302892 2.29027,1.733269 2.59117,2.706945 1.18104,3.821691 l -0.88578,0.7002241 0.94375,0.645039 c 2.34825,1.604993 3.61821,2.927681 3.50489,3.650403 -0.21297,1.358176 -1.15638,1.567595 -4.70197,1.043731 -5.1134,-0.755508 -5.8807,-0.41479 -2.01031,0.892663 1.78631,0.603433 3.24784,1.237368 3.24784,1.408743 0,0.305998 -4.8295,0.45639 -5.15063,0.160391 z m 3.18223,-7.931198 c 0,-0.2602221 -1.06938,-0.6425431 -2.50587,-0.8958841 -4.99669,-0.881226 -5.64395,-0.352627 -1.33248,1.0882061 2.79951,0.93556 3.83835,0.883509 3.83835,-0.192322 z m -63.7758,6.408279 c 0,-0.636512 4.5614,-4.135782 7.7922,-5.977772 1.23562,-0.7044641 3.08806,-1.4973471 4.11655,-1.7619631 1.40969,-0.362695 1.86997,-0.659776 1.86997,-1.206954 0,-1.003603 2.51088,-1.99781 6.88935,-2.727911 4.55262,-0.759137 6.10202,-0.766246 6.10202,-0.02799 0,0.398392 -0.4209,0.565214 -1.42608,0.565214 -1.26301,0 -1.36625,0.06899 -0.90296,0.603304 0.43975,0.507161 1.05074,0.561236 3.83399,0.339326 2.60215,-0.207468 3.27509,-0.16114 3.14359,0.216418 -0.33,0.947619 -5.03883,2.026957 -8.88076,2.035618 l -3.6417,0.0083 -0.0124,1.130426 c -0.0257,2.3536621 -1.71778,3.2627321 -8.11282,4.3586161 -4.91485,0.842232 -7.64129,1.580074 -9.08403,2.458362 -1.1147,0.678598 -1.68696,0.674224 -1.68696,-0.0129 z m 25.19537,-1.708475 c 0,-0.202468 -0.40327,-0.621032 -0.89615,-0.930146 -0.78974,-0.495279 -1.15206,-0.496841 -3.05101,-0.01316 -3.0561,0.778425 -4.80836,0.741132 -4.63938,-0.09874 0.16001,-0.795283 1.37603,-1.384063 4.47604,-2.167249 3.03663,-0.767174 8.44096,-1.193114 8.44096,-0.665271 0,0.214898 -0.61493,0.501141 -1.36651,0.636096 l -1.3665,0.245373 1.23539,1.056522 c 1.70698,1.459838 1.32246,2.304692 -1.04893,2.304692 -0.98115,0 -1.78391,-0.165655 -1.78391,-0.368122 z"
     id="path4510"
     inkscape:connector-curvature="0"
     inkscape:export-xdpi="96"
     inkscape:export-ydpi="96" />
</svg>
