<?xml version="1.0" encoding="UTF-8" standalone="no"?>
<!-- Created with Inkscape (http://www.inkscape.org/) -->

<svg
   xmlns:dc="http://purl.org/dc/elements/1.1/"
   xmlns:cc="http://creativecommons.org/ns#"
   xmlns:rdf="http://www.w3.org/1999/02/22-rdf-syntax-ns#"
   xmlns:svg="http://www.w3.org/2000/svg"
   xmlns="http://www.w3.org/2000/svg"
   xmlns:sodipodi="http://sodipodi.sourceforge.net/DTD/sodipodi-0.dtd"
   xmlns:inkscape="http://www.inkscape.org/namespaces/inkscape"
   id="svg4974"
   version="1.1"
   inkscape:version="0.92.0 r15299"
   width="71.543129"
   height="74.609276"
   sodipodi:docname="encore-logo-trace.svg">
  <metadata
     id="metadata4980">
    <rdf:RDF>
      <cc:Work
         rdf:about="">
        <dc:format>image/svg+xml</dc:format>
        <dc:type
           rdf:resource="http://purl.org/dc/dcmitype/StillImage" />
        <dc:title></dc:title>
      </cc:Work>
    </rdf:RDF>
  </metadata>
  <defs
     id="defs4978" />
  <sodipodi:namedview
     pagecolor="#ffffff"
     bordercolor="#666666"
     borderopacity="1"
     objecttolerance="10"
     gridtolerance="10"
     guidetolerance="10"
     inkscape:pageopacity="0"
     inkscape:pageshadow="2"
     inkscape:window-width="1536"
     inkscape:window-height="803"
     id="namedview4976"
     showgrid="false"
     inkscape:zoom="2.3279902"
     inkscape:cx="111.58435"
     inkscape:cy="76.272157"
     inkscape:window-x="-8"
     inkscape:window-y="-8"
     inkscape:window-maximized="1"
     inkscape:current-layer="svg4974"
     fit-margin-top="0"
     fit-margin-left="0"
     fit-margin-right="0"
     fit-margin-bottom="0" />
  <path
     style="fill:#000000;stroke-width:0.09378879"
     d="m 33.960386,74.580367 c 0.7388,-0.01585 1.92151,-0.01581 2.62825,8.7e-5 0.70674,0.0159 0.10227,0.02887 -1.34327,0.02882 -1.44554,-4.7e-5 -2.02378,-0.01306 -1.28498,-0.02891 z m -13.96117,-4.100055 c -0.68034,-0.335019 -1.28123,-0.609125 -1.33531,-0.609125 -0.0541,0 -0.01,0.150006 0.0987,0.333347 0.10835,0.183341 0.197,0.397033 0.197,0.474872 0,0.102271 -0.0586,0.124697 -0.2112,0.08085 -0.11616,-0.03337 -0.4326,-0.165653 -0.70322,-0.293963 -0.27061,-0.12831 -0.86196,-0.520885 -1.31412,-0.872388 -0.45216,-0.351504 -1.20227,-0.986189 -1.6669,-1.410411 -0.46464,-0.424222 -1.28832,-1.154502 -1.83039,-1.622846 -0.9856,-0.851532 -0.9856,-0.851532 -1.01446,-0.457305 -0.0177,0.242261 -0.0751,0.394227 -0.14871,0.394227 -0.0659,0 -0.36972,-0.172572 -0.67513,-0.383494 -0.30541,-0.210923 -0.86531,-0.685337 -1.24422,-1.054254 -0.3789197,-0.368918 -0.9565197,-1.010098 -1.2835694,-1.424846 -0.32704,-0.414747 -0.88734,-1.21598 -1.24509,-1.780517 -0.35776,-0.564534 -1.02175,-1.701151 -1.47553,-2.525812 -0.45378,-0.824661 -0.99359,-1.785426 -1.19956,-2.135034 -0.20598,-0.349607 -0.3499,-0.660217 -0.31982,-0.690243 0.0301,-0.03003 0.173,-0.01165 0.3176,0.04084 0.14461,0.05249 0.42516,0.164952 0.62344,0.249923 0.36052,0.154495 0.36052,0.154495 0.297,-0.154877 -0.0349,-0.170158 -0.14545,-0.646737 -0.24558,-1.059068 -0.10014,-0.41233 -0.3159,-1.023797 -0.47947,-1.358816 -0.27364,-0.560479 -0.30027,-0.587648 -0.33345,-0.340197 -0.0353,0.263527 -0.0457,0.268004 -0.51556,0.222928 -0.35678,-0.03423 -0.52582,-0.103057 -0.66042,-0.268927 -0.0995,-0.12261 -0.34019,-0.539205 -0.53485,-0.925764 -0.19467,-0.38656 -0.48882,-1.082368 -0.65367,-1.54624 -0.16486,-0.463871 -0.59687,-1.897657 -0.96003,-3.18619 -0.36316,-1.288532 -0.68161001,-2.416584 -0.70766001,-2.506781 -0.0321,-0.111045 0.005,-0.163995 0.11443,-0.163995 0.11714001,0 0.14322001,-0.04526 0.0945,-0.163995 -0.037,-0.0902 -0.25272,-0.710451 -0.479371,-1.378342 -0.33467,-0.98621 -0.412088,-1.339922 -0.412088,-1.882764 0,-0.367629 0.05864,-0.862957 0.130322,-1.100729 0.07168,-0.237773 0.29167,-0.718889 0.488874,-1.069148 0.203153,-0.360826 0.34871301,-0.738373 0.33584301,-0.871114 -0.0125,-0.128853 -0.0677,-0.434587 -0.12277001,-0.679408 -0.055,-0.244821 -0.13357,-0.445129 -0.17453,-0.445129 -0.04095,0 -0.100096,0.0667 -0.131433,0.148232 -0.03134,0.08153 -0.05698,0.292378 -0.05698,0.468557 0,0.176179 -0.03382,0.320325 -0.07516,0.320325 -0.04134,0 -0.168058,-0.190894 -0.281598,-0.424208 C 0.09153459,38.195169 -7.4644844e-4,37.86835 4.5515592e-6,37.702219 7.5555156e-4,37.536088 0.06773455,37.210398 0.14884659,36.978462 c 0.107198,-0.306529 0.130421,-0.581662 0.08503,-1.007398 -0.03575,-0.335304 -0.0259,-0.585697 0.02303,-0.585697 0.04701,0 0.143741,0.10869 0.214955,0.241535 0.07121,0.132843 0.199061,0.278713 0.284105,0.324153 0.11605,0.062 0.27698001,-0.02165 0.64498001,-0.335247 0.26969,-0.229825 0.57218,-0.417864 0.6722,-0.417864 0.15033,0 0.17148,-0.04468 0.12197,-0.257706 -0.0329,-0.141739 -0.1192,-0.35259 -0.19168,-0.468558 -0.0725,-0.115968 -0.1748,-0.21085 -0.22735,-0.21085 -0.0525,0 -0.34568,0.129968 -0.65141,0.288817 -0.30572001,0.158851 -0.59967001,0.261787 -0.65321501,0.228749 -0.05355,-0.03304 -0.09736,-0.124296 -0.09736,-0.202794 0,-0.0785 0.111153,-0.466083 0.247007,-0.861301 0.135854,-0.395216 0.40506401,-1.034852 0.59824401,-1.421412 0.27153,-0.543341 0.34034,-0.777268 0.30322,-1.030826 -0.0264,-0.180395 -0.0861,-0.352575 -0.13255,-0.382621 -0.0499,-0.03225 -0.0502,-0.14744 -6.6e-4,-0.281135 0.0461,-0.124577 0.10976,-0.416269 0.14139,-0.648205 0.0575,-0.421702 0.0575,-0.421702 -0.24109,0.163995 -0.16422,0.322133 -0.33181001,0.585697 -0.37241001,0.585697 -0.0406,0 -0.0738,-0.05703 -0.0738,-0.126724 0,-0.0697 0.19296001,-0.586284 0.42881001,-1.147966 0.23585,-0.561683 0.70466,-1.75564 1.0418,-2.653239 0.58614,-1.560515 0.61026,-1.657485 0.55058,-2.213877 -0.0604,-0.563282 -0.0472,-0.613097 0.41312,-1.558729 0.26155,-0.537267 0.47554,-1.048048 0.47554,-1.135069 0,-0.08702 0.19961,-0.559392 0.44358,-1.049717 0.24397,-0.490324 0.4966,-0.891498 0.5614,-0.891498 0.0648,0 0.22226,0.200308 0.34991,0.44513 0.12765,0.244821 0.23406,0.395012 0.23646,0.333758 0.002,-0.06125 0.25219,-0.440786 0.55507,-0.843404 0.30289,-0.402617 0.57706,-0.837457 0.60927,-0.96631 0.0322,-0.128853 0.0343,-0.181566 0.005,-0.117139 -0.0296,0.06443 -0.11831,0.117139 -0.19704,0.117139 -0.10809,0 -0.12851,-0.06313 -0.0834,-0.257707 0.0329,-0.141738 0.14821,-0.500185 0.25628,-0.796547 0.10807,-0.296363 0.23358,-0.538841 0.27892,-0.538841 0.0453,0 0.0866,0.242478 0.0918,0.538841 0.005,0.296362 0.0381,0.641566 0.0732,0.76712 0.0573,0.204967 0.0889,0.171471 0.30879,-0.32799 0.13472,-0.305948 0.35762,-0.999056 0.49534,-1.54024 0.13773,-0.541184 0.33838,-1.258076 0.44591,-1.593095 0.10753,-0.335018 0.3209,-0.862145 0.47417,-1.171393 0.15326,-0.309248 0.4443997,-0.783662 0.6469697,-1.054254 0.22896,-0.305843 0.43907,-0.491985 0.55533,-0.491985 0.11135,0 0.2218797,0.09155 0.2731997,0.226303 0.0544,0.142854 0.0498,0.358829 -0.0126,0.585696 -0.0543,0.197667 -0.3450697,0.781096 -0.6461197,1.296509 -0.30104,0.515413 -0.6833597,1.22772 -0.8495897,1.582906 -0.16623,0.355186 -0.32148,0.845698 -0.345,1.090028 -0.0235,0.24433 -0.003,0.514801 0.0451,0.601045 0.0742,0.132437 0.19205,0.04734 0.758,-0.547466 0.3685497,-0.387351 0.7592397,-0.878716 0.8681797,-1.091923 0.1089497,-0.213207 0.1753497,-0.410359 0.1475397,-0.438116 -0.0278,-0.02776 -0.1546497,0.01763 -0.2818897,0.100864 -0.12724,0.08323 -0.34477,0.299797 -0.4834,0.481252 -0.13864,0.181454 -0.2892897,0.329918 -0.3347897,0.329918 -0.0455,0 -0.0822,-0.09488 -0.0815,-0.210851 6.6e-4,-0.115968 0.12336,-0.451319 0.2726697,-0.745225 0.14932,-0.293906 0.46893,-0.79055 0.71026,-1.103655 0.2413197,-0.313105 0.8477897,-1.000381 1.3476997,-1.527279 0.4999,-0.526898 1.06153,-1.147762 1.24805,-1.379698 0.18653,-0.231936 0.4024,-0.548212 0.47973,-0.702836 0.0773,-0.154624 0.17129,-0.380345 0.20881,-0.501603 0.0649,-0.209863 0.0326,-0.201973 -0.672,0.163995 -0.40712,0.211455 -0.7915,0.384464 -0.85418,0.384464 -0.0627,0 -0.11397,-0.03361 -0.11397,-0.07469 0,-0.04108 0.1584,-0.224297 0.35199,-0.407146 0.1936,-0.18285 0.50407,-0.422877 0.68993,-0.533395 0.18586,-0.1105169 0.7561,-0.3518709 1.26719,-0.5363429 0.5111,-0.184472 1.02431,-0.424227 1.14047,-0.532787 0.11616,-0.10856 0.2112,-0.274372 0.2112,-0.368469 0,-0.0941 0.0468,-0.171088 0.10399,-0.171088 0.0732,0 0.0865,0.284815 0.0449,0.960542 -0.0576,0.9367279 -0.055,0.9547929 0.10721,0.7286379 0.0915,-0.1275479 0.36248,-0.4682789 0.60228,-0.7571799 0.2398,-0.288902 0.91394,-0.964692 1.49809,-1.5017572 0.58415,-0.537065 1.33768,-1.237195 1.67451,-1.5558438 0.33683,-0.3186488 0.57974,-0.6119905 0.53979,-0.6518705 -0.04,-0.03988 -0.22551,0.00969 -0.41238,0.1101575 -0.18686,0.1004666 -0.64536,0.4676061 -1.01889,0.8158655 -0.37353,0.3482596 -0.72585,0.6331993 -0.78294,0.6331993 -0.0571,0 -0.10379,-0.0595 -0.10379,-0.132229 0,-0.07273 0.0913,-0.3703392 0.20282,-0.6613642 0.1363,-0.3555794 0.28254,-0.5692907 0.44586,-0.6515578 0.13368,-0.067332 0.5176,-0.2089058 0.85318,-0.3146087 0.33557,-0.1057029 0.82779,-0.2177806 1.09382,-0.2490615 0.26603,-0.031281 0.95098,-0.2046009 1.52212,-0.3851554 1.02971,-0.3255245 1.03767,-0.3302796 0.94777,-0.5663477 -0.0499,-0.1309368 -0.0907,-0.2774918 -0.0907,-0.3256778 0,-0.048186 0.1584,-0.087644 0.35199,-0.087685 0.19579,-4.12e-5 0.60194,-0.1204257 0.9152,-0.2712725 0.30976,-0.1491593 0.90009,-0.4654022 1.31185,-0.7027621 0.41176,-0.2373599 0.81843,-0.4315635 0.9037,-0.4315635 0.0853,0 0.20498,0.060059 0.266,0.1334636 0.0693,0.083322 0.0873,0.2593555 0.048,0.4685573 -0.0558,0.2969135 -0.0965,0.336158 -0.35759,0.3444349 -0.16204,0.00514 -0.39153,0.036765 -0.50997,0.070284 -0.18623,0.052701 -0.19892,0.082848 -0.0939,0.2229201 0.11199,0.1493125 0.20956,0.1168726 1.24788,-0.4148797 0.61952,-0.3172715 1.49811,-0.7380652 1.95242,-0.9350972 0.45431,-0.1970319 0.86615,-0.3582399 0.91519,-0.3582399 0.049,0 0.0892,0.058743 0.0892,0.1305411 0,0.071798 0.0668,0.1561379 0.14848,0.1874229 0.0817,0.031285 0.3351,0.056882 0.5632,0.056882 0.28208,0 0.47168,0.056864 0.59281,0.1778005 0.17488,0.174593 0.18462,0.1710763 0.53973,-0.1949443 0.1989,-0.2050097 0.71542,-0.6087074 1.14782,-0.8971061 0.4324,-0.2883987 1.02376,-0.60271407 1.31413,-0.69847857 0.29037,-0.095765 0.78138,-0.2323585 1.09114,-0.3035419 0.30976,-0.071184 1.07007,-0.1758294 1.68959,-0.2325462 0.61952,-0.056717 1.32703,-0.1215756 1.57226,-0.1441306 0.31865,-0.029308 0.44586,-0.00717 0.44586,0.077572 0,0.070574 -0.33552,0.2049402 -0.82875,0.3318926 -0.59195,0.1523583 -1.02116,0.2042399 -1.50207,0.1815655 -0.67332,-0.031745 -0.67332,-0.031745 -0.67311,0.2321218 10e-5,0.145127 -0.0433,0.34499887 -0.0964,0.44415957 -0.0532,0.099161 -0.21393,0.2408403 -0.35727,0.3148436 -0.14334,0.074003 -0.74401,0.2241299 -1.33481,0.3336147 -0.5908,0.1094848 -1.14811,0.2208955 -1.23845,0.2475794 -0.0904,0.026684 -0.16427,0.1242642 -0.16427,0.2168453 0,0.092581 -0.11616,0.2849974 -0.25813,0.4275922 -0.14197,0.1425946 -0.61717,0.501845 -1.05599,0.798334 -0.43883,0.2964891 -0.89825,0.6472973 -1.02094,0.7795737 -0.12916,0.1392472 -0.19956,0.3016914 -0.16721,0.3858382 0.0307,0.079934 0.16414,0.1453353 0.29649,0.1453353 0.13234,0 0.39226,-0.063255 0.5776,-0.1405672 0.18534,-0.077312 0.35294,-0.1405672 0.37245,-0.1405672 0.0195,0 0.0355,0.054163 0.0355,0.1203623 0,0.066199 -0.12964,0.1968185 -0.2881,0.2902651 -0.15845,0.093446 -0.27281,0.1851599 -0.25413,0.2038077 0.0187,0.018648 0.28378,-0.031225 0.58912,-0.1108277 0.30533,-0.079603 0.67011,-0.2413061 0.81062,-0.3593401 0.14051,-0.118034 0.4022,-0.242089 0.58154,-0.2756778 0.17934,-0.033589 0.50971,-0.019531 0.73417,0.031239 0.27944,0.063208 0.68184,0.058027 1.27636,-0.016432 0.56917,-0.071283 0.86826,-0.1487267 0.86826,-0.2248175 0,-0.063842 0.0478,-0.1455707 0.10623,-0.1816194 0.0584,-0.036049 0.14311,2.437e-4 0.18818,0.080653 0.0717,0.1278379 0.32647,0.1395778 2.02923,0.093492 1.16353,-0.031492 2.51397,-0.00814 3.35527,0.058017 0.77439,0.060897 1.93599,0.1947808 2.58132,0.2975204 0.64533,0.1027395 1.65908,0.2949153 2.25279,0.4270572 0.5937,0.132142 1.67921,0.4257005 2.41225,0.6523523 1.33279,0.4120942 1.33279,0.4120942 2.15892,0.2166505 0.45437,-0.107494 0.83801,-0.2069285 0.85253,-0.2209654 0.0145,-0.01404 -0.23264,-0.1795818 -0.54925,-0.3678741 -0.31661,-0.1882922 -0.75088,-0.3827396 -0.96506,-0.4321052 -0.21417,-0.049366 -0.5312,-0.090787 -0.70451,-0.092047 -0.24828,-0.0018 -0.30302,-0.033725 -0.25813,-0.1505224 0.0313,-0.081527 0.057,-0.1877563 0.057,-0.2360641 0,-0.048308 0.10485,-0.061559 0.23301,-0.029448 0.12815,0.032112 0.45551,0.00537 0.72746,-0.059425 0.27195,-0.064796 0.54965,-0.1956908 0.61711,-0.2908781 0.0675,-0.095187 0.2153,-0.1761492 0.32853,-0.1799151 0.11975,-0.00398 -0.0101,-0.084741 -0.31039,-0.1930487 -0.28394,-0.1024108 -0.74858,-0.2248131 -1.03253,-0.2720052 -0.28394,-0.047192 -0.67466,-0.1564904 -0.86826,-0.2428852 -0.1936,-0.086395 -0.352,-0.1928472 -0.352,-0.2365607 0,-0.043713 0.0739,-0.079023 0.16427,-0.078465 0.0904,5.622e-4 0.36981,0.063272 0.62104,0.1393639 0.25123,0.076092 0.49344,0.1157299 0.53825,0.088084 0.0448,-0.027646 0.11625,-0.1852429 0.15877,-0.3502147 0.0617,-0.239453 0.13267,-0.3063524 0.35179,-0.3316985 0.15096,-0.017462 0.42863,0.014359 0.61704,0.070715 0.18841,0.056355 0.38574,0.154983 0.43851,0.2191725 0.0528,0.06419 0.12552,0.3552536 0.16166,0.6468088 0.0547,0.4413113 0.0409,0.5354885 -0.0822,0.5622688 -0.089,0.019359 -0.002,0.093561 0.21822,0.1863379 0.29468,0.1240944 0.3563,0.1286647 0.31585,0.023428 -0.0276,-0.071908 -5e-4,-0.1307418 0.0603,-0.1307418 0.0608,0 0.39268,0.2520097 0.73751,0.5600215 0.34482,0.3080116 0.84788,0.6698215 1.11791,0.8040218 0.27004,0.1342002 0.703,0.4343105 0.96213,0.6669118 0.25914,0.2326013 0.47116,0.4611737 0.47116,0.5079387 0,0.046765 -0.0532,0.085027 -0.11817,0.085027 -0.065,0 -0.46627,-0.2326721 -0.89173,-0.5170491 -0.773886,-0.5170488 -0.773886,-0.5170488 -0.773886,-0.2049553 0,0.2193877 0.0767,0.3839016 0.25813,0.5538343 0.14197,0.1329575 0.46933,0.3473373 0.72746,0.4763996 0.25813,0.1290628 0.69109,0.4112878 0.96213,0.6271668 0.27104,0.215879 0.4928,0.431091 0.4928,0.478248 0,0.04716 -0.0739,0.08563 -0.16427,0.0855 -0.0904,-9.3e-5 -0.48106,-0.211051 -0.86826,-0.468714 -0.704,-0.468477 -0.704,-0.468477 -0.73286,-0.09347 -0.0159,0.206252 -0.0678,0.375004 -0.11543,0.375004 -0.0476,0 -0.1704,-0.164081 -0.27288,-0.364624 -0.18633,-0.364623 -0.18633,-0.364623 -0.50294,-0.21085 -0.31661,0.153772 -0.31661,0.153772 0.72415,0.705821 0.57242,0.3036282 1.23443,0.6620742 1.47113,0.7965482 0.23671,0.134474 0.87463,0.546994 1.41759,0.916712 0.54297,0.3697179 1.42642,1.0212769 1.96322,1.4479099 0.53679,0.426633 1.17663,0.962767 1.42186,1.19141 0.24522,0.228644 0.44586,0.367775 0.44586,0.309181 0,-0.05859 0.1056,-0.106535 0.23467,-0.106535 0.12906,0 0.23466,-0.0195 0.23466,-0.04334 0,-0.02384 -0.086,-0.272899 -0.19118,-0.55347 -0.16438,-0.438627 -0.24332,-0.53096 -0.56319,-0.658737 -0.20461,-0.08173 -0.37202,-0.191118 -0.37202,-0.243077 0,-0.05196 0.14999,-0.09447 0.33331,-0.09447 0.26388,0 0.39897,0.07154 0.64842,0.343378 0.1733,0.188859 0.33896,0.462503 0.36812,0.6081 0.0292,0.145596 0.0294,0.326276 4.7e-4,0.401509 -0.0289,0.07523 -0.006,0.191663 0.0513,0.258731 0.0572,0.06707 0.20863,0.248454 0.33662,0.403078 0.16014,0.193467 0.23359,0.398026 0.23553,0.655981 0.002,0.332563 0.083,0.464697 0.71386,1.171393 0.39106,0.438101 0.99625,1.154994 1.34485,1.593095 0.34861,0.438101 0.92135,1.212935 1.27277,1.721854 0.52449,0.759591 0.62067,0.954481 0.53702,1.088202 -0.0819,0.130951 -0.0377,0.252721 0.2254,0.620932 0.18001,0.251921 0.3847,0.446389 0.45486,0.432152 0.0709,-0.01439 0.24155,0.183214 0.38434,0.445129 0.14123,0.259059 0.31794,0.471016 0.3927,0.471016 0.0857,0 0.11476,0.05508 0.0786,0.149068 -0.0324,0.08427 0.10216,0.461064 0.30953,0.866831 0.20176,0.394769 0.70572,1.540081 1.11992,2.545136 0.4142,1.005056 0.90176,2.257285 1.08345,2.782731 0.1817,0.525445 0.49757,1.62187 0.70195,2.436498 0.20437,0.814628 0.4572,2.008268 0.56184,2.652535 0.10463,0.644266 0.23895,1.635265 0.29848,2.202219 0.0595,0.566954 0.10934,1.937485 0.11067,3.045623 0.001,1.108138 -0.0476,2.520838 -0.10882,3.139334 -0.0612,0.618496 -0.21227,1.71492 -0.33577,2.436498 -0.12349,0.721578 -0.34265,1.793572 -0.48702,2.382207 -0.15706,0.640412 -0.31488,1.087683 -0.39294,1.113661 -0.0994,0.03309 -0.11652,-0.02088 -0.0719,-0.226844 0.0322,-0.148641 0.141,-0.670873 0.24175,-1.160516 0.10075,-0.489642 0.22945,-1.306892 0.28599,-1.816112 0.0565,-0.50922 0.12129,-1.711069 0.14389,-2.670777 0.033,-1.400259 0.0224,-1.624607 -0.0536,-1.135799 -0.0521,0.335019 -0.17757,1.115167 -0.27887,1.733662 -0.10129,0.618496 -0.3152,1.67275 -0.47534,2.342787 -0.16015,0.670037 -0.3278,1.257608 -0.37256,1.305713 -0.0448,0.04811 -0.10114,0.06775 -0.12528,0.04365 -0.0241,-0.0241 0.0581,-0.545477 0.18283,-1.158622 0.12469,-0.613144 0.30213,-1.665955 0.3943,-2.339581 0.13089,-0.956517 0.1676,-1.861056 0.16761,-4.129829 1e-5,-1.950071 -0.0408,-3.162749 -0.12403,-3.688957 -0.0682,-0.431145 -0.29273,-1.379974 -0.4989,-2.108508 -0.20617,-0.728534 -0.60995,-1.936074 -0.89729,-2.683423 -0.28734,-0.747349 -0.78926,-1.907029 -1.11538,-2.577066 -0.32611,-0.670037 -0.89099,-1.718498 -1.25528,-2.329915 -0.3643,-0.611416 -0.9316,-1.496989 -1.26069,-1.967941 -0.32909,-0.47095 -0.94986,-1.299061 -1.3795,-1.840245 -0.42964,-0.541183 -1.45909,-1.660869 -2.28768,-2.48819 -0.82859,-0.82732 -1.97116,-1.874959 -2.53905,-2.328086 -0.56789,-0.453126 -1.62389,-1.217875 -2.34666,-1.699442 -0.72277,-0.481566 -1.86261,-1.173265 -2.53297,-1.537109 -0.67037,-0.363843 -1.663,-0.85644 -2.20586,-1.094661 -0.54285,-0.23822 -1.38828,-0.580239 -1.87873,-0.76004 -0.49045,-0.179803 -1.44085,-0.493284 -2.11199,-0.6966259 -0.67114,-0.203341 -1.83274,-0.492731 -2.58132,-0.643089 -0.74858,-0.150358 -1.91018,-0.346836 -2.58132,-0.436619 -0.91572,-0.122501 -1.87619,-0.16306 -3.84851,-0.162516 -1.999,5.62e-4 -2.92041,0.04072 -3.84852,0.167754 -0.67114,0.09187 -1.82113,0.291 -2.55553,0.442518 -0.73439,0.151519 -1.85375,0.425834 -2.48745,0.60959 -0.6337,0.1837569 -1.65906,0.5242609 -2.27858,0.7566759 -0.61952,0.232415 -1.80223,0.748251 -2.62825,1.146301 -0.82602,0.39805 -2.00874,1.030503 -2.62825,1.405451 -0.61952,0.374948 -1.5488,0.982473 -2.06506,1.350056 -0.51626,0.367582 -1.42442,1.075419 -2.01812,1.572971 -0.59371,0.497553 -1.65043,1.489677 -2.34827,2.204722 -0.69785,0.715044 -1.63917,1.763047 -2.09183,2.328895 -0.45265,0.565848 -1.17584,1.556847 -1.60708,2.202219 -0.43124,0.645373 -1.02112,1.598741 -1.31083,2.118595 -0.28971,0.519854 -0.52675,1.015354 -0.52675,1.10111 0,0.08576 -0.0361,0.15592 -0.0802,0.15592 -0.0441,0 -0.25115,0.368989 -0.4600297,0.819975 -0.20888,0.450987 -0.49512,1.094082 -0.6361,1.4291 -0.14097,0.335019 -0.3593697,0.904316 -0.4853297,1.265105 -0.12595,0.360789 -0.37551,1.119852 -0.55456,1.686806 -0.17906,0.566955 -0.41102,1.579039 -0.51547,2.249076 -0.12496,0.801672 -0.20848,1.927505 -0.24424,3.292417 -0.0342,1.303758 -0.0121,2.574226 0.0594,3.420469 0.0625,0.740464 0.21673,1.957767 0.34265,2.705116 0.12592,0.747349 0.37391,1.928113 0.55109,2.623921 0.17717,0.695808 0.5149,1.824967 0.7504897,2.509244 0.2356,0.684276 0.64472,1.675275 0.9091597,2.202219 0.26444,0.526944 0.67316,1.295442 0.90827,1.707773 0.23512,0.41233 0.77772,1.276818 1.20578,1.921085 0.42807,0.644266 1.14854,1.634167 1.60104,2.199782 0.45251,0.565613 1.37078,1.59193 2.04061,2.280704 0.66982,0.688775 1.68413,1.644695 2.25401,2.124266 0.56988,0.479572 1.5219,1.219156 2.1156,1.64352 0.59371,0.424365 1.59319,1.072009 2.22107,1.439209 0.96927,0.566852 1.1501,0.709147 1.19791,0.942621 0.031,0.151242 0.12651,0.352432 0.21231,0.447088 0.0858,0.09466 0.51826,0.281226 0.96101,0.414598 0.44276,0.133373 0.94016,0.324383 1.10534,0.424467 0.16519,0.100084 0.38213,0.316899 0.4821,0.48181 0.1,0.164911 0.21054,0.394721 0.24572,0.510689 0.0388,0.127761 0.0241,0.210851 -0.0372,0.210851 -0.0557,0 -0.48491,-0.236967 -0.9539,-0.526594 -0.77466,-0.478393 -0.86619,-0.513135 -1,-0.379549 -0.11962,0.119428 -0.12515,0.17367 -0.0294,0.288806 0.0648,0.07797 0.46247,0.273682 0.88367,0.434921 0.4212,0.161238 0.90329,0.357479 1.07131,0.436092 0.20982,0.09817 0.36416,0.275327 0.4928,0.565665 0.10302,0.232503 0.1873,0.480627 0.1873,0.551388 0,0.07076 -0.054,0.128655 -0.11991,0.128655 -0.066,0 -0.20996,-0.06297 -0.32001,-0.139926 -0.13172,-0.09211 -0.30177,-0.119624 -0.4976,-0.08052 -0.28694,0.05729 -0.27379,0.06861 0.37062,0.318921 0.36747,0.142734 0.72983,0.310645 0.80525,0.373131 0.0754,0.06249 0.13712,0.212904 0.13712,0.334258 0,0.127356 -0.0893,0.276275 -0.2112,0.352223 -0.11616,0.07237 -0.32894,0.158881 -0.47285,0.19225 -0.1439,0.03337 -0.43882,0.01304 -0.65537,-0.04517 -0.29349,-0.0789 -0.59729,-0.303196 -1.19328,-0.881004 -0.43975,-0.426337 -0.89181,-0.822694 -1.00458,-0.880792 -0.11276,-0.0581 -0.28953,-0.105633 -0.39282,-0.105633 -0.10328,0 -0.30621,0.04495 -0.45094,0.09989 -0.26316,0.09989 -0.26316,0.09989 -0.0296,0.283395 0.12846,0.100931 0.69821,0.503539 1.2661,0.894688 0.56789,0.391148 1.12757,0.798099 1.24373,0.904334 0.11615,0.106235 0.21119,0.29123 0.21119,0.411098 0,0.127286 -0.0563,0.217944 -0.13525,0.217944 -0.0744,0 -0.16156,-0.04247 -0.19369,-0.09438 -0.0321,-0.05191 -0.19303,-0.165244 -0.35754,-0.251858 -0.20589,-0.108398 -0.66479,-0.178624 -1.47244,-0.225325 -0.64533,-0.03732 -1.28894,-0.112495 -1.43025,-0.167066 -0.14196,-0.05482 -0.53849,-0.456871 -0.88621,-0.898545 -0.34611,-0.43963 -0.67753,-0.799326 -0.73649,-0.799326 -0.059,0 -0.13517,0.02791 -0.16934,0.06203 -0.0342,0.03411 0.0433,0.199982 0.17209,0.368594 0.12882,0.168612 0.23422,0.372636 0.23422,0.453387 0,0.08075 -0.0333,0.14682 -0.0739,0.14682 -0.0407,0 -0.28354,-0.213945 -0.53973,-0.475434 -0.25619,-0.261489 -1.30919,-1.115435 -2.34001,-1.897657 -1.03081,-0.782223 -2.31545,-1.843925 -2.85477,-2.359338 -0.53931,-0.515413 -1.23099,-1.272809 -1.53707,-1.683103 -0.30607,-0.410293 -0.67621,-0.982747 -0.82253,-1.272119 -0.14631,-0.289373 -0.40643,-0.631389 -0.57804,-0.760036 -0.1716,-0.128647 -0.36463,-0.264921 -0.42894,-0.302831 -0.0744,-0.04385 -0.1571,0.01907 -0.2273,0.172881 -0.0607,0.132996 -0.20566,0.265692 -0.32215,0.29488 -0.11649,0.02919 -0.29933,0.02534 -0.40631,-0.0086 -0.13516,-0.04282 -0.1945,-0.140915 -0.1945,-0.321481 0,-0.142917 -0.12594,-0.509065 -0.27986,-0.81366 C 10.171836,59.858979 9.7023963,59.230233 9.2825663,58.766361 8.8627366,58.30249 8.3732066,57.724 8.1947166,57.48083 c -0.24557,-0.334577 -0.40456,-0.45712 -0.65358,-0.503759 -0.18622,-0.03488 -0.43085,-0.01534 -0.56352,0.04501 -0.23445,0.106647 -0.23445,0.106647 0.0515,0.456905 0.15726,0.192641 0.68839,0.771811 1.18029,1.287043 0.49191,0.515232 0.8943797,0.951642 0.8943797,0.969801 0,0.01816 -0.1267197,0.151193 -0.2815997,0.295633 -0.21337,0.198985 -0.2816,0.345464 -0.2816,0.604521 0,0.188046 0.0627,0.462911 0.13929,0.610811 0.13011,0.251188 0.1581,0.261819 0.4247797,0.161324 0.20336,-0.07663 0.33208,-0.07896 0.44738,-0.0081 0.089,0.05472 0.31423,0.327931 0.5004497,0.607141 0.18621,0.279211 0.54074,0.851676 0.78784,1.272146 0.24711,0.42047 0.62275,0.943302 0.83476,1.16185 0.21202,0.218548 0.51137,0.450426 0.66524,0.515285 0.22976,0.09685 0.32538,0.09437 0.53507,-0.01388 0.14042,-0.0725 0.27853,-0.13181 0.3069,-0.13181 0.0284,0 0.0516,0.05916 0.0516,0.131478 0,0.07231 -0.15292,0.253959 -0.33984,0.403658 -0.33984,0.272181 -0.33984,0.272181 0.82133,1.026459 0.63865,0.414852 1.42743,0.907928 1.75287,1.095724 0.32543,0.187797 0.62979,0.341448 0.67636,0.341448 0.0466,0 0.22998,0.09845 0.40758,0.218775 0.1776,0.120327 1.07708,0.607428 1.99882,1.082448 0.92175,0.475019 1.96935,1.061836 2.328,1.304036 0.35865,0.2422 0.6684,0.493076 0.68835,0.557503 0.0205,0.06613 -0.0437,0.117139 -0.14737,0.117139 -0.101,0 -0.74028,-0.274106 -1.42063,-0.609124 z M 6.7702566,31.722488 c 0.0902,-0.175922 0.2262,-0.720475 0.30219,-1.210117 0.076,-0.489643 0.30965,-1.531258 0.51924,-2.314701 0.2096,-0.783443 0.57401,-1.955785 0.8098,-2.605204 0.2358,-0.649418 0.59326,-1.559494 0.7943597,-2.02239 0.2011,-0.462895 0.65757,-1.402894 1.0143797,-2.088887 0.49219,-0.946275 0.63884,-1.314625 0.6077,-1.526419 -0.0302,-0.20527 0.0254,-0.35804 0.21014,-0.577179 0.13815,-0.163911 0.30424,-0.298019 0.36909,-0.298019 0.0648,0 0.19837,-0.09149 0.29672,-0.203314 0.1764,-0.200569 0.17628,-0.202295 -0.009,-0.127898 -0.10325,0.04148 -0.27221,0.08025 -0.37546,0.08617 -0.14558,0.0083 -0.19429,-0.0569 -0.21691,-0.290587 -0.0248,-0.256479 0.007,-0.310338 0.21182,-0.361732 0.13254,-0.03321 0.37799,-0.03586 0.54543,-0.0059 0.28622,0.05124 0.32833,0.02099 0.70315,-0.5051 0.21929,-0.30778 0.376,-0.559601 0.34826,-0.559601 -0.0277,0 -0.21603,0.08434 -0.41843,0.187423 -0.20239,0.103083 -0.41648,0.187423 -0.47576,0.187423 -0.0701,0 -0.0856,-0.08806 -0.0444,-0.251991 0.0348,-0.138595 0.14508,-0.366588 0.24498,-0.506652 0.10477,-0.146892 0.3674,-0.317856 0.62061,-0.40399 0.24144,-0.08213 0.51785,-0.149327 0.61425,-0.149327 0.0964,0 0.2684,-0.09758 0.38221,-0.216835 0.11382,-0.119259 0.51317,-0.558891 0.88747,-0.976961 0.37429,-0.41807 0.68053,-0.779447 0.68053,-0.803062 0,-0.02361 -0.0889,-0.06616 -0.19768,-0.09454 -0.13975,-0.03649 -0.38428,0.08389 -0.83444,0.410772 -0.35022,0.254311 -0.68367,0.462382 -0.74099,0.462382 -0.0573,0 -0.10422,-0.02891 -0.10422,-0.06424 0,-0.03533 0.0937,-0.163814 0.20821,-0.285511 0.20822,-0.221268 0.20822,-0.221268 -0.1973,-0.15653 -0.29973,0.04785 -0.42745,0.03066 -0.48964,-0.06591 -0.0463,-0.07185 -0.0597,-0.246612 -0.0299,-0.38835 0.0303,-0.144128 0.0132,-0.257707 -0.0388,-0.257707 -0.0511,0 -0.1982,0.124845 -0.32681,0.277434 -0.12861,0.152588 -0.30645,0.467274 -0.39521,0.699302 -0.0888,0.232028 -0.13646,0.486715 -0.10599,0.56597 0.0305,0.07925 0.16231,0.144101 0.293,0.144101 0.1367,0 0.23761,0.05364 0.23761,0.126297 0,0.06946 -0.59479,0.986665 -1.32175,2.038225 -0.72696,1.05156 -1.5490597,2.277928 -1.8268897,2.725262 -0.27784,0.447335 -0.6862497,1.152798 -0.9075797,1.567695 -0.22133,0.414897 -0.44403,0.741399 -0.49489,0.725561 -0.0509,-0.01584 -0.13088,-0.162546 -0.17784,-0.326018 -0.047,-0.163471 -0.11864,-0.29722 -0.15928,-0.29722 -0.0406,0 -0.16476,0.127398 -0.27582,0.283107 -0.11106,0.155709 -0.2878,0.524698 -0.39276,0.819976 -0.12487,0.351293 -0.19211,0.779812 -0.19452,1.239704 -0.002,0.38656 0.0526,0.948746 0.12141,1.249303 0.10701,0.467438 0.10573,0.559052 -0.009,0.633485 -0.0737,0.04786 -0.21845,0.06746 -0.32171,0.04355 -0.13603,-0.0315 -0.24556,0.04481 -0.39776,0.277105 -0.11551,0.176318 -0.24895,0.493537 -0.29653,0.704932 -0.0662,0.294045 -0.0315,0.696615 0.14742,1.713329 0.18162,1.03179 0.22171,1.507099 0.1793,2.125523 -0.03,0.438101 -0.0834,0.901606 -0.11853,1.030011 -0.0623,0.227501 -0.0582,0.229687 0.15919,0.08558 0.1227,-0.08134 0.29691,-0.291822 0.38712,-0.467743 z m 1.629,-2.756356 c 0.13904,-0.515413 0.46216,-1.627263 0.7180297,-2.470778 0.25588,-0.843515 0.44795,-1.550919 0.42682,-1.57201 -0.0211,-0.02109 -0.28333,0.520731 -0.5826897,1.204048 -0.29936,0.683318 -0.72774,1.761721 -0.95196,2.396454 -0.22422,0.634732 -0.40768,1.187774 -0.40768,1.228981 0,0.04121 0.095,0.118823 0.2112,0.172479 0.11616,0.05366 0.23871,0.07064 0.27234,0.03775 0.0336,-0.03289 0.17489,-0.481509 0.31394,-0.996922 z m 2.8094294,-6.566057 c 0.18634,-0.338459 0.3113,-0.659822 0.27767,-0.714141 -0.0336,-0.05432 -0.20238,0.12772 -0.37501,0.404529 -0.17263,0.276809 -0.31483,0.598172 -0.316,0.71414 -10e-4,0.115968 0.0151,0.210851 0.0362,0.210851 0.0211,0 0.19079,-0.276922 0.37714,-0.615379 z m 1.27414,-2.125203 c 0,-0.05228 -0.0623,-0.04213 -0.1408,0.02295 -0.0774,0.06416 -0.1408,0.158831 -0.1408,0.210372 0,0.05227 0.0623,0.04213 0.1408,-0.02295 0.0774,-0.06416 0.1408,-0.158831 0.1408,-0.210372 z m 0.44754,-0.633031 c 0.0645,-0.103083 0.10231,-0.187423 0.0841,-0.187423 -0.0182,0 -0.10963,0.08434 -0.20307,0.187423 -0.0934,0.103082 -0.13127,0.187423 -0.0841,0.187423 0.0472,0 0.13859,-0.08434 0.20307,-0.187423 z m 48.51344,-6.353511 c -0.0853,-0.164576 -0.27117,-0.323638 -0.45175,-0.386484 -0.30687,-0.1068 -0.30687,-0.1068 0.10863,0.315866 0.22853,0.232466 0.43181,0.406383 0.45174,0.386483 0.0199,-0.0199 -0.029,-0.16204 -0.10862,-0.315865 z m -44.22074,-2.060798 c 0.30976,-0.228021 0.77037,-0.519525 1.02359,-0.647786 0.33394,-0.169147 0.4252,-0.254918 0.33226,-0.312262 -0.10413,-0.06425 -0.0937,-0.118212 0.0559,-0.2880939 0.15604,-0.177261 0.15978,-0.200229 0.0246,-0.151106 -0.0876,0.03186 -0.48892,0.170728 -0.89172,0.3085959 -0.50444,0.172654 -0.81367,0.341852 -0.99362,0.543658 -0.14368,0.161146 -0.43589,0.588183 -0.64933,0.948972 -0.21345,0.360789 -0.45404,0.761406 -0.53465,0.890259 -0.0806,0.128853 0.12711,-0.01591 0.4616,-0.321687 0.33449,-0.305781 0.86161,-0.742528 1.17137,-0.97055 z m 3.51998,-1.5199039 c 0.33557,-0.223407 0.96926,-0.704695 1.40819,-1.069529 0.43893,-0.364835 0.91557,-0.7482072 1.0592,-0.8519382 0.26114,-0.188603 0.26114,-0.188603 -0.37567,-0.140567 -0.52507,0.03961 -0.69878,0.09736 -0.99006,0.329169 -0.1943,0.154624 -0.56945,0.5854262 -0.83366,0.9573382 -0.3336,0.469579 -0.56984,0.705852 -0.77313,0.773234 -0.161,0.05337 -0.42487,0.177579 -0.58637,0.276026 -0.23683,0.1443629 -0.28468,0.2257989 -0.24732,0.4209099 0.0463,0.241917 0.0463,0.241917 0.3875,-0.02327 0.18765,-0.145851 0.61575,-0.4479709 0.95132,-0.6713779 z m 4.79949,-3.3680775 c -0.0434,-0.028377 -0.13134,-0.2119158 -0.19533,-0.4078648 -0.064,-0.1959489 -0.16516,-0.3402078 -0.2248,-0.3205754 -0.0596,0.019633 -0.22129,0.2010396 -0.3592,0.4031267 -0.13791,0.2020871 -0.27701,0.4590848 -0.30911,0.571106 -0.0584,0.2036748 -0.0584,0.2036748 0.55453,0.00474 0.33709,-0.1094153 0.57735,-0.222154 0.53391,-0.2505306 z m 27.52209,0.3293014 c 0.0284,-0.073985 -0.0424,-0.2742931 -0.15745,-0.4451295 -0.11503,-0.1708363 -0.29967,-0.3236851 -0.4103,-0.3396638 -0.19979,-0.028857 -0.20012,-0.025872 -0.0493,0.4451294 0.12182,0.3803099 0.19281,0.4741818 0.3586,0.4741818 0.11369,0 0.22997,-0.060533 0.25841,-0.1345179 z M 27.103406,5.7964776 c 0.52968,-0.2308267 0.98433,-0.4540459 1.01033,-0.4960426 0.026,-0.041997 -0.18536,-0.1053751 -0.46969,-0.1408408 -0.28432,-0.035466 -0.70797,-0.035885 -0.94144,-9.278e-4 -0.3896,0.058327 -0.44744,0.103497 -0.70369,0.5495672 -0.15356,0.2673089 -0.2796,0.5204855 -0.28008,0.5626148 -4.7e-4,0.042129 0.0942,0.047061 0.21031,0.010959 0.11616,-0.036102 0.64458,-0.2544983 1.17426,-0.485325 z m 1.82231,-0.013695 c 0.78155,-0.2627958 0.78155,-0.2627958 0.2271,-0.3325188 -0.30494,-0.038348 -0.61118,-0.091459 -0.68053,-0.118026 -0.0694,-0.026567 -0.12608,0.0011 -0.12608,0.061484 0,0.060383 -0.12672,0.2162391 -0.2816,0.3463466 -0.15488,0.1301074 -0.2816,0.2778222 -0.2816,0.328255 0,0.050433 0.0813,0.065947 0.18059,0.034475 0.0993,-0.031472 0.53227,-0.175479 0.96212,-0.3200158 z m 23.54374,-0.7397995 c -1.8e-4,-0.036843 -0.087,-0.2087954 -0.19279,-0.3821175 -0.10584,-0.1733221 -0.21637,-0.291238 -0.24562,-0.2620355 -0.0293,0.029202 -0.0244,0.2449025 0.0108,0.4793335 0.0579,0.3853819 0.0815,0.4169197 0.24597,0.329022 0.10008,-0.053469 0.1818,-0.1273599 0.1816,-0.1642025 z m -7.8844,63.0112599 c 0,-0.07684 0.14417,-0.155648 0.35199,-0.19242 0.1936,-0.03425 0.42592,-0.08396 0.51627,-0.110456 0.1165,-0.03417 0.16426,0.0046 0.16426,0.133303 0,0.136906 -0.0864,0.195743 -0.35199,0.239562 -0.1936,0.03195 -0.42592,0.05855 -0.51627,0.05912 -0.0904,5.62e-4 -0.16426,-0.05753 -0.16426,-0.129106 z m -3.64038,-0.498241 c -0.16947,-0.02196 -0.35908,-0.121381 -0.42135,-0.220931 -0.0748,-0.119589 -0.26587,-0.201215 -0.56315,-0.240586 -0.30273,-0.04009 -0.50309,-0.127062 -0.61244,-0.265844 -0.14476,-0.183737 -0.28166,-0.213053 -1.2538,-0.268484 -0.60022,-0.03422 -1.59228,-0.147452 -2.2046,-0.251616 -0.61231,-0.104165 -1.18722,-0.212512 -1.27757,-0.240771 -0.0904,-0.02826 -0.16426,-0.109213 -0.16426,-0.179893 0,-0.08177 -0.1451,-0.144615 -0.39893,-0.172788 -0.21941,-0.02435 -0.50453,-0.04469 -0.6336,-0.04518 -0.12906,-4.68e-4 -0.40362,-0.0123 -0.61013,-0.02624 -0.2065,-0.01393 -0.4177,-0.07394 -0.46933,-0.133341 -0.0516,-0.05941 -0.36842,-0.204119 -0.704,-0.321585 -0.33557,-0.117467 -1.15924,-0.442995 -1.83039,-0.723396 -0.67114,-0.2804 -1.76937,-0.794274 -2.44052,-1.141939 -0.67114,-0.347666 -1.64374,-0.912961 -2.16133,-1.256212 -0.5176,-0.343251 -1.40215,-0.992862 -1.96567,-1.44358 -0.56353,-0.450718 -1.47545,-1.273422 -2.0265,-1.828231 -0.55104,-0.55481 -1.35608,-1.453867 -1.78897,-1.997907 -0.4329,-0.54404 -1.13378,-1.52545 -1.55752,-2.180909 -0.42375,-0.65546 -0.77223,-1.244458 -0.7744,-1.308885 -0.002,-0.06443 0.0489,-0.115418 0.11338,-0.113315 0.0645,0.0021 0.29469,0.286752 0.51145,0.632553 0.21677,0.3458 0.61804,0.906634 0.89173,1.246296 0.27369,0.339663 0.81067,0.95113 1.19329,1.358816 0.69569,0.741248 0.69569,0.741248 0.25053,0.152807 -0.24483,-0.323643 -0.73741,-1.052322 -1.09461,-1.619285 -0.3572,-0.566963 -0.64946,-1.07177 -0.64946,-1.121792 0,-0.05002 0.0528,-0.09062 0.11733,-0.09023 0.0645,3.75e-4 0.20797,0.158536 0.31876,0.351418 0.11078,0.192884 0.51835,0.772398 0.90572,1.287811 0.38737,0.515414 1.08672,1.365506 1.55412,1.889094 0.4674,0.523589 1.3059,1.363718 1.86333,1.866953 0.55743,0.503235 1.33031,1.122602 1.7175,1.376369 0.3872,0.253768 1.31811,0.765668 2.06868,1.137556 0.75058,0.371888 1.80048,0.835977 2.33311,1.031308 0.53264,0.195331 1.39692,0.478283 1.92064,0.62878 0.52371,0.150498 1.50132,0.375688 2.17246,0.500424 0.67115,0.124734 1.7905,0.277373 2.48746,0.339197 0.77282,0.06855 1.8348,0.08899 2.72211,0.05239 0.80021,-0.03301 1.87733,-0.120799 2.39359,-0.195087 0.51627,-0.07429 1.36106,-0.225835 1.87733,-0.336771 0.51626,-0.110937 1.56419,-0.406898 2.32874,-0.657692 0.76455,-0.250795 1.9895,-0.74553 2.72212,-1.099411 0.73262,-0.353882 1.73163,-0.890753 2.22002,-1.193048 0.48839,-0.302296 1.31207,-0.8678 1.83039,-1.256678 0.51832,-0.388878 1.48605,-1.234788 2.15051,-1.879801 0.66446,-0.645013 1.53513,-1.578115 1.93482,-2.073559 0.3997,-0.495445 1.00204,-1.317763 1.33855,-1.827374 0.33651,-0.509611 0.82651,-1.327765 1.08889,-1.818119 0.26237,-0.490354 0.66499,-1.339415 0.89471,-1.886801 0.22971,-0.547387 0.56831,-1.46051 0.75245,-2.029161 0.18414,-0.568652 0.41963,-1.41415 0.52332,-1.878886 0.10369,-0.464735 0.25241,-1.241347 0.3305,-1.725805 0.0781,-0.484459 0.18298,-1.48879 0.2331,-2.231848 0.0591,-0.87559 0.0589,-1.828936 -3.7e-4,-2.709129 -0.0503,-0.746963 -0.17418,-1.865742 -0.27519,-2.486175 -0.10101,-0.620434 -0.31382,-1.632056 -0.47291,-2.24805 -0.15909,-0.615995 -0.35083,-1.243214 -0.42608,-1.393821 -0.0753,-0.150606 -0.13686,-0.333146 -0.13686,-0.405644 0,-0.0725 -0.19326,-0.603689 -0.42947,-1.180424 -0.23621,-0.576735 -0.66917,-1.511098 -0.96213,-2.076363 -0.29296,-0.565265 -0.76498,-1.352518 -1.04893,-1.74945 -0.28394,-0.396933 -0.89642,-1.150994 -1.36105,-1.675693 -0.46464,-0.524698 -1.24608,-1.314815 -1.73653,-1.755816 -0.49045,-0.441 -1.35985,-1.150919 -1.93199,-1.577597 -0.57215,-0.426679 -1.41705,-1.004942 -1.87756,-1.285029 -0.4605,-0.280088 -1.30181,-0.741455 -1.86958,-1.025262 -0.56776,-0.283806 -1.5603,-0.686327 -2.20563,-0.89449 -0.64533,-0.208163 -1.67876,-0.490856 -2.29652,-0.628207 -0.61776,-0.13735 -1.56815,-0.30673 -2.11199,-0.3764 -0.54384,-0.06967 -1.49567,-0.15476 -2.11519,-0.18909 -0.63031,-0.03493 -1.70515,-0.01609 -2.44052,0.04278 -0.72277,0.05786 -1.71429,0.16889 -2.20338,0.246742 -0.48908,0.07785 -1.34887,0.252764 -1.91063,0.388695 -0.81609,0.197468 -1.05689,0.225012 -1.198,0.137032 -0.0971,-0.06056 -0.24175,-0.110113 -0.32136,-0.110113 -0.0796,0 -0.38642,0.120724 -0.6818,0.268276 -0.29538,0.147551 -0.6849,0.294705 -0.86559,0.327011 -0.18069,0.0323 -0.45525,0.02452 -0.61013,-0.01731 -0.15488,-0.04182 -0.29389,-0.139718 -0.30891,-0.217544 -0.0206,-0.106465 0.13467,-0.172013 0.62691,-0.264738 0.35983,-0.06778 0.70968,-0.157456 0.77746,-0.199277 0.098,-0.06048 0.0994,-0.0998 0.007,-0.192175 -0.0925,-0.09238 -0.26653,-0.05483 -0.85044,0.183521 -0.40377,0.164812 -0.8157,0.299423 -0.91542,0.299135 -0.0997,-2.81e-4 -0.3397,-0.04444 -0.5333,-0.09812 -0.1936,-0.05368 -0.35199,-0.153595 -0.35199,-0.222041 0,-0.06845 0.12138,-0.148687 0.26974,-0.17831 0.14836,-0.02962 0.29364,-0.11603 0.32285,-0.192014 0.0427,-0.111042 -0.0241,-0.103175 -0.34015,0.04009 -0.21628,0.09803 -0.50656,0.179169 -0.64505,0.180301 -0.17048,0.0014 -0.27105,-0.05847 -0.31139,-0.185365 -0.0328,-0.103083 -0.0334,-0.269912 -0.001,-0.37073 0.032,-0.100819 0.18598,-0.290584 0.34206,-0.421702 0.26029,-0.218669 0.35735,-0.238394 1.17296,-0.238394 0.59681,0 0.97651,-0.04508 1.15475,-0.137101 0.14606,-0.07541 0.2928,-0.207952 0.32608,-0.294547 0.0333,-0.0866 0.0371,-0.180852 0.008,-0.209459 -0.0286,-0.02861 -0.35701,0.0045 -0.72967,0.07365 -0.37267,0.06911 -0.98381,0.145335 -1.35811,0.169379 -0.56142,0.03607 -0.68053,0.01915 -0.68053,-0.09666 0,-0.08574 0.12553,-0.163891 0.32252,-0.200786 0.20973,-0.03928 0.53733,-0.254757 0.93682,-0.616198 0.33787,-0.305686 0.7313,-0.614903 0.87428,-0.687147 0.20556,-0.103863 0.41468,-0.1129 0.99917,-0.04318 0.48821,0.05823 0.77123,0.05618 0.83355,-0.006 0.0632,-0.06313 -0.018,-0.115256 -0.2464,-0.158025 -0.18741,-0.0351 -0.34075,-0.101296 -0.34075,-0.147101 0,-0.0458 0.18383,-0.08328 0.40853,-0.08328 0.22469,0 1.24889,-0.105426 2.27599,-0.234279 1.10467,-0.138583 2.34938,-0.234279 3.04728,-0.234279 0.6489,0 1.43045,0.04434 1.73678,0.09853 0.30634,0.05419 0.76013,0.163842 1.00842,0.243662 0.27066,0.08701 0.57822,0.121385 0.768,0.08584 0.29904,-0.05601 0.31371,-0.07676 0.26521,-0.375158 -0.0418,-0.257122 -0.014,-0.335846 0.14967,-0.423273 0.16456,-0.08792 0.24942,-0.073 0.46788,0.08231 0.14677,0.10434 0.38523,0.23464 0.52991,0.289556 0.14468,0.05492 0.85754,0.155567 1.58414,0.223672 1.13227,0.106129 1.35019,0.104783 1.52478,-0.0094 0.11204,-0.07329 0.22936,-0.200012 0.26073,-0.281608 0.0314,-0.0816 0.0386,-0.166787 0.016,-0.18931 -0.0226,-0.02252 -0.61274,-0.06488 -1.3115,-0.09413 -1.27048,-0.05318 -1.27048,-0.05318 -1.29878,-0.387749 -0.022,-0.259908 -0.0995,-0.382295 -0.34726,-0.548436 -0.17542,-0.117625 -0.352,-0.213865 -0.3924,-0.213865 -0.0404,0 -0.087,0.09488 -0.10345,0.210851 -0.021,0.147832 -0.10336,0.219348 -0.27548,0.239284 -0.13501,0.01564 -0.72637,-0.100265 -1.31412,-0.257564 -0.58776,-0.157298 -1.26929,-0.286061 -1.51451,-0.28614 -0.32085,-9.4e-5 -0.49851,0.05241 -0.6336,0.18728 -0.10325,0.103083 -0.18773,0.229593 -0.18773,0.281135 0,0.05154 -0.0422,0.09371 -0.0939,0.09371 -0.0516,0 -0.0939,-0.147595 -0.0939,-0.32799 0,-0.266437 -0.0355,-0.32799 -0.18933,-0.32799 -0.10413,0 -0.66381,0.103083 -1.24373,0.229072 -0.57992,0.125989 -1.97674,0.505578 -3.10404,0.843531 -1.12731,0.337951 -2.28403,0.641958 -2.57048,0.675569 -0.42313,0.04965 -0.51311,0.03644 -0.47969,-0.07041 0.0226,-0.07234 0.46088,-0.270287 0.97387,-0.439889 0.513,-0.169601 0.96898,-0.344558 1.01329,-0.388793 0.0448,-0.04476 -0.0484,-0.108712 -0.21032,-0.14421 -0.15998,-0.03508 -0.29087,-0.11857 -0.29087,-0.185533 0,-0.06696 0.11616,-0.166848 0.25813,-0.221963 0.14197,-0.05512 0.42709,-0.145853 0.6336,-0.201637 0.2065,-0.05579 1.1569,-0.143981 2.11198,-0.19599 0.95509,-0.05201 2.04579,-0.117865 2.42379,-0.146347 0.64519,-0.04861 0.67823,-0.06175 0.53973,-0.214534 -0.0811,-0.08951 -0.14753,-0.20915 -0.14753,-0.265865 0,-0.05671 0.24288,-0.153596 0.53973,-0.215295 0.35201,-0.07316 0.99679,-0.09405 1.85386,-0.06005 0.92689,0.03677 1.61723,0.122951 2.34275,0.292464 0.56574,0.132182 1.8435,0.480121 2.83945,0.773196 0.99596,0.293075 1.81083,0.570796 1.81083,0.617156 0,0.04636 -0.16896,0.150554 -0.37547,0.231538 -0.2065,0.08098 -0.37546,0.174627 -0.37546,0.208095 0,0.03347 0.32736,0.257127 0.72746,0.497021 0.4001,0.239893 0.84637,0.480219 0.99171,0.534058 0.14533,0.05384 0.27675,0.09789 0.29204,0.09789 0.0153,0 0.009,-0.09612 -0.0131,-0.213597 -0.0326,-0.17027 0.0262,-0.245526 0.28971,-0.370995 0.30048,-0.14305 0.38025,-0.144755 0.87525,-0.0187 0.29955,0.07628 0.94591,0.330076 1.43636,0.563989 0.49045,0.233913 1.59925,0.828996 2.46399,1.322406 0.86474,0.493411 1.57226,0.953118 1.57226,1.021573 0,0.06845 0.47519,0.362135 1.05599,0.652625 0.5808,0.29049 1.15176,0.616449 1.2688,0.724356 0.11704,0.107906 0.33491,0.440156 0.48416,0.738334 0.14924,0.298178 0.2999,0.710798 0.33478,0.916937 0.0499,0.294845 0.14579,0.435265 0.44953,0.65827 0.21235,0.155911 0.42738,0.283474 0.47784,0.283474 0.0505,0 -0.007,-0.105259 -0.12838,-0.233909 -0.12106,-0.12865 -0.19013,-0.263835 -0.15349,-0.300412 0.0366,-0.03658 0.24355,-0.0051 0.45982,0.06992 0.30718,0.106573 0.46889,0.250787 0.7392,0.659209 0.1903,0.287536 0.45523,0.594241 0.58873,0.681568 0.13349,0.08733 0.24272,0.203325 0.24272,0.257773 0,0.06001 -0.10501,0.07597 -0.26664,0.04053 -0.16861,-0.03697 -0.30229,-0.01387 -0.36359,0.06284 -0.0533,0.06672 -0.1175,0.3456 -0.1426,0.619738 -0.0407,0.444015 -0.0219,0.513957 0.17173,0.64063 0.11956,0.07821 0.2608,0.115404 0.31388,0.08266 0.0531,-0.03275 0.15434,-0.257777 0.22504,-0.500063 0.0782,-0.26787 0.19015,-0.452594 0.28572,-0.471325 0.11627,-0.02279 0.25194,0.172342 0.52125,0.749692 0.20025,0.429273 0.41638,0.95781 0.48029,1.174528 0.0886,0.30049 0.19098,0.429452 0.43116,0.543237 0.17322,0.08206 0.31589,0.178855 0.31704,0.215093 10e-4,0.03624 0.0885,0.171312 0.19403,0.300165 0.16391,0.200058 0.17731,0.204379 0.0918,0.02959 -0.0551,-0.112579 -0.10017,-0.291803 -0.10017,-0.398274 0,-0.106471 0.0334,-0.193583 0.0741,-0.193583 0.0408,0 0.23763,0.390074 0.43746,0.866831 0.19983,0.476757 0.60263,1.37429 0.89511,1.994517 0.37426,0.793638 0.62981,1.210033 0.86269,1.405672 0.23017,0.193358 0.40661,0.478292 0.57955,0.935954 0.13676,0.361882 0.24864,0.695923 0.24864,0.742313 0,0.04639 0.0584,0.15092 0.12974,0.232291 0.0713,0.08137 0.243,0.479101 0.38145,0.883848 0.13845,0.404746 0.22787,0.759715 0.19872,0.788818 -0.0291,0.0291 -0.1994,0.0081 -0.37832,-0.04676 -0.32532,-0.09968 -0.32532,-0.09968 -0.27201,0.335719 0.0293,0.23947 0.0924,0.591772 0.14023,0.782895 0.0609,0.243685 0.12707,0.332113 0.22132,0.296005 0.084,-0.03219 0.20694,0.06587 0.32792,0.261628 0.10643,0.172216 0.21883,0.409967 0.24977,0.528335 0.0309,0.118368 0.032,0.23942 0.002,0.269003 -0.0296,0.02958 -0.22479,-0.08135 -0.43367,-0.246517 -0.20889,-0.165168 -0.3798,-0.273997 -0.3798,-0.241842 0,0.03215 0.09,0.236007 0.2001,0.453004 0.11005,0.216997 0.42427,0.776064 0.69827,1.24237 0.274,0.466307 0.60635,1.169549 0.73857,1.562762 0.13221,0.393213 0.24039,0.907805 0.24039,1.143539 0,0.360841 -0.0286,0.428606 -0.18103,0.428606 -0.0996,0 -0.24698,-0.06584 -0.32758,-0.146307 -0.0806,-0.08047 -0.23517,-0.449458 -0.34349,-0.819975 -0.10832,-0.370517 -0.29927,-0.991415 -0.42434,-1.379771 -0.12506,-0.388357 -0.35674,-0.862771 -0.51484,-1.054254 -0.15809,-0.191483 -0.32661,-0.348151 -0.37448,-0.348151 -0.0479,0 -0.087,0.234347 -0.087,0.520771 0,0.286425 0.0472,0.708126 0.10501,0.937115 0.0578,0.228989 0.14224,0.416343 0.18773,0.416343 0.0455,0 0.0886,-0.05271 0.0958,-0.117139 0.007,-0.06443 0.004,-0.275278 -0.008,-0.468558 -0.0119,-0.196554 0.0223,-0.351418 0.0774,-0.351418 0.0542,0 0.14846,0.09294 0.20935,0.206528 0.0609,0.113591 0.16908,0.419325 0.24042,0.679409 0.0713,0.260083 0.16982,1.20743 0.21884,2.105213 0.0558,1.021158 0.14552,1.801848 0.23975,2.08508 0.0829,0.249011 0.18948,0.452747 0.23695,0.452747 0.0475,0 0.0863,-0.04622 0.0863,-0.102716 0,-0.05649 0.0664,-0.3306 0.14746,-0.609125 0.0811,-0.278524 0.19147,-0.506408 0.24526,-0.506408 0.0621,0 0.0833,0.230982 0.0581,0.632552 -0.0257,0.409047 -0.13172,0.84778 -0.30006,1.241677 -0.14318,0.335019 -0.30862,0.72599 -0.36765,0.868825 -0.082,0.198506 -0.0802,0.303093 0.008,0.443857 0.0634,0.101288 0.1152,0.205816 0.1152,0.232286 0,0.02647 -0.0528,0.04847 -0.11733,0.04889 -0.0645,3.75e-4 -0.28629,-0.192685 -0.4928,-0.429119 -0.37546,-0.429881 -0.37546,-0.429881 -0.38568,1.917678 -0.006,1.291157 0.0245,2.326141 0.0669,2.299962 0.0424,-0.02618 0.12071,-0.204212 0.17396,-0.395629 0.0532,-0.191418 0.097,-0.632681 0.0973,-0.980584 3.8e-4,-0.471541 0.0331,-0.632553 0.12857,-0.632553 0.0704,0 0.19715,0.180633 0.2816,0.401407 0.0845,0.220774 0.15314,0.484337 0.15263,0.585696 -4.7e-4,0.10136 -0.10072,0.398289 -0.22272,0.659842 -0.12199,0.261554 -0.36446,0.663725 -0.53881,0.893713 -0.17436,0.229988 -0.44265,0.683742 -0.5962,1.008341 -0.25685,0.542956 -0.26624,0.597415 -0.11733,0.680611 0.089,0.04974 0.16185,0.128633 0.16185,0.175324 0,0.04669 -0.10055,0.23283 -0.22346,0.41364 -0.1229,0.180812 -0.31466,0.678184 -0.42613,1.105272 -0.11147,0.427088 -0.24232,0.871407 -0.29079,0.987375 -0.0485,0.115968 -0.15074,0.210851 -0.22727,0.210851 -0.0765,0 -0.22406,-0.09098 -0.32782,-0.202174 -0.14662,-0.157115 -0.19912,-0.172779 -0.23558,-0.07028 -0.0258,0.07254 -0.21045,0.595762 -0.41032,1.162717 -0.30182,0.856133 -0.39678,1.032582 -0.56031,1.041188 -0.10829,0.0057 -0.32939,0.121669 -0.49133,0.257707 -0.16194,0.136039 -0.35119,0.247344 -0.42056,0.247344 -0.0869,0 -0.14569,0.196634 -0.18906,0.632552 -0.0346,0.347904 -0.12057,0.890664 -0.19104,1.206133 -0.0705,0.31547 -0.28434,0.842597 -0.47528,1.171394 -0.19095,0.328797 -0.66802,0.985727 -1.06016,1.459845 -0.39214,0.474118 -0.76579,0.864192 -0.83032,0.866831 -0.0645,0.0026 -0.11733,-0.0404 -0.11733,-0.09565 0,-0.05525 0.11355,-0.297727 0.25234,-0.538841 0.13878,-0.241114 0.33196,-0.542893 0.42928,-0.67062 0.0973,-0.127726 0.28109,-0.30043 0.40836,-0.383785 0.20398,-0.133587 0.21429,-0.165744 0.087,-0.27123 -0.0794,-0.06582 -0.14536,-0.251562 -0.14649,-0.41276 -0.002,-0.287613 -0.006,-0.285242 -0.19289,0.126914 -0.10496,0.231002 -0.35884,0.642161 -0.56418,0.913687 -0.20534,0.271526 -0.43534,0.493684 -0.51111,0.493684 -0.0758,0 -0.13776,-0.03968 -0.13776,-0.08818 0,-0.0485 0.0422,-0.114244 0.0939,-0.146098 0.0516,-0.03186 0.0922,-0.108142 0.0901,-0.169526 -0.002,-0.06138 -0.18843,0.0887 -0.41417,0.333521 -0.22575,0.244821 -0.45639,0.445129 -0.51254,0.445129 -0.0562,0 -0.10209,-0.03301 -0.10209,-0.07335 0,-0.04034 0.15186,-0.35886 0.33746,-0.707817 0.21178,-0.398166 0.45606,-0.711142 0.6559,-0.840337 0.17514,-0.113228 0.31897,-0.232334 0.31961,-0.264679 6.5e-4,-0.03234 -0.0622,-0.111306 -0.13964,-0.175469 -0.0774,-0.06416 -0.14083,-0.20638 -0.14087,-0.316036 -6e-5,-0.144768 -0.0513,-0.09671 -0.18727,0.175469 -0.10295,0.206165 -0.3458,0.582519 -0.53966,0.836344 -0.19385,0.253824 -0.41122,0.480715 -0.48304,0.504203 -0.0988,0.03231 -0.11549,-0.01731 -0.0686,-0.203792 0.0567,-0.225418 0.0377,-0.246496 -0.22142,-0.246496 -0.16739,0 -0.28339,-0.049 -0.28339,-0.119716 0,-0.06584 0.0685,-0.217372 0.15226,-0.33673 0.10836,-0.154458 0.21724,-0.204609 0.37771,-0.173984 0.16403,0.0313 0.28239,-0.02692 0.43441,-0.21373 0.11492,-0.141217 0.28091,-0.388583 0.36885,-0.549703 0.0879,-0.161119 0.22522,-0.292944 0.30507,-0.292944 0.0798,0 0.14784,0.0738 0.15111,0.163995 0.005,0.127641 0.0245,0.118093 0.0894,-0.04307 0.0459,-0.113887 0.31207,-0.540279 0.59144,-0.947539 0.27938,-0.407258 0.58279,-0.936088 0.67425,-1.175177 0.0915,-0.239088 0.20279,-0.434706 0.2474,-0.434706 0.0446,0 0.0811,0.185107 0.0811,0.411349 0,0.226242 -0.066,0.758948 -0.14677,1.183791 -0.0807,0.424842 -0.21209,0.871962 -0.29192,0.993598 -0.0798,0.121638 -0.11891,0.289424 -0.0868,0.372859 0.0424,0.110325 0.18987,-0.04923 0.54067,-0.584973 0.44415,-0.678301 0.48109,-0.777513 0.46622,-1.252086 -0.009,-0.283478 0.048,-0.845252 0.12642,-1.248386 0.10891,-0.559981 0.11743,-0.779848 0.0361,-0.931581 -0.10592,-0.197583 -0.10761,-0.19728 -0.32824,0.05879 -0.12197,0.14157 -0.22177,0.318302 -0.22177,0.39274 0,0.07444 -0.0422,0.135342 -0.0939,0.135342 -0.0516,0 -0.0941,-0.115968 -0.0943,-0.257707 -4.7e-4,-0.249591 -0.008,-0.245903 -0.23174,0.117139 -0.12719,0.206166 -0.23257,0.472501 -0.23418,0.591858 -0.002,0.119356 -0.0479,0.300836 -0.10279,0.403288 -0.0549,0.102453 -0.22501,0.262266 -0.37799,0.355142 -0.15297,0.09288 -0.44595,0.393427 -0.65107,0.667891 -0.20512,0.274464 -0.37294,0.575749 -0.37294,0.669524 0,0.09704 -0.0708,0.173734 -0.16426,0.178011 -0.0904,0.0041 -0.49868,0.387162 -0.90741,0.851177 -0.40873,0.464015 -1.23241,1.264007 -1.83039,1.77776 -0.59799,0.513752 -1.61525,1.287697 -2.26058,1.719878 -0.64533,0.43218 -1.65908,1.03986 -2.25279,1.350398 -0.5937,0.310538 -1.12415,0.640061 -1.17877,0.732273 -0.0546,0.09221 -0.19828,0.330548 -0.31925,0.529634 -0.21995,0.361976 -0.21995,0.361976 0.0993,0.295377 0.17559,-0.03663 0.49919,-0.154489 0.71911,-0.261911 0.21993,-0.107421 0.46935,-0.271968 0.55428,-0.36566 0.0849,-0.09369 0.19011,-0.170349 0.23374,-0.170349 0.0436,0 0.0793,0.105426 0.0793,0.234279 0,0.128853 -0.0374,0.234279 -0.0831,0.234279 -0.0457,0 -0.15756,0.113498 -0.24861,0.252219 -0.091,0.13872 -0.19774,0.394814 -0.23711,0.569098 -0.0588,0.260147 -0.0465,0.307288 0.0683,0.263302 0.0769,-0.02947 0.36226,-0.200963 0.63409,-0.3811 0.27184,-0.180136 0.62755,-0.354136 0.79047,-0.386667 0.17216,-0.03438 0.29622,-0.02045 0.29622,0.03326 0,0.05082 -0.19008,0.193073 -0.4224,0.316115 -0.23232,0.123042 -0.4224,0.252923 -0.4224,0.288626 0,0.0357 0.0422,0.09098 0.0939,0.122831 0.0516,0.03185 0.0939,0.17736 0.0939,0.323345 0,0.222418 -0.0611,0.289856 -0.37736,0.416171 -0.20755,0.08291 -0.42323,0.150743 -0.47929,0.150743 -0.0561,0 -0.26192,-0.126511 -0.45747,-0.281135 -0.19555,-0.154624 -0.40095,-0.281134 -0.45643,-0.281134 -0.0555,0 -0.0766,0.06325 -0.0468,0.140567 0.0448,0.116449 -0.0564,0.140809 -0.58961,0.141979 -0.354,7.49e-4 -0.8126,0.06218 -1.0191,0.136453 -0.20651,0.07427 -0.63946,0.136894 -0.96213,0.139157 -0.32266,0.0023 -0.58666,-0.03531 -0.58666,-0.08349 0,-0.04818 0.31601,-0.140611 0.70224,-0.205403 0.66866,-0.112169 0.6949,-0.125908 0.54865,-0.287247 -0.0845,-0.09319 -0.24209,-0.168986 -0.35025,-0.168428 -0.10815,5.62e-4 -0.404,0.06381 -0.65743,0.140567 -0.25343,0.07675 -0.66527,0.139553 -0.91519,0.139553 -0.24993,0 -0.45442,-0.03766 -0.45442,-0.08369 0,-0.04603 0.0628,-0.107762 0.13966,-0.137188 0.0768,-0.02943 0.35232,-0.08167 0.61224,-0.11609 0.25992,-0.03442 0.49228,-0.09442 0.51637,-0.133328 0.0241,-0.03891 -0.0191,-0.122853 -0.096,-0.186546 -0.0769,-0.06369 -0.13977,-0.157503 -0.13977,-0.20847 0,-0.05455 0.13067,-0.06819 0.31764,-0.03317 0.24278,0.04547 0.33127,0.02403 0.37547,-0.09095 0.0318,-0.08274 0.0578,-0.172586 0.0578,-0.199656 0,-0.02707 -0.0739,-0.02042 -0.16427,0.01476 -0.0904,0.03519 -0.54442,0.170029 -1.00906,0.299641 -0.46464,0.129613 -1.41503,0.336747 -2.11199,0.460298 -0.69695,0.123552 -1.83743,0.254693 -2.53438,0.291426 -0.69696,0.03673 -1.19328,0.08252 -1.10293,0.101743 0.0904,0.01923 0.16426,0.07155 0.16426,0.116266 0,0.04472 -0.0463,0.109847 -0.10278,0.144728 -0.058,0.03578 0.0659,0.13882 0.28434,0.236451 0.29637,0.132471 0.44453,0.151238 0.63206,0.08006 0.13472,-0.05114 0.26928,-0.06869 0.29901,-0.039 0.0297,0.02968 0.009,0.125746 -0.046,0.213472 -0.055,0.08773 -0.20135,0.164153 -0.32521,0.169839 -0.12386,0.0057 -0.36386,-0.0076 -0.53333,-0.02959 z m -0.5836,-0.834175 c 0,-0.02026 -0.11616,-0.03618 -0.25813,-0.03539 -0.18787,0.001 -0.22212,0.02419 -0.12585,0.08504 0.0728,0.04598 0.18892,0.06191 0.25813,0.03539 0.0692,-0.02652 0.12585,-0.06479 0.12585,-0.08504 z m 9.10502,-0.224253 c -0.12907,-0.10079 -0.27691,-0.182789 -0.32854,-0.182221 -0.0516,5.63e-4 0.006,0.08397 0.12774,0.185339 0.12188,0.101368 0.26971,0.183367 0.32853,0.182221 0.0588,-0.0011 10e-4,-0.08455 -0.12773,-0.185339 z m -0.8448,-0.453514 c 0,-0.04327 -0.10759,-0.127609 -0.23908,-0.187423 -0.1315,-0.05982 -0.27934,-0.108754 -0.32853,-0.108754 -0.0492,0 -0.0894,0.05974 -0.0894,0.132758 0,0.07302 0.0528,0.154028 0.11733,0.180024 0.0645,0.026 0.21237,0.0506 0.32853,0.05466 0.11616,0.0041 0.2112,-0.028 0.2112,-0.07127 z m 12.74907,-12.181667 c 0.17337,-0.13316 0.21176,-0.240315 0.18773,-0.524018 -0.0302,-0.35663 -0.0302,-0.35663 -0.28731,0.169471 -0.14141,0.289357 -0.22589,0.525165 -0.18773,0.524019 0.0382,-0.0011 0.16745,-0.07741 0.28731,-0.169472 z m 1.03639,-0.812094 c 0.16195,-0.184158 0.29447,-0.41496 0.29447,-0.512894 0,-0.09793 -0.0476,-0.296775 -0.10573,-0.441868 -0.10572,-0.263807 -0.10572,-0.263807 -0.2743,0.111039 -0.0927,0.206165 -0.25631,0.597702 -0.36353,0.870081 -0.1846,0.468985 -0.18567,0.490287 -0.0202,0.401856 0.0961,-0.05136 0.30729,-0.244057 0.46925,-0.428214 z m 1.79267,-0.03277 c -0.0616,-0.02049 -0.14863,0.02061 -0.1935,0.09131 -0.0449,0.07071 -0.0822,0.166724 -0.083,0.213369 -7.5e-4,0.04664 0.0863,0.0056 0.1935,-0.09132 0.12594,-0.113783 0.15532,-0.189305 0.083,-0.213368 z m -1.02535,-1.45133 c -0.0388,-0.171813 -0.11053,-0.383682 -0.15938,-0.47082 -0.0754,-0.134527 -0.11345,-0.106851 -0.2521,0.183423 -0.0898,0.188021 -0.15092,0.349433 -0.1358,0.358694 0.0151,0.0093 0.13309,0.06444 0.26216,0.122623 0.12906,0.05818 0.2619,0.108639 0.29518,0.112127 0.0333,0.0035 0.0288,-0.134232 -0.0101,-0.306047 z m 0.38969,-3.108082 c -0.0161,-0.412331 -0.0339,-0.897287 -0.0397,-1.077682 -0.006,-0.180395 0.049,-0.466941 0.12176,-0.636768 0.11527,-0.269059 0.11435,-0.319942 -0.007,-0.395553 -0.11583,-0.07205 -0.16587,0.05191 -0.29486,0.73048 -0.0854,0.44949 -0.18379,1.1757 -0.21855,1.613802 -0.0348,0.438101 -0.0837,0.869755 -0.10869,0.959233 -0.0293,0.104694 0.0654,0.05459 0.26549,-0.140567 0.30733,-0.299703 0.31063,-0.312032 0.28179,-1.052945 z m 1.20745,-4.076449 c -0.056,-0.283477 -0.15776,-0.702346 -0.22614,-0.93082 -0.12433,-0.415407 -0.12433,-0.415407 -0.18211,0.609125 -0.0318,0.563492 -0.10005,1.165466 -0.15169,1.337719 -0.0516,0.172252 -0.0676,0.444353 -0.0355,0.604666 0.0565,0.28182 0.069,0.268335 0.37784,-0.406899 0.30459,-0.665895 0.31471,-0.722351 0.21762,-1.213791 z m -0.70555,-3.044886 c 0.036,-0.335423 0.10274,-0.609861 0.14835,-0.609861 0.0456,0 0.0829,0.06326 0.0829,0.140567 0,0.07731 0.0397,0.140567 0.0883,0.140567 0.0486,0 0.11443,-0.04217 0.14634,-0.09371 0.0319,-0.05154 0.1459,-0.09371 0.25332,-0.09371 0.10742,0 0.25143,0.0738 0.32001,0.163995 0.11426,0.15027 0.12477,0.144386 0.12562,-0.07028 4.7e-4,-0.128854 -0.0782,-0.408299 -0.17497,-0.620991 -0.0967,-0.212693 -0.22284,-0.415674 -0.2802,-0.451069 -0.0574,-0.0354 -0.12965,0.0016 -0.16062,0.08215 -0.031,0.08058 -0.10813,0.146507 -0.17147,0.146507 -0.0745,0 -0.22451,-0.570279 -0.42514,-1.616523 -0.1705,-0.889088 -0.42842,-2.10148 -0.57314,-2.694205 -0.14473,-0.592725 -0.32951,-1.263484 -0.41061,-1.490574 -0.0811,-0.22709 -0.12428,-0.436036 -0.096,-0.464324 0.0283,-0.02829 0.1765,-0.0043 0.32925,0.05323 0.2704,0.101896 0.27615,0.09807 0.21776,-0.1448 -0.033,-0.137202 -0.14237,-0.413587 -0.24309,-0.614188 -0.10071,-0.2006 -0.36839,-0.56247 -0.59483,-0.804155 -0.22644,-0.241684 -0.56044,-0.519391 -0.74222,-0.617124 -0.18178,-0.09773 -0.33051,-0.250353 -0.33051,-0.339153 0,-0.0888 0.0727,-0.20207 0.16154,-0.25171 0.15156,-0.08468 0.15,-0.118043 -0.0252,-0.54003 -0.122,-0.293887 -0.32024,-0.548417 -0.57198,-0.734378 -0.2119,-0.156532 -0.66767,-0.489297 -1.01282,-0.73948 -0.34516,-0.250183 -0.7835,-0.66418 -0.97409,-0.919993 -0.3279,-0.44012 -0.34812,-0.452203 -0.3762,-0.224831 -0.0201,0.16313 0.0973,0.420926 0.3656,0.802854 0.2174,0.309413 0.43139,0.562569 0.47554,0.562569 0.0442,0 0.0803,0.04905 0.0803,0.108992 0,0.05995 0.22773,0.49219 0.50608,0.960542 0.27835,0.468353 0.67859,1.196458 0.88942,1.61801 0.21084,0.421553 0.52845,1.117361 0.70581,1.54624 0.17737,0.428879 0.48136,1.264736 0.67556,1.857461 0.21491,0.655988 0.42434,1.12849 0.53519,1.207525 0.15172,0.108172 0.17521,0.213075 0.1407,0.62851 -0.0324,0.390408 -0.0181,0.466815 0.066,0.351952 0.0591,-0.08069 0.18914,-0.131156 0.28898,-0.112139 0.0998,0.01902 0.19434,0.12377 0.20999,0.232788 0.0156,0.109017 -0.0364,0.262959 -0.11565,0.342093 -0.0793,0.07914 -0.19229,0.159912 -0.25117,0.179506 -0.0747,0.02486 -0.0853,0.190249 -0.0351,0.547208 0.0719,0.511583 0.0719,0.511583 0.17577,0.213746 0.0571,-0.16381 0.13897,-0.332424 0.18191,-0.374698 0.0429,-0.04227 0.13798,0.0049 0.2112,0.104897 0.0732,0.09997 0.13313,0.311087 0.13313,0.469156 0,0.158068 -0.10471,0.48376 -0.23268,0.723761 -0.21654,0.406093 -0.2286,0.498394 -0.17385,1.330521 0.0538,0.817758 0.073,0.886564 0.22513,0.805304 0.12049,-0.06438 0.18431,-0.256821 0.23171,-0.698715 z m -2.40824,-5.722406 c -0.055,-0.203266 -0.14135,-0.411746 -0.19183,-0.463287 -0.06,-0.06123 -0.0684,0.0037 -0.0245,0.187422 0.037,0.154624 0.10456,0.381866 0.15007,0.504983 0.0455,0.123116 0.10154,0.205084 0.12451,0.182153 0.023,-0.02293 -0.003,-0.208003 -0.0583,-0.411271 z m -1.15823,-3.552933 c -0.18533,-0.446985 -0.5098,-1.157607 -0.72104,-1.57916 -0.21124,-0.421553 -0.39711,-0.780868 -0.41305,-0.798477 -0.0159,-0.01761 -0.0907,0.0035 -0.16602,0.04686 -0.11082,0.06378 0.0225,0.365684 0.69677,1.578256 0.4586,0.824661 0.83389,1.53804 0.83399,1.585286 10e-5,0.04725 0.0241,0.06206 0.0533,0.03292 0.0292,-0.02914 -0.0986,-0.418696 -0.2839,-0.865682 z m -17.1344,35.474722 c 0,-0.04727 0.21327,-0.13161 0.47395,-0.187423 0.26067,-0.05581 0.51411,-0.101476 0.56319,-0.101476 0.0491,0 0.0893,0.05874 0.0893,0.130541 0,0.0718 -0.0668,0.156138 -0.14847,0.187423 -0.0817,0.03129 -0.3351,0.05688 -0.5632,0.05688 -0.2281,0 -0.41472,-0.03868 -0.41472,-0.08595 z m 10.98234,-1.864546 c 0,-0.04194 -0.25017,-0.0582 -0.55593,-0.03612 -0.55303,0.03994 -0.55608,0.03875 -0.58666,-0.228299 -0.0303,-0.264351 -0.0388,-0.267978 -0.56049,-0.23784 -0.32515,0.01879 -0.55514,-0.01042 -0.5955,-0.07561 -0.0362,-0.05842 -0.0415,-0.202718 -0.0118,-0.320668 0.0308,-0.122315 0.27652,-0.362014 0.57204,-0.5579 0.28496,-0.188895 0.51812,-0.362602 0.51812,-0.386015 0,-0.02341 -0.19358,0.04027 -0.43018,0.141525 -0.2366,0.101251 -0.46892,0.184093 -0.51627,0.184093 -0.0473,0 -0.0861,-0.05479 -0.0861,-0.121754 0,-0.06696 0.3696,-0.398361 0.82133,-0.736437 0.45173,-0.338077 0.93029,-0.640732 1.06345,-0.672568 0.13317,-0.03184 0.51981,-0.311907 0.85919,-0.622379 0.33939,-0.310472 0.6575,-0.564495 0.70693,-0.564495 0.0494,0 0.11578,0.218391 0.14744,0.485312 0.0367,0.30972 0.0185,0.532345 -0.0505,0.615304 -0.0594,0.07149 -0.2343,0.195163 -0.38858,0.274816 -0.18542,0.09573 -0.42323,0.128767 -0.70145,0.09746 -0.3006,-0.03383 -0.4975,-8.43e-4 -0.68881,0.115276 -0.26639,0.161735 -0.26683,0.163588 -0.0798,0.332587 0.10345,0.09347 0.1881,0.253155 0.1881,0.354856 0,0.170664 0.0235,0.165629 0.30506,-0.06536 0.16779,-0.137646 0.53163,-0.355491 0.80854,-0.4841 0.27692,-0.128609 0.75469,-0.473053 1.06172,-0.765429 0.44811,-0.426723 0.57535,-0.504596 0.64495,-0.394741 0.0477,0.07527 0.0873,0.33429 0.0881,0.575602 0.001,0.374812 -0.037,0.466081 -0.26242,0.626321 -0.14512,0.103165 -0.36787,0.213636 -0.49501,0.245492 -0.12713,0.03185 -0.33575,0.01928 -0.4636,-0.02793 -0.16533,-0.06106 -0.32056,-0.04391 -0.53752,0.05938 -0.16779,0.07988 -0.30507,0.175081 -0.30507,0.211562 0,0.03648 0.0634,0.0906 0.1408,0.120271 0.088,0.03371 0.1408,0.176792 0.1408,0.381574 0,0.231156 -0.055,0.357018 -0.18676,0.427421 -0.10272,0.05488 -0.25041,0.222654 -0.32819,0.372824 -0.0891,0.172093 -0.10685,0.294373 -0.0479,0.330744 0.0514,0.03174 0.0935,0.139556 0.0935,0.239597 0,0.10004 -0.0634,0.181892 -0.1408,0.181892 -0.0774,0 -0.1408,-0.03432 -0.1408,-0.07626 z m -0.46541,-1.015132 c 0.20645,-0.136395 0.35991,-0.263417 0.34102,-0.282271 -0.0189,-0.01885 -0.23094,0.05255 -0.47124,0.158667 -0.24029,0.106118 -0.4369,0.233141 -0.4369,0.28227 0,0.04913 0.0431,0.08933 0.0959,0.08933 0.0527,0 0.26479,-0.111596 0.47124,-0.247992 z m 13.92066,-19.013756 c -0.0306,-0.07953 -0.0321,-0.168098 -0.003,-0.196806 0.0288,-0.02871 0.0973,-0.0244 0.1524,0.0096 0.0551,0.03397 0.10011,0.122537 0.10011,0.196807 0,0.07427 -0.0436,0.135036 -0.0968,0.135036 -0.0532,0 -0.12183,-0.06507 -0.1524,-0.144609 z M 58.172176,9.0892571 c -0.29685,-0.183159 -0.53973,-0.371796 -0.53973,-0.419193 0,-0.0474 0.12525,-0.08618 0.27834,-0.08618 0.17747,0 0.39856,0.105391 0.61013,0.290842 0.18248,0.159963 0.33179,0.349729 0.33179,0.421702 0,0.07197 -0.0317,0.129731 -0.0704,0.128349 -0.0387,-0.0014 -0.31327,-0.152364 -0.61013,-0.335524 z m -0.70399,-1.5926142 c -0.27104,-0.178157 -0.4928,-0.364855 -0.4928,-0.414885 0,-0.05003 0.11912,-0.09097 0.2647,-0.09097 0.16793,0 0.40815,0.122579 0.65707,0.335292 0.21579,0.184411 0.39236,0.374177 0.39236,0.421702 0,0.04753 -0.0739,0.08334 -0.16427,0.07959 -0.0904,-0.0038 -0.38602,-0.152581 -0.65706,-0.330737 z m -42.92031,-0.458994 c 0,-0.1288536 0.0422,-0.234279 0.0939,-0.234279 0.0516,0 0.0939,0.1054254 0.0939,0.234279 0,0.128853 -0.0422,0.234278 -0.0939,0.234278 -0.0516,0 -0.0939,-0.105425 -0.0939,-0.234278 z m 31.62508,-2.5209571 c -0.0215,-0.020682 -0.40728,-0.082233 -0.85727,-0.1367822 -0.44998,-0.054549 -1.02022,-0.1923931 -1.26719,-0.306321 -0.37466,-0.1728318 -0.62391,-0.2083831 -1.50483,-0.214636 -0.58068,-0.00412 -1.05588,-0.04507 -1.05599,-0.090995 -9e-5,-0.045926 0.15631,-0.2884041 0.34761,-0.5388409 0.32042,-0.4194646 0.37943,-0.4553397 0.74903,-0.4553397 0.22067,0 0.57289,0.068577 0.78271,0.1523946 0.27327,0.109161 0.43361,0.2543618 0.56517,0.5118203 0.14514,0.284033 0.26364,0.3809249 0.56493,0.4619203 0.2097,0.056372 0.43366,0.1225655 0.49769,0.1470966 0.0827,0.031688 0.10558,-0.048124 0.079,-0.2756556 -0.0206,-0.1761418 0.0103,-0.4093992 0.0687,-0.5183499 0.0893,-0.1665204 0.19916,-0.2001199 0.68955,-0.2108161 0.58336,-0.012724 0.58336,-0.012724 -0.0737,-0.087693 -0.36139,-0.041233 -0.96501,-0.1161125 -1.34138,-0.1663997 -0.37638,-0.050287 -0.78197,-0.15531 -0.90133,-0.2333842 -0.11935,-0.078074 -0.54314,-0.1872395 -0.94175,-0.2425896 -0.39861,-0.05535 -0.95396,-0.07374 -1.23413,-0.040867 -0.37302,0.043769 -0.50938,0.028906 -0.50938,-0.055523 0,-0.063411 0.15839,-0.3239653 0.35199,-0.5790095 0.352,-0.4637167 0.352,-0.4637167 0.89509,-0.4216053 0.2987,0.023161 0.64732,0.1102957 0.77472,0.1936319 0.12739,0.083336 0.33387,0.3132225 0.45884,0.5108583 0.14576,0.2305236 0.32231,0.3800352 0.49248,0.417075 0.14589,0.031756 0.35109,0.082353 0.456,0.1124392 0.17223,0.049389 0.18736,0.01922 0.15585,-0.3106372 -0.0241,-0.2521893 0.0135,-0.4136439 0.12133,-0.5213059 0.11398,-0.1137884 0.30605,-0.1525855 0.71024,-0.1434638 0.36853,0.00832 0.63102,-0.03787 0.78402,-0.1379562 0.12651,-0.082752 0.24364,-0.24595 0.26031,-0.36266097 0.0167,-0.1167111 0.1075,-0.2268994 0.20187,-0.2448628 0.12616,-0.024016 0.16342,0.015968 0.1408,0.1510625 -0.0216,0.12899637 0.11602,0.29959757 0.46202,0.57272357 0.3098,0.2445461 0.4928,0.4609118 0.4928,0.5826507 0,0.1065077 -0.095,0.2720152 -0.2112,0.3677944 -0.2112,0.174144 -0.2112,0.174144 0.0138,0.3345637 0.12376,0.088231 0.36876,0.2864163 0.54444,0.4404122 0.20225,0.1772782 0.30909,0.3487548 0.29125,0.4674344 -0.0155,0.1030932 -0.0976,0.2308704 -0.18245,0.2839494 -0.10731,0.067132 -0.39303,0.059712 -0.93866,-0.024376 -0.43142,-0.066486 -0.89,-0.1051272 -1.01906,-0.08587 -0.17647,0.026331 -0.0426,0.1026813 0.53973,0.3078728 0.42592,0.1500724 0.77439,0.3077303 0.77439,0.3503508 0,0.04262 -0.26751,0.077492 -0.59448,0.077492 -0.32697,0 -0.61209,-0.016921 -0.6336,-0.037603 z m 0.75875,-1.97247 c 0,-0.064716 -0.25498,-0.1597988 -0.59749,-0.2228042 -0.32861,-0.06045 -0.68765,-0.1099096 -0.79786,-0.1099096 -0.11021,0 -0.20038,0.032249 -0.20038,0.071665 0,0.039416 0.30624,0.1784113 0.68053,0.3088787 0.44032,0.1534814 0.72195,0.2068306 0.79787,0.1511389 0.0645,-0.047341 0.11733,-0.1368769 0.11733,-0.1989688 z m -15.20632,1.5937238 c 0,-0.074368 0.29751,-0.3676172 0.66114,-0.6516647 0.36362,-0.2840475 0.90218,-0.6597942 1.19679,-0.8349929 0.29461,-0.1751986 0.7363,-0.3723868 0.98152,-0.438196 0.33612,-0.090202 0.44587,-0.164085 0.44587,-0.3001667 0,-0.1223667 0.1285,-0.2370422 0.39893,-0.3560036 0.21941,-0.096519 0.77909,-0.2416091 1.24372,-0.3224213 0.46464,-0.080812 0.98208,-0.147066 1.14986,-0.1472306 0.20873,-2.062e-4 0.30507,0.044092 0.30507,0.1402678 0,0.099079 -0.10036,0.1405672 -0.34002,0.1405672 -0.30115,0 -0.32577,0.017157 -0.2153,0.1500404 0.10485,0.1261297 0.25053,0.1395781 0.91415,0.08439 0.62044,-0.051597 0.78089,-0.040075 0.74954,0.053823 -0.0219,0.06571 -0.31198,0.2060394 -0.64453,0.3118424 -0.42624,0.1356097 -0.86084,0.1929715 -1.47294,0.1944107 -0.86831,0.00204 -0.86831,0.00204 -0.87125,0.283176 -0.002,0.1546239 -0.0544,0.3484517 -0.11729,0.4307284 -0.0629,0.082277 -0.24737,0.2182141 -0.40995,0.3020832 -0.16258,0.083869 -0.79579,0.2418937 -1.40713,0.3511656 -0.61135,0.1092719 -1.302,0.2618348 -1.53479,0.3390286 -0.23279,0.077194 -0.51681,0.1997558 -0.63116,0.2723601 -0.11434,0.072604 -0.25162,0.1320077 -0.30506,0.1320077 -0.0534,0 -0.0972,-0.060847 -0.0972,-0.1352146 z m 6.00744,-0.4248938 c 0,-0.050353 -0.0961,-0.1544494 -0.21368,-0.231325 -0.1883,-0.1231746 -0.27469,-0.1235633 -0.72746,-0.00327 -0.28259,0.075076 -0.65417,0.1370017 -0.82574,0.1376134 -0.24636,8.809e-4 -0.30532,-0.03322 -0.28045,-0.1621693 0.0173,-0.089805 0.13906,-0.2147502 0.27053,-0.2776562 0.13146,-0.062906 0.48998,-0.180506 0.79671,-0.2613332 0.30673,-0.080827 0.88505,-0.1729831 1.28515,-0.2047908 0.47691,-0.037914 0.72746,-0.024364 0.72746,0.03934 0,0.053444 -0.14662,0.1246325 -0.32582,0.1581955 -0.32582,0.061024 -0.32582,0.061024 -0.0313,0.3237779 0.19685,0.1755912 0.27477,0.3142414 0.2349,0.4179629 -0.0434,0.1128734 -0.17567,0.1552086 -0.485,0.1552086 -0.23394,0 -0.42534,-0.041198 -0.42534,-0.091551 z"
     id="path8744"
     inkscape:connector-curvature="0" />
</svg>
