<svg xmlns="http://www.w3.org/2000/svg" width="95" height="100"><path d="m45.1 100c1 0 2.6 0 3.5 0 0.9 0 0.1 0-1.8 0-1.9 0-2.7 0-1.7 0zm-18.5-5.5c-0.9-0.4-1.7-0.8-1.8-0.8-0.1 0 0 0.2 0.1 0.4 0.1 0.2 0.3 0.5 0.3 0.6 0 0.1-0.1 0.2-0.3 0.1-0.2 0-0.6-0.2-0.9-0.4-0.4-0.2-1.1-0.7-1.7-1.2-0.6-0.5-1.6-1.3-2.2-1.9-0.6-0.6-1.7-1.5-2.4-2.2-1.3-1.1-1.3-1.1-1.3-0.6 0 0.3-0.1 0.5-0.2 0.5-0.1 0-0.5-0.2-0.9-0.5-0.4-0.3-1.1-0.9-1.7-1.4-0.5-0.5-1.3-1.4-1.7-1.9-0.4-0.6-1.2-1.6-1.7-2.4-0.5-0.8-1.4-2.3-2-3.4-0.6-1.1-1.3-2.4-1.6-2.9-0.3-0.5-0.5-0.9-0.4-0.9 0 0 0.2 0 0.4 0.1 0.2 0.1 0.6 0.2 0.8 0.3 0.5 0.2 0.5 0.2 0.4-0.2 0-0.2-0.2-0.9-0.3-1.4-0.1-0.6-0.4-1.4-0.6-1.8-0.4-0.8-0.4-0.8-0.4-0.5 0 0.4-0.1 0.4-0.7 0.3-0.5 0-0.7-0.1-0.9-0.4-0.1-0.2-0.5-0.7-0.7-1.2-0.3-0.5-0.6-1.5-0.9-2.1-0.2-0.6-0.8-2.5-1.3-4.3-0.5-1.7-0.9-3.2-0.9-3.4 0-0.1 0-0.2 0.2-0.2 0.2 0 0.2-0.1 0.1-0.2 0-0.1-0.3-1-0.6-1.8-0.4-1.3-0.5-1.8-0.5-2.5 0-0.5 0.1-1.2 0.2-1.5 0.1-0.3 0.4-1 0.6-1.4 0.3-0.5 0.5-1 0.4-1.2 0-0.2-0.1-0.6-0.2-0.9-0.1-0.3-0.2-0.6-0.2-0.6-0.1 0-0.1 0.1-0.2 0.2 0 0.1-0.1 0.4-0.1 0.6 0 0.2 0 0.4-0.1 0.4-0.1 0-0.2-0.3-0.4-0.6C0.1 51.2 0 50.8 0 50.5 0 50.3 0.1 49.9 0.2 49.6c0.1-0.4 0.2-0.8 0.1-1.4 0-0.4 0-0.8 0-0.8 0.1 0 0.2 0.1 0.3 0.3 0.1 0.2 0.3 0.4 0.4 0.4 0.2 0.1 0.4 0 0.9-0.4 0.4-0.3 0.8-0.6 0.9-0.6 0.2 0 0.2-0.1 0.2-0.3 0-0.2-0.2-0.5-0.3-0.6-0.1-0.2-0.2-0.3-0.3-0.3-0.1 0-0.5 0.2-0.9 0.4-0.4 0.2-0.8 0.4-0.9 0.3-0.1 0-0.1-0.2-0.1-0.3 0-0.1 0.1-0.6 0.3-1.2 0.2-0.5 0.5-1.4 0.8-1.9 0.4-0.7 0.5-1 0.4-1.4 0-0.2-0.1-0.5-0.2-0.5-0.1 0-0.1-0.2 0-0.4 0.1-0.2 0.1-0.6 0.2-0.9 0.1-0.6 0.1-0.6-0.3 0.2-0.2 0.4-0.4 0.8-0.5 0.8-0.1 0-0.1-0.1-0.1-0.2 0-0.1 0.3-0.8 0.6-1.5 0.3-0.8 0.9-2.4 1.4-3.6 0.8-2.1 0.8-2.2 0.7-3-0.1-0.8-0.1-0.8 0.5-2.1 0.3-0.7 0.6-1.4 0.6-1.5 0-0.1 0.3-0.7 0.6-1.4 0.3-0.7 0.7-1.2 0.7-1.2 0.1 0 0.3 0.3 0.5 0.6 0.2 0.3 0.3 0.5 0.3 0.4 0-0.1 0.3-0.6 0.7-1.1 0.4-0.5 0.8-1.1 0.8-1.3 0-0.2 0-0.2 0-0.2 0 0.1-0.2 0.2-0.3 0.2-0.1 0-0.2-0.1-0.1-0.3 0-0.2 0.2-0.7 0.3-1.1 0.1-0.4 0.3-0.7 0.4-0.7 0.1 0 0.1 0.3 0.1 0.7 0 0.4 0.1 0.9 0.1 1 0.1 0.3 0.1 0.2 0.4-0.4 0.2-0.4 0.5-1.3 0.7-2.1 0.2-0.7 0.4-1.7 0.6-2.1 0.1-0.4 0.4-1.2 0.6-1.6 0.2-0.4 0.6-1.1 0.9-1.4 0.3-0.4 0.6-0.7 0.7-0.7 0.1 0 0.3 0.1 0.4 0.3 0.1 0.2 0.1 0.5 0 0.8-0.1 0.3-0.5 1-0.9 1.7-0.4 0.7-0.9 1.6-1.1 2.1-0.2 0.5-0.4 1.1-0.5 1.5 0 0.3 0 0.7 0.1 0.8 0.1 0.2 0.3 0.1 1-0.7 0.5-0.5 1-1.2 1.2-1.5 0.1-0.3 0.2-0.6 0.2-0.6 0 0-0.2 0-0.4 0.1-0.2 0.1-0.5 0.4-0.6 0.6-0.2 0.2-0.4 0.4-0.4 0.4-0.1 0-0.1-0.1-0.1-0.3 0-0.2 0.2-0.6 0.4-1 0.2-0.4 0.6-1.1 0.9-1.5 0.3-0.4 1.1-1.3 1.8-2 0.7-0.7 1.4-1.5 1.7-1.8 0.2-0.3 0.5-0.7 0.6-0.9 0.1-0.2 0.2-0.5 0.3-0.7 0.1-0.3 0-0.3-0.9 0.2-0.5 0.3-1.1 0.5-1.1 0.5-0.1 0-0.2 0-0.2-0.1 0-0.1 0.2-0.3 0.5-0.5 0.3-0.2 0.7-0.6 0.9-0.7 0.2-0.1 1-0.5 1.7-0.7 0.7-0.2 1.4-0.6 1.5-0.7 0.2-0.1 0.3-0.4 0.3-0.5 0-0.1 0.1-0.2 0.1-0.2 0.1 0 0.1 0.4 0.1 1.3-0.1 1.3-0.1 1.3 0.1 1 0.1-0.2 0.5-0.6 0.8-1 0.3-0.4 1.2-1.3 2-2 0.8-0.7 1.8-1.7 2.2-2.1 0.4-0.4 0.8-0.8 0.7-0.9-0.1-0.1-0.3 0-0.5 0.1-0.2 0.1-0.9 0.6-1.4 1.1-0.5 0.5-1 0.8-1 0.8-0.1 0-0.1-0.1-0.1-0.2 0-0.1 0.1-0.5 0.3-0.9 0.2-0.5 0.4-0.8 0.6-0.9 0.2-0.1 0.7-0.3 1.1-0.4 0.4-0.1 1.1-0.3 1.5-0.3 0.4 0 1.3-0.3 2-0.5 1.4-0.4 1.4-0.4 1.3-0.8-0.1-0.2-0.1-0.4-0.1-0.4 0-0.1 0.2-0.1 0.5-0.1 0.3 0 0.8-0.2 1.2-0.4 0.4-0.2 1.2-0.6 1.7-0.9 0.5-0.3 1.1-0.6 1.2-0.6 0.1 0 0.3 0.1 0.4 0.2 0.1 0.1 0.1 0.3 0.1 0.6-0.1 0.4-0.1 0.5-0.5 0.5-0.2 0-0.5 0-0.7 0.1-0.2 0.1-0.3 0.1-0.1 0.3 0.1 0.2 0.3 0.2 1.7-0.6 0.8-0.4 2-1 2.6-1.3 0.6-0.3 1.2-0.5 1.2-0.5 0.1 0 0.1 0.1 0.1 0.2 0 0.1 0.1 0.2 0.2 0.3 0.1 0 0.4 0.1 0.7 0.1 0.4 0 0.6 0.1 0.8 0.2 0.2 0.2 0.2 0.2 0.7-0.3 0.3-0.3 0.9-0.8 1.5-1.2 0.6-0.4 1.4-0.8 1.7-0.9 0.4-0.1 1-0.3 1.4-0.4 0.4-0.1 1.4-0.2 2.2-0.3 0.8-0.1 1.8-0.2 2.1-0.2 0.4 0 0.6 0 0.6 0.1 0 0.1-0.4 0.3-1.1 0.4-0.8 0.2-1.4 0.3-2 0.2-0.9 0-0.9 0-0.9 0.3 0 0.2-0.1 0.5-0.1 0.6-0.1 0.1-0.3 0.3-0.5 0.4-0.2 0.1-1 0.3-1.8 0.4-0.8 0.1-1.5 0.3-1.6 0.3-0.1 0-0.2 0.2-0.2 0.3 0 0.1-0.2 0.4-0.3 0.6-0.2 0.2-0.8 0.7-1.4 1.1-0.6 0.4-1.2 0.9-1.4 1-0.2 0.2-0.3 0.4-0.2 0.5 0 0.1 0.2 0.2 0.4 0.2 0.2 0 0.5-0.1 0.8-0.2 0.2-0.1 0.5-0.2 0.5-0.2 0 0 0 0.1 0 0.2 0 0.1-0.2 0.3-0.4 0.4-0.2 0.1-0.4 0.2-0.3 0.3 0 0 0.4 0 0.8-0.1 0.4-0.1 0.9-0.3 1.1-0.5 0.2-0.2 0.5-0.3 0.8-0.4 0.2 0 0.7 0 1 0 0.4 0.1 0.9 0.1 1.7 0 0.8-0.1 1.2-0.2 1.2-0.3 0-0.1 0.1-0.2 0.1-0.2 0.1 0 0.2 0 0.2 0.1 0.1 0.2 0.4 0.2 2.7 0.1 1.5 0 3.3 0 4.5 0.1 1 0.1 2.6 0.3 3.4 0.4 0.9 0.1 2.2 0.4 3 0.6 0.8 0.2 2.2 0.6 3.2 0.9 1.8 0.6 1.8 0.6 2.9 0.3 0.6-0.1 1.1-0.3 1.1-0.3 0 0-0.3-0.2-0.7-0.5-0.4-0.3-1-0.5-1.3-0.6-0.3-0.1-0.7-0.1-0.9-0.1-0.3 0-0.4 0-0.3-0.2 0-0.1 0.1-0.3 0.1-0.3 0-0.1 0.1-0.1 0.3 0 0.2 0 0.6 0 1-0.1 0.4-0.1 0.7-0.3 0.8-0.4 0.1-0.1 0.3-0.2 0.4-0.2 0.2 0 0-0.1-0.4-0.3-0.4-0.1-1-0.3-1.4-0.4-0.4-0.1-0.9-0.2-1.2-0.3-0.3-0.1-0.5-0.3-0.5-0.3 0-0.1 0.1-0.1 0.2-0.1 0.1 0 0.5 0.1 0.8 0.2 0.3 0.1 0.7 0.2 0.7 0.1 0.1 0 0.2-0.2 0.2-0.5 0.1-0.3 0.2-0.4 0.5-0.4 0.2 0 0.6 0 0.8 0.1 0.3 0.1 0.5 0.2 0.6 0.3 0.1 0.1 0.2 0.5 0.2 0.9 0.1 0.6 0.1 0.7-0.1 0.8-0.1 0 0 0.1 0.3 0.2 0.4 0.2 0.5 0.2 0.4 0 0-0.1 0-0.2 0.1-0.2 0.1 0 0.5 0.3 1 0.8 0.5 0.4 1.1 0.9 1.5 1.1 0.4 0.2 0.9 0.6 1.3 0.9 0.3 0.3 0.6 0.6 0.6 0.7 0 0.1-0.1 0.1-0.2 0.1-0.1 0-0.6-0.3-1.2-0.7-1-0.7-1-0.7-1-0.3 0 0.3 0.1 0.5 0.3 0.7 0.2 0.2 0.6 0.5 1 0.6 0.3 0.2 0.9 0.6 1.3 0.8 0.4 0.3 0.7 0.6 0.7 0.6 0 0.1-0.1 0.1-0.2 0.1-0.1 0-0.6-0.3-1.2-0.6-0.9-0.6-0.9-0.6-1-0.1 0 0.3-0.1 0.5-0.2 0.5-0.1 0-0.2-0.2-0.4-0.5-0.2-0.5-0.2-0.5-0.7-0.3-0.4 0.2-0.4 0.2 1 0.9 0.8 0.4 1.6 0.9 2 1.1 0.3 0.2 1.2 0.7 1.9 1.2 0.7 0.5 1.9 1.4 2.6 1.9 0.7 0.6 1.6 1.3 1.9 1.6 0.3 0.3 0.6 0.5 0.6 0.4 0-0.1 0.1-0.1 0.3-0.1 0.2 0 0.3 0 0.3-0.1 0 0-0.1-0.4-0.3-0.7-0.2-0.6-0.3-0.7-0.7-0.9-0.3-0.1-0.5-0.3-0.5-0.3 0-0.1 0.2-0.1 0.4-0.1 0.4 0 0.5 0.1 0.9 0.5 0.2 0.3 0.5 0.6 0.5 0.8 0 0.2 0 0.4 0 0.5 0 0.1 0 0.3 0.1 0.3 0.1 0.1 0.3 0.3 0.4 0.5 0.2 0.3 0.3 0.5 0.3 0.9 0 0.4 0.1 0.6 0.9 1.6 0.5 0.6 1.3 1.5 1.8 2.1 0.5 0.6 1.2 1.6 1.7 2.3 0.7 1 0.8 1.3 0.7 1.5-0.1 0.2-0.1 0.3 0.3 0.8 0.2 0.3 0.5 0.6 0.6 0.6 0.1 0 0.3 0.2 0.5 0.6 0.2 0.3 0.4 0.6 0.5 0.6 0.1 0 0.2 0.1 0.1 0.2 0 0.1 0.1 0.6 0.4 1.2 0.3 0.5 0.9 2.1 1.5 3.4 0.6 1.3 1.2 3 1.4 3.7 0.2 0.7 0.7 2.2 0.9 3.3 0.3 1.1 0.6 2.7 0.7 3.6 0.1 0.9 0.3 2.2 0.4 3 0.1 0.8 0.1 2.6 0.1 4.1 0 1.5-0.1 3.4-0.1 4.2-0.1 0.8-0.3 2.3-0.4 3.3-0.2 1-0.5 2.4-0.6 3.2-0.2 0.9-0.4 1.5-0.5 1.5-0.1 0-0.2 0-0.1-0.3 0-0.2 0.2-0.9 0.3-1.6 0.1-0.7 0.3-1.8 0.4-2.4 0.1-0.7 0.2-2.3 0.2-3.6 0-1.9 0-2.2-0.1-1.5-0.1 0.4-0.2 1.5-0.4 2.3-0.1 0.8-0.4 2.2-0.6 3.1-0.2 0.9-0.4 1.7-0.5 1.8-0.1 0.1-0.1 0.1-0.2 0.1 0 0 0.1-0.7 0.2-1.6 0.2-0.8 0.4-2.2 0.5-3.1 0.2-1.3 0.2-2.5 0.2-5.5 0-2.6-0.1-4.2-0.2-4.9-0.1-0.6-0.4-1.8-0.7-2.8-0.3-1-0.8-2.6-1.2-3.6-0.4-1-1-2.6-1.5-3.5-0.4-0.9-1.2-2.3-1.7-3.1-0.5-0.8-1.2-2-1.7-2.6-0.4-0.6-1.3-1.7-1.8-2.5-0.6-0.7-1.9-2.2-3-3.3-1.1-1.1-2.6-2.5-3.4-3.1-0.8-0.6-2.2-1.6-3.1-2.3-1-0.6-2.5-1.6-3.4-2.1-0.9-0.5-2.2-1.1-2.9-1.5-0.7-0.3-1.8-0.8-2.5-1-0.7-0.2-1.9-0.7-2.8-0.9-0.9-0.3-2.4-0.7-3.4-0.9-1-0.2-2.5-0.5-3.4-0.6-1.2-0.2-2.5-0.2-5.1-0.2-2.7 0-3.9 0.1-5.1 0.2-0.9 0.1-2.4 0.4-3.4 0.6-1 0.2-2.5 0.6-3.3 0.8-0.8 0.2-2.2 0.7-3 1-0.8 0.3-2.4 1-3.5 1.5-1.1 0.5-2.7 1.4-3.5 1.9-0.8 0.5-2.1 1.3-2.7 1.8-0.7 0.5-1.9 1.4-2.7 2.1-0.8 0.7-2.2 2-3.1 3-0.9 1-2.2 2.4-2.8 3.1-0.6 0.8-1.6 2.1-2.1 3-0.6 0.9-1.4 2.1-1.7 2.8-0.4 0.7-0.7 1.4-0.7 1.5 0 0.1 0 0.2-0.1 0.2-0.1 0-0.3 0.5-0.6 1.1-0.3 0.6-0.7 1.5-0.8 1.9-0.2 0.4-0.5 1.2-0.6 1.7-0.2 0.5-0.5 1.5-0.7 2.3-0.2 0.8-0.5 2.1-0.7 3-0.2 1.1-0.3 2.6-0.3 4.4 0 1.7 0 3.5 0.1 4.6 0.1 1 0.3 2.6 0.5 3.6 0.2 1 0.5 2.6 0.7 3.5 0.2 0.9 0.7 2.4 1 3.4 0.3 0.9 0.9 2.2 1.2 3 0.4 0.7 0.9 1.7 1.2 2.3 0.3 0.6 1 1.7 1.6 2.6 0.6 0.9 1.5 2.2 2.1 2.9 0.6 0.8 1.8 2.1 2.7 3.1 0.9 0.9 2.2 2.2 3 2.8 0.8 0.6 2 1.6 2.8 2.2 0.8 0.6 2.1 1.4 2.9 1.9 1.3 0.8 1.5 1 1.6 1.3 0 0.2 0.2 0.5 0.3 0.6 0.1 0.1 0.7 0.4 1.3 0.6 0.6 0.2 1.2 0.4 1.5 0.6 0.2 0.1 0.5 0.4 0.6 0.6 0.1 0.2 0.3 0.5 0.3 0.7 0.1 0.2 0 0.3 0 0.3-0.1 0-0.6-0.3-1.3-0.7-1-0.6-1.2-0.7-1.3-0.5-0.2 0.2-0.2 0.2 0 0.4 0.1 0.1 0.6 0.4 1.2 0.6 0.6 0.2 1.2 0.5 1.4 0.6 0.3 0.1 0.5 0.4 0.7 0.8 0.1 0.3 0.2 0.6 0.2 0.7 0 0.1-0.1 0.2-0.2 0.2-0.1 0-0.3-0.1-0.4-0.2-0.2-0.1-0.4-0.2-0.7-0.1-0.4 0.1-0.4 0.1 0.5 0.4 0.5 0.2 1 0.4 1.1 0.5 0.1 0.1 0.2 0.3 0.2 0.4 0 0.2-0.1 0.4-0.3 0.5-0.2 0.1-0.4 0.2-0.6 0.3-0.2 0-0.6 0-0.9-0.1-0.4-0.1-0.8-0.4-1.6-1.2-0.6-0.6-1.2-1.1-1.3-1.2-0.1-0.1-0.4-0.1-0.5-0.1-0.1 0-0.4 0.1-0.6 0.1-0.3 0.1-0.3 0.1 0 0.4 0.2 0.1 0.9 0.7 1.7 1.2 0.8 0.5 1.5 1.1 1.7 1.2 0.2 0.1 0.3 0.4 0.3 0.6 0 0.2-0.1 0.3-0.2 0.3-0.1 0-0.2-0.1-0.3-0.1 0-0.1-0.3-0.2-0.5-0.3-0.3-0.1-0.9-0.2-2-0.3-0.9-0.1-1.7-0.2-1.9-0.2-0.2-0.1-0.7-0.6-1.2-1.2-0.5-0.6-0.9-1.1-1-1.1-0.1 0-0.2 0-0.2 0.1 0 0 0.1 0.3 0.2 0.5 0.2 0.2 0.3 0.5 0.3 0.6 0 0.1 0 0.2-0.1 0.2-0.1 0-0.4-0.3-0.7-0.6-0.3-0.4-1.7-1.5-3.1-2.5-1.4-1-3.1-2.5-3.8-3.2-0.7-0.7-1.6-1.7-2-2.3-0.4-0.5-0.9-1.3-1.1-1.7-0.2-0.4-0.5-0.8-0.8-1-0.2-0.2-0.5-0.4-0.6-0.4-0.1-0.1-0.2 0-0.3 0.2-0.1 0.2-0.3 0.4-0.4 0.4-0.2 0-0.4 0-0.5 0-0.2-0.1-0.3-0.2-0.3-0.4 0-0.2-0.2-0.7-0.4-1.1-0.2-0.4-0.8-1.3-1.4-1.9-0.6-0.6-1.2-1.4-1.4-1.7-0.3-0.4-0.5-0.6-0.9-0.7-0.2 0-0.6 0-0.7 0.1-0.3 0.1-0.3 0.1 0.1 0.6 0.2 0.3 0.9 1 1.6 1.7 0.7 0.7 1.2 1.3 1.2 1.3 0 0-0.2 0.2-0.4 0.4-0.3 0.3-0.4 0.5-0.4 0.8 0 0.3 0.1 0.6 0.2 0.8 0.2 0.3 0.2 0.4 0.6 0.2 0.3-0.1 0.4-0.1 0.6 0 0.1 0.1 0.4 0.4 0.7 0.8 0.2 0.4 0.7 1.1 1 1.7 0.3 0.6 0.8 1.3 1.1 1.6 0.3 0.3 0.7 0.6 0.9 0.7 0.3 0.1 0.4 0.1 0.7 0 0.2-0.1 0.4-0.2 0.4-0.2 0 0 0.1 0.1 0.1 0.2 0 0.1-0.2 0.3-0.5 0.5-0.5 0.4-0.5 0.4 1.1 1.4 0.8 0.6 1.9 1.2 2.3 1.5 0.4 0.3 0.8 0.5 0.9 0.5 0.1 0 0.3 0.1 0.5 0.3 0.2 0.2 1.4 0.8 2.7 1.5 1.2 0.6 2.6 1.4 3.1 1.7 0.5 0.3 0.9 0.7 0.9 0.7 0 0.1-0.1 0.2-0.2 0.2-0.1 0-1-0.4-1.9-0.8zM9 42.5c0.1-0.2 0.3-1 0.4-1.6 0.1-0.7 0.4-2.1 0.7-3.1 0.3-1.1 0.8-2.6 1.1-3.5 0.3-0.9 0.8-2.1 1.1-2.7 0.3-0.6 0.9-1.9 1.3-2.8 0.7-1.3 0.8-1.8 0.8-2 0-0.3 0-0.5 0.3-0.8 0.2-0.2 0.4-0.4 0.5-0.4 0.1 0 0.3-0.1 0.4-0.3 0.2-0.3 0.2-0.3 0-0.2-0.1 0.1-0.4 0.1-0.5 0.1-0.2 0-0.3-0.1-0.3-0.4 0-0.3 0-0.4 0.3-0.5 0.2 0 0.5 0 0.7 0 0.4 0.1 0.4 0 0.9-0.7 0.3-0.4 0.5-0.8 0.5-0.8 0 0-0.3 0.1-0.6 0.3-0.3 0.1-0.6 0.3-0.6 0.3-0.1 0-0.1-0.1-0.1-0.3 0-0.2 0.2-0.5 0.3-0.7 0.1-0.2 0.5-0.4 0.8-0.5 0.3-0.1 0.7-0.2 0.8-0.2 0.1 0 0.4-0.1 0.5-0.3 0.2-0.2 0.7-0.7 1.2-1.3 0.5-0.6 0.9-1 0.9-1.1 0 0-0.1-0.1-0.3-0.1-0.2 0-0.5 0.1-1.1 0.6-0.5 0.3-0.9 0.6-1 0.6-0.1 0-0.1 0-0.1-0.1 0 0 0.1-0.2 0.3-0.4 0.3-0.3 0.3-0.3-0.3-0.2-0.4 0.1-0.6 0-0.7-0.1-0.1-0.1-0.1-0.3 0-0.5 0-0.2 0-0.3-0.1-0.3-0.1 0-0.3 0.2-0.4 0.4-0.2 0.2-0.4 0.6-0.5 0.9-0.1 0.3-0.2 0.7-0.1 0.8 0 0.1 0.2 0.2 0.4 0.2 0.2 0 0.3 0.1 0.3 0.2 0 0.1-0.8 1.3-1.8 2.7-1 1.4-2.1 3.1-2.4 3.7-0.4 0.6-0.9 1.5-1.2 2.1-0.3 0.6-0.6 1-0.7 1-0.1 0-0.2-0.2-0.2-0.4-0.1-0.2-0.2-0.4-0.2-0.4-0.1 0-0.2 0.2-0.4 0.4-0.1 0.2-0.4 0.7-0.5 1.1-0.2 0.5-0.3 1-0.3 1.7 0 0.5 0.1 1.3 0.2 1.7 0.1 0.6 0.1 0.7 0 0.8-0.1 0.1-0.3 0.1-0.4 0.1-0.2 0-0.3 0.1-0.5 0.4-0.2 0.2-0.3 0.7-0.4 0.9-0.1 0.4 0 0.9 0.2 2.3 0.2 1.4 0.3 2 0.2 2.8 0 0.6-0.1 1.2-0.2 1.4-0.1 0.3-0.1 0.3 0.2 0.1 0.2-0.1 0.4-0.4 0.5-0.6zm2.2-3.7c0.2-0.7 0.6-2.2 1-3.3 0.3-1.1 0.6-2.1 0.6-2.1 0 0-0.4 0.7-0.8 1.6-0.4 0.9-1 2.4-1.3 3.2-0.3 0.9-0.5 1.6-0.5 1.6 0 0.1 0.1 0.2 0.3 0.2 0.2 0.1 0.3 0.1 0.4 0.1 0 0 0.2-0.6 0.4-1.3zm3.7-8.8c0.2-0.5 0.4-0.9 0.4-1 0-0.1-0.3 0.2-0.5 0.5-0.2 0.4-0.4 0.8-0.4 1 0 0.2 0 0.3 0 0.3 0 0 0.3-0.4 0.5-0.8zm1.7-2.8c0-0.1-0.1-0.1-0.2 0-0.1 0.1-0.2 0.2-0.2 0.3 0 0.1 0.1 0.1 0.2 0 0.1-0.1 0.2-0.2 0.2-0.3zm0.6-0.8c0.1-0.1 0.1-0.3 0.1-0.3 0 0-0.1 0.1-0.3 0.3-0.1 0.1-0.2 0.3-0.1 0.3 0.1 0 0.2-0.1 0.3-0.3zm64.4-8.5c-0.1-0.2-0.4-0.4-0.6-0.5-0.4-0.1-0.4-0.1 0.1 0.4 0.3 0.3 0.6 0.5 0.6 0.5 0 0 0-0.2-0.1-0.4zm-58.7-2.8c0.4-0.3 1-0.7 1.4-0.9 0.4-0.2 0.6-0.3 0.4-0.4-0.1-0.1-0.1-0.2 0.1-0.4 0.2-0.2 0.2-0.3 0-0.2-0.1 0-0.6 0.2-1.2 0.4-0.7 0.2-1.1 0.5-1.3 0.7-0.2 0.2-0.6 0.8-0.9 1.3-0.3 0.5-0.6 1-0.7 1.2-0.1 0.2 0.2 0 0.6-0.4 0.4-0.4 1.1-1 1.6-1.3zm4.7-2c0.4-0.3 1.3-0.9 1.9-1.4 0.6-0.5 1.2-1 1.4-1.1 0.3-0.3 0.3-0.3-0.5-0.2-0.7 0.1-0.9 0.1-1.3 0.4-0.3 0.2-0.8 0.8-1.1 1.3-0.4 0.6-0.8 0.9-1 1-0.2 0.1-0.6 0.2-0.8 0.4-0.3 0.2-0.4 0.3-0.3 0.6 0.1 0.3 0.1 0.3 0.5 0 0.2-0.2 0.8-0.6 1.3-0.9zm6.4-4.5c-0.1 0-0.2-0.3-0.3-0.5-0.1-0.3-0.2-0.5-0.3-0.4-0.1 0-0.3 0.3-0.5 0.5-0.2 0.3-0.4 0.6-0.4 0.8-0.1 0.3-0.1 0.3 0.7 0 0.4-0.1 0.8-0.3 0.7-0.3zm36.5 0.4c0-0.1-0.1-0.4-0.2-0.6-0.2-0.2-0.4-0.4-0.5-0.5-0.3 0-0.3 0-0.1 0.6 0.2 0.5 0.3 0.6 0.5 0.6 0.2 0 0.3-0.1 0.3-0.2zM36 7.8c0.7-0.3 1.3-0.6 1.3-0.7 0-0.1-0.2-0.1-0.6-0.2-0.4 0-0.9 0-1.3 0-0.5 0.1-0.6 0.1-0.9 0.7-0.2 0.4-0.4 0.7-0.4 0.8 0 0.1 0.1 0.1 0.3 0 0.2 0 0.9-0.3 1.6-0.7zm2.4 0c1-0.4 1-0.4 0.3-0.4-0.4-0.1-0.8-0.1-0.9-0.2-0.1 0-0.2 0-0.2 0.1 0 0.1-0.2 0.3-0.4 0.5-0.2 0.2-0.4 0.4-0.4 0.4 0 0.1 0.1 0.1 0.2 0 0.1 0 0.7-0.2 1.3-0.4zM69.7 6.8c0 0-0.1-0.3-0.3-0.5-0.1-0.2-0.3-0.4-0.3-0.4 0 0 0 0.3 0 0.6 0.1 0.5 0.1 0.6 0.3 0.4 0.1-0.1 0.2-0.2 0.2-0.2zm-10.5 84.5c0-0.1 0.2-0.2 0.5-0.3 0.3 0 0.6-0.1 0.7-0.1 0.2 0 0.2 0 0.2 0.2 0 0.2-0.1 0.3-0.5 0.3-0.3 0-0.6 0.1-0.7 0.1-0.1 0-0.2-0.1-0.2-0.2zm-4.8-0.7c-0.2 0-0.5-0.2-0.6-0.3-0.1-0.2-0.4-0.3-0.7-0.3-0.4-0.1-0.7-0.2-0.8-0.4-0.2-0.2-0.4-0.3-1.7-0.4-0.8 0-2.1-0.2-2.9-0.3-0.8-0.1-1.6-0.3-1.7-0.3-0.1 0-0.2-0.1-0.2-0.2 0-0.1-0.2-0.2-0.5-0.2-0.3 0-0.7-0.1-0.8-0.1-0.2 0-0.5 0-0.8 0-0.3 0-0.6-0.1-0.6-0.2-0.1-0.1-0.5-0.3-0.9-0.4-0.4-0.2-1.5-0.6-2.4-1-0.9-0.4-2.3-1.1-3.2-1.5-0.9-0.5-2.2-1.2-2.9-1.7-0.7-0.5-1.9-1.3-2.6-1.9-0.7-0.6-2-1.7-2.7-2.5-0.7-0.7-1.8-1.9-2.4-2.7-0.6-0.7-1.5-2-2.1-2.9-0.6-0.9-1-1.7-1-1.8 0-0.1 0.1-0.2 0.2-0.2 0.1 0 0.4 0.4 0.7 0.8 0.3 0.5 0.8 1.2 1.2 1.7 0.4 0.5 1.1 1.3 1.6 1.8 0.9 1 0.9 1 0.3 0.2-0.3-0.4-1-1.4-1.5-2.2-0.5-0.8-0.9-1.4-0.9-1.5 0-0.1 0.1-0.1 0.2-0.1 0.1 0 0.3 0.2 0.4 0.5 0.1 0.3 0.7 1 1.2 1.7 0.5 0.7 1.4 1.8 2.1 2.5 0.6 0.7 1.7 1.8 2.5 2.5 0.7 0.7 1.8 1.5 2.3 1.8 0.5 0.3 1.8 1 2.7 1.5 1 0.5 2.4 1.1 3.1 1.4 0.7 0.3 1.9 0.6 2.6 0.8 0.7 0.2 2 0.5 2.9 0.7 0.9 0.2 2.4 0.4 3.3 0.5 1 0.1 2.4 0.1 3.6 0.1 1.1 0 2.5-0.2 3.2-0.3 0.7-0.1 1.8-0.3 2.5-0.5 0.7-0.1 2.1-0.5 3.1-0.9 1-0.3 2.6-1 3.6-1.5 1-0.5 2.3-1.2 2.9-1.6 0.6-0.4 1.7-1.2 2.4-1.7 0.7-0.5 2-1.7 2.9-2.5 0.9-0.9 2-2.1 2.6-2.8 0.5-0.7 1.3-1.8 1.8-2.4 0.4-0.7 1.1-1.8 1.4-2.4 0.3-0.7 0.9-1.8 1.2-2.5 0.3-0.7 0.8-2 1-2.7 0.2-0.8 0.6-1.9 0.7-2.5 0.1-0.6 0.3-1.7 0.4-2.3 0.1-0.6 0.2-2 0.3-3 0.1-1.2 0.1-2.5 0-3.6-0.1-1-0.2-2.5-0.4-3.3-0.1-0.8-0.4-2.2-0.6-3-0.2-0.8-0.5-1.7-0.6-1.9-0.1-0.2-0.2-0.4-0.2-0.5 0-0.1-0.3-0.8-0.6-1.6-0.3-0.8-0.9-2-1.3-2.8-0.4-0.8-1-1.8-1.4-2.3-0.4-0.5-1.2-1.5-1.8-2.2-0.6-0.7-1.7-1.8-2.3-2.4-0.7-0.6-1.8-1.5-2.6-2.1-0.8-0.6-1.9-1.3-2.5-1.7-0.6-0.4-1.7-1-2.5-1.4-0.8-0.4-2.1-0.9-2.9-1.2-0.9-0.3-2.2-0.7-3-0.8-0.8-0.2-2.1-0.4-2.8-0.5-0.7-0.1-2-0.2-2.8-0.3-0.8 0-2.3 0-3.2 0.1-1 0.1-2.3 0.2-2.9 0.3-0.6 0.1-1.8 0.3-2.5 0.5-1.1 0.3-1.4 0.3-1.6 0.2-0.1-0.1-0.3-0.1-0.4-0.1-0.1 0-0.5 0.2-0.9 0.4-0.4 0.2-0.9 0.4-1.1 0.4-0.2 0-0.6 0-0.8 0-0.2-0.1-0.4-0.2-0.4-0.3 0-0.1 0.2-0.2 0.8-0.4 0.5-0.1 0.9-0.2 1-0.3 0.1-0.1 0.1-0.1 0-0.3-0.1-0.1-0.4-0.1-1.1 0.2-0.5 0.2-1.1 0.4-1.2 0.4-0.1 0-0.5-0.1-0.7-0.1-0.3-0.1-0.5-0.2-0.5-0.3 0-0.1 0.2-0.2 0.4-0.2 0.2 0 0.4-0.2 0.4-0.3 0.1-0.1 0-0.1-0.5 0.1-0.3 0.1-0.7 0.2-0.9 0.2-0.2 0-0.4-0.1-0.4-0.2 0-0.1 0-0.4 0-0.5 0-0.1 0.2-0.4 0.5-0.6 0.3-0.3 0.5-0.3 1.6-0.3 0.8 0 1.3-0.1 1.5-0.2 0.2-0.1 0.4-0.3 0.4-0.4 0-0.1 0-0.2 0-0.3 0 0-0.5 0-1 0.1-0.5 0.1-1.3 0.2-1.8 0.2-0.7 0-0.9 0-0.9-0.1 0-0.1 0.2-0.2 0.4-0.3 0.3-0.1 0.7-0.3 1.2-0.8 0.4-0.4 1-0.8 1.2-0.9 0.3-0.1 0.6-0.2 1.3-0.1 0.6 0.1 1 0.1 1.1 0 0.1-0.1 0-0.2-0.3-0.2-0.2 0-0.5-0.1-0.5-0.2 0-0.1 0.2-0.1 0.5-0.1 0.3 0 1.7-0.1 3-0.3 1.5-0.2 3.1-0.3 4-0.3 0.9 0 1.9 0.1 2.3 0.1 0.4 0.1 1 0.2 1.3 0.3 0.4 0.1 0.8 0.2 1 0.1 0.4-0.1 0.4-0.1 0.4-0.5-0.1-0.3 0-0.5 0.2-0.6 0.2-0.1 0.3-0.1 0.6 0.1 0.2 0.1 0.5 0.3 0.7 0.4 0.2 0.1 1.1 0.2 2.1 0.3 1.5 0.1 1.8 0.1 2 0 0.1-0.1 0.3-0.3 0.3-0.4 0-0.1 0.1-0.2 0-0.3 0 0-0.8-0.1-1.7-0.1-1.7-0.1-1.7-0.1-1.7-0.5 0-0.3-0.1-0.5-0.5-0.7-0.2-0.2-0.5-0.3-0.5-0.3-0.1 0-0.1 0.1-0.1 0.3 0 0.2-0.1 0.3-0.4 0.3-0.2 0-1-0.1-1.7-0.3-0.8-0.2-1.7-0.4-2-0.4-0.4 0-0.7 0.1-0.8 0.3-0.1 0.1-0.2 0.3-0.2 0.4 0 0.1-0.1 0.1-0.1 0.1-0.1 0-0.1-0.2-0.1-0.4 0-0.4 0-0.4-0.3-0.4-0.1 0-0.9 0.1-1.7 0.3-0.8 0.2-2.6 0.7-4.1 1.1-1.5 0.5-3 0.9-3.4 0.9-0.6 0.1-0.7 0-0.6-0.1 0-0.1 0.6-0.4 1.3-0.6 0.7-0.2 1.3-0.5 1.3-0.5 0.1-0.1-0.1-0.1-0.3-0.2-0.2 0-0.4-0.2-0.4-0.2 0-0.1 0.2-0.2 0.3-0.3 0.2-0.1 0.6-0.2 0.8-0.3 0.3-0.1 1.5-0.2 2.8-0.3 1.3-0.1 2.7-0.2 3.2-0.2 0.9-0.1 0.9-0.1 0.7-0.3-0.1-0.1-0.2-0.3-0.2-0.4 0-0.1 0.3-0.2 0.7-0.3 0.5-0.1 1.3-0.1 2.5-0.1 1.2 0 2.1 0.2 3.1 0.4 0.8 0.2 2.4 0.6 3.8 1 1.3 0.4 2.4 0.8 2.4 0.8 0 0.1-0.2 0.2-0.5 0.3-0.3 0.1-0.5 0.2-0.5 0.3 0 0 0.4 0.3 1 0.7 0.5 0.3 1.1 0.6 1.3 0.7 0.2 0.1 0.4 0.1 0.4 0.1 0 0 0-0.1 0-0.3 0-0.2 0-0.3 0.4-0.5 0.4-0.2 0.5-0.2 1.2 0 0.4 0.1 1.3 0.4 1.9 0.8 0.7 0.3 2.1 1.1 3.3 1.8 1.1 0.7 2.1 1.3 2.1 1.4 0 0.1 0.6 0.5 1.4 0.9 0.8 0.4 1.5 0.8 1.7 1 0.2 0.1 0.4 0.6 0.6 1 0.2 0.4 0.4 1 0.4 1.2 0.1 0.4 0.2 0.6 0.6 0.9 0.3 0.2 0.6 0.4 0.6 0.4 0.1 0 0-0.1-0.2-0.3-0.2-0.2-0.3-0.4-0.2-0.4 0 0 0.3 0 0.6 0.1 0.4 0.1 0.6 0.3 1 0.9 0.3 0.4 0.6 0.8 0.8 0.9 0.2 0.1 0.3 0.3 0.3 0.3 0 0.1-0.1 0.1-0.4 0.1-0.2 0-0.4 0-0.5 0.1-0.1 0.1-0.2 0.5-0.2 0.8-0.1 0.6 0 0.7 0.2 0.9 0.2 0.1 0.3 0.2 0.4 0.1 0.1 0 0.2-0.3 0.3-0.7 0.1-0.4 0.3-0.6 0.4-0.6 0.2 0 0.3 0.2 0.7 1 0.3 0.6 0.6 1.3 0.6 1.6 0.1 0.4 0.3 0.6 0.6 0.7 0.2 0.1 0.4 0.2 0.4 0.3 0 0 0.1 0.2 0.3 0.4 0.2 0.3 0.2 0.3 0.1 0-0.1-0.2-0.1-0.4-0.1-0.5 0-0.1 0-0.3 0.1-0.3 0.1 0 0.3 0.5 0.6 1.2 0.3 0.6 0.8 1.8 1.2 2.7 0.5 1.1 0.8 1.6 1.1 1.9 0.3 0.3 0.5 0.6 0.8 1.3 0.2 0.5 0.3 0.9 0.3 1 0 0.1 0.1 0.2 0.2 0.3 0.1 0.1 0.3 0.6 0.5 1.2 0.2 0.5 0.3 1 0.3 1.1 0 0-0.3 0-0.5-0.1-0.4-0.1-0.4-0.1-0.4 0.4 0 0.3 0.1 0.8 0.2 1 0.1 0.3 0.2 0.4 0.3 0.4 0.1 0 0.3 0.1 0.4 0.4 0.1 0.2 0.3 0.5 0.3 0.7 0 0.2 0 0.3 0 0.4 0 0-0.3-0.1-0.6-0.3-0.3-0.2-0.5-0.4-0.5-0.3 0 0 0.1 0.3 0.3 0.6 0.1 0.3 0.6 1 0.9 1.7 0.4 0.6 0.8 1.6 1 2.1 0.2 0.5 0.3 1.2 0.3 1.5 0 0.5 0 0.6-0.2 0.6-0.1 0-0.3-0.1-0.4-0.2-0.1-0.1-0.3-0.6-0.5-1.1-0.1-0.5-0.4-1.3-0.6-1.8-0.2-0.5-0.5-1.2-0.7-1.4-0.2-0.3-0.4-0.5-0.5-0.5-0.1 0-0.1 0.3-0.1 0.7 0 0.4 0.1 0.9 0.1 1.3 0.1 0.3 0.2 0.6 0.2 0.6 0.1 0 0.1-0.1 0.1-0.2 0-0.1 0-0.4 0-0.6 0-0.3 0-0.5 0.1-0.5 0.1 0 0.2 0.1 0.3 0.3 0.1 0.2 0.2 0.6 0.3 0.9 0.1 0.3 0.2 1.6 0.3 2.8 0.1 1.4 0.2 2.4 0.3 2.8 0.1 0.3 0.3 0.6 0.3 0.6 0.1 0 0.1-0.1 0.1-0.1 0-0.1 0.1-0.4 0.2-0.8 0.1-0.4 0.3-0.7 0.3-0.7 0.1 0 0.1 0.3 0.1 0.8 0 0.5-0.2 1.1-0.4 1.7-0.2 0.4-0.4 1-0.5 1.2-0.1 0.3-0.1 0.4 0 0.6 0.1 0.1 0.2 0.3 0.2 0.3 0 0-0.1 0.1-0.2 0.1-0.1 0-0.4-0.3-0.7-0.6-0.5-0.6-0.5-0.6-0.5 2.6 0 1.7 0 3.1 0.1 3.1 0.1 0 0.2-0.3 0.2-0.5 0.1-0.3 0.1-0.8 0.1-1.3 0-0.6 0-0.8 0.2-0.8 0.1 0 0.3 0.2 0.4 0.5 0.1 0.3 0.2 0.6 0.2 0.8 0 0.1-0.1 0.5-0.3 0.9-0.2 0.4-0.5 0.9-0.7 1.2-0.2 0.3-0.6 0.9-0.8 1.4-0.3 0.7-0.4 0.8-0.2 0.9 0.1 0.1 0.2 0.2 0.2 0.2 0 0.1-0.1 0.3-0.3 0.6-0.2 0.2-0.4 0.9-0.6 1.5-0.1 0.6-0.3 1.2-0.4 1.3-0.1 0.2-0.2 0.3-0.3 0.3-0.1 0-0.3-0.1-0.4-0.3-0.2-0.2-0.3-0.2-0.3-0.1 0 0.1-0.3 0.8-0.5 1.6-0.4 1.1-0.5 1.4-0.7 1.4-0.1 0-0.4 0.2-0.7 0.3-0.2 0.2-0.5 0.3-0.6 0.3-0.1 0-0.2 0.3-0.3 0.8 0 0.5-0.2 1.2-0.3 1.6-0.1 0.4-0.4 1.1-0.6 1.6-0.3 0.4-0.9 1.3-1.4 2-0.5 0.6-1 1.2-1.1 1.2-0.1 0-0.2-0.1-0.2-0.1 0-0.1 0.2-0.4 0.3-0.7 0.2-0.3 0.4-0.7 0.6-0.9 0.1-0.2 0.4-0.4 0.5-0.5 0.3-0.2 0.3-0.2 0.1-0.4-0.1-0.1-0.2-0.3-0.2-0.6 0-0.4 0-0.4-0.3 0.2-0.1 0.3-0.5 0.9-0.7 1.2-0.3 0.4-0.6 0.7-0.7 0.7-0.1 0-0.2-0.1-0.2-0.1 0-0.1 0.1-0.2 0.1-0.2 0.1 0 0.1-0.1 0.1-0.2 0-0.1-0.3 0.1-0.5 0.4-0.3 0.3-0.6 0.6-0.7 0.6-0.1 0-0.1 0-0.1-0.1 0-0.1 0.2-0.5 0.4-0.9 0.3-0.5 0.6-1 0.9-1.1 0.2-0.2 0.4-0.3 0.4-0.4 0 0-0.1-0.1-0.2-0.2-0.1-0.1-0.2-0.3-0.2-0.4 0-0.2-0.1-0.1-0.2 0.2-0.1 0.3-0.5 0.8-0.7 1.1-0.3 0.3-0.5 0.6-0.6 0.7-0.1 0-0.2 0-0.1-0.3 0.1-0.3 0.1-0.3-0.3-0.3-0.2 0-0.4-0.1-0.4-0.2 0-0.1 0.1-0.3 0.2-0.5 0.1-0.2 0.3-0.3 0.5-0.2 0.2 0 0.4 0 0.6-0.3 0.2-0.2 0.4-0.5 0.5-0.7 0.1-0.2 0.3-0.4 0.4-0.4 0.1 0 0.2 0.1 0.2 0.2 0 0.2 0 0.2 0.1-0.1 0.1-0.2 0.4-0.7 0.8-1.3 0.4-0.5 0.8-1.3 0.9-1.6 0.1-0.3 0.3-0.6 0.3-0.6 0.1 0 0.1 0.2 0.1 0.6 0 0.3-0.1 1-0.2 1.6-0.1 0.6-0.3 1.2-0.4 1.3-0.1 0.2-0.2 0.4-0.1 0.5 0.1 0.1 0.3-0.1 0.7-0.8 0.6-0.9 0.6-1 0.6-1.7 0-0.4 0.1-1.1 0.2-1.7 0.1-0.8 0.2-1 0-1.2-0.1-0.3-0.1-0.3-0.4 0.1-0.2 0.2-0.3 0.4-0.3 0.5 0 0.1-0.1 0.2-0.1 0.2-0.1 0-0.1-0.2-0.1-0.3 0-0.3 0-0.3-0.3 0.2-0.2 0.3-0.3 0.6-0.3 0.8 0 0.2-0.1 0.4-0.1 0.5-0.1 0.1-0.3 0.4-0.5 0.5-0.2 0.1-0.6 0.5-0.9 0.9-0.3 0.4-0.5 0.8-0.5 0.9 0 0.1-0.1 0.2-0.2 0.2-0.1 0-0.7 0.5-1.2 1.1-0.5 0.6-1.6 1.7-2.4 2.4-0.8 0.7-2.1 1.7-3 2.3-0.9 0.6-2.2 1.4-3 1.8-0.8 0.4-1.5 0.9-1.6 1-0.1 0.1-0.3 0.4-0.4 0.7-0.3 0.5-0.3 0.5 0.1 0.4 0.2 0 0.7-0.2 1-0.4 0.3-0.1 0.6-0.4 0.7-0.5 0.1-0.1 0.3-0.2 0.3-0.2 0.1 0 0.1 0.1 0.1 0.3 0 0.2 0 0.3-0.1 0.3-0.1 0-0.2 0.2-0.3 0.3-0.1 0.2-0.3 0.5-0.3 0.8-0.1 0.3-0.1 0.4 0.1 0.4 0.1 0 0.5-0.3 0.8-0.5 0.4-0.2 0.8-0.5 1-0.5 0.2 0 0.4 0 0.4 0 0 0.1-0.3 0.3-0.6 0.4-0.3 0.2-0.6 0.3-0.6 0.4 0 0 0.1 0.1 0.1 0.2 0.1 0 0.1 0.2 0.1 0.4 0 0.3-0.1 0.4-0.5 0.6-0.3 0.1-0.6 0.2-0.6 0.2-0.1 0-0.3-0.2-0.6-0.4-0.3-0.2-0.5-0.4-0.6-0.4-0.1 0-0.1 0.1-0.1 0.2 0.1 0.2-0.1 0.2-0.8 0.2-0.5 0-1.1 0.1-1.4 0.2-0.3 0.1-0.8 0.2-1.3 0.2-0.4 0-0.8 0-0.8-0.1 0-0.1 0.4-0.2 0.9-0.3 0.9-0.2 0.9-0.2 0.7-0.4-0.1-0.1-0.3-0.2-0.5-0.2-0.1 0-0.5 0.1-0.9 0.2-0.3 0.1-0.9 0.2-1.2 0.2-0.3 0-0.6-0.1-0.6-0.1 0-0.1 0.1-0.1 0.2-0.2 0.1 0 0.5-0.1 0.8-0.2 0.3 0 0.7-0.1 0.7-0.2 0-0.1 0-0.2-0.1-0.3-0.1-0.1-0.2-0.2-0.2-0.3 0-0.1 0.2-0.1 0.4 0 0.3 0.1 0.4 0 0.5-0.1 0-0.1 0.1-0.2 0.1-0.3 0 0-0.1 0-0.2 0-0.1 0-0.7 0.2-1.3 0.4-0.6 0.2-1.9 0.5-2.8 0.6-0.9 0.2-2.4 0.3-3.4 0.4-0.9 0-1.6 0.1-1.5 0.1 0.1 0 0.2 0.1 0.2 0.2 0 0.1-0.1 0.1-0.1 0.2-0.1 0 0.1 0.2 0.4 0.3 0.4 0.2 0.6 0.2 0.8 0.1 0.2-0.1 0.4-0.1 0.4-0.1 0 0 0 0.2-0.1 0.3-0.1 0.1-0.3 0.2-0.4 0.2-0.2 0-0.5 0-0.7 0zm-0.8-1.1c0 0-0.2 0-0.3 0-0.2 0-0.3 0-0.2 0.1 0.1 0.1 0.3 0.1 0.3 0 0.1 0 0.2-0.1 0.2-0.1zm12.1-0.3c-0.2-0.1-0.4-0.2-0.4-0.2-0.1 0 0 0.1 0.2 0.2 0.2 0.1 0.4 0.2 0.4 0.2 0.1 0 0-0.1-0.2-0.2zm-1.1-0.6c0-0.1-0.1-0.2-0.3-0.3-0.2-0.1-0.4-0.1-0.4-0.1-0.1 0-0.1 0.1-0.1 0.2 0 0.1 0.1 0.2 0.2 0.2 0.1 0 0.3 0.1 0.4 0.1 0.2 0 0.3 0 0.3-0.1zm16.9-16.3c0.2-0.2 0.3-0.3 0.2-0.7 0-0.5 0-0.5-0.4 0.2-0.2 0.4-0.3 0.7-0.2 0.7 0.1 0 0.2-0.1 0.4-0.2zm1.4-1.1c0.2-0.2 0.4-0.6 0.4-0.7 0-0.1-0.1-0.4-0.1-0.6-0.1-0.4-0.1-0.4-0.4 0.1-0.1 0.3-0.3 0.8-0.5 1.2-0.2 0.6-0.2 0.7 0 0.5 0.1-0.1 0.4-0.3 0.6-0.6zm2.4 0c-0.1 0-0.2 0-0.3 0.1-0.1 0.1-0.1 0.2-0.1 0.3 0 0.1 0.1 0 0.3-0.1 0.2-0.2 0.2-0.3 0.1-0.3zm-1.4-1.9c-0.1-0.2-0.1-0.5-0.2-0.6-0.1-0.2-0.2-0.1-0.3 0.2-0.1 0.3-0.2 0.5-0.2 0.5 0 0 0.2 0.1 0.3 0.2 0.2 0.1 0.3 0.1 0.4 0.2 0 0 0-0.2 0-0.4zm0.5-4.2c0-0.6 0-1.2-0.1-1.4 0-0.2 0.1-0.6 0.2-0.9 0.2-0.4 0.2-0.4 0-0.5-0.2-0.1-0.2 0.1-0.4 1-0.1 0.6-0.2 1.6-0.3 2.2 0 0.6-0.1 1.2-0.1 1.3 0 0.1 0.1 0.1 0.4-0.2 0.4-0.4 0.4-0.4 0.4-1.4zm1.6-5.5c-0.1-0.4-0.2-0.9-0.3-1.2-0.2-0.6-0.2-0.6-0.2 0.8 0 0.8-0.1 1.6-0.2 1.8-0.1 0.2-0.1 0.6 0 0.8 0.1 0.4 0.1 0.4 0.5-0.5 0.4-0.9 0.4-1 0.3-1.6zm-0.9-4.1c0-0.4 0.1-0.8 0.2-0.8 0.1 0 0.1 0.1 0.1 0.2 0 0.1 0.1 0.2 0.1 0.2 0.1 0 0.2-0.1 0.2-0.1 0-0.1 0.2-0.1 0.3-0.1 0.1 0 0.3 0.1 0.4 0.2 0.2 0.2 0.2 0.2 0.2-0.1 0-0.2-0.1-0.5-0.2-0.8-0.1-0.3-0.3-0.6-0.4-0.6-0.1 0-0.2 0-0.2 0.1 0 0.1-0.1 0.2-0.2 0.2-0.1 0-0.3-0.8-0.6-2.2-0.2-1.2-0.6-2.8-0.8-3.6-0.2-0.8-0.4-1.7-0.5-2-0.1-0.3-0.2-0.6-0.1-0.6 0 0 0.2 0 0.4 0.1 0.4 0.1 0.4 0.1 0.3-0.2 0-0.2-0.2-0.6-0.3-0.8-0.1-0.3-0.5-0.8-0.8-1.1-0.3-0.3-0.7-0.7-1-0.8-0.2-0.1-0.4-0.3-0.4-0.5 0-0.1 0.1-0.3 0.2-0.3 0.2-0.1 0.2-0.2 0-0.7-0.2-0.4-0.4-0.7-0.8-1-0.3-0.2-0.9-0.7-1.3-1-0.5-0.3-1-0.9-1.3-1.2-0.4-0.6-0.5-0.6-0.5-0.3 0 0.2 0.1 0.6 0.5 1.1 0.3 0.4 0.6 0.8 0.6 0.8 0.1 0 0.1 0.1 0.1 0.1 0 0.1 0.3 0.7 0.7 1.3 0.4 0.6 0.9 1.6 1.2 2.2 0.3 0.6 0.7 1.5 0.9 2.1 0.2 0.6 0.6 1.7 0.9 2.5 0.3 0.9 0.6 1.5 0.7 1.6 0.2 0.1 0.2 0.3 0.2 0.8 0 0.5 0 0.6 0.1 0.5 0.1-0.1 0.3-0.2 0.4-0.2 0.1 0 0.3 0.2 0.3 0.3 0 0.1 0 0.4-0.2 0.5-0.1 0.1-0.3 0.2-0.3 0.2-0.1 0-0.1 0.3 0 0.7 0.1 0.7 0.1 0.7 0.2 0.3 0.1-0.2 0.2-0.4 0.2-0.5 0.1-0.1 0.2 0 0.3 0.1 0.1 0.1 0.2 0.4 0.2 0.6 0 0.2-0.1 0.6-0.3 1-0.3 0.5-0.3 0.7-0.2 1.8 0.1 1.1 0.1 1.2 0.3 1.1 0.2-0.1 0.2-0.3 0.3-0.9zm-3.2-7.7c-0.1-0.3-0.2-0.6-0.3-0.6-0.1-0.1-0.1 0 0 0.3 0 0.2 0.1 0.5 0.2 0.7 0.1 0.2 0.1 0.3 0.2 0.2 0 0 0-0.3-0.1-0.6zm-1.5-4.8c-0.2-0.6-0.7-1.6-1-2.1-0.3-0.6-0.5-1-0.5-1.1 0 0-0.1 0-0.2 0.1-0.1 0.1 0 0.5 0.9 2.1 0.6 1.1 1.1 2.1 1.1 2.1 0 0.1 0 0.1 0.1 0 0 0-0.1-0.6-0.4-1.2zm-22.8 47.5c0-0.1 0.3-0.2 0.6-0.3 0.3-0.1 0.7-0.1 0.7-0.1 0.1 0 0.1 0.1 0.1 0.2 0 0.1-0.1 0.2-0.2 0.3-0.1 0-0.4 0.1-0.7 0.1-0.3 0-0.6-0.1-0.6-0.1zm14.6-2.5c0-0.1-0.3-0.1-0.7 0-0.7 0.1-0.7 0.1-0.8-0.3 0-0.4-0.1-0.4-0.7-0.3-0.4 0-0.7 0-0.8-0.1 0-0.1-0.1-0.3 0-0.4 0-0.2 0.4-0.5 0.8-0.7 0.4-0.3 0.7-0.5 0.7-0.5 0 0-0.3 0.1-0.6 0.2-0.3 0.1-0.6 0.2-0.7 0.2-0.1 0-0.1-0.1-0.1-0.2 0-0.1 0.5-0.5 1.1-1 0.6-0.5 1.2-0.9 1.4-0.9 0.2 0 0.7-0.4 1.1-0.8 0.5-0.4 0.9-0.8 0.9-0.8 0.1 0 0.2 0.3 0.2 0.7 0 0.4 0 0.7-0.1 0.8-0.1 0.1-0.3 0.3-0.5 0.4-0.2 0.1-0.6 0.2-0.9 0.1-0.4 0-0.7 0-0.9 0.2-0.4 0.2-0.4 0.2-0.1 0.4 0.1 0.1 0.2 0.3 0.2 0.5 0 0.2 0 0.2 0.4-0.1 0.2-0.2 0.7-0.5 1.1-0.6 0.4-0.2 1-0.6 1.4-1 0.6-0.6 0.8-0.7 0.9-0.5 0.1 0.1 0.1 0.4 0.1 0.8 0 0.5 0 0.6-0.3 0.8-0.2 0.1-0.5 0.3-0.7 0.3-0.2 0-0.4 0-0.6 0-0.2-0.1-0.4-0.1-0.7 0.1-0.2 0.1-0.4 0.2-0.4 0.3 0 0 0.1 0.1 0.2 0.2 0.1 0 0.2 0.2 0.2 0.5 0 0.3-0.1 0.5-0.2 0.6-0.1 0.1-0.3 0.3-0.4 0.5-0.1 0.2-0.1 0.4-0.1 0.4 0.1 0 0.1 0.2 0.1 0.3 0 0.1-0.1 0.2-0.2 0.2-0.1 0-0.2 0-0.2-0.1zm-0.6-1.4c0.3-0.2 0.5-0.4 0.5-0.4 0 0-0.3 0.1-0.6 0.2-0.3 0.1-0.6 0.3-0.6 0.4 0 0.1 0.1 0.1 0.1 0.1 0.1 0 0.4-0.1 0.6-0.3zm18.5-25.5c0-0.1 0-0.2 0-0.3 0 0 0.1 0 0.2 0 0.1 0 0.1 0.2 0.1 0.3 0 0.1-0.1 0.2-0.1 0.2-0.1 0-0.2-0.1-0.2-0.2zM77.2 12.2c-0.4-0.2-0.7-0.5-0.7-0.6 0-0.1 0.2-0.1 0.4-0.1 0.2 0 0.5 0.1 0.8 0.4 0.2 0.2 0.4 0.5 0.4 0.6 0 0.1 0 0.2-0.1 0.2-0.1 0-0.4-0.2-0.8-0.4zm-0.9-2.1c-0.4-0.2-0.7-0.5-0.7-0.6 0-0.1 0.2-0.1 0.4-0.1 0.2 0 0.5 0.2 0.9 0.4 0.3 0.2 0.5 0.5 0.5 0.6 0 0.1-0.1 0.1-0.2 0.1-0.1 0-0.5-0.2-0.9-0.4zM19.3 9.4c0-0.2 0.1-0.3 0.1-0.3 0.1 0 0.1 0.1 0.1 0.3 0 0.2-0.1 0.3-0.1 0.3-0.1 0-0.1-0.1-0.1-0.3zm42-3.4c0 0-0.5-0.1-1.1-0.2-0.6-0.1-1.4-0.3-1.7-0.4-0.5-0.2-0.8-0.3-2-0.3-0.8 0-1.4-0.1-1.4-0.1 0-0.1 0.2-0.4 0.5-0.7 0.4-0.6 0.5-0.6 1-0.6 0.3 0 0.8 0.1 1 0.2 0.4 0.1 0.6 0.3 0.8 0.7 0.2 0.4 0.4 0.5 0.8 0.6 0.3 0.1 0.6 0.2 0.7 0.2 0.1 0 0.1-0.1 0.1-0.4 0-0.2 0-0.5 0.1-0.7 0.1-0.2 0.3-0.3 0.9-0.3 0.8 0 0.8 0-0.1-0.1-0.5-0.1-1.3-0.2-1.8-0.2-0.5-0.1-1-0.2-1.2-0.3-0.2-0.1-0.7-0.3-1.3-0.3-0.5-0.1-1.3-0.1-1.6-0.1-0.5 0.1-0.7 0-0.7-0.1 0-0.1 0.2-0.4 0.5-0.8 0.5-0.6 0.5-0.6 1.2-0.6 0.4 0 0.9 0.1 1 0.3 0.2 0.1 0.4 0.4 0.6 0.7 0.2 0.3 0.4 0.5 0.7 0.6 0.2 0 0.5 0.1 0.6 0.2 0.2 0.1 0.2 0 0.2-0.4 0-0.3 0-0.6 0.2-0.7 0.2-0.2 0.4-0.2 0.9-0.2 0.5 0 0.8-0.1 1-0.2 0.2-0.1 0.3-0.3 0.3-0.5 0-0.2 0.1-0.3 0.3-0.3 0.2 0 0.2 0 0.2 0.2 0 0.2 0.2 0.4 0.6 0.8 0.4 0.3 0.7 0.6 0.7 0.8 0 0.1-0.1 0.4-0.3 0.5-0.3 0.2-0.3 0.2 0 0.4 0.2 0.1 0.5 0.4 0.7 0.6 0.3 0.2 0.4 0.5 0.4 0.6 0 0.1-0.1 0.3-0.2 0.4-0.1 0.1-0.5 0.1-1.2 0-0.6-0.1-1.2-0.1-1.4-0.1-0.2 0-0.1 0.1 0.7 0.4 0.6 0.2 1 0.4 1 0.5 0 0.1-0.4 0.1-0.8 0.1-0.4 0-0.8 0-0.8-0.1zm1-2.6c0-0.1-0.3-0.2-0.8-0.3-0.4-0.1-0.9-0.1-1.1-0.1-0.1 0-0.3 0-0.3 0.1 0 0.1 0.4 0.2 0.9 0.4 0.6 0.2 1 0.3 1.1 0.2 0.1-0.1 0.2-0.2 0.2-0.3zm-20.2 2.1c0-0.1 0.4-0.5 0.9-0.9 0.5-0.4 1.2-0.9 1.6-1.1 0.4-0.2 1-0.5 1.3-0.6 0.4-0.1 0.6-0.2 0.6-0.4 0-0.2 0.2-0.3 0.5-0.5 0.3-0.1 1-0.3 1.7-0.4 0.6-0.1 1.3-0.2 1.5-0.2 0.3 0 0.4 0.1 0.4 0.2 0 0.1-0.1 0.2-0.5 0.2-0.4 0-0.4 0-0.3 0.2 0.1 0.2 0.3 0.2 1.2 0.1 0.8-0.1 1-0.1 1 0.1 0 0.1-0.4 0.3-0.9 0.4-0.6 0.2-1.1 0.3-2 0.3-1.2 0-1.2 0-1.2 0.4 0 0.2-0.1 0.5-0.2 0.6-0.1 0.1-0.3 0.3-0.5 0.4-0.2 0.1-1.1 0.3-1.9 0.5-0.8 0.1-1.7 0.4-2 0.5-0.3 0.1-0.7 0.3-0.8 0.4-0.2 0.1-0.3 0.2-0.4 0.2-0.1 0-0.1-0.1-0.1-0.2zm8-0.6c0-0.1-0.1-0.2-0.3-0.3-0.3-0.2-0.4-0.2-1 0-0.4 0.1-0.9 0.2-1.1 0.2-0.3 0-0.4 0-0.4-0.2 0-0.1 0.2-0.3 0.4-0.4 0.2-0.1 0.7-0.2 1.1-0.4 0.4-0.1 1.2-0.2 1.7-0.3 0.6-0.1 1 0 1 0.1 0 0.1-0.2 0.2-0.4 0.2-0.4 0.1-0.4 0.1 0 0.4 0.3 0.2 0.4 0.4 0.3 0.6-0.1 0.2-0.2 0.2-0.6 0.2-0.3 0-0.6-0.1-0.6-0.1z" style="fill:none;stroke-width:0.1"/></svg>