<?xml version="1.0" encoding="UTF-8" standalone="no"?>
<!-- Created with Inkscape (http://www.inkscape.org/) -->

<svg
   xmlns:dc="http://purl.org/dc/elements/1.1/"
   xmlns:cc="http://creativecommons.org/ns#"
   xmlns:rdf="http://www.w3.org/1999/02/22-rdf-syntax-ns#"
   xmlns:svg="http://www.w3.org/2000/svg"
   xmlns="http://www.w3.org/2000/svg"
   xmlns:sodipodi="http://sodipodi.sourceforge.net/DTD/sodipodi-0.dtd"
   xmlns:inkscape="http://www.inkscape.org/namespaces/inkscape"
   id="svg4974"
   version="1.1"
   inkscape:version="0.92.0 r15299"
   width="95.000351"
   height="99.999977"
   sodipodi:docname="encore-logo-wht.svg"
   style="enable-background:new">
  <metadata
     id="metadata4980">
    <rdf:RDF>
      <cc:Work
         rdf:about="">
        <dc:format>image/svg+xml</dc:format>
        <dc:type
           rdf:resource="http://purl.org/dc/dcmitype/StillImage" />
        <dc:title></dc:title>
      </cc:Work>
    </rdf:RDF>
  </metadata>
  <defs
     id="defs4978" />
  <sodipodi:namedview
     pagecolor="#ffffff"
     bordercolor="#666666"
     borderopacity="1"
     objecttolerance="10"
     gridtolerance="10"
     guidetolerance="10"
     inkscape:pageopacity="0"
     inkscape:pageshadow="2"
     inkscape:window-width="1536"
     inkscape:window-height="803"
     id="namedview4976"
     showgrid="false"
     inkscape:zoom="2.3279902"
     inkscape:cx="-1.0433662"
     inkscape:cy="55.891755"
     inkscape:window-x="-8"
     inkscape:window-y="-8"
     inkscape:window-maximized="1"
     inkscape:current-layer="svg4974"
     fit-margin-top="0"
     fit-margin-left="0"
     fit-margin-right="0"
     fit-margin-bottom="0" />
  <path
     inkscape:connector-curvature="0"
     id="path8770"
     d="m 45.095026,99.961255 c 0.98103,-0.0212 2.55152,-0.0212 3.48998,1.2e-4 0.93846,0.0213 0.1358,0.03869 -1.78369,0.0386 -1.91949,-7e-5 -2.68732,-0.0175 -1.70629,-0.0387 z m -18.53862,-5.495371 c -0.90341,-0.449031 -1.70131,-0.81642 -1.77312,-0.81642 -0.0718,0 -0.0133,0.201056 0.13106,0.446791 0.14387,0.245734 0.26159,0.532149 0.26159,0.636478 0,0.137076 -0.0778,0.167134 -0.28045,0.108365 -0.15424,-0.04473 -0.57443,-0.222028 -0.93378,-0.394004 -0.35934,-0.171976 -1.14457,-0.69815 -1.74498,-1.169275 -0.60041,-0.471127 -1.59646,-1.321805 -2.21343,-1.890397 -0.61698,-0.568591 -1.71072,-1.547397 -2.43052,-2.175126 -1.30875,-1.141322 -1.30875,-1.141322 -1.34707,-0.612933 -0.0235,0.324706 -0.0997,0.528389 -0.19747,0.528389 -0.0875,0 -0.49094,-0.231301 -0.89649,-0.514003 -0.40554,-0.282704 -1.14901,-0.918569 -1.65216,-1.413034 -0.50315,-0.494467 -1.27013,-1.35385 -1.70441,-1.909744 -0.43427,-0.555892 -1.17827,-1.629797 -1.65332,-2.386455 -0.4750599,-0.756654 -1.3567499,-2.28008 -1.9593099,-3.385386 -0.60256,-1.105306 -1.31936,-2.393035 -1.59286,-2.86162 -0.27352,-0.468584 -0.46463,-0.8849 -0.42468,-0.925144 0.04,-0.04025 0.22972,-0.01562 0.42173,0.05474 0.19202,0.07035 0.56456,0.221088 0.82785,0.334976 0.47872,0.207072 0.47872,0.207072 0.39437,-0.207584 -0.0463,-0.228065 -0.19313,-0.866832 -0.32609,-1.419486 -0.13298,-0.552652 -0.41948,-1.372211 -0.63668,-1.821242 -0.36336,-0.751219 -0.39872,-0.787634 -0.44278,-0.455972 -0.0469,0.35321 -0.0607,0.35921 -0.68459,0.298794 -0.47376,-0.04588 -0.69822,-0.138129 -0.87696,-0.360447 -0.13212,-0.164336 -0.45172,-0.722705 -0.71021,-1.240816 -0.25849,-0.518113 -0.64909,-1.450715 -0.86799,-2.07245 -0.21891,-0.621734 -0.79256,-2.54346 -1.27479,-4.270502 -0.48223,-1.72704 -0.90509,-3.238986 -0.93968,-3.359878 -0.0426,-0.148836 0.007,-0.219805 0.15195,-0.219805 0.15554,0 0.19017,-0.06066 0.12548,-0.219805 -0.0491,-0.120897 -0.33558002,-0.952229 -0.63654002,-1.847414 -0.4444,-1.321833 -0.5472,-1.795919 -0.5472,-2.523499 0,-0.492739 0.0779,-1.156635 0.17305,-1.475324 0.0952,-0.318691 0.3873,-0.963539 0.64916,-1.432997 0.26976002,-0.48362 0.46305002,-0.989653 0.44595002,-1.167568 -0.0166,-0.172703 -0.0899,-0.582483 -0.16302,-0.910621 -0.073,-0.328137 -0.17736,-0.596613 -0.23175002,-0.596613 -0.0544,0 -0.13292,0.0894 -0.17453,0.198677 -0.0416,0.109276 -0.0757,0.391879 -0.0757,0.628015 0,0.236135 -0.0449,0.429336 -0.0998,0.429336 -0.0549,0 -0.22316,-0.255858 -0.37392,-0.568572 C 0.12154608,51.193594 -9.9392276e-4,50.755553 6.0772417e-6,50.532885 9.5607724e-4,50.310217 0.08990608,49.87369 0.19764608,49.562822 c 0.14235,-0.410845 0.17318,-0.77961 0.11291,-1.350231 -0.0475,-0.449413 -0.0344,-0.785019 0.0306,-0.785019 0.0624,0 0.19087,0.145679 0.28543,0.323733 0.0945,0.178052 0.26433,0.373563 0.37726002,0.434467 0.1541,0.0831 0.36779,-0.02902 0.85645,-0.449336 0.35811,-0.308039 0.75978,-0.56007 0.89259,-0.56007 0.19962,0 0.22771,-0.05989 0.16196,-0.345408 -0.0437,-0.189975 -0.15828,-0.472582 -0.25452,-0.628015 -0.0963,-0.155434 -0.23211,-0.282606 -0.30189,-0.282606 -0.0697,0 -0.45902,0.174198 -0.86499,0.387106 -0.40596,0.21291 -0.79629002,0.350877 -0.86739002,0.306596 -0.0711,-0.04428 -0.12928,-0.166596 -0.12928,-0.271808 0,-0.105215 0.1476,-0.624699 0.328,-1.154416 0.18039002,-0.529714 0.53787002,-1.387028 0.79439002,-1.905141 0.36055,-0.728248 0.45192,-1.041784 0.40263,-1.381632 -0.0351,-0.241787 -0.11433,-0.472562 -0.17601,-0.512833 -0.0663,-0.04323 -0.0667,-0.197617 -8.7e-4,-0.37681 0.0612,-0.166973 0.14574,-0.557932 0.18775,-0.8688 0.0763,-0.565213 0.0763,-0.565213 -0.32014,0.219806 -0.21806,0.43176 -0.4406,0.785019 -0.49451,0.785019 -0.0539,0 -0.098,-0.07644 -0.098,-0.169851 0,-0.09342 0.25622,-0.785805 0.5694,-1.538637 0.31318,-0.752832 0.9357,-2.353112 1.38338,-3.556178 0.77831,-2.091583 0.81034,-2.221554 0.73109,-2.967295 -0.0802,-0.754976 -0.0627,-0.821744 0.54857,-2.089189 0.34731,-0.720108 0.63146,-1.404716 0.63146,-1.521351 0,-0.116635 0.26506,-0.749762 0.58902,-1.406953 0.32396,-0.657189 0.65942,-1.194889 0.74546,-1.194889 0.0861,0 0.29514,0.268476 0.46464,0.596615 0.1695,0.328138 0.3108,0.529441 0.31399,0.447341 0.003,-0.08209 0.33487,-0.590792 0.73706,-1.130428 0.4022,-0.539634 0.76626,-1.122457 0.80903,-1.29516 0.0428,-0.172704 0.0455,-0.243356 0.007,-0.157004 -0.0393,0.08636 -0.1571,0.157004 -0.26164,0.157004 -0.14353,0 -0.17065,-0.08461 -0.11075,-0.345409 0.0437,-0.189974 0.19681,-0.670406 0.34031,-1.067625 0.1435,-0.39722 0.31016,-0.722217 0.37037,-0.722217 0.0602,0 0.11499,0.324997 0.1219,0.722217 0.007,0.397219 0.0506,0.859901 0.0972,1.028183 0.0761,0.274721 0.11804,0.229826 0.41003,-0.43961 0.17889,-0.410067 0.4748699,-1.339051 0.6577499,-2.064408 0.18289,-0.725358 0.44932,-1.68622 0.59211,-2.135251 0.14279,-0.44903 0.42611,-1.155547 0.62964,-1.570037 0.20351,-0.41449 0.5901,-1.050354 0.85909,-1.413033 0.30403,-0.409926 0.58303,-0.659416 0.7374,-0.659416 0.14786,0 0.29463,0.122706 0.36278,0.303318 0.0722,0.191467 0.0661,0.480942 -0.0167,0.785016 -0.0721,0.264936 -0.45821,1.046915 -0.85796,1.737731 -0.39975,0.690817 -0.90742,1.645533 -1.12815,2.121594 -0.22073,0.476062 -0.42688,1.133503 -0.45811,1.460983 -0.0312,0.327479 -0.004,0.689996 0.0599,0.80559 0.0985,0.177507 0.25501,0.06345 1.00652,-0.733777 0.48939,-0.519174 1.00817,-1.177758 1.15283,-1.463523 0.14467,-0.285764 0.23284,-0.55001 0.19591,-0.587213 -0.0369,-0.03721 -0.20535,0.02363 -0.37431,0.135189 -0.16896,0.111555 -0.45781,0.401823 -0.64189,0.64503 -0.1841,0.243206 -0.38414,0.442194 -0.44456,0.442194 -0.0604,0 -0.10915,-0.127169 -0.10822,-0.282607 8.8e-4,-0.155433 0.16381,-0.60491 0.36207,-0.998837 0.19828,-0.393927 0.62268,-1.059586 0.94313,-1.479246 0.32044,-0.41966 1.12576,-1.340827 1.78957,-2.047036 0.66381,-0.70621 1.40958,-1.538364 1.65725,-1.849232 0.24769,-0.310867 0.53434,-0.734777 0.63702,-0.942022 0.10265,-0.207245 0.22745,-0.509782 0.27727,-0.672307 0.0862,-0.281282 0.0433,-0.270707 -0.89232,0.219806 -0.54061,0.283416 -1.05101,0.515303 -1.13424,0.515303 -0.0833,0 -0.15134,-0.04505 -0.15134,-0.100108 0,-0.05506 0.21033,-0.300629 0.46739,-0.545705 0.25708,-0.245076 0.66934,-0.566788 0.91614,-0.714917 0.2468,-0.148128 1.00401,-0.471619 1.68267,-0.718869 0.67867,-0.247251 1.36015,-0.568599 1.51439,-0.714103 0.15425,-0.145505 0.28045,-0.367745 0.28045,-0.493865 0,-0.126124 0.0621,-0.229312 0.13808,-0.229312 0.0972,0 0.11487,0.381742 0.0596,1.28743 -0.0765,1.255511 -0.073,1.279724 0.14237,0.976605 0.1215,-0.170955 0.48132,-0.627642 0.79975,-1.014861 0.31842,-0.38722 1.21359,-1.292992 1.98927,-2.012829 0.77567,-0.7198362 1.77626,-1.6582322 2.22353,-2.085322 0.44726,-0.4270901 0.76982,-0.8202607 0.71677,-0.8737125 -0.0531,-0.053452 -0.29945,0.012988 -0.54759,0.1476459 -0.24812,0.134657 -0.85695,0.6267399 -1.35295,1.0935174 -0.496,0.466778 -0.96384,0.848687 -1.03965,0.848687 -0.0758,0 -0.13782,-0.07975 -0.13782,-0.177228 0,-0.09748 0.12124,-0.496372 0.26932,-0.8864374 0.18099,-0.4765887 0.37518,-0.7630294 0.59205,-0.8732933 0.17751,-0.090246 0.6873,-0.2799998 1.13291,-0.421675 0.4456,-0.1416753 1.0992,-0.2918949 1.45245,-0.3338211 0.35326,-0.041926 1.26278,-0.2742299 2.02118,-0.51623 1.36732,-0.4363057 1.37789,-0.442679 1.25852,-0.7590848 -0.0663,-0.1754967 -0.12044,-0.3719267 -0.12044,-0.4365112 0,-0.064584 0.21033,-0.1174706 0.4674,-0.1175256 0.25998,-5.52e-5 0.79929,-0.1614085 1.21526,-0.3635908 0.41133,-0.1999206 1.19521,-0.623786 1.74197,-0.9419233 0.54676,-0.3181372 1.08677,-0.5784314 1.2,-0.5784314 0.11326,0 0.27218,0.080498 0.35321,0.1788834 0.092,0.1116778 0.11592,0.3476183 0.0637,0.6280148 -0.0741,0.3979579 -0.12814,0.4505579 -0.47483,0.4616516 -0.21517,0.00689 -0.5199,0.049277 -0.67718,0.094203 -0.24729,0.070636 -0.26414,0.1110425 -0.12468,0.2987834 0.1487,0.2001259 0.27826,0.1566462 1.65702,-0.5560699 0.82264,-0.425244 1.9893,-0.9892405 2.59256,-1.2533257 0.60326,-0.264085 1.15014,-0.4801548 1.21525,-0.4801548 0.0651,0 0.11845,0.07873 0.11845,0.1749665 0,0.096232 0.0887,0.2092741 0.19716,0.2512059 0.10849,0.041932 0.44497,0.07624 0.74786,0.07624 0.37456,0 0.62633,0.076216 0.78717,0.2383088 0.23222,0.2340098 0.24516,0.2292963 0.7167,-0.261287 0.26411,-0.2747777 0.94998,-0.8158602 1.52415,-1.2024062 0.57417,-0.386545 1.35942,-0.807827 1.745,-0.93618201 0.38557,-0.128355 1.03757,-0.311434 1.44889,-0.406842 0.41132,-0.09541 1.42091,-0.235667 2.24355,-0.311685 0.82265,-0.07602 1.76213,-0.16295 2.08776,-0.193181 0.42313,-0.03928 0.59205,-0.0096 0.59205,0.103971 0,0.09459 -0.44553,0.274685 -1.10048,0.444841 -0.78603,0.204208 -1.35596,0.273746 -1.99455,0.243355 -0.89408,-0.04255 -0.89408,-0.04255 -0.8938,0.31111701 1.3e-4,0.194516 -0.0575,0.462407 -0.12801,0.595314 -0.0706,0.132907 -0.28407,0.322802 -0.47441,0.42199 -0.19034,0.09919 -0.98795,0.300405 -1.77245,0.447149 -0.78451,0.1467447 -1.52454,0.2960702 -1.6445,0.3318351 -0.12004,0.035765 -0.21813,0.1665533 -0.21813,0.2906412 0,0.1240878 -0.15425,0.3819866 -0.34277,0.5731086 -0.18851,0.1911219 -0.81952,0.6726309 -1.40221,1.0700198 -0.58271,0.3973891 -1.19276,0.8675829 -1.35568,1.0448751 -0.17151,0.1866352 -0.26499,0.4043618 -0.22203,0.5171451 0.0408,0.1071368 0.21795,0.1947952 0.3937,0.1947952 0.17573,0 0.52087,-0.084782 0.76697,-0.1884044 0.24611,-0.1036226 0.46866,-0.1884045 0.49457,-0.1884045 0.0259,0 0.0471,0.072596 0.0471,0.1613235 0,0.088728 -0.17214,0.263799 -0.38256,0.3890469 -0.2104,0.1252472 -0.36226,0.2481728 -0.33745,0.2731668 0.0248,0.024994 0.37682,-0.041851 0.78227,-0.1485442 0.40544,-0.1066931 0.88982,-0.3234264 1.0764,-0.4816292 0.18658,-0.1582029 0.53407,-0.3244758 0.77221,-0.3694954 0.23814,-0.04502 0.67683,-0.026178 0.97488,0.04187 0.37107,0.084719 0.9054,0.077775 1.69485,-0.022024 0.75578,-0.095542 1.15293,-0.1993408 1.15293,-0.3013265 0,-0.085568 0.0635,-0.1951107 0.14106,-0.2434274 0.0776,-0.048317 0.19003,3.266e-4 0.24988,0.1081005 0.0952,0.1713432 0.43351,0.1870784 2.69455,0.1253088 1.54502,-0.042209 3.33823,-0.01091 4.45537,0.077761 1.02829,0.081621 2.57074,0.2610678 3.42766,0.3987714 0.85691,0.1377034 2.20304,0.3952797 2.99141,0.5723915 0.78836,0.1771121 2.22977,0.5705732 3.20316,0.8743582 1.76977,0.5523365 1.76977,0.5523365 2.86676,0.2903802 0.60335,-0.144076 1.11277,-0.2773496 1.13205,-0.2961635 0.0193,-0.018818 -0.30891,-0.2406963 -0.72933,-0.4930675 -0.42042,-0.2523711 -0.99707,-0.512992 -1.28148,-0.5791575 -0.28439,-0.066166 -0.70536,-0.1216833 -0.93549,-0.1233721 -0.32969,-0.00241 -0.40238,-0.045202 -0.34277,-0.2017475 0.0416,-0.109272 0.0757,-0.2516528 0.0757,-0.3164005 0,-0.064748 0.13923,-0.082509 0.30941,-0.03947 0.17017,0.04304 0.60486,0.0072 0.96597,-0.079648 0.36112,-0.086847 0.72987,-0.2622875 0.81945,-0.3898686 0.0896,-0.1275806 0.28589,-0.2360956 0.43624,-0.241143 0.15901,-0.00533 -0.0134,-0.1135798 -0.41216,-0.2587463 -0.37703,-0.1372628 -0.99401,-0.3013206 -1.37106,-0.3645729 -0.37704,-0.063252 -0.89586,-0.2097466 -1.15294,-0.3255429 -0.25708,-0.1157966 -0.46741,-0.2584762 -0.46741,-0.3170661 0,-0.058589 0.0981,-0.1059158 0.21813,-0.1051679 0.12004,7.535e-4 0.49106,0.084804 0.82466,0.1867917 0.3336,0.1019873 0.65522,0.1551146 0.71473,0.1180604 0.0595,-0.037054 0.15436,-0.2482841 0.21082,-0.4693984 0.0819,-0.3209427 0.17617,-0.410609 0.46713,-0.4445808 0.20046,-0.023405 0.56917,0.019246 0.81935,0.094781 0.25019,0.075533 0.51222,0.2077262 0.58229,0.2937604 0.0701,0.086035 0.16667,0.476152 0.21466,0.8669281 0.0726,0.5914966 0.0543,0.7177238 -0.10915,0.7536179 -0.11818,0.025947 -0.003,0.1254013 0.28977,0.2497516 0.39129,0.1663257 0.47312,0.1724514 0.4194,0.031401 -0.0367,-0.096379 -6.6e-4,-0.1752353 0.0801,-0.1752353 0.0807,0 0.52143,0.3377726 0.97932,0.7506058 0.45788,0.4128328 1.12588,0.8977724 1.48444,1.0776432 0.35858,0.1798707 0.9335,0.5821133 1.27759,0.8938725 0.3441,0.3117593 0.62564,0.6181185 0.62564,0.680798 0,0.06268 -0.0706,0.113963 -0.15692,0.113963 -0.0863,0 -0.61915,-0.3118537 -1.1841,-0.6930087 -1.02762,-0.6930088 -1.02762,-0.6930088 -1.02762,-0.2747049 0,0.2940488 0.10185,0.5145494 0.34276,0.7423129 0.18852,0.1782047 0.62321,0.4655417 0.96597,0.6385257 0.34277,0.172985 0.91768,0.551256 1.27759,0.8406022 0.3599,0.289346 0.65437,0.577798 0.65437,0.641003 0,0.06321 -0.0981,0.114771 -0.21813,0.114597 -0.12004,-1.24e-4 -0.63878,-0.282875 -1.15293,-0.628225 -0.93482,-0.6279072 -0.93482,-0.6279072 -0.97315,-0.125279 -0.0211,0.276443 -0.09,0.502624 -0.15327,0.502624 -0.0632,0 -0.22627,-0.219921 -0.36235,-0.488712 -0.24742,-0.4887092 -0.24742,-0.4887092 -0.66784,-0.2826052 -0.42042,0.2061032 -0.42042,0.2061032 0.96158,0.9460232 0.7601,0.406958 1.63916,0.887389 1.95347,1.067626 0.31432,0.180238 1.16139,0.733145 1.88237,1.228684 0.721,0.495539 1.8941,1.368834 2.6069,1.940657 0.71279,0.571823 1.56242,1.290412 1.88805,1.596866 0.32562,0.306455 0.59204,0.492934 0.59204,0.4144 0,-0.07853 0.14023,-0.142791 0.31162,-0.142791 0.17137,0 0.31159,-0.02614 0.31159,-0.05809 0,-0.03195 -0.11419,-0.365771 -0.25386,-0.741824 -0.21827,-0.587899 -0.3231,-0.711655 -0.74784,-0.882916 -0.2717,-0.109544 -0.494,-0.256159 -0.494,-0.3258 0,-0.06964 0.19917,-0.12662 0.4426,-0.12662 0.3504,0 0.52978,0.09589 0.86101,0.460235 0.23012,0.253131 0.4501,0.6199 0.48882,0.815046 0.0388,0.195145 0.039,0.437313 6.2e-4,0.538149 -0.0384,0.100832 -0.008,0.256889 0.0681,0.346782 0.0759,0.0899 0.27704,0.333006 0.44699,0.540251 0.21265,0.259307 0.31018,0.533481 0.31276,0.879222 0.003,0.44574 0.11021,0.622841 0.94791,1.570037 0.51928,0.587194 1.32289,1.548057 1.78578,2.135251 0.46291,0.587193 1.22344,1.625716 1.69008,2.307828 0.69645,1.018092 0.82417,1.279306 0.71309,1.458535 -0.10875,0.175515 -0.0501,0.338726 0.2993,0.832245 0.23903,0.337654 0.51084,0.598302 0.604,0.57922 0.0941,-0.01929 0.32075,0.245565 0.51035,0.596614 0.18754,0.34722 0.42219,0.63131 0.52146,0.63131 0.1138,0 0.15238,0.07382 0.10437,0.199798 -0.043,0.112948 0.13565,0.617971 0.41101,1.161827 0.26791,0.529116 0.93711,2.064196 1.48711,3.411287 0.55001,1.347092 1.19742,3.025475 1.43868,3.729739 0.24128,0.704262 0.66071,2.173818 0.9321,3.265677 0.27138,1.091859 0.6071,2.691713 0.74605,3.555235 0.13894,0.86352 0.3173,2.191771 0.39635,2.951669 0.079,0.759897 0.14518,2.596842 0.14695,4.082097 10e-4,1.485255 -0.0632,3.378719 -0.1445,4.207699 -0.0813,0.82898 -0.28186,2.298535 -0.44586,3.265678 -0.16398,0.967142 -0.45499,2.403953 -0.6467,3.19291 -0.20855,0.858354 -0.41812,1.457838 -0.52177,1.492657 -0.13199,0.04435 -0.15472,-0.02799 -0.0955,-0.304042 0.0428,-0.199226 0.18723,-0.899182 0.32101,-1.555459 0.13379,-0.656275 0.30468,-1.751648 0.37976,-2.434163 0.075,-0.682516 0.16106,-2.293374 0.19107,-3.579685 0.0438,-1.87679 0.0297,-2.177487 -0.0712,-1.52233 -0.0692,0.449031 -0.23579,1.494676 -0.3703,2.323655 -0.1345,0.82898 -0.41855,2.242013 -0.6312,3.140075 -0.21265,0.898061 -0.43527,1.685592 -0.49471,1.750068 -0.0595,0.06448 -0.1343,0.09081 -0.16635,0.0585 -0.032,-0.0323 0.0771,-0.731111 0.24277,-1.552919 0.16557,-0.821807 0.40119,-2.232906 0.52358,-3.135778 0.17381,-1.282035 0.22255,-2.494403 0.22257,-5.535276 10e-6,-2.613711 -0.0542,-4.239082 -0.1647,-4.944367 -0.0906,-0.577868 -0.38873,-1.849599 -0.6625,-2.826064 -0.27376,-0.976466 -0.80993,-2.594951 -1.19148,-3.596635 -0.38155,-1.001684 -1.04804,-2.556021 -1.48108,-3.454083 -0.43303,-0.898061 -1.18312,-2.30333 -1.66685,-3.122822 -0.48374,-0.819491 -1.23704,-2.006438 -1.67403,-2.637663 -0.43699,-0.631221 -1.26129,-1.741152 -1.8318,-2.466509 -0.57051,-0.725357 -1.93748,-2.22609 -3.03774,-3.334961 -1.10026,-1.10887 -2.61745,-2.513038 -3.37153,-3.120371 -0.75409,-0.607332 -2.15632,-1.632337 -3.11606,-2.277789 -0.95975,-0.645451 -2.47331,-1.572546 -3.36346,-2.060212 -0.89016,-0.487665 -2.20825,-1.1479 -2.9291,-1.467192 -0.72083,-0.31929 -1.84345,-0.777703 -2.49471,-1.018693 -0.65125,-0.240993 -1.91326,-0.661157 -2.80444,-0.933699 -0.89119,-0.272541 -2.43365,-0.660415 -3.42766,-0.861943 -0.99402,-0.201527 -2.53647,-0.46487 -3.42766,-0.585207 -1.21596,-0.16419 -2.49134,-0.218552 -5.11032,-0.217823 -2.65442,7.53e-4 -3.87793,0.05458 -5.11034,0.224843 -0.89119,0.123135 -2.41822,0.390032 -3.39341,0.593114 -0.97518,0.203084 -2.46154,0.570752 -3.30301,0.817044 -0.84148,0.246292 -2.20302,0.702675 -3.02566,1.014184 -0.82265,0.31151 -2.39313,1.002893 -3.48998,1.536406 -1.09685,0.533513 -2.66734,1.381199 -3.48997,1.883748 -0.82265,0.502549 -2.05661,1.316824 -2.74214,1.809502 -0.68552,0.492676 -1.89144,1.441401 -2.6798,2.108278 -0.78837,0.666878 -2.19155,1.996638 -3.1182,2.955024 -0.92665,0.958385 -2.1766,2.36304 -2.77768,3.121455 -0.60106,0.758416 -1.56136,2.086667 -2.13399,2.95167 -0.57263,0.865003 -1.35591,2.142818 -1.74061,2.839586 -0.3847,0.696769 -0.69946,1.360896 -0.69946,1.475836 0,0.114945 -0.0479,0.208982 -0.10649,0.208982 -0.0586,0 -0.3335,0.494562 -0.61086,1.099025 -0.27737,0.604465 -0.65746,1.466416 -0.84466,1.915446 -0.18719,0.449031 -0.4772,1.212069 -0.64446,1.69564 -0.16724,0.483572 -0.49862,1.500956 -0.73638,2.260853 -0.23777,0.759899 -0.54578,2.116411 -0.68448,3.014473 -0.16593,1.074493 -0.2768299,2.583465 -0.3243199,4.412879 -0.0454,1.747447 -0.0161,3.450276 0.0789,4.584509 0.083,0.992456 0.2877899,2.624026 0.4549899,3.62571 0.16721,1.001684 0.49651,2.584281 0.73178,3.516883 0.23526,0.932603 0.68372,2.446032 0.99655,3.36318 0.31285,0.917146 0.85611,2.245398 1.20725,2.951669 0.35114,0.706272 0.89387,1.736302 1.20607,2.288955 0.3122,0.552653 1.03271,1.71134 1.60111,2.574861 0.56843,0.86352 1.52512,2.1903 2.12598,2.948403 0.60087,0.7581 1.82022,2.133689 2.70966,3.056864 0.88944,0.923176 2.23631,2.204411 2.99304,2.847188 0.75672,0.642778 2.02088,1.634054 2.80924,2.202836 0.78837,0.568783 2.11555,1.436831 2.94929,1.928995 1.28707,0.75976 1.52719,0.950481 1.59067,1.26341 0.0412,0.202712 0.16799,0.47237 0.28192,0.599239 0.11393,0.126874 0.68818,0.376931 1.2761,0.555692 0.58793,0.178762 1.24841,0.434776 1.46775,0.56892 0.21935,0.134144 0.50742,0.424745 0.64016,0.645778 0.13279,0.221032 0.27957,0.52905 0.32629,0.684484 0.0515,0.17124 0.032,0.282607 -0.0494,0.282607 -0.074,0 -0.6439,-0.31761 -1.26666,-0.705802 -1.02865,-0.641198 -1.15019,-0.687763 -1.32787,-0.508716 -0.15884,0.160072 -0.16618,0.232773 -0.039,0.387092 0.0861,0.104504 0.6141,0.36682 1.1734,0.582931 0.5593,0.21611 1.19945,0.479135 1.42256,0.584501 0.27862,0.131579 0.48356,0.369025 0.65438,0.75817 0.13679,0.311627 0.24871,0.644192 0.24871,0.739034 0,0.09484 -0.0717,0.172438 -0.15923,0.172438 -0.0876,0 -0.2788,-0.0844 -0.42493,-0.187545 -0.17491,-0.123456 -0.40071,-0.160334 -0.66075,-0.107922 -0.38102,0.07679 -0.36356,0.09196 0.49214,0.427455 0.48795,0.191309 0.96912,0.416363 1.06926,0.500113 0.10013,0.08376 0.18208,0.285359 0.18208,0.448012 0,0.170697 -0.11858,0.370296 -0.28044,0.47209 -0.15425,0.097 -0.43679,0.212951 -0.62789,0.257676 -0.19108,0.04473 -0.58269,0.01748 -0.87024,-0.06054 -0.38972,-0.105751 -0.79313,-0.406379 -1.58453,-1.180824 -0.58393,-0.571426 -1.1842,-1.10267 -1.33395,-1.18054 -0.14973,-0.07787 -0.38446,-0.141581 -0.52161,-0.141581 -0.13714,0 -0.40661,0.06025 -0.59879,0.133884 -0.34944,0.133884 -0.34944,0.133884 -0.0393,0.379839 0.17058,0.135279 0.92713,0.674901 1.68122,1.199164 0.75408,0.524262 1.49726,1.069705 1.65151,1.212094 0.15423,0.142388 0.28043,0.39034 0.28043,0.551001 0,0.170603 -0.0748,0.292114 -0.17959,0.292114 -0.0988,0 -0.21454,-0.05692 -0.2572,-0.126499 -0.0426,-0.06958 -0.25632,-0.22148 -0.47477,-0.33757 -0.27339,-0.145287 -0.88275,-0.239412 -1.95521,-0.302006 -0.85691,-0.05002 -1.71154,-0.150779 -1.89918,-0.223922 -0.18851,-0.07348 -0.71505,-0.612351 -1.17677,-1.204334 -0.45959,-0.589243 -0.89968,-1.071349 -0.97797,-1.071349 -0.0784,0 -0.17949,0.03741 -0.22486,0.08314 -0.0454,0.04572 0.0575,0.268039 0.22851,0.494032 0.17106,0.225993 0.31102,0.49945 0.31102,0.607682 0,0.10823 -0.0442,0.196785 -0.0981,0.196785 -0.054,0 -0.37651,-0.286754 -0.71669,-0.637232 -0.34019,-0.350478 -1.73844,-1.495035 -3.10723,-2.54346 -1.36879,-1.048428 -3.07462,-2.471444 -3.79077,-3.16226 -0.71613,-0.690816 -1.63459,-1.705966 -2.04103,-2.25589 -0.40642,-0.549922 -0.89792,-1.317191 -1.09221,-1.705041 -0.19428,-0.387851 -0.53969,-0.846261 -0.76756,-1.018689 -0.22787,-0.172427 -0.48419,-0.355077 -0.56958,-0.405889 -0.0988,-0.05877 -0.20861,0.02556 -0.30183,0.231715 -0.0806,0.178257 -0.27309,0.356112 -0.42777,0.395233 -0.15468,0.03912 -0.39747,0.03396 -0.53953,-0.01153 -0.17947,-0.05739 -0.25827,-0.188871 -0.25827,-0.430886 0,-0.191554 -0.16723,-0.682308 -0.37161,-1.090562 -0.20439,-0.408252 -0.82775,-1.25097 -1.38523,-1.872705 -0.55748,-0.621734 -1.20751,-1.397093 -1.44452,-1.723018 -0.32608,-0.448439 -0.5372,-0.612685 -0.86787,-0.675196 -0.2472699,-0.04675 -0.5721099,-0.02056 -0.7482799,0.06033 -0.31132,0.14294 -0.31132,0.14294 0.0684,0.612397 0.20882,0.258199 0.9140899,1.03447 1.5672699,1.725044 0.65319,0.690574 1.18762,1.275501 1.18762,1.29984 0,0.02434 -0.16827,0.202646 -0.37393,0.396241 -0.28333,0.266703 -0.37393,0.463031 -0.37393,0.810249 0,0.252041 0.0833,0.620447 0.18496,0.81868 0.17277,0.336671 0.20994,0.35092 0.56405,0.216225 0.27004,-0.102708 0.44096,-0.105831 0.59407,-0.01086 0.11818,0.07334 0.41725,0.439531 0.66453,0.813761 0.24726,0.37423 0.71803,1.141514 1.04615,1.705077 0.32813,0.563563 0.82693,1.264323 1.10845,1.557246 0.28154,0.292924 0.67903,0.603713 0.88335,0.690645 0.3051,0.129809 0.43207,0.126485 0.71051,-0.0186 0.18646,-0.09717 0.36985,-0.176667 0.40752,-0.176667 0.0377,0 0.0685,0.07929 0.0685,0.176222 0,0.09692 -0.20306,0.340386 -0.45126,0.54103 -0.45127,0.364808 -0.45127,0.364808 1.09062,1.375779 0.84804,0.556033 1.89544,1.21691 2.32758,1.468616 0.43213,0.251708 0.83628,0.457648 0.89812,0.457648 0.0619,0 0.30538,0.131955 0.54121,0.293228 0.23583,0.161276 1.43023,0.814146 2.65418,1.450822 1.22396,0.636676 2.61504,1.423196 3.09128,1.747821 0.47624,0.324624 0.88755,0.660877 0.91404,0.74723 0.0272,0.08863 -0.058,0.157003 -0.19569,0.157003 -0.13411,0 -0.983,-0.367389 -1.88641,-0.816419 z M 8.9900561,42.518155 c 0.11978,-0.235791 0.30037,-0.965664 0.40127,-1.621939 0.10092,-0.656277 0.41118,-2.05237 0.6894899,-3.102431 0.27832,-1.050061 0.76221,-2.62137 1.0753,-3.491797 0.31312,-0.870425 0.78778,-2.090214 1.05481,-2.710641 0.26704,-0.620426 0.87317,-1.880321 1.34697,-2.799769 0.65356,-1.268307 0.84829,-1.762013 0.80694,-2.045883 -0.0401,-0.275127 0.0337,-0.479887 0.27904,-0.773603 0.18345,-0.219692 0.40399,-0.399439 0.49011,-0.399439 0.0861,0 0.26341,-0.122626 0.394,-0.272505 0.23424,-0.268826 0.23408,-0.27114 -0.012,-0.171424 -0.1371,0.0556 -0.36146,0.10756 -0.49856,0.115495 -0.19331,0.01113 -0.25799,-0.07626 -0.28803,-0.389478 -0.0329,-0.343763 0.009,-0.415951 0.28127,-0.484836 0.176,-0.04451 0.50192,-0.04806 0.72426,-0.0079 0.38006,0.06868 0.43598,0.02813 0.93369,-0.676994 0.29119,-0.412522 0.49928,-0.750042 0.46245,-0.750042 -0.0368,0 -0.28686,0.113042 -0.55562,0.251206 -0.26875,0.138164 -0.55304,0.251206 -0.63175,0.251206 -0.0931,0 -0.11367,-0.118028 -0.059,-0.337748 0.0462,-0.185768 0.19265,-0.491351 0.3253,-0.679081 0.13912,-0.196881 0.48786,-0.426027 0.82409,-0.541474 0.3206,-0.11008 0.68764,-0.200145 0.81564,-0.200145 0.12801,0 0.3564,-0.130788 0.50753,-0.290628 0.15114,-0.159844 0.68142,-0.74909 1.17844,-1.309436 0.49701,-0.560346 0.90366,-1.044705 0.90366,-1.076357 0,-0.03165 -0.11805,-0.08867 -0.26249,-0.126713 -0.18557,-0.04891 -0.51028,0.112439 -1.10803,0.550564 -0.46505,0.340857 -0.90783,0.619738 -0.98394,0.619738 -0.0761,0 -0.13839,-0.03875 -0.13839,-0.0861 0,-0.04735 0.12442,-0.219563 0.27647,-0.382675 0.27649,-0.296569 0.27649,-0.296569 -0.26198,-0.2098 -0.39801,0.06413 -0.5676,0.04109 -0.65018,-0.08834 -0.0615,-0.0963 -0.0793,-0.330538 -0.0397,-0.520512 0.0402,-0.193177 0.0175,-0.345408 -0.0515,-0.345408 -0.0679,0 -0.26319,0.167331 -0.43396,0.371849 -0.17078,0.204516 -0.40693,0.626295 -0.52479,0.937285 -0.11792,0.310991 -0.1812,0.652352 -0.14074,0.758579 0.0405,0.10622 0.21552,0.193141 0.38906,0.193141 0.18152,0 0.31552,0.0719 0.31552,0.169278 0,0.0931 -0.78981,1.322443 -1.75511,2.731866 -0.96531,1.409422 -2.05695,3.053143 -2.42588,3.652712 -0.36893,0.59957 -0.91125,1.545113 -1.20515,2.101206 -0.29389,0.556093 -0.58961,0.993709 -0.65715,0.972481 -0.0676,-0.02123 -0.17379,-0.217863 -0.23614,-0.436967 -0.0624,-0.219103 -0.15754,-0.398369 -0.21151,-0.398369 -0.0539,0 -0.21878,0.170754 -0.3662499,0.379453 -0.14747,0.2087 -0.38216,0.703261 -0.52153,1.099027 -0.16582,0.470842 -0.2551,1.045193 -0.2583,1.661593 -0.003,0.518113 0.0698,1.27162 0.16121,1.674461 0.1421,0.626515 0.1404,0.749306 -0.012,0.84907 -0.0979,0.06415 -0.29007,0.09042 -0.42719,0.05837 -0.18063,-0.04222 -0.32607,0.06006 -0.52817,0.371408 -0.15338,0.236322 -0.33057,0.661496 -0.39375,0.944832 -0.0879,0.394113 -0.0418,0.933684 0.19575,2.296402 0.24117,1.382924 0.2944,2.019989 0.23809,2.848872 -0.0398,0.587194 -0.11075,1.208437 -0.1574,1.38054 -0.0827,0.304924 -0.0773,0.307854 0.21139,0.114705 0.16293,-0.109022 0.39426,-0.391134 0.51404,-0.626924 z m 2.1630999,-3.694388 c 0.18463,-0.690817 0.61369,-2.181047 0.95345,-3.311623 0.33978,-1.130577 0.59482,-2.078722 0.56677,-2.10699 -0.028,-0.02827 -0.37623,0.697944 -0.77374,1.613804 -0.39751,0.915862 -0.96635,2.361263 -1.26408,3.212006 -0.29774,0.850741 -0.54135,1.591992 -0.54135,1.647223 0,0.05523 0.12615,0.15926 0.28045,0.231176 0.15425,0.07192 0.31698,0.09468 0.36163,0.0506 0.0446,-0.04408 0.23223,-0.645374 0.41687,-1.336191 z m 3.73056,-8.800591 c 0.24744,-0.453642 0.41337,-0.88437 0.36871,-0.957175 -0.0446,-0.07281 -0.26873,0.171185 -0.49796,0.542197 -0.22923,0.371011 -0.41806,0.801739 -0.41961,0.957173 -10e-4,0.155434 0.0201,0.282607 0.0481,0.282607 0.028,0 0.25334,-0.371163 0.50079,-0.824802 z m 1.69189,-2.848444 c 0,-0.07007 -0.0827,-0.05647 -0.18696,0.03076 -0.10278,0.08599 -0.18696,0.212883 -0.18696,0.281965 0,0.07006 0.0827,0.05647 0.18696,-0.03076 0.10278,-0.08599 0.18696,-0.212883 0.18696,-0.281965 z m 0.59428,-0.848461 c 0.0856,-0.138164 0.13585,-0.251206 0.11167,-0.251206 -0.0242,0 -0.14557,0.113042 -0.26965,0.251206 -0.12402,0.138162 -0.17431,0.251206 -0.11167,0.251206 0.0627,0 0.18403,-0.113042 0.26965,-0.251206 z m 64.41956,-8.515713 c -0.11327,-0.220583 -0.36008,-0.433777 -0.59986,-0.51801 -0.40749,-0.143146 -0.40749,-0.143146 0.14424,0.42336 0.30346,0.311578 0.57339,0.544682 0.59985,0.518009 0.0264,-0.02667 -0.0385,-0.217185 -0.14423,-0.423359 z m -58.71941,-2.76212 c 0.41132,-0.30562 1.02295,-0.696328 1.35919,-0.868238 0.44343,-0.22671 0.56461,-0.341671 0.4412,-0.41853 -0.13827,-0.08612 -0.12442,-0.158441 0.0742,-0.386137 0.2072,-0.237585 0.21217,-0.26837 0.0327,-0.202529 -0.11632,0.0427 -0.64922,0.228829 -1.18408,0.413616 -0.66983,0.231411 -1.08045,0.458189 -1.3194,0.728673 -0.19079,0.215987 -0.57881,0.788351 -0.86223,1.271922 -0.28343,0.483572 -0.6029,1.020525 -0.70994,1.193229 -0.10703,0.172704 0.16878,-0.02133 0.61294,-0.431162 0.44416,-0.409844 1.14411,-0.995223 1.55543,-1.300844 z m 4.67408,-2.037152 c 0.44559,-0.299435 1.28705,-0.944513 1.86989,-1.433506 0.58284,-0.488994 1.21576,-1.002834 1.40648,-1.141867 0.34676,-0.252787 0.34676,-0.252787 -0.49884,-0.188404 -0.69723,0.05309 -0.92789,0.130493 -1.31467,0.441191 -0.25801,0.207245 -0.75616,0.784656 -1.10699,1.283135 -0.44298,0.629385 -0.75668,0.946065 -1.02662,1.036378 -0.21379,0.07153 -0.56417,0.238012 -0.77862,0.369962 -0.31448,0.193492 -0.37802,0.302642 -0.32841,0.564152 0.0615,0.324246 0.0615,0.324246 0.51455,-0.03119 0.24917,-0.195486 0.81763,-0.600422 1.26323,-0.899858 z m 6.3731,-4.5142875 c -0.0576,-0.038034 -0.17441,-0.2840341 -0.25938,-0.5466677 -0.085,-0.2626334 -0.21931,-0.4559859 -0.2985,-0.4296723 -0.0791,0.026314 -0.29385,0.2694566 -0.47697,0.5403172 -0.18313,0.2708605 -0.36784,0.6153187 -0.41046,0.7654621 -0.0776,0.272989 -0.0776,0.272989 0.73634,0.0064 0.44762,-0.1466506 0.76665,-0.2977561 0.70897,-0.3357893 z m 36.54577,0.4413683 c 0.0377,-0.09916 -0.0563,-0.3676398 -0.20908,-0.5966145 -0.15274,-0.2289746 -0.39792,-0.4338403 -0.54482,-0.4552568 -0.2653,-0.038678 -0.26574,-0.034677 -0.0655,0.596614 0.16176,0.5097353 0.25603,0.6355533 0.47617,0.6355533 0.15097,0 0.30537,-0.08113 0.34314,-0.180296 z M 35.989846,7.7691091 c 0.70335,-0.3093807 1.30706,-0.6085649 1.34159,-0.6648538 0.0345,-0.056289 -0.24614,-0.1412359 -0.62369,-0.1887711 -0.37754,-0.047536 -0.94009,-0.048097 -1.25011,-0.00124 -0.51734,0.078177 -0.59414,0.1387187 -0.93441,0.7365937 -0.20391,0.3582784 -0.37127,0.697615 -0.37191,0.7540816 -6.2e-4,0.056466 0.12509,0.063077 0.27927,0.014689 0.15424,-0.048388 0.85591,-0.3411081 1.55926,-0.6504888 z m 2.41979,-0.018356 c 1.0378,-0.3522294 1.0378,-0.3522294 0.30156,-0.4456802 -0.40492,-0.051399 -0.81157,-0.122584 -0.90365,-0.1581922 -0.0921,-0.035608 -0.16742,0.00147 -0.16742,0.082408 0,0.080932 -0.16827,0.2898287 -0.37393,0.4642139 -0.20566,0.174385 -0.37393,0.3723695 -0.37393,0.4399654 0,0.067596 0.10796,0.08839 0.2398,0.046207 0.13186,-0.042182 0.70679,-0.2351973 1.27757,-0.4289219 z M 69.672676,6.759188 c -2.4e-4,-0.049381 -0.11553,-0.2798518 -0.256,-0.5121581 -0.14054,-0.2323064 -0.28731,-0.390351 -0.32615,-0.3512104 -0.0389,0.03914 -0.0324,0.3282467 0.0143,0.6424583 0.0769,0.5165335 0.10822,0.5588042 0.32661,0.4409935 0.1329,-0.071665 0.24141,-0.1707025 0.24114,-0.2200833 z m -10.46946,84.454997 c 0,-0.10299 0.19144,-0.208617 0.46739,-0.257903 0.25708,-0.04591 0.56557,-0.112533 0.68554,-0.148046 0.1547,-0.0458 0.21812,0.0062 0.21812,0.178668 0,0.183497 -0.11473,0.262357 -0.4674,0.321089 -0.25707,0.04282 -0.56556,0.07847 -0.68554,0.07924 -0.12004,7.53e-4 -0.21811,-0.07711 -0.21811,-0.173043 z m -4.83396,-0.6678 c -0.22503,-0.02943 -0.47681,-0.162689 -0.55949,-0.296117 -0.0993,-0.160287 -0.35305,-0.269692 -0.7478,-0.322462 -0.40198,-0.05373 -0.66803,-0.170303 -0.81324,-0.356315 -0.19222,-0.246265 -0.374,-0.285558 -1.66488,-0.359853 -0.79701,-0.04587 -2.11434,-0.197632 -2.92742,-0.337245 -0.81307,-0.139614 -1.57648,-0.284833 -1.69645,-0.322709 -0.12004,-0.03788 -0.21812,-0.14638 -0.21812,-0.241114 0,-0.109597 -0.19267,-0.193829 -0.52972,-0.23159 -0.29135,-0.03264 -0.66995,-0.0599 -0.84134,-0.06056 -0.17138,-6.27e-4 -0.53596,-0.01649 -0.81018,-0.03517 -0.2742,-0.01867 -0.55465,-0.0991 -0.62321,-0.17872 -0.0685,-0.07963 -0.48921,-0.273584 -0.93482,-0.431025 -0.44559,-0.157443 -1.53932,-0.593753 -2.43052,-0.969579 -0.89118,-0.375825 -2.34949,-1.064578 -3.24069,-1.530559 -0.89119,-0.465983 -2.18267,-1.223656 -2.86997,-1.683721 -0.6873,-0.460065 -1.86187,-1.330749 -2.61015,-1.934854 -0.7483,-0.604104 -1.95921,-1.706787 -2.69093,-2.450407 -0.73171,-0.74362 -1.8007,-1.948641 -2.37552,-2.677826 -0.57484,-0.729186 -1.50551,-2.044585 -2.06819,-2.923107 -0.56268,-0.878524 -1.02542,-1.667967 -1.0283,-1.75432 -0.003,-0.08636 0.0649,-0.154697 0.15055,-0.151878 0.0856,0.0028 0.39131,0.384338 0.67914,0.847821 0.28785,0.463481 0.82068,1.215176 1.18411,1.67043 0.36342,0.455256 1.07646,1.274815 1.58453,1.821243 0.92379,0.993507 0.92379,0.993507 0.33267,0.20481 -0.3251,-0.433784 -0.97918,-1.410444 -1.4535,-2.170354 -0.47431,-0.759909 -0.8624,-1.43651 -0.8624,-1.503555 0,-0.06704 0.0701,-0.12146 0.1558,-0.120937 0.0856,5.03e-4 0.27616,0.212488 0.42327,0.471011 0.1471,0.258526 0.6883,1.035257 1.20268,1.726074 0.51438,0.690817 1.44303,1.830209 2.06367,2.531983 0.62065,0.701774 1.73407,1.827813 2.47426,2.502306 0.7402,0.674494 1.76648,1.504642 2.28062,1.84477 0.51415,0.340129 1.75028,1.026237 2.74694,1.524684 0.99667,0.498448 2.3908,1.120473 3.09807,1.382279 0.70727,0.261805 1.85493,0.64105 2.55036,0.842764 0.69542,0.201714 1.99356,0.50354 2.88474,0.670726 0.8912,0.167183 2.37756,0.371767 3.30303,0.454631 1.0262,0.09188 2.43637,0.119275 3.61461,0.07022 1.06257,-0.04424 2.49285,-0.161909 3.17837,-0.261478 0.68554,-0.09957 1.80732,-0.30269 2.49286,-0.45138 0.68552,-0.14869 2.07704,-0.545371 3.09226,-0.881515 1.01522,-0.336144 2.6418,-0.999245 3.61462,-1.473558 0.97283,-0.474313 2.29938,-1.19389 2.9479,-1.599061 0.64852,-0.405172 1.74226,-1.163126 2.43052,-1.684346 0.68826,-0.521219 1.97328,-1.655006 2.8556,-2.519527 0.88232,-0.864521 2.03845,-2.115173 2.56919,-2.779224 0.53075,-0.664053 1.33058,-1.766219 1.77742,-2.449259 0.44684,-0.683039 1.0975,-1.779624 1.44591,-2.436853 0.34839,-0.65723 0.88302,-1.79524 1.18806,-2.52891 0.30502,-0.733671 0.75464,-1.957545 0.99915,-2.719717 0.24452,-0.762173 0.55722,-1.895408 0.6949,-2.518301 0.13769,-0.622891 0.33517,-1.663797 0.43887,-2.313124 0.1037,-0.649328 0.24297,-1.995449 0.30952,-2.991381 0.0785,-1.173567 0.0782,-2.451352 -4.9e-4,-3.631089 -0.0668,-1.001166 -0.23129,-2.500684 -0.36542,-3.33226 -0.13413,-0.831577 -0.41671,-2.187471 -0.62796,-3.013097 -0.21125,-0.825628 -0.46586,-1.6663 -0.56578,-1.868161 -0.1,-0.201859 -0.18173,-0.446521 -0.18173,-0.543691 0,-0.09717 -0.25663,-0.809134 -0.57028,-1.582141 -0.31366,-0.773007 -0.88857,-2.025349 -1.27759,-2.782982 -0.38901,-0.757634 -1.01579,-1.812802 -1.39284,-2.344816 -0.37703,-0.532016 -1.19033,-1.542696 -1.8073,-2.245958 -0.61698,-0.703261 -1.65463,-1.762268 -2.30588,-2.353348 -0.65126,-0.59108 -1.80571,-1.542595 -2.56544,-2.114479 -0.75974,-0.571884 -1.88165,-1.34694 -2.49315,-1.722345 -0.61149,-0.375406 -1.72864,-0.993784 -2.48256,-1.374175 -0.75391,-0.380389 -2.07188,-0.919895 -2.92879,-1.198899 -0.85692,-0.279004 -2.22918,-0.657902 -3.04948,-0.841996 -0.82031,-0.184092 -2.0823,-0.411115 -2.80445,-0.504495 -0.72215,-0.09338 -1.98606,-0.207427 -2.8087,-0.25344 -0.83697,-0.04682 -2.26422,-0.02157 -3.2407,0.05734 -0.95974,0.07755 -2.27635,0.226366 -2.9258,0.330712 -0.64943,0.104344 -1.79112,0.338784 -2.53707,0.520974 -1.08366,0.26467 -1.40341,0.301587 -1.59079,0.183666 -0.12893,-0.08117 -0.32101,-0.147586 -0.42672,-0.147586 -0.1057,0 -0.51312,0.161808 -0.90534,0.359575 -0.39223,0.197765 -0.90946,0.394998 -1.14939,0.438298 -0.23994,0.04329 -0.60452,0.03286 -0.81018,-0.0232 -0.20566,-0.05605 -0.39025,-0.187266 -0.41019,-0.291578 -0.0273,-0.142697 0.17882,-0.230552 0.83246,-0.354832 0.4778,-0.09085 0.94236,-0.211041 1.03236,-0.267095 0.13013,-0.08106 0.13199,-0.133763 0.009,-0.257575 -0.12283,-0.123818 -0.35392,-0.07349 -1.12927,0.245976 -0.53616,0.220901 -1.08315,0.401322 -1.21556,0.400936 -0.13239,-3.77e-4 -0.45108,-0.05956 -0.70816,-0.131512 -0.25707,-0.07195 -0.46739,-0.205866 -0.46739,-0.297605 0,-0.09174 0.16117,-0.199288 0.35818,-0.238992 0.197,-0.0397 0.38991,-0.155517 0.4287,-0.257359 0.0567,-0.148832 -0.032,-0.138287 -0.45168,0.05373 -0.28719,0.131391 -0.67264,0.240143 -0.85654,0.24166 -0.22637,0.0019 -0.35992,-0.07837 -0.41348,-0.248447 -0.0436,-0.138164 -0.0444,-0.361768 -10e-4,-0.496896 0.0425,-0.135129 0.24695,-0.389474 0.45421,-0.565214 0.34563,-0.293085 0.47451,-0.319523 1.55754,-0.319523 0.79248,0 1.29667,-0.06042 1.53335,-0.183759 0.19395,-0.101073 0.3888,-0.278721 0.433,-0.394786 0.0442,-0.116071 0.0493,-0.242398 0.0106,-0.280741 -0.038,-0.03835 -0.47407,0.006 -0.96891,0.09871 -0.49486,0.09263 -1.30637,0.194795 -1.80339,0.227022 -0.7455,0.04834 -0.90366,0.02567 -0.90366,-0.129555 0,-0.114919 0.16669,-0.219666 0.42826,-0.269117 0.2785,-0.05265 0.71351,-0.341455 1.24398,-0.8259 0.44865,-0.409716 0.97107,-0.824164 1.16093,-0.920994 0.27296,-0.139209 0.55064,-0.151322 1.32677,-0.05787 0.64828,0.07805 1.02409,0.0753 1.10685,-0.008 0.0839,-0.08461 -0.0239,-0.15448 -0.32719,-0.211804 -0.24886,-0.04704 -0.45247,-0.135768 -0.45247,-0.197162 0,-0.06139 0.2441,-0.111621 0.54247,-0.111621 0.29836,0 1.65837,-0.141304 3.02222,-0.314008 1.46686,-0.185745 3.11967,-0.314008 4.04639,-0.314008 0.86166,0 1.89946,0.05943 2.30622,0.132062 0.40678,0.07263 1.00936,0.2196 1.33905,0.326584 0.35941,0.116621 0.7678,0.162694 1.01981,0.115052 0.39708,-0.07507 0.41656,-0.102882 0.35216,-0.50283 -0.0555,-0.344625 -0.0186,-0.45014 0.19875,-0.567319 0.21851,-0.117841 0.33119,-0.09784 0.62128,0.110321 0.19489,0.139849 0.51153,0.314492 0.70365,0.388096 0.19212,0.07361 1.1387,0.208509 2.10353,0.299792 1.50351,0.142246 1.79288,0.140442 2.02471,-0.0126 0.14878,-0.09823 0.30456,-0.26808 0.34622,-0.377444 0.0417,-0.10937 0.0512,-0.223547 0.0212,-0.253735 -0.03,-0.03018 -0.81364,-0.08696 -1.7415,-0.126164 -1.68705,-0.07128 -1.68705,-0.07128 -1.72463,-0.519706 -0.0292,-0.348359 -0.13212,-0.512396 -0.46112,-0.735078 -0.23293,-0.157655 -0.46741,-0.286647 -0.52105,-0.286647 -0.0537,0 -0.11553,0.12717 -0.13737,0.282607 -0.0279,0.198142 -0.13725,0.293996 -0.3658,0.320717 -0.17928,0.02096 -0.96453,-0.134387 -1.74498,-0.345218 -0.78047,-0.210829 -1.68546,-0.383412 -2.01108,-0.383518 -0.42605,-1.26e-4 -0.66195,0.07025 -0.84134,0.251015 -0.1371,0.138164 -0.24928,0.307727 -0.24928,0.37681 0,0.06908 -0.056,0.125601 -0.12469,0.125601 -0.0685,0 -0.12468,-0.197824 -0.12468,-0.439611 0,-0.357109 -0.0471,-0.43961 -0.25141,-0.43961 -0.13827,0 -0.88145,0.138164 -1.65151,0.307029 -0.77006,0.168865 -2.62485,0.677634 -4.12176,1.130598 -1.49692,0.452961 -3.0329,0.860427 -3.41327,0.905476 -0.56186,0.06655 -0.68134,0.04884 -0.63696,-0.09437 0.03,-0.09696 0.61199,-0.36227 1.29317,-0.58959 0.6812,-0.227319 1.28668,-0.461817 1.34552,-0.521106 0.0595,-0.05999 -0.0643,-0.145708 -0.27928,-0.193287 -0.21243,-0.04702 -0.38624,-0.158921 -0.38624,-0.248673 0,-0.08975 0.15425,-0.223629 0.34277,-0.2975 0.18851,-0.07388 0.56712,-0.195489 0.84133,-0.270258 0.27421,-0.07478 1.53622,-0.19298 2.80444,-0.262688 1.26824,-0.06971 2.71654,-0.157976 3.21848,-0.196151 0.85673,-0.06515 0.9006,-0.08276 0.71669,-0.287544 -0.10769,-0.119971 -0.1959,-0.280327 -0.1959,-0.356343 0,-0.07601 0.32251,-0.205867 0.71669,-0.288563 0.46743,-0.09806 1.32361,-0.126057 2.46169,-0.08049 1.23079,0.04928 2.14747,0.164793 3.11087,0.391994 0.75123,0.177166 2.44793,0.643514 3.77042,1.036327 1.3225,0.392813 2.40455,0.765047 2.40455,0.827184 0,0.06214 -0.22436,0.20179 -0.49858,0.310334 -0.27421,0.108539 -0.49856,0.234055 -0.49856,0.278913 0,0.04486 0.43469,0.344632 0.96597,0.666165 0.53128,0.321533 1.12387,0.643646 1.31686,0.715807 0.19298,0.07216 0.36749,0.131203 0.38779,0.131203 0.0203,0 0.0119,-0.128831 -0.0174,-0.286287 -0.0433,-0.228216 0.0348,-0.329083 0.3847,-0.497251 0.399,-0.191732 0.50492,-0.194017 1.16222,-0.02506 0.39776,0.10224 1.25605,0.442406 1.9073,0.755924 0.65125,0.313517 2.1236,1.111116 3.27186,1.772442 1.14826,0.661327 2.08776,1.277479 2.08776,1.36923 0,0.09174 0.63099,0.485376 1.40221,0.874724 0.77123,0.389349 1.52939,0.826237 1.68481,0.970866 0.15541,0.144628 0.44471,0.589948 0.6429,0.989601 0.19817,0.399653 0.39823,0.952694 0.44454,1.228985 0.0663,0.395186 0.19359,0.583393 0.59692,0.88229 0.28197,0.20897 0.56751,0.379945 0.63451,0.379945 0.0671,0 -0.009,-0.141081 -0.17047,-0.313512 -0.16075,-0.172432 -0.25247,-0.353623 -0.20382,-0.402647 0.0486,-0.04903 0.32341,-0.0068 0.61058,0.09371 0.4079,0.142841 0.62263,0.336133 0.98157,0.883548 0.25269,0.385389 0.60448,0.796471 0.78175,0.913516 0.17726,0.11705 0.3223,0.27252 0.3223,0.345498 0,0.08043 -0.13944,0.101823 -0.35406,0.05432 -0.22389,-0.04955 -0.4014,-0.01859 -0.4828,0.08423 -0.0708,0.08943 -0.15602,0.463213 -0.18935,0.830645 -0.0541,0.59512 -0.0291,0.688865 0.22803,0.858646 0.15876,0.104827 0.34631,0.154678 0.41679,0.110791 0.0705,-0.0439 0.20495,-0.345503 0.29883,-0.670242 0.10384,-0.359031 0.25249,-0.606619 0.3794,-0.631725 0.15439,-0.03055 0.33454,0.230993 0.69215,1.004824 0.2659,0.575362 0.5529,1.283768 0.63776,1.574239 0.11765,0.402751 0.2536,0.575601 0.57253,0.728109 0.23001,0.109986 0.41946,0.239722 0.42098,0.288293 10e-4,0.04857 0.11752,0.229612 0.25765,0.402316 0.21765,0.268141 0.23545,0.273932 0.1219,0.03966 -0.0732,-0.150892 -0.13301,-0.391109 -0.13301,-0.533813 0,-0.142705 0.0444,-0.259463 0.0984,-0.259463 0.0542,0 0.31554,0.522823 0.58089,1.161828 0.26535,0.639005 0.80021,1.841982 1.18859,2.673283 0.49697,1.063725 0.8363,1.621826 1.14554,1.884044 0.30563,0.259161 0.53992,0.641063 0.76957,1.254474 0.18159,0.485036 0.33016,0.932757 0.33016,0.994934 0,0.06218 0.0776,0.202281 0.17227,0.311344 0.0947,0.109061 0.32268,0.642146 0.50652,1.184635 0.18384,0.542488 0.30258,1.018258 0.26388,1.057265 -0.0386,0.039 -0.26478,0.01086 -0.50236,-0.06267 -0.43199,-0.133602 -0.43199,-0.133602 -0.3612,0.44997 0.0389,0.320965 0.1227,0.793161 0.18621,1.049326 0.0809,0.326615 0.16873,0.445137 0.29388,0.396741 0.11154,-0.04315 0.27479,0.08829 0.43544,0.350664 0.14132,0.230824 0.29058,0.549485 0.33166,0.708136 0.041,0.15865 0.0425,0.320898 0.003,0.360549 -0.0393,0.03965 -0.29849,-0.109035 -0.57586,-0.330411 -0.27738,-0.221377 -0.50432,-0.367243 -0.50432,-0.324145 0,0.04309 0.11951,0.316324 0.2657,0.607169 0.14614,0.290844 0.56338,1.040171 0.92722,1.665168 0.36383,0.624999 0.80515,1.567565 0.98072,2.094595 0.17556,0.52703 0.31921,1.216745 0.31921,1.532704 0,0.48364 -0.038,0.574467 -0.24039,0.574467 -0.13225,0 -0.32795,-0.08825 -0.43498,-0.196098 -0.10707,-0.107855 -0.31232,-0.602415 -0.45615,-1.099025 -0.14384,-0.49661 -0.39739,-1.32881 -0.56347,-1.849329 -0.16606,-0.520521 -0.4737,-1.156386 -0.68364,-1.413034 -0.20992,-0.256647 -0.4337,-0.466632 -0.49726,-0.466632 -0.0636,0 -0.11553,0.314099 -0.11553,0.697998 0,0.3839 0.0627,0.949112 0.13944,1.25603 0.0768,0.306917 0.18888,0.558031 0.24929,0.558031 0.0604,0 0.11764,-0.07065 0.12721,-0.157003 0.009,-0.08636 0.005,-0.36896 -0.0106,-0.628016 -0.0158,-0.263445 0.0296,-0.471011 0.10277,-0.471011 0.072,0 0.19714,0.124569 0.27799,0.276813 0.0809,0.152247 0.22452,0.562028 0.31925,0.910622 0.0947,0.348594 0.2255,1.618338 0.29059,2.821651 0.0741,1.368674 0.19323,2.415045 0.31836,2.794666 0.11008,0.333753 0.2516,0.606824 0.31464,0.606824 0.0631,0 0.11459,-0.06195 0.11459,-0.137672 0,-0.07572 0.0882,-0.443109 0.19581,-0.81642 0.10769,-0.37331 0.25425,-0.678747 0.32567,-0.678747 0.0825,0 0.11061,0.309589 0.0771,0.84782 -0.0341,0.548252 -0.1749,1.136293 -0.39844,1.664239 -0.19012,0.449032 -0.40981,0.973056 -0.48819,1.1645 -0.10889,0.266061 -0.1065,0.406241 0.0106,0.594909 0.0842,0.135758 0.15297,0.275858 0.15297,0.311337 0,0.03548 -0.0701,0.06497 -0.1558,0.06553 -0.0857,5.02e-4 -0.38015,-0.258259 -0.65437,-0.575155 -0.49856,-0.576177 -0.49856,-0.576177 -0.51214,2.570294 -0.008,1.730558 0.0325,3.117764 0.0888,3.082676 0.0563,-0.03509 0.16029,-0.273709 0.231,-0.530268 0.0706,-0.256561 0.1288,-0.847993 0.1292,-1.314293 5.1e-4,-0.632013 0.044,-0.84782 0.17073,-0.84782 0.0935,0 0.26179,0.242105 0.37393,0.538012 0.1122,0.295907 0.20335,0.649164 0.20267,0.785017 -6.3e-4,0.135855 -0.13374,0.533834 -0.29575,0.884397 -0.16198,0.350565 -0.48395,0.889601 -0.71547,1.197858 -0.23152,0.308257 -0.58778,0.91643 -0.79167,1.351496 -0.34106,0.727732 -0.35353,0.800724 -0.1558,0.912233 0.11818,0.06667 0.21492,0.172409 0.21492,0.23499 0,0.06258 -0.13352,0.312066 -0.29673,0.554408 -0.1632,0.242345 -0.41783,0.908981 -0.56585,1.481414 -0.14801,0.572433 -0.32177,1.167961 -0.38613,1.323394 -0.0644,0.155434 -0.20016,0.282607 -0.30178,0.282607 -0.10158,0 -0.29752,-0.121942 -0.4353,-0.270977 -0.1947,-0.210583 -0.26441,-0.231578 -0.31282,-0.0942 -0.0343,0.09723 -0.27946,0.798509 -0.54486,1.558408 -0.40077,1.147489 -0.52687,1.383986 -0.74402,1.395521 -0.14379,0.0076 -0.43738,0.163075 -0.65242,0.345409 -0.21503,0.182335 -0.46633,0.331519 -0.55845,0.331519 -0.11539,0 -0.19346,0.263551 -0.25104,0.847819 -0.0459,0.466302 -0.16011,1.193771 -0.25368,1.6166 -0.0936,0.422829 -0.37757,1.129346 -0.63111,1.570038 -0.25356,0.440692 -0.88704,1.321185 -1.40776,1.956653 -0.52071,0.635468 -1.01687,1.158291 -1.10255,1.161828 -0.0856,0.0035 -0.1558,-0.05415 -0.1558,-0.128202 0,-0.07405 0.15078,-0.399048 0.33507,-0.722217 0.18428,-0.323169 0.4408,-0.727648 0.57003,-0.898842 0.1292,-0.171194 0.37325,-0.402672 0.54225,-0.514394 0.27086,-0.179048 0.28455,-0.222149 0.11552,-0.363534 -0.10543,-0.08822 -0.19301,-0.337172 -0.19452,-0.553228 -0.003,-0.385493 -0.008,-0.382315 -0.25613,0.170105 -0.13937,0.309615 -0.47649,0.860698 -0.74916,1.224629 -0.27266,0.36393 -0.57807,0.661692 -0.67868,0.661692 -0.10066,0 -0.18293,-0.05318 -0.18293,-0.118189 0,-0.065 0.056,-0.153123 0.12469,-0.195817 0.0685,-0.0427 0.12243,-0.144945 0.11964,-0.227219 -0.003,-0.08227 -0.25021,0.118886 -0.54997,0.447024 -0.29976,0.328137 -0.60602,0.596613 -0.68058,0.596613 -0.0746,0 -0.13557,-0.04424 -0.13557,-0.09831 0,-0.05407 0.20165,-0.480986 0.44811,-0.948698 0.28121,-0.533668 0.60559,-0.953155 0.87095,-1.126317 0.23256,-0.151762 0.42355,-0.311401 0.4244,-0.354754 8.6e-4,-0.04335 -0.0826,-0.149185 -0.18543,-0.235184 -0.10277,-0.08599 -0.187,-0.276614 -0.18705,-0.423588 -8e-5,-0.194035 -0.0681,-0.129622 -0.24867,0.235184 -0.13671,0.276326 -0.45918,0.78076 -0.7166,1.120965 -0.25741,0.340205 -0.54605,0.64431 -0.64142,0.675792 -0.13119,0.04331 -0.15335,-0.0232 -0.0911,-0.273146 0.0753,-0.302131 0.0501,-0.330383 -0.29401,-0.330383 -0.22228,0 -0.37631,-0.06568 -0.37631,-0.160457 0,-0.08825 0.091,-0.291347 0.20218,-0.451324 0.14389,-0.207023 0.28847,-0.274241 0.50155,-0.233194 0.21781,0.04195 0.37498,-0.03608 0.57684,-0.286466 0.1526,-0.189275 0.37302,-0.520824 0.48979,-0.736775 0.11672,-0.215951 0.29906,-0.392638 0.40509,-0.392638 0.10597,0 0.19631,0.09892 0.20066,0.219805 0.007,0.17108 0.0325,0.158282 0.11871,-0.05773 0.0609,-0.152645 0.41439,-0.724145 0.78535,-1.270002 0.37098,-0.545854 0.77387,-1.254653 0.89532,-1.575108 0.1215,-0.320454 0.26928,-0.582644 0.32852,-0.582644 0.0592,0 0.10769,0.248102 0.10769,0.551338 0,0.303236 -0.0876,1.01723 -0.1949,1.586654 -0.10715,0.569422 -0.28162,1.168705 -0.38763,1.331735 -0.10596,0.163034 -0.15789,0.38792 -0.11526,0.499749 0.0563,0.14787 0.25213,-0.06598 0.71794,-0.784049 0.58978,-0.909137 0.63883,-1.042113 0.61908,-1.67819 -0.012,-0.379951 0.0637,-1.132905 0.16787,-1.673232 0.14462,-0.750552 0.15593,-1.045243 0.0479,-1.248613 -0.14065,-0.264824 -0.14289,-0.264417 -0.43586,0.0788 -0.16196,0.189749 -0.29448,0.426625 -0.29448,0.526396 0,0.09977 -0.056,0.181401 -0.12469,0.181401 -0.0685,0 -0.12495,-0.155434 -0.12522,-0.345409 -6.2e-4,-0.334531 -0.0106,-0.329588 -0.30772,0.157003 -0.16889,0.276328 -0.30882,0.633301 -0.31096,0.793277 -0.003,0.159975 -0.0636,0.403215 -0.13649,0.540533 -0.0729,0.13732 -0.29878,0.35152 -0.50192,0.476003 -0.20313,0.124488 -0.59216,0.527316 -0.86454,0.895185 -0.27237,0.367868 -0.49521,0.771685 -0.49521,0.897374 0,0.130064 -0.094,0.232858 -0.21812,0.238591 -0.12004,0.0055 -0.66218,0.518919 -1.20492,1.140846 -0.54274,0.621926 -1.63648,1.694168 -2.43052,2.38276 -0.79406,0.68859 -2.14485,1.725921 -3.00176,2.30518 -0.85691,0.579257 -2.20304,1.393741 -2.99141,1.80996 -0.78836,0.416219 -1.49273,0.857884 -1.56526,0.981477 -0.0725,0.12359 -0.26329,0.443039 -0.42392,0.709877 -0.29206,0.485162 -0.29206,0.485162 0.13186,0.395898 0.23316,-0.0491 0.66286,-0.207064 0.95488,-0.351043 0.29204,-0.143978 0.62324,-0.364523 0.73602,-0.4901 0.11273,-0.125574 0.25244,-0.228322 0.31037,-0.228322 0.0579,0 0.1053,0.141304 0.1053,0.314008 0,0.172704 -0.0497,0.314008 -0.11034,0.314008 -0.0607,0 -0.20922,0.152123 -0.33013,0.338053 -0.12083,0.185929 -0.26257,0.529176 -0.31485,0.762771 -0.0781,0.34868 -0.0618,0.411863 0.0907,0.352908 0.10212,-0.0395 0.48104,-0.269354 0.84199,-0.510794 0.36097,-0.241439 0.83331,-0.474654 1.04964,-0.518256 0.22861,-0.04608 0.39334,-0.02741 0.39334,0.04458 0,0.06812 -0.2524,0.258779 -0.56089,0.423694 -0.30849,0.164915 -0.56089,0.338997 -0.56089,0.38685 0,0.04785 0.056,0.121942 0.12469,0.164632 0.0685,0.04269 0.12468,0.237719 0.12468,0.433385 0,0.29811 -0.0811,0.388498 -0.50108,0.5578 -0.2756,0.111126 -0.562,0.202043 -0.63644,0.202043 -0.0745,0 -0.34779,-0.169564 -0.60746,-0.376809 -0.25966,-0.207245 -0.53241,-0.376809 -0.60608,-0.376809 -0.0737,0 -0.10171,0.08477 -0.0622,0.188405 0.0595,0.156078 -0.0749,0.188728 -0.78292,0.190296 -0.47007,0.001 -1.07903,0.08334 -1.35324,0.18289 -0.27421,0.09955 -0.84912,0.183482 -1.27758,0.186515 -0.42845,0.0031 -0.77901,-0.04733 -0.77901,-0.111903 0,-0.06458 0.41962,-0.188463 0.93248,-0.275305 0.8879,-0.150342 0.92274,-0.168757 0.72854,-0.385002 -0.1122,-0.124904 -0.32146,-0.226494 -0.46508,-0.225747 -0.14361,7.54e-4 -0.53647,0.08553 -0.87299,0.188405 -0.33652,0.102869 -0.88339,0.187045 -1.21525,0.187045 -0.33188,0 -0.60341,-0.05048 -0.60341,-0.112171 0,-0.0617 0.0834,-0.144435 0.18545,-0.183876 0.10198,-0.03944 0.46783,-0.109463 0.81297,-0.155597 0.34514,-0.04613 0.65369,-0.126553 0.68568,-0.178702 0.032,-0.05215 -0.0254,-0.164661 -0.12748,-0.25003 -0.10211,-0.08536 -0.1856,-0.211104 -0.1856,-0.279416 0,-0.07311 0.17352,-0.0914 0.42179,-0.04446 0.32238,0.06094 0.43988,0.03221 0.49857,-0.121902 0.0422,-0.110898 0.0768,-0.23132 0.0768,-0.267602 0,-0.03628 -0.0981,-0.02737 -0.21812,0.01978 -0.12004,0.04717 -0.72292,0.227893 -1.33991,0.401614 -0.61698,0.173722 -1.87897,0.451347 -2.80444,0.616945 -0.92546,0.165598 -2.43987,0.341369 -3.36533,0.390602 -0.92548,0.04923 -1.58452,0.110603 -1.46455,0.136368 0.12004,0.02577 0.21812,0.0959 0.21812,0.155833 0,0.05994 -0.0615,0.14723 -0.13648,0.193982 -0.077,0.04796 0.0875,0.186062 0.37756,0.316919 0.39354,0.177553 0.59028,0.202706 0.8393,0.107305 0.17889,-0.06854 0.35757,-0.09207 0.39704,-0.05227 0.0394,0.03978 0.0119,0.168539 -0.0611,0.28612 -0.073,0.117586 -0.26736,0.220017 -0.43183,0.227638 -0.16447,0.0076 -0.48316,-0.01019 -0.7082,-0.03966 z m -0.77494,-1.118058 c 0,-0.02716 -0.15425,-0.04849 -0.34277,-0.04743 -0.24946,0.0013 -0.29494,0.03242 -0.16711,0.113981 0.0967,0.06163 0.25086,0.08298 0.34277,0.04743 0.0919,-0.03554 0.16711,-0.08684 0.16711,-0.113981 z m 12.09028,-0.30057 c -0.17138,-0.13509 -0.3677,-0.244995 -0.43625,-0.244234 -0.0685,7.55e-4 0.008,0.112547 0.16962,0.248413 0.16184,0.135865 0.35814,0.24577 0.43624,0.244234 0.0781,-0.0015 10e-4,-0.113324 -0.16961,-0.248413 z m -1.12178,-0.607852 c 0,-0.058 -0.14287,-0.171036 -0.31747,-0.251206 -0.17461,-0.08018 -0.37092,-0.145765 -0.43624,-0.145765 -0.0653,0 -0.11871,0.08007 -0.11871,0.177938 0,0.09787 0.0701,0.206446 0.1558,0.241289 0.0856,0.03485 0.282,0.06782 0.43624,0.07326 0.15425,0.0055 0.28045,-0.03753 0.28045,-0.09552 z m 16.92911,-16.327283 c 0.23022,-0.178476 0.28119,-0.322098 0.24928,-0.702349 -0.0401,-0.477997 -0.0401,-0.477997 -0.38151,0.227144 -0.18777,0.38783 -0.29995,0.703887 -0.24928,0.702351 0.0507,-0.0015 0.22235,-0.103753 0.38151,-0.227146 z m 1.37619,-1.088462 c 0.21505,-0.24683 0.39102,-0.556178 0.39102,-0.68744 0,-0.131257 -0.0632,-0.397772 -0.14039,-0.592243 -0.14039,-0.353585 -0.14039,-0.353585 -0.36424,0.148827 -0.12309,0.276327 -0.34034,0.80111 -0.48272,1.166184 -0.24512,0.628588 -0.24654,0.657139 -0.0268,0.538614 0.12761,-0.06884 0.40804,-0.327114 0.6231,-0.573942 z m 2.38044,-0.04392 c -0.0818,-0.02746 -0.19736,0.02762 -0.25694,0.122384 -0.0596,0.09477 -0.10916,0.223463 -0.11022,0.285982 -9.5e-4,0.06251 0.1146,0.0075 0.25694,-0.122398 0.16724,-0.152505 0.20625,-0.253728 0.11022,-0.28598 z m -1.36153,-1.945243 c -0.0515,-0.230284 -0.14677,-0.514255 -0.21164,-0.631048 -0.10012,-0.180308 -0.15065,-0.143214 -0.33476,0.245845 -0.11924,0.252008 -0.2004,0.468351 -0.18032,0.480763 0.02,0.01246 0.17673,0.08637 0.34811,0.164354 0.17138,0.07798 0.34777,0.145611 0.39196,0.150286 0.0442,0.0047 0.0383,-0.179914 -0.0134,-0.4102 z m 0.51745,-4.165812 c -0.0214,-0.552654 -0.045,-1.202648 -0.0527,-1.444434 -0.008,-0.241787 0.0651,-0.625849 0.16168,-0.853471 0.15307,-0.360624 0.15185,-0.428823 -0.009,-0.530166 -0.1538,-0.09657 -0.22025,0.06958 -0.39153,0.979074 -0.1134,0.602459 -0.24405,1.57581 -0.29021,2.163005 -0.0462,0.587194 -0.11114,1.165746 -0.14432,1.285675 -0.0389,0.140323 0.0868,0.07317 0.35253,-0.188404 0.4081,-0.401697 0.41248,-0.418221 0.37418,-1.411279 z m 1.60334,-5.46373 c -0.0744,-0.379948 -0.20948,-0.941365 -0.30028,-1.247592 -0.1651,-0.556777 -0.1651,-0.556777 -0.24182,0.81642 -0.0422,0.755257 -0.13286,1.562092 -0.20143,1.792966 -0.0685,0.230872 -0.0898,0.595573 -0.0471,0.810443 0.075,0.377728 0.0916,0.359654 0.50173,-0.545373 0.40445,-0.89251 0.41789,-0.968179 0.28897,-1.626864 z m -0.93688,-4.081109 c 0.0478,-0.449573 0.13643,-0.817406 0.19699,-0.817406 0.0606,0 0.11008,0.08479 0.11008,0.188404 0,0.10362 0.0527,0.188404 0.11725,0.188404 0.0645,0 0.15195,-0.05652 0.19432,-0.125601 0.0424,-0.06908 0.19374,-0.125601 0.33638,-0.125601 0.14264,0 0.33387,0.09892 0.42493,0.219805 0.15172,0.20141 0.16568,0.193523 0.16681,-0.0942 6.2e-4,-0.172705 -0.10384,-0.54725 -0.23234,-0.832324 -0.1284,-0.285076 -0.2959,-0.557135 -0.37207,-0.604575 -0.0762,-0.04745 -0.17216,0.0021 -0.21328,0.110107 -0.0412,0.108002 -0.14358,0.196365 -0.22769,0.196365 -0.0989,0 -0.29812,-0.764354 -0.56453,-2.166651 -0.2264,-1.191659 -0.56889,-2.816647 -0.76106,-3.611086 -0.19218,-0.794439 -0.43754,-1.693468 -0.54523,-1.99784 -0.10769,-0.304373 -0.16503,-0.584426 -0.12748,-0.622341 0.0376,-0.03792 0.23437,-0.0058 0.4372,0.07134 0.35906,0.136573 0.36669,0.131445 0.28916,-0.194078 -0.0438,-0.183894 -0.18905,-0.554337 -0.32279,-0.823206 -0.13373,-0.268867 -0.48918,-0.753887 -0.78986,-1.077822 -0.30068,-0.323932 -0.74419,-0.696148 -0.98557,-0.827141 -0.24138,-0.130989 -0.43888,-0.335552 -0.43888,-0.454572 0,-0.11902 0.0965,-0.270837 0.21451,-0.337371 0.20125,-0.113498 0.19918,-0.158215 -0.0335,-0.723811 -0.162,-0.393901 -0.42524,-0.735052 -0.75952,-0.984298 -0.28137,-0.209802 -0.88658,-0.655813 -1.34489,-0.991137 -0.45833,-0.335324 -1.04039,-0.890211 -1.29347,-1.233081 -0.43541,-0.5899 -0.46226,-0.606095 -0.49954,-0.301345 -0.0267,0.218646 0.1292,0.564174 0.48547,1.076078 0.28868,0.414711 0.57283,0.75402 0.63145,0.75402 0.0587,0 0.10663,0.06574 0.10663,0.146084 0,0.08035 0.3024,0.65969 0.67201,1.28743 0.36961,0.627741 0.90108,1.603632 1.18103,2.168644 0.27997,0.565015 0.70172,1.497617 0.93723,2.072451 0.23552,0.574833 0.63918,1.695145 0.89705,2.489584 0.28538,0.879231 0.56347,1.512533 0.71067,1.618465 0.20146,0.144985 0.23265,0.285588 0.18683,0.842402 -0.043,0.52327 -0.024,0.62568 0.0876,0.471727 0.0785,-0.10815 0.25115,-0.17579 0.38373,-0.150302 0.13252,0.02549 0.25805,0.165891 0.27884,0.31201 0.0207,0.146117 -0.0483,0.352448 -0.15357,0.458513 -0.1053,0.106072 -0.25534,0.214332 -0.33352,0.240594 -0.0992,0.03332 -0.11327,0.254994 -0.0466,0.733432 0.0955,0.685683 0.0955,0.685683 0.2334,0.286487 0.0758,-0.219557 0.18453,-0.445553 0.24155,-0.502214 0.057,-0.05665 0.18322,0.0066 0.28045,0.140595 0.0972,0.133992 0.17677,0.416955 0.17677,0.628818 0,0.211861 -0.13904,0.648391 -0.30896,0.970068 -0.28754,0.544293 -0.30356,0.668006 -0.23085,1.783319 0.0714,1.096054 0.0969,1.188276 0.29894,1.079361 0.15999,-0.08629 0.24474,-0.344221 0.30768,-0.936498 z m -3.19783,-7.669832 c -0.073,-0.27244 -0.18769,-0.55187 -0.25472,-0.620951 -0.0797,-0.08207 -0.0908,0.005 -0.0325,0.251205 0.0491,0.207245 0.13884,0.511821 0.19927,0.676837 0.0604,0.165014 0.13483,0.274877 0.16533,0.244142 0.0305,-0.03073 -0.004,-0.278789 -0.0774,-0.551233 z m -1.53798,-4.762053 c -0.24609,-0.599101 -0.67695,-1.551559 -0.95745,-2.116573 -0.2805,-0.565014 -0.52731,-1.04661 -0.54847,-1.070211 -0.0211,-0.0236 -0.12044,0.0047 -0.22046,0.06281 -0.14715,0.08548 0.0299,0.490132 0.92522,2.115362 0.60897,1.105306 1.1073,2.061459 1.10744,2.124784 1.3e-4,0.06333 0.032,0.08318 0.0708,0.04412 0.0388,-0.03906 -0.13093,-0.561185 -0.37699,-1.160288 z m -22.75226,47.547336 c 0,-0.06336 0.28319,-0.176399 0.62934,-0.251206 0.34614,-0.0748 0.68267,-0.13601 0.74785,-0.13601 0.0652,0 0.11858,0.07873 0.11858,0.174966 0,0.09624 -0.0887,0.209275 -0.19715,0.251206 -0.10849,0.04194 -0.44497,0.07624 -0.74786,0.07624 -0.30289,0 -0.55069,-0.05184 -0.55069,-0.115201 z m 14.58312,-2.499081 c 0,-0.05621 -0.33219,-0.07801 -0.7382,-0.04841 -0.73435,0.05353 -0.7384,0.05194 -0.77901,-0.305993 -0.0402,-0.354314 -0.0515,-0.359175 -0.74426,-0.31878 -0.43175,0.02518 -0.73715,-0.01397 -0.79074,-0.101342 -0.0481,-0.0783 -0.0551,-0.271706 -0.0157,-0.429796 0.0409,-0.163941 0.36718,-0.485213 0.75959,-0.747762 0.37839,-0.253179 0.688,-0.486002 0.688,-0.517382 0,-0.03138 -0.25705,0.05397 -0.57122,0.189688 -0.31418,0.135708 -0.62267,0.246743 -0.68554,0.246743 -0.0628,0 -0.11433,-0.07344 -0.11433,-0.163189 0,-0.08975 0.49078,-0.53393 1.09062,-0.987059 0.59984,-0.45313 1.2353,-0.858783 1.41212,-0.901453 0.17683,-0.04268 0.69024,-0.418054 1.14089,-0.834185 0.45067,-0.41613 0.87308,-0.756601 0.93871,-0.756601 0.0656,0 0.15375,0.292713 0.19579,0.650471 0.0487,0.415123 0.0246,0.713511 -0.0671,0.824702 -0.0789,0.09582 -0.31113,0.26158 -0.51599,0.36834 -0.24621,0.128309 -0.56199,0.172589 -0.93143,0.130627 -0.39916,-0.04534 -0.66062,-0.0011 -0.91465,0.154507 -0.35374,0.216776 -0.35432,0.219259 -0.10597,0.445771 0.13737,0.12528 0.24977,0.339308 0.24977,0.475619 0,0.228744 0.0312,0.221996 0.40508,-0.0876 0.22281,-0.184489 0.70594,-0.47647 1.07364,-0.648847 0.36771,-0.172376 1.00213,-0.63404 1.40983,-1.025916 0.59503,-0.571944 0.76399,-0.676318 0.85641,-0.529078 0.0633,0.100886 0.11592,0.448054 0.11698,0.771489 0.001,0.502366 -0.0491,0.624695 -0.34846,0.839468 -0.1927,0.138273 -0.48848,0.286339 -0.65731,0.329036 -0.16881,0.04269 -0.44583,0.02584 -0.6156,-0.03744 -0.21953,-0.08184 -0.42566,-0.05885 -0.71375,0.07959 -0.22281,0.107065 -0.4051,0.234664 -0.4051,0.28356 0,0.0489 0.0842,0.121433 0.18697,0.161201 0.11685,0.04518 0.18696,0.236958 0.18696,0.51143 0,0.309822 -0.073,0.478517 -0.24799,0.572879 -0.1364,0.07356 -0.33251,0.298427 -0.4358,0.499702 -0.11831,0.230659 -0.14188,0.394553 -0.0636,0.443302 0.0683,0.04254 0.12416,0.187049 0.12416,0.321135 0,0.134086 -0.0842,0.243793 -0.18696,0.243793 -0.10278,0 -0.18697,-0.046 -0.18697,-0.102212 z m -0.618,-1.360597 c 0.27414,-0.182813 0.47791,-0.353062 0.45283,-0.378333 -0.0251,-0.02527 -0.30666,0.07043 -0.62575,0.212664 -0.31907,0.142232 -0.58014,0.312483 -0.58014,0.378331 0,0.06585 0.0572,0.119731 0.12734,0.119731 0.07,0 0.35161,-0.149574 0.62575,-0.332388 z m 18.48483,-25.484441 c -0.0406,-0.106595 -0.0426,-0.225304 -0.004,-0.263782 0.0383,-0.03848 0.1292,-0.0327 0.20237,0.01287 0.0732,0.04553 0.13293,0.164238 0.13293,0.263784 0,0.09954 -0.0579,0.180991 -0.12854,0.180991 -0.0706,0 -0.16177,-0.08722 -0.20236,-0.193822 z M 77.245146,12.182474 c -0.39418,-0.245491 -0.71669,-0.498324 -0.71669,-0.561851 0,-0.06353 0.16632,-0.115509 0.3696,-0.115509 0.23566,0 0.52924,0.141258 0.81017,0.389821 0.24231,0.214401 0.44058,0.468747 0.44058,0.565214 0,0.09646 -0.0421,0.17388 -0.0935,0.172028 -0.0514,-0.0019 -0.41598,-0.204216 -0.81018,-0.449708 z m -0.93481,-2.134606 c -0.3599,-0.2387872 -0.65437,-0.4890212 -0.65437,-0.5560772 0,-0.06706 0.15818,-0.121928 0.35149,-0.121928 0.22299,0 0.54197,0.164294 0.8725,0.449397 0.28654,0.2471682 0.521,0.5015152 0.521,0.5652132 0,0.06371 -0.0981,0.111702 -0.21813,0.106676 -0.12004,-0.0051 -0.51258,-0.204507 -0.87249,-0.443292 z M 19.317726,9.4326708 c 0,-0.172704 0.056,-0.314008 0.12469,-0.314008 0.0685,0 0.12469,0.141304 0.12469,0.314008 0,0.172704 -0.056,0.314007 -0.12469,0.314007 -0.0685,0 -0.12469,-0.141303 -0.12469,-0.314007 z m 41.99401,-3.378879 c -0.0285,-0.02772 -0.54081,-0.1102182 -1.13834,-0.1833313 -0.59752,-0.073113 -1.35472,-0.2578676 -1.68267,-0.410567 -0.4975,-0.2316492 -0.82847,-0.2792992 -1.99821,-0.28768 -0.77107,-0.00552 -1.40208,-0.060408 -1.40222,-0.1219621 -1.2e-4,-0.061555 0.20756,-0.3865526 0.46158,-0.722217 0.42547,-0.5622151 0.50383,-0.6102991 0.99461,-0.6102991 0.29302,0 0.76073,0.091915 1.03934,0.2042569 0.36287,0.1463103 0.57578,0.3409252 0.75047,0.6860009 0.19273,0.380694 0.35008,0.5105598 0.75016,0.6191192 0.27845,0.075556 0.57584,0.1642765 0.66086,0.1971559 0.10982,0.042472 0.1402,-0.064501 0.10491,-0.3694656 -0.0274,-0.2360857 0.0137,-0.5487243 0.0912,-0.6947526 0.11857,-0.22319 0.26445,-0.2682239 0.91563,-0.2825602 0.77463,-0.017054 0.77463,-0.017054 -0.0979,-0.1175363 -0.47988,-0.055265 -1.28141,-0.1556275 -1.78118,-0.2230282 -0.49978,-0.0674 -1.03835,-0.2081645 -1.19685,-0.3128086 -0.15848,-0.1046438 -0.72122,-0.2509601 -1.25052,-0.3251467 -0.5293,-0.074186 -1.26674,-0.098835 -1.63877,-0.054775 -0.49532,0.058664 -0.67639,0.038743 -0.67639,-0.074418 0,-0.084991 0.21033,-0.4342163 0.4674,-0.7760553 0.46741,-0.621527 0.46741,-0.621527 1.18857,-0.565085 0.39663,0.03104 0.85955,0.147831 1.02872,0.259528 0.16916,0.111697 0.44334,0.419817 0.60928,0.684712 0.19355,0.3089742 0.42799,0.509367 0.65395,0.559012 0.19373,0.042563 0.4662,0.1103791 0.60551,0.1507041 0.2287,0.066197 0.24879,0.025761 0.20695,-0.416352 -0.032,-0.3380131 0.0179,-0.5544131 0.16111,-0.6987151 0.15135,-0.152512 0.4064,-0.204512 0.94311,-0.192286 0.48936,0.01115 0.83791,-0.05076 1.04107,-0.184905 0.16799,-0.110914 0.32353,-0.329651 0.34566,-0.486081 0.0222,-0.156429 0.14275,-0.304116 0.26806,-0.32819301 0.16752,-0.03219 0.217,0.0214 0.18696,0.20247101 -0.0287,0.172896 0.15406,0.401556 0.61351,0.767631 0.41137,0.327769 0.65437,0.617767 0.65437,0.780936 0,0.142754 -0.12615,0.3645863 -0.28045,0.4929607 -0.28044,0.233408 -0.28044,0.233408 0.0183,0.4484211 0.16434,0.1182574 0.48967,0.3838883 0.72295,0.5902914 0.26856,0.2376088 0.41043,0.4674417 0.38674,0.6265098 -0.0206,0.1381775 -0.1296,0.3094393 -0.24227,0.3805819 -0.14249,0.089978 -0.52189,0.080033 -1.24642,-0.032672 -0.57287,-0.089112 -1.1818,-0.1409037 -1.35318,-0.1150929 -0.23432,0.035292 -0.0566,0.1376253 0.7167,0.4126468 0.56556,0.2011444 1.02829,0.4124558 1.02829,0.4695808 0,0.057124 -0.35522,0.1038637 -0.7894,0.1038637 -0.43417,0 -0.81277,-0.02268 -0.84134,-0.0504 z m 1.00752,-2.643733 c 0,-0.08674 -0.33858,-0.2141809 -0.79339,-0.298628 -0.43635,-0.081022 -0.91311,-0.1473136 -1.05945,-0.1473136 -0.14634,0 -0.26608,0.043224 -0.26608,0.096054 0,0.05283 0.40665,0.2391275 0.90366,0.413995 0.58468,0.2057136 0.95865,0.2772184 1.05946,0.2025739 0.0856,-0.063452 0.1558,-0.1834583 0.1558,-0.2666813 z m -20.19202,2.1360935 c 0,-0.099677 0.39506,-0.4927232 0.87791,-0.8734366 0.48284,-0.3807134 1.19798,-0.8843327 1.58918,-1.1191543 0.3912,-0.2348215 0.97771,-0.499116 1.30333,-0.5873211 0.44633,-0.1208992 0.59206,-0.2199258 0.59206,-0.4023186 0,-0.16401 0.17063,-0.317711 0.52973,-0.477157 0.29135,-0.129366 1.03453,-0.323832 1.6515,-0.432146 0.61698,-0.108314 1.30407,-0.197115 1.52686,-0.197336 0.27717,-2.76e-4 0.4051,0.0591 0.4051,0.188003 0,0.132797 -0.13327,0.188405 -0.45151,0.188405 -0.39989,0 -0.43258,0.023 -0.28589,0.201101 0.13923,0.169054 0.33267,0.187079 1.21387,0.11311 0.82387,-0.06916 1.03693,-0.05371 0.9953,0.07214 -0.0291,0.08807 -0.41427,0.276158 -0.85586,0.417968 -0.56599,0.1817596 -1.14308,0.2586425 -1.95587,0.2605715 -1.153,0.00273 -1.153,0.00273 -1.15691,0.3795453 -0.003,0.2072449 -0.0722,0.4670354 -0.15574,0.5773121 -0.0835,0.1102772 -0.32848,0.2924759 -0.54436,0.404887 -0.21589,0.1124109 -1.05671,0.324214 -1.86849,0.4706728 -0.81179,0.1464589 -1.72889,0.3509414 -2.038,0.4544055 -0.30912,0.1034643 -0.68626,0.2677358 -0.8381,0.3650485 -0.15183,0.097312 -0.33412,0.1769321 -0.40508,0.1769321 -0.0709,0 -0.12907,-0.081554 -0.12907,-0.1812303 z m 7.9771,-0.569492 c 0,-0.067489 -0.12761,-0.207011 -0.28374,-0.3100486 -0.25003,-0.1650929 -0.36475,-0.1656138 -0.96597,-0.00438 -0.37524,0.1006256 -0.86865,0.1836256 -1.09648,0.1844454 -0.32713,0.00118 -0.40542,-0.044525 -0.3724,-0.2173581 0.023,-0.120367 0.18466,-0.2878331 0.35923,-0.372147 0.17456,-0.084314 0.65063,-0.2419351 1.05793,-0.3502691 0.4073,-0.1083337 1.17523,-0.231852 1.70651,-0.2744843 0.63328,-0.050817 0.96598,-0.032656 0.96598,0.052728 0,0.071632 -0.1947,0.1670469 -0.43265,0.2120319 -0.43265,0.081791 -0.43265,0.081791 -0.0416,0.4339647 0.26139,0.2353477 0.36486,0.4211828 0.31192,0.5602024 -0.0576,0.151286 -0.23327,0.2080285 -0.64402,0.2080285 -0.31064,0 -0.5648,-0.055218 -0.5648,-0.1227072 z"
     style="display:inline;fill:#ffffff;fill-opacity:0;stroke-width:0.12512162" />
</svg>
